<svg width="38" height="39" viewBox="0 0 38 39" fill="none" xmlns="http://www.w3.org/2000/svg">
<path fill-rule="evenodd" clip-rule="evenodd" d="M19 38.4975C29.4934 38.4975 38 29.8795 38 19.2487C38 8.61795 29.4934 0 19 0C8.50659 0 0 8.61795 0 19.2487C0 29.8795 8.50659 38.4975 19 38.4975Z" fill="#357CD4"/>
<path fill-rule="evenodd" clip-rule="evenodd" d="M9.5 19.9964C9.5 14.7066 13.9267 10.4264 19.3958 10.4264C24.8657 10.4264 29.2917 14.7074 29.2917 19.9964C29.2917 23.1893 27.6536 26.1604 24.9097 27.9439C24.6489 28.1135 24.308 28.1135 24.0472 27.9439C22.6713 27.0495 21.0643 26.5765 19.3997 26.5758L19.3955 26.5759L19.3923 26.5758C17.7275 26.5765 16.1204 27.0495 14.7444 27.9439C14.4836 28.1135 14.1427 28.1135 13.8818 27.9439C11.1381 26.1604 9.5 23.1893 9.5 19.9964ZM20.5263 25.1425C21.9151 25.2954 23.2489 25.7293 24.4521 26.4226C26.3178 25.0486 27.4943 22.9906 27.7093 20.744H26.1992C25.7722 20.744 25.4261 20.4093 25.4261 19.9964C25.4261 19.5835 25.7722 19.2487 26.1992 19.2487H27.7098C27.6232 18.3307 27.3774 17.4451 26.9856 16.622L25.6743 17.3542C25.3062 17.5597 24.8327 17.4399 24.6182 17.0805C24.4047 16.723 24.5314 16.2657 24.9012 16.0592L26.2107 15.3281C25.9403 14.9605 25.6364 14.6121 25.2999 14.2867C24.9634 13.9613 24.6031 13.6674 24.2231 13.4059L23.467 14.6723C23.2527 15.0314 22.7791 15.1515 22.411 14.9459C22.0412 14.7395 21.9145 14.2822 22.128 13.9246L22.8851 12.6565C22.0339 12.2775 21.1182 12.0399 20.1689 11.9561V13.417C20.1689 13.8299 19.8228 14.1647 19.3958 14.1647C18.9688 14.1647 18.6227 13.8299 18.6227 13.417V11.9561C17.6735 12.0399 16.7577 12.2775 15.9065 12.6565L16.6636 13.9246C16.8772 14.2822 16.7504 14.7395 16.3807 14.9459C16.0126 15.1514 15.5391 15.0317 15.3246 14.6723L14.5686 13.4059C14.1885 13.6674 13.8282 13.9613 13.4917 14.2867C13.1553 14.6121 12.8514 14.9606 12.581 15.3281L13.8905 16.0592C14.2602 16.2657 14.3869 16.723 14.1734 17.0805C13.959 17.4397 13.4855 17.5597 13.1174 17.3542L11.806 16.622C11.4142 17.4452 11.1684 18.3307 11.0818 19.2487H12.5924C13.0194 19.2487 13.3656 19.5835 13.3656 19.9964C13.3656 20.4093 13.0194 20.744 12.5924 20.744H11.0824C11.2974 22.9906 12.4739 25.0486 14.3396 26.4226C15.7176 25.6287 17.2667 25.1747 18.8736 25.0937L20.9893 20.1542C21.1527 19.7727 21.605 19.5915 21.9994 19.7495C22.3938 19.9076 22.5812 20.3449 22.4178 20.7264L20.5263 25.1425Z" fill="white"/>
</svg>
