<svg width="38" height="38" viewBox="0 0 38 38" fill="none" xmlns="http://www.w3.org/2000/svg">
<path fill-rule="evenodd" clip-rule="evenodd" d="M19 38C29.4934 38 38 29.4934 38 19C38 8.50659 29.4934 0 19 0C8.50659 0 0 8.50659 0 19C0 29.4934 8.50659 38 19 38Z" fill="#357CD4"/>
<path d="M22.64 13.9438H24.1621V24.75H22.4774V17.1856L19.2116 22.3109H18.2067L14.9408 17.1702V24.75H13.2561V13.9438H14.7782L18.7091 20.1342L22.64 13.9438Z" fill="white"/>
<path d="M29.689 12.9249C29.689 13.4367 29.416 13.8316 28.968 13.9925C29.451 14.146 29.885 14.5336 29.885 15.2649C29.885 16.3105 28.961 16.7274 27.981 16.7274C27.365 16.7274 26.868 16.625 26.329 16.391V15.3745C26.868 15.689 27.351 15.7694 27.897 15.7621C28.436 15.7621 28.884 15.5793 28.884 15.1113C28.884 14.6872 28.534 14.5336 28.058 14.5336H27.274L27.281 13.5976L27.939 13.6049C28.408 13.6049 28.695 13.4221 28.695 13.0784C28.695 12.7201 28.394 12.508 27.82 12.508C27.393 12.508 26.882 12.6543 26.413 12.9541V11.9377C26.84 11.6964 27.379 11.5501 27.967 11.5501C28.954 11.5501 29.689 12.0181 29.689 12.9249Z" fill="white"/>
</svg>
