<svg width="38" height="38" viewBox="0 0 38 38" fill="none" xmlns="http://www.w3.org/2000/svg">
<path fill-rule="evenodd" clip-rule="evenodd" d="M19 38C29.4934 38 38 29.4934 38 19C38 8.50659 29.4934 0 19 0C8.50659 0 0 8.50659 0 19C0 29.4934 8.50659 38 19 38Z" fill="#357CD4"/>
<path d="M15.1955 24.5294H13.4855V13.5765H15.0905L20.7455 21.5878C20.7305 21.2122 20.7305 20.7898 20.7305 20.3829V13.5765H22.4405V24.5294H20.8355L15.1805 16.5181C15.1955 16.8937 15.1955 17.3161 15.1955 17.7073V24.5294Z" fill="white"/>
<path d="M24.5003 22.3899C24.9976 22.0193 25.5732 21.8562 26.1629 21.8562C27.1363 21.8562 27.925 22.3158 27.925 23.346C27.925 24.1983 27.25 24.7023 26.6176 25.0952C26.0421 25.4509 25.5518 25.7252 25.5447 26.0513L27.9605 26.0439V27H24.3368V26.5034C24.3368 25.2879 25.2179 24.8135 25.9284 24.3762C26.4329 24.0723 26.8663 23.8722 26.8663 23.3905C26.8663 23.0199 26.5537 22.8272 26.0634 22.8272C25.5803 22.8272 25.0118 23.0199 24.5003 23.4275V22.3899Z" fill="white"/>
</svg>
