<svg width="177" height="136" viewBox="0 0 177 136" fill="none" xmlns="http://www.w3.org/2000/svg">
<circle cx="92" cy="68" r="68" fill="url(#paint0_linear)"/>
<path d="M107 72H128" stroke="#EB5757" stroke-width="2" stroke-linecap="round"/>
<rect x="46" y="96" width="27" height="15" fill="#B8BDCE"/>
<rect x="42" y="109" width="35" height="3" fill="#EEF1F3"/>
<rect x="12" y="33" width="95" height="66" rx="4" fill="#E6EAF0"/>
<rect x="16" y="39" width="87" height="51" rx="4" fill="#F7F9FB"/>
<path d="M61.0692 62.1395L59.2286 58.9267L59.8382 55.8377L53.2087 52L50.8523 54.0751H47.1653L44.8089 52L38.1852 55.8436L38.789 58.9326L36.9426 62.1395L34 63.1476V70.8465L36.9426 71.8546L38.7831 75.0615L38.1735 78.1505L44.7972 82L47.1536 79.9249H50.8406L53.197 82L59.8206 78.1505L59.2169 75.0674L61.0574 71.8605L64 70.8465V63.1476L61.0692 62.1395ZM49.0059 71.7131C46.415 71.7131 44.3165 69.6027 44.3165 66.9971C44.3165 64.3914 46.415 62.281 49.0059 62.281C51.5967 62.281 53.6952 64.3914 53.6952 66.9971C53.6893 69.6027 51.5967 71.7072 49.0059 71.7131Z" fill="#0C6EDA"/>
<path d="M82.8507 54.4356L81.501 52.0796L81.948 49.8143L77.0864 47L75.3583 48.5217H72.6546L70.9265 47L66.0692 49.8186L66.5119 52.0839L65.1579 54.4356L63 55.1749V60.8208L65.1579 61.56L66.5076 63.9118L66.0606 66.177L70.9179 69L72.646 67.4783H75.3497L77.0778 69L81.9351 66.177L81.4924 63.9161L82.8421 61.5644L85 60.8208V55.1749L82.8507 54.4356ZM74.0043 61.4563C72.1043 61.4563 70.5655 59.9086 70.5655 57.9978C70.5655 56.0871 72.1043 54.5394 74.0043 54.5394C75.9043 54.5394 77.4431 56.0871 77.4431 57.9978C77.4388 59.9086 75.9043 61.452 74.0043 61.4563Z" fill="#0D356C"/>
<path d="M56 67C56 70.866 52.866 74 49 74C45.134 74 42 70.866 42 67C42 63.134 45.134 60 49 60C52.866 60 56 63.134 56 67ZM45.3264 67C45.3264 69.0289 46.9711 70.6736 49 70.6736C51.0289 70.6736 52.6736 69.0289 52.6736 67C52.6736 64.9711 51.0289 63.3264 49 63.3264C46.9711 63.3264 45.3264 64.9711 45.3264 67Z" fill="#0057B6"/>
<circle r="1.5" transform="matrix(1 0 0 -1 98.5 94.5)" fill="#F7F9FB"/>
<circle r="1.5" transform="matrix(1 0 0 -1 88.5 94.5)" fill="#D7DEE9"/>
<circle r="1.5" transform="matrix(1 0 0 -1 93.5 94.5)" fill="#D7DEE9"/>
<circle r="1" transform="matrix(1 0 0 -1 60 36)" fill="#003399"/>
<path d="M100 60H115" stroke="#EB5757" stroke-width="2" stroke-linecap="round"/>
<path d="M119 60H122" stroke="#EB5757" stroke-width="2" stroke-linecap="round"/>
<path d="M126 60H127" stroke="#EB5757" stroke-width="2" stroke-linecap="round"/>
<rect x="154" y="100" width="2" height="12" fill="#D7DEE9"/>
<rect x="139" y="100" width="2" height="12" fill="#D7DEE9"/>
<path d="M136.011 39C136 39.5279 136 40.1716 136 41V92C136 93.858 136 94.787 136.123 95.5643C136.801 99.8433 140.157 103.199 144.436 103.877C145.213 104 146.142 104 148 104C149.858 104 150.787 104 151.564 103.877C155.843 103.199 159.199 99.8433 159.877 95.5643C160 94.787 160 93.858 160 92V41C160 40.1716 160 39.5279 159.989 39H161V35H159.166C157.824 31.9249 154.99 29.6657 151.564 29.1231C150.787 29 149.858 29 148 29C146.142 29 145.213 29 144.436 29.1231C141.01 29.6657 138.176 31.9249 136.834 35H135V39H136.011Z" fill="#E6EAF0"/>
<path d="M148.592 29.1448V26.296C148.592 23.9234 146.669 22 144.296 22V22C141.923 22 140 23.9234 140 26.296V90C140 93.3137 142.686 96 146 96H148.592H158C161.314 96 164 93.3137 164 90V82.1972C164 78.8835 161.314 76.1972 158 76.1972H148.592" stroke="#7C8793" stroke-width="3" stroke-linecap="round"/>
<path d="M127 66H145" stroke="#EB5757" stroke-width="2" stroke-linecap="round"/>
<path d="M120 66L123 66" stroke="#EB5757" stroke-width="2" stroke-linecap="round"/>
<path d="M115 66L116 66" stroke="#EB5757" stroke-width="2" stroke-linecap="round"/>
<defs>
<linearGradient id="paint0_linear" x1="24" y1="136" x2="187.942" y2="74.5723" gradientUnits="userSpaceOnUse">
<stop stop-color="#003399"/>
<stop offset="0.520833" stop-color="#0057B6"/>
<stop offset="1" stop-color="#5960EA"/>
</linearGradient>
</defs>
</svg>
