<svg width="177" height="136" viewBox="0 0 177 136" fill="none" xmlns="http://www.w3.org/2000/svg">
<circle cx="88" cy="68" r="68" fill="url(#paint0_linear)"/>
<rect x="44" y="68" width="101" height="47" fill="#F7F9FB"/>
<rect x="31" y="68" width="13" height="47" fill="#E6EAF0"/>
<rect x="44" y="111.488" width="101" height="3.5122" fill="#E6EAF0"/>
<rect x="81" y="113.829" width="4" height="1.17073" fill="url(#paint1_linear)"/>
<rect x="107" y="113.829" width="4" height="1.17073" fill="url(#paint2_linear)"/>
<path d="M60 65H71.7514V68.5122H60V65Z" fill="white"/>
<path d="M113.249 65H125V68.5122H113.249V65Z" fill="white"/>
<rect x="44" y="68" width="101" height="4" fill="#E6EAF0"/>
<rect x="31" y="68" width="13" height="4" fill="#B8BDCE"/>
<path d="M91 79H102V111H91V79Z" fill="#0D356C"/>
<path d="M102 79H104V111H102V79Z" fill="#D7DEE9"/>
<rect x="80" y="86" width="7" height="4" fill="#003399"/>
<rect x="116" y="79" width="22" height="15" fill="#D7DEE9"/>
<rect x="52" y="79" width="22" height="15" fill="#D7DEE9"/>
<path d="M31 111.488H44V115H31V111.488Z" fill="#B8BDCE"/>
<path d="M82.4945 30.8953C82.4367 30.3461 81.9446 29.9477 81.3953 30.0055C80.8461 30.0633 80.4477 30.5554 80.5055 31.1047L82.4945 30.8953ZM88.2892 31.0627L87.4412 31.5927L88.2892 31.0627ZM81.7439 33.3174L80.7494 33.4221L81.7439 33.3174ZM80.5055 31.1047L80.7494 33.4221L82.7384 33.2127L82.4945 30.8953L80.5055 31.1047ZM89.1372 30.5327L88.1431 28.9422L86.4471 30.0022L87.4412 31.5927L89.1372 30.5327ZM87 24.9563V0H85V24.9563H87ZM88.1431 28.9422C87.3961 27.747 87 26.3658 87 24.9563H85C85 26.7407 85.5014 28.4891 86.4471 30.0022L88.1431 28.9422ZM89.7686 33.6859C89.9487 32.593 89.7242 31.472 89.1372 30.5327L87.4412 31.5927C87.7703 32.1193 87.8962 32.7479 87.7952 33.3606L89.7686 33.6859ZM80.7494 33.4221C81.3049 38.6987 88.9056 38.9211 89.7686 33.6859L87.7952 33.3606C87.3114 36.2958 83.0499 36.1712 82.7384 33.2127L80.7494 33.4221Z" fill="#B8BDCE"/>
<path d="M145 90V61.5L85.1106 33L31 61.5V90" stroke="#EB5757" stroke-width="2"/>
<path d="M85 33L44 61.5V90" stroke="#EB5757" stroke-width="2"/>
<circle r="5" transform="matrix(1 0 0 -1 86 23)" fill="#EEF1F3"/>
<defs>
<linearGradient id="paint0_linear" x1="20" y1="136" x2="183.942" y2="74.5723" gradientUnits="userSpaceOnUse">
<stop stop-color="#003399"/>
<stop offset="0.520833" stop-color="#0057B6"/>
<stop offset="1" stop-color="#5960EA"/>
</linearGradient>
<linearGradient id="paint1_linear" x1="81" y1="115" x2="83.0837" y2="112.332" gradientUnits="userSpaceOnUse">
<stop stop-color="#003399"/>
<stop offset="0.520833" stop-color="#0057B6"/>
<stop offset="1" stop-color="#5960EA"/>
</linearGradient>
<linearGradient id="paint2_linear" x1="107" y1="115" x2="109.084" y2="112.332" gradientUnits="userSpaceOnUse">
<stop stop-color="#003399"/>
<stop offset="0.520833" stop-color="#0057B6"/>
<stop offset="1" stop-color="#5960EA"/>
</linearGradient>
</defs>
</svg>
