<svg width="177" height="137" viewBox="0 0 177 137" fill="none" xmlns="http://www.w3.org/2000/svg">
<circle cx="88" cy="69" r="68" fill="url(#paint0_linear)"/>
<mask id="mask0" mask-type="alpha" maskUnits="userSpaceOnUse" x="20" y="1" width="136" height="136">
<circle cx="88" cy="69" r="68" fill="url(#paint1_linear)"/>
</mask>
<g mask="url(#mask0)">
<path d="M39.1523 134.956H76.1844V78.5024L60.8979 61.7383L39.1523 66.2517V134.956Z" fill="#F7F9FB"/>
<path d="M36.2339 125.786L36.5688 145.87H77.1414L78.4093 125.786H36.2339Z" fill="#262C40"/>
<path d="M39.0591 129.251H78.4116V125.764H39.0591V129.251Z" fill="#0D356C"/>
<path d="M48.2188 64.8434L55.2041 69.9538L62.1895 64.8434V53.1658H48.2188V64.8434Z" fill="#F7F9FB"/>
<path d="M64.7017 53.0935C64.7017 53.0696 64.7256 53.0696 64.7256 53.0458C64.7734 53.0219 64.7974 52.998 64.8452 52.9741L64.7017 53.0935Z" fill="#FF5722"/>
<path d="M44.9893 40.1265C44.9893 37.7384 45.372 35.3265 46.1375 32.9384C46.3289 32.3175 46.5681 31.6966 46.9748 31.219C47.4054 30.7175 48.0513 30.3832 48.6733 30.4787C49.08 30.5504 49.5345 30.7892 49.8695 30.5743C50.0608 30.4549 50.1565 30.2638 50.2761 30.0728C51.6397 27.9713 55.9697 28.9504 58.027 28.9265C59.1992 28.9265 60.4193 28.9026 61.5197 29.3086C62.357 29.619 63.1225 30.1444 63.7684 30.7414C66.3282 33.1295 67.3807 36.7593 67.3568 40.2459C67.3329 42.8489 66.7827 45.4041 66.1129 47.9115C65.6344 49.7265 65.4669 52.425 63.7684 53.5712C62.5484 54.407 60.9695 55.0279 59.5102 55.3384C58.027 55.6488 56.4721 55.5533 54.965 55.4817C53.0512 55.3861 50.946 55.1951 49.6063 53.81C49.08 53.2608 48.7451 52.5921 48.4102 51.9235C47.9557 51.0399 47.5011 50.1563 47.0466 49.2727C46.6878 48.5802 46.3528 47.8877 46.1136 47.1712C45.3959 44.8309 45.0132 42.4906 44.9893 40.1265Z" fill="#262C40"/>
<path d="M46.8794 44.3295C46.8794 44.3295 44.8221 43.1116 44.8221 44.1863C44.8221 44.8072 44.5589 45.8818 44.9417 47.3146C45.2766 48.4848 46.1378 49.4161 47.2861 49.8221L48.6019 46.4788L46.8794 44.3295Z" fill="white"/>
<path d="M66.2324 43.3028L65.8736 50.2998C65.73 52.9744 64.7253 55.5535 62.9789 57.5834C61.9742 58.7535 60.5149 59.4222 58.9839 59.4222H57.4289C55.6347 59.4222 53.9123 58.849 52.4769 57.7983L51.1373 56.7953C48.9125 55.1475 47.501 52.5923 47.2857 49.8222L46.8073 43.661C46.5441 40.2938 48.0273 37.0222 50.7784 35.0401C52.5248 33.7983 54.7496 32.8431 57.405 33.0342C62.644 33.3924 66.4955 38.073 66.2324 43.3028Z" fill="white"/>
<path d="M62.1895 61.7383L69.0791 66.4905L75.5143 67.5413C76.7104 67.7323 77.8109 68.3293 78.6482 69.2129L96.3269 88.174C97.6666 89.6069 99.8196 89.9651 101.542 89.0337L116.996 80.6517L120.919 87.6009L102.523 101.858C100.442 103.481 97.5948 103.673 95.2982 102.359L84.3417 93.6188L81.7102 106.49L87.978 140.687L74.988 132.472C70.5145 129.631 68.5528 124.186 70.06 119.099C73.6723 106.92 75.2751 86.8845 62.2134 64.8666V61.7383H62.1895Z" fill="#0D356C"/>
<path d="M120.561 86.8851L123.384 84.7358H134.125L140.201 83.3985L143 80.6045C142.33 79.6732 141.014 79.4343 140.081 80.1269L138.383 81.3448L130.536 81.9896C129.603 82.0612 128.718 81.6075 128.264 80.8194L128.144 80.6284L131.063 78.2403C132.283 77.2373 132.235 75.3508 130.943 74.4194L120.561 80.2463L117.857 82.109L120.561 86.8851Z" fill="white"/>
<path d="M55.2041 69.9539L60.6106 75.4226L64.0076 68.0674L62.1895 64.8435L55.2041 69.9539Z" fill="#D7DEE9"/>
<path d="M55.2042 69.9534L52.6206 75.422L49.2475 72.6997L48.7451 65.2012L55.2042 69.9534Z" fill="#D7DEE9"/>
<path d="M55.2043 69.9536L59.6061 74.4193H53.0991L55.2043 69.9536Z" fill="#EB5757"/>
<path fill-rule="evenodd" clip-rule="evenodd" d="M42.3579 64.8428L48.2189 58.5623C50.5155 87.3383 50.7786 106.777 50.5155 118.598C50.3241 127.171 44.3435 134.502 35.9945 136.437L29.7558 137.889L30.0617 143.648L21.9998 143.505L17 109.595L25.2909 70.9083L25.2772 70.8607L42.3579 64.8428ZM32.1611 94.7809L28.2197 108.974L28.9635 122.976L34.6788 103.529L32.1611 94.7809Z" fill="#0D356C"/>
<path d="M58.4101 74.4194C58.4101 74.4194 67.2375 100.401 65.4911 116.76L59.7019 122.395L54.2715 116.449C54.2715 116.449 61.6875 95.8642 54.4629 74.4194H58.4101Z" fill="#EB5757"/>
<path d="M50.5157 118.598C50.5157 119.004 50.4678 119.41 50.4439 119.792L50.3482 120.7C50.3482 120.771 50.3243 120.867 50.3004 120.939L41.5208 74.3955L44.7264 69.9298L40.1812 67.3507L48.243 58.5388C50.5157 87.3387 50.7788 106.777 50.5157 118.598Z" fill="#B8BDCE"/>
<path d="M73.1221 71.5054C73.1221 71.5054 81.782 87.9352 70.06 119.052C73.6723 106.872 75.2751 86.8367 62.2134 64.8188V61.7144L69.1031 66.4666L66.2802 68.1621L73.1221 71.5054Z" fill="#B8BDCE"/>
<path d="M63.1945 31.6967C61.496 30.5505 59.63 30.3117 57.477 30.5982C54.989 30.9087 52.7642 31.4818 50.5155 32.6042C48.2668 33.7266 46.3769 35.7803 45.9942 38.2639C45.7549 39.7684 46.0659 41.2967 46.4008 42.7773C46.8554 44.7594 47.3338 46.7176 47.884 48.6758L48.5778 49.3445C47.3817 48.1982 48.3146 41.9415 49.128 40.6281C49.7022 39.6967 50.683 38.9564 51.7834 38.9803C52.7164 39.0042 53.5298 39.5534 54.3431 39.9833C57.2138 41.5594 60.7304 41.9415 63.8882 41.0102C64.4624 40.843 65.0365 40.6281 65.491 40.2221C66.0412 39.7206 66.3283 38.9803 66.4479 38.24C66.7589 36.2579 65.8977 34.1803 64.4624 32.7714C64.0557 32.3176 63.6251 31.9833 63.1945 31.6967Z" fill="#262C40"/>
</g>
<ellipse cx="129.88" cy="17.6522" rx="14.8831" ry="13.0227" transform="rotate(23.8701 129.88 17.6522)" fill="#B8BDCE"/>
<ellipse cx="131.12" cy="13.9315" rx="14.8831" ry="13.0227" transform="rotate(23.8701 131.12 13.9315)" fill="#E6EAF0"/>
<ellipse rx="6.86679" ry="6.00844" transform="matrix(-0.914465 0.404665 0.404665 0.914465 128.283 63.7051)" fill="#B8BDCE"/>
<ellipse rx="6.86679" ry="6.00844" transform="matrix(-0.914465 0.404665 0.404665 0.914465 127.711 62.2733)" fill="#E6EAF0"/>
<ellipse cx="112.772" cy="44.9455" rx="9.54043" ry="8.34787" transform="rotate(-32.8781 112.772 44.9455)" fill="#B8BDCE"/>
<ellipse cx="111.544" cy="43.1899" rx="9.54043" ry="8.34787" transform="rotate(-32.8781 111.544 43.1899)" fill="#E6EAF0"/>
<defs>
<linearGradient id="paint0_linear" x1="20" y1="137" x2="183.942" y2="75.5723" gradientUnits="userSpaceOnUse">
<stop stop-color="#003399"/>
<stop offset="0.520833" stop-color="#0057B6"/>
<stop offset="1" stop-color="#5960EA"/>
</linearGradient>
<linearGradient id="paint1_linear" x1="20" y1="137" x2="183.942" y2="75.5723" gradientUnits="userSpaceOnUse">
<stop stop-color="#003399"/>
<stop offset="0.520833" stop-color="#0057B6"/>
<stop offset="1" stop-color="#5960EA"/>
</linearGradient>
</defs>
</svg>
