<svg width="177" height="136" viewBox="0 0 177 136" fill="none" xmlns="http://www.w3.org/2000/svg">
<circle cx="92" cy="68" r="68" fill="url(#paint0_linear)"/>
<path fill-rule="evenodd" clip-rule="evenodd" d="M147.83 69.6842C147.83 59.3652 156.195 51 166.514 51H170.5V69.6842C170.5 85.7819 157.305 98.8316 141.028 98.8316L41.4716 98.8317C37.7154 98.8317 34.6705 101.843 34.6705 105.558C34.6705 114.639 27.3091 122 18.2284 122H12V105.558C12 89.4603 25.1949 76.4106 41.4716 76.4106L141.028 76.4105C144.785 76.4105 147.83 73.3991 147.83 69.6842Z" fill="#D7DEE9"/>
<path fill-rule="evenodd" clip-rule="evenodd" d="M166.163 65.0922L166.31 51L170.066 51.0387L169.92 65.1309C169.781 78.4393 158.889 89.1554 145.5 89.1554L36.556 89.1555C25.2309 89.1555 16.0159 98.2171 15.8933 109.474L15.7568 122L12 121.96L12.1364 109.434C12.2814 96.1299 23.1718 85.4207 36.556 85.4207L145.5 85.4206C156.829 85.4206 166.045 76.3532 166.163 65.0922Z" fill="#F7F9FB"/>
<rect x="44" y="67" width="95" height="40" fill="#F7F9FB"/>
<path d="M46 65L46 109L44 109C42.8954 109 42 108.105 42 107L42 67C42 65.8954 42.8954 65 44 65L46 65Z" fill="#E6EAF0"/>
<path d="M135 65L135 109L137 109C138.105 109 139 108.105 139 107L139 67C139 65.8954 138.105 65 137 65L135 65Z" fill="#E6EAF0"/>
<path d="M67 67H115C115 75.2843 108.284 82 100 82H82C73.7157 82 67 75.2843 67 67Z" fill="#EEF1F3"/>
<path d="M81 76H101V81C101 86.5228 96.5228 91 91 91C85.4772 91 81 86.5228 81 81V76Z" fill="#262C40"/>
<path d="M91 20C75.536 20 63 32.536 63 48C63 63.464 75.536 76 91 76C106.464 76 119 63.464 119 48C119 32.536 106.464 20 91 20Z" fill="white" stroke="#262C40" stroke-width="4"/>
<rect x="78" y="60" width="27" height="5" rx="2.5" fill="#D7DEE9"/>
<circle cx="91" cy="48" r="8" fill="#EEF1F3"/>
<path d="M73 46C73 36.6112 81.0589 29 91 29C100.941 29 109 36.6112 109 46" stroke="#E6EAF0" stroke-width="3" stroke-linecap="round"/>
<path d="M89.7273 50.0083C88.7733 49.4514 88.4514 48.2267 89.0083 47.2727L98.5867 30.8638C99.7004 28.9559 102.15 28.3121 104.058 29.4258L92.4628 49.2893C91.9059 50.2432 90.6812 50.5651 89.7273 50.0083Z" fill="#EB5757"/>
<path d="M61 95C61 93.8954 60.1046 93 59 93L57 93L57 97L59 97C60.1046 97 61 96.1046 61 95Z" fill="#003399"/>
<path d="M61 87C61 85.8954 60.1046 85 59 85L57 85L57 89L59 89C60.1046 89 61 88.1046 61 87Z" fill="#003399"/>
<path d="M61 79C61 77.8954 60.1046 77 59 77L57 77L57 81L59 81C60.1046 81 61 80.1046 61 79Z" fill="#003399"/>
<rect x="58" y="100" width="8" height="26" transform="rotate(-180 58 100)" fill="#EEF1F3"/>
<rect x="56" y="111" width="4" height="12" transform="rotate(-180 56 111)" fill="#D7DEE9"/>
<rect x="56" y="75" width="4" height="12" transform="rotate(-180 56 75)" fill="#D7DEE9"/>
<path d="M120 79C120 80.1046 120.895 81 122 81L124 81L124 77L122 77C120.895 77 120 77.8954 120 79Z" fill="#003399"/>
<path d="M120 87C120 88.1046 120.895 89 122 89L124 89L124 85L122 85C120.895 85 120 85.8954 120 87Z" fill="#003399"/>
<path d="M120 95C120 96.1046 120.895 97 122 97L124 97L124 93L122 93C120.895 93 120 93.8954 120 95Z" fill="#003399"/>
<rect x="123" y="74" width="8" height="26" fill="#EEF1F3"/>
<rect x="125" y="63" width="4" height="12" fill="#D7DEE9"/>
<rect x="125" y="99" width="4" height="12" fill="#D7DEE9"/>
<defs>
<linearGradient id="paint0_linear" x1="24" y1="136" x2="187.942" y2="74.5723" gradientUnits="userSpaceOnUse">
<stop stop-color="#003399"/>
<stop offset="0.520833" stop-color="#0057B6"/>
<stop offset="1" stop-color="#5960EA"/>
</linearGradient>
</defs>
</svg>
