<svg width="177" height="136" viewBox="0 0 177 136" fill="none" xmlns="http://www.w3.org/2000/svg">
<circle cx="92" cy="68" r="68" fill="url(#paint0_linear)"/>
<mask id="mask0" mask-type="alpha" maskUnits="userSpaceOnUse" x="24" y="0" width="136" height="136">
<circle cx="92" cy="68" r="68" fill="#0057B6"/>
</mask>
<g mask="url(#mask0)">
<path d="M115 101L115 136" stroke="#D7DEE9" stroke-width="4"/>
<path d="M72 -4L72 110.366C72 112.788 73.0973 115.08 74.9841 116.598L114 148" stroke="#003399" stroke-width="12"/>
</g>
<path d="M175 83H56.2348C54.1097 83 52.0719 83.8455 50.5711 85.35L18 118" stroke="#D7DEE9" stroke-width="15"/>
<path d="M9 43L127.765 43C129.89 43 131.928 42.1545 133.429 40.65L166 8" stroke="#E6EAF0" stroke-width="20"/>
<path d="M9 37L125.615 37C127.779 37 129.85 36.1235 131.357 34.5705L161.5 3.5" stroke="#F7F9FB" stroke-width="4"/>
<path d="M175 79L54.8529 79C52.7532 79 50.7376 79.8255 49.2412 81.2984L15 115" stroke="#F7F9FB" stroke-width="3"/>
<path d="M127.053 103.287L132.287 98.0525L150.883 116.649C152.328 118.094 152.328 120.437 150.883 121.883C149.438 123.328 147.094 123.328 145.649 121.883L127.053 103.287Z" fill="#262C40"/>
<path d="M96.6741 64.6152C86.5205 74.7688 86.5205 91.2311 96.6741 101.385C106.828 111.538 123.29 111.538 133.444 101.385C143.597 91.2311 143.597 74.7689 133.444 64.6152C123.29 54.4616 106.828 54.4616 96.6741 64.6152Z" fill="url(#paint1_linear)" stroke="#262C40" stroke-width="4"/>
<mask id="mask1" mask-type="alpha" maskUnits="userSpaceOnUse" x="90" y="59" width="49" height="49">
<path d="M97.9706 66.0297C88.5981 75.4023 88.5981 90.5982 97.9706 99.9708C107.343 109.343 122.539 109.343 131.912 99.9708C141.284 90.5982 141.284 75.4023 131.912 66.0297C122.539 56.6571 107.343 56.6571 97.9706 66.0297Z" fill="#262C40"/>
</mask>
<g mask="url(#mask1)">
<path d="M146 81H87.5" stroke="#D7DEE9" stroke-width="25"/>
<path d="M146 75H87.5" stroke="#F7F9FB" stroke-width="5"/>
<path d="M115 86L115 121" stroke="#D7DEE9" stroke-width="10"/>
<rect x="101" y="96.0002" width="6" height="7" rx="2" transform="rotate(-90 101 96.0002)" fill="#D7DEE9"/>
<rect x="122" y="96.0002" width="6" height="7" rx="2" transform="rotate(-90 122 96.0002)" fill="#D7DEE9"/>
<rect x="106" y="96.0002" width="3" height="18" transform="rotate(-90 106 96.0002)" fill="white"/>
<path d="M117 98L117 156.5" stroke="#F7F9FB" stroke-width="3"/>
</g>
<rect x="47.7812" y="32.375" width="7.4375" height="21.25" fill="#D7DEE9"/>
<rect x="49.9062" y="26" width="3.1875" height="8.5" fill="#B8BDCE"/>
<rect x="49.9062" y="51.5" width="3.1875" height="8.5" fill="#B8BDCE"/>
<rect x="128.626" y="28.4534" width="8.3633" height="23.8951" transform="rotate(-45 128.626 28.4534)" fill="#D7DEE9"/>
<rect x="125.247" y="21.6948" width="3.58427" height="9.55806" transform="rotate(-45 125.247 21.6948)" fill="#B8BDCE"/>
<rect x="145.522" y="41.9697" width="3.58427" height="9.55806" transform="rotate(-45 145.522 41.9697)" fill="#B8BDCE"/>
<path d="M113.768 70C114.538 68.6667 116.462 68.6667 117.232 70L122.212 78.625L127.191 87.25C127.961 88.5833 126.999 90.25 125.459 90.25H115.5H105.541C104.001 90.25 103.039 88.5833 103.809 87.25L108.788 78.625L113.768 70Z" fill="#EB5757"/>
<rect x="114" y="74" width="3" height="9" rx="1.5" fill="white"/>
<rect x="114" y="85" width="3" height="3" rx="1.5" fill="white"/>
<defs>
<linearGradient id="paint0_linear" x1="24" y1="136" x2="187.942" y2="74.5723" gradientUnits="userSpaceOnUse">
<stop stop-color="#003399"/>
<stop offset="0.520833" stop-color="#0057B6"/>
<stop offset="1" stop-color="#5960EA"/>
</linearGradient>
<linearGradient id="paint1_linear" x1="115.059" y1="49.0589" x2="89.4748" y2="105.304" gradientUnits="userSpaceOnUse">
<stop stop-color="#003399"/>
<stop offset="0.520833" stop-color="#0057B6"/>
<stop offset="1" stop-color="#5960EA"/>
</linearGradient>
</defs>
</svg>
