<svg width="282" height="130" viewBox="0 0 282 130" fill="none" xmlns="http://www.w3.org/2000/svg">
<rect width="282" height="130" fill="white"/>
<rect x="86" y="38" width="110" height="88" rx="5" fill="#D7DEE9"/>
<path d="M57 87.5H205.5C208.261 87.5 210.5 85.2614 210.5 82.5V36.5C210.5 33.7386 208.261 31.5 205.5 31.5H83.5C80.7386 31.5 78.5 33.7386 78.5 36.5V44.5C78.5 47.2614 80.7386 49.5 83.5 49.5H86" stroke="#0C6EDA" stroke-width="3"/>
<path d="M102 52L102 31L102 28C102 26.3431 103.343 25 105 25V25C106.657 25 108 26.3431 108 28L108 32" stroke="#003399" stroke-width="2"/>
<path d="M128 52L128 31L128 28C128 26.3431 129.343 25 131 25V25C132.657 25 134 26.3431 134 28L134 32" stroke="#003399" stroke-width="2"/>
<path d="M154 52L154 31L154 28C154 26.3431 155.343 25 157 25V25C158.657 25 160 26.3431 160 28L160 32" stroke="#003399" stroke-width="2"/>
<path d="M180 52L180 31L180 28C180 26.3431 181.343 25 183 25V25C184.657 25 186 26.3431 186 28L186 32" stroke="#003399" stroke-width="2"/>
<path d="M71 83H76V85.5C76 86.8807 74.8807 88 73.5 88V88C72.1193 88 71 86.8807 71 85.5V83Z" fill="#003399"/>
<path d="M73.652 68.0001C69.4258 68.0001 65.9999 71.4261 65.9999 75.6523C65.9999 79.8784 69.4258 83.3044 73.652 83.3044C77.8782 83.3044 81.3042 79.8784 81.3042 75.6523C81.3042 71.4261 77.8782 68.0001 73.652 68.0001Z" fill="#D7DEE9" stroke="#003399" stroke-width="2"/>
<rect x="70.3262" y="78.7224" width="6.90803" height="1.27926" rx="0.639632" fill="#D7DEE9"/>
<path d="M72.5022 76.8171C72.2248 76.6552 72.1312 76.2991 72.2931 76.0217L74.3171 72.5544C74.8183 71.6959 75.9205 71.4061 76.7791 71.9073V71.9073L74.0082 76.6541C73.7577 77.0834 73.2065 77.2282 72.7773 76.9776L72.5022 76.8171Z" fill="#EB5757"/>
<path d="M68 123H213V127H68V123Z" fill="#0057B6"/>
<path d="M84 117H86V123H84V117Z" fill="#0057B6"/>
<path d="M196 117H198V123H196V117Z" fill="#0057B6"/>
<path d="M243.244 128H39" stroke="#E0E8F0" stroke-width="2"/>
<path d="M93 57C93 52.0294 97.0294 48 102 48V48C106.971 48 111 52.0294 111 57V121C111 122.105 110.105 123 109 123H95C93.8954 123 93 122.105 93 121V57Z" fill="#F7F9FB"/>
<path d="M98 66C98 60.4772 102.477 56 108 56H109C110.105 56 111 56.8954 111 58V121C111 122.105 110.105 123 109 123H100C98.8954 123 98 122.105 98 121V66Z" fill="#EBF0F5"/>
<path d="M100 45H104V48H100V45Z" fill="#B8BDCE"/>
<ellipse cx="102" cy="43.5" rx="5" ry="1.5" fill="#0C6EDA"/>
<path d="M119 57C119 52.0294 123.029 48 128 48V48C132.971 48 137 52.0294 137 57V121C137 122.105 136.105 123 135 123H121C119.895 123 119 122.105 119 121V57Z" fill="#F7F9FB"/>
<path d="M124 66C124 60.4772 128.477 56 134 56H135C136.105 56 137 56.8954 137 58V121C137 122.105 136.105 123 135 123H126C124.895 123 124 122.105 124 121V66Z" fill="#EBF0F5"/>
<path d="M126 45H130V48H126V45Z" fill="#B8BDCE"/>
<ellipse cx="128" cy="43.5" rx="5" ry="1.5" fill="#0C6EDA"/>
<path d="M145 57C145 52.0294 149.029 48 154 48V48C158.971 48 163 52.0294 163 57V121C163 122.105 162.105 123 161 123H147C145.895 123 145 122.105 145 121V57Z" fill="#F7F9FB"/>
<path d="M150 66C150 60.4772 154.477 56 160 56H161C162.105 56 163 56.8954 163 58V121C163 122.105 162.105 123 161 123H152C150.895 123 150 122.105 150 121V66Z" fill="#EBF0F5"/>
<path d="M152 45H156V48H152V45Z" fill="#B8BDCE"/>
<ellipse cx="154" cy="43.5" rx="5" ry="1.5" fill="#0C6EDA"/>
<path d="M171 57C171 52.0294 175.029 48 180 48V48C184.971 48 189 52.0294 189 57V121C189 122.105 188.105 123 187 123H173C171.895 123 171 122.105 171 121V57Z" fill="#F7F9FB"/>
<path d="M176 66C176 60.4772 180.477 56 186 56H187C188.105 56 189 56.8954 189 58V121C189 122.105 188.105 123 187 123H178C176.895 123 176 122.105 176 121V66Z" fill="#EBF0F5"/>
<path d="M178 45H182V48H178V45Z" fill="#B8BDCE"/>
<ellipse cx="180" cy="43.5" rx="5" ry="1.5" fill="#0C6EDA"/>
</svg>
