<svg width="282" height="130" viewBox="0 0 282 130" fill="none" xmlns="http://www.w3.org/2000/svg">
<g clip-path="url(#clip0)">
<rect width="282" height="130" fill="white"/>
<path d="M79 55.4286L85 50V58H79V55.4286Z" fill="#B8BDCE"/>
<path d="M164 55.4286L170 50V58H164V55.4286Z" fill="#B8BDCE"/>
<rect x="69" y="56" width="169" height="73" fill="#D7DEE9"/>
<path d="M55 73L69 56V129H55V73Z" fill="#B8BDCE"/>
<rect x="69" y="125" width="169" height="4" fill="#0057B6"/>
<path d="M85 50H103V56H85V50Z" fill="#D7DEE9"/>
<path d="M170 50H187V56H170V50Z" fill="#D7DEE9"/>
<path d="M141 73H162V125H141V73Z" fill="#B8BDCE"/>
<path d="M138 73H159V125H138V73Z" fill="#0D356C"/>
<path d="M55 125H69V129H55V125Z" fill="#003399"/>
<rect x="119" y="86" width="10" height="5" fill="#003399"/>
<path d="M247 130H42.7559" stroke="#E0E8F0" stroke-width="2"/>
<path d="M112.561 56V50.5C112.561 47.7386 110.322 45.5 107.561 45.5H67.5C64.7386 45.5 62.5 47.7386 62.5 50.5V104.555C62.5 107.316 60.2614 109.555 57.5 109.555H40" stroke="#0C6EDA" stroke-width="3"/>
<path d="M82.5 87V111.5C82.5 114.261 80.2614 116.5 77.5 116.5H35" stroke="#003399" stroke-width="3"/>
<path d="M212 30C209.12 34.6667 187.04 43.3333 180 43.3333C180 59 180 63 180 76.6667C180 92.6667 210.4 109.333 212 110C213.6 109.333 244 89.6667 244 76.6667C244 63 244 59 244 43.3333C231.2 43.3333 214.88 34.6667 212 30Z" fill="#EBF0F5"/>
<path d="M180 43.3333C187.04 43.3333 209.12 34.6667 212 30V110C210.4 109.333 180 92.6667 180 76.6667V43.3333Z" fill="#F7F9FB"/>
<path d="M225.572 60.7223C225.572 63.9077 224.656 66.6681 222.026 68.0206C225.317 69.0616 226.818 72.1654 226.818 75.8326C226.818 80.3528 221.192 84.2462 220.176 84.1317C219.159 84.0172 218.128 91 211.526 91C207.051 91 203.347 87.4515 203.347 84.6469C203.347 81.8423 201.526 79.7828 201.526 77.0917C201.526 75.4712 201.993 73.9607 202.797 72.6896L202.795 72.6595C202.582 72.6764 202.367 72.685 202.15 72.685C197.675 72.685 195.818 69.0206 195.818 64.5004C195.818 59.9801 197.675 56.3158 202.15 56.3158C204.153 56.3158 205.38 55.731 207.776 56.2052C210.28 56.7009 214.188 53 217.518 53C221.993 53 225.572 56.202 225.572 60.7223Z" fill="white"/>
<path fill-rule="evenodd" clip-rule="evenodd" d="M209.561 57.2696C209.027 57.4078 208.481 57.0863 208.343 56.5516L206.095 47.854C205.957 47.3192 206.279 46.7738 206.813 46.6356C207.348 46.4974 207.893 46.8188 208.032 47.3536L210.279 56.0512C210.418 56.5859 210.096 57.1314 209.561 57.2696ZM233.588 50.9311C233.997 50.56 234.028 49.9276 233.657 49.5185C233.286 49.1095 232.653 49.0786 232.244 49.4496L228.042 53.261C227.633 53.632 227.602 54.2644 227.973 54.6735C228.344 55.0826 228.977 55.1134 229.386 54.7424L233.588 50.9311ZM217.911 54.4679C221.756 54.4679 224.925 57.636 224.925 61.4814C224.925 63.3028 224.189 65.0395 223.021 66.2166C222.293 65.9029 221.509 65.6824 220.682 65.5721C220.134 65.4991 219.631 65.8837 219.558 66.4312C219.485 66.9786 219.87 67.4816 220.417 67.5546C224.247 68.0652 226.898 71.6386 226.306 75.4857C226.168 76.2412 225.987 76.8933 225.703 77.4744L222.728 75.1557C222.292 74.8162 221.664 74.8942 221.324 75.3299C220.985 75.7655 221.063 76.3938 221.498 76.7333L229.023 82.5969C229.459 82.9363 230.087 82.8584 230.427 82.4227C230.766 81.9871 230.688 81.3587 230.253 81.0193L227.305 78.7227C227.827 77.8004 228.097 76.8195 228.277 75.8308C228.278 75.8224 228.279 75.814 228.281 75.8056C228.81 72.4065 227.364 69.1563 224.797 67.2423C226.134 65.706 226.925 63.6285 226.925 61.4814C226.925 56.5314 222.861 52.4679 217.911 52.4679C215.501 52.4679 213.402 53.3508 211.756 54.8868C211.352 55.2636 211.33 55.8964 211.707 56.3002C212.084 56.7039 212.717 56.7257 213.121 56.3489C214.407 55.1486 216.021 54.4679 217.911 54.4679ZM224.439 81.9484C224.894 81.6355 225.009 81.0129 224.696 80.5578C224.383 80.1027 223.761 79.9874 223.306 80.3003C221.95 81.2326 220.248 81.6626 218.443 81.4048C217.897 81.3267 217.39 81.7066 217.312 82.2533C217.234 82.8001 217.614 83.3066 218.16 83.3847C220.46 83.7133 222.668 83.166 224.439 81.9484ZM211.751 83.8407C212.28 83.6808 212.579 83.1227 212.419 82.5941C212.259 82.0654 211.701 81.7664 211.172 81.9262C208.736 82.6628 206.185 81.968 204.447 80.3177C204.437 79.9057 204.171 79.5262 203.757 79.3914C203.707 79.3751 203.657 79.363 203.607 79.3549C203.14 78.7073 202.779 77.966 202.556 77.1477L202.553 77.1354L202.548 77.1214C201.442 73.4607 203.569 69.5181 207.347 68.4017C207.877 68.2453 208.179 67.689 208.023 67.1594C207.866 66.6297 207.31 66.3272 206.78 66.4837C204.243 67.2333 202.277 68.9864 201.193 71.1706C197.821 70.1149 195.696 66.6603 196.414 63.1486C197.185 59.3786 200.868 56.9069 204.616 57.6735C205.157 57.7841 205.685 57.4352 205.796 56.8941C205.906 56.3531 205.557 55.8247 205.016 55.714C200.164 54.7215 195.442 57.9179 194.454 62.7478C193.531 67.2629 196.235 71.6651 200.506 73.0509C200.145 74.5358 200.161 76.1277 200.63 77.6871C200.962 78.8975 201.528 79.977 202.264 80.8929C201.289 85.3796 203.997 89.9258 208.435 91.2675C213.154 92.6941 218.216 90.0656 219.65 85.3225C219.81 84.7938 219.511 84.2357 218.982 84.0759C218.453 83.9161 217.895 84.2151 217.735 84.7437C216.629 88.4051 212.7 90.4674 209.014 89.3531C205.979 88.4355 204.003 85.6007 204.069 82.5872C206.23 84.1112 209.044 84.6591 211.751 83.8407ZM215.892 72.384C217.755 69.4211 216.902 65.5468 213.959 63.697C213.491 63.4031 213.351 62.7858 213.645 62.3182C213.938 61.8506 214.556 61.7098 215.023 62.0037C218.921 64.4539 220.023 69.5704 217.586 73.4483C217.292 73.9159 216.674 74.0567 216.207 73.7628C215.739 73.4689 215.598 72.8515 215.892 72.384ZM216.322 77.8472C216.78 77.5374 216.899 76.9157 216.589 76.4584C216.28 76.0012 215.658 75.8816 215.201 76.1914C212.634 77.9298 209.137 77.2804 207.293 74.6815C206.973 74.2311 206.349 74.1251 205.899 74.4447C205.448 74.7643 205.342 75.3886 205.662 75.839C208.118 79.299 212.83 80.2132 216.322 77.8472ZM211.764 60.1732C211.677 60.7185 211.164 61.0899 210.619 61.0026C208.753 60.704 206.897 62.0537 206.586 64.0763C206.502 64.6221 205.991 64.9966 205.445 64.9126C204.9 64.8286 204.525 64.318 204.609 63.7722C205.08 60.7129 207.915 58.5445 210.935 59.0277C211.48 59.115 211.852 59.6278 211.764 60.1732ZM197.137 54.5332C197.539 54.9122 198.172 54.8938 198.551 54.492C198.93 54.0903 198.911 53.4574 198.51 53.0784L193.33 48.1921C192.929 47.8131 192.296 47.8316 191.917 48.2333C191.538 48.635 191.556 49.2679 191.958 49.6469L197.137 54.5332ZM199.857 77.6026C200.183 78.0487 200.085 78.6743 199.639 78.9998L192.407 84.277C191.961 84.6026 191.336 84.5049 191.01 84.0587C190.685 83.6126 190.782 82.987 191.228 82.6615L198.46 77.3842C198.906 77.0587 199.532 77.1564 199.857 77.6026Z" fill="#003399"/>
</g>
<defs>
<clipPath id="clip0">
<rect width="282" height="130" fill="white"/>
</clipPath>
</defs>
</svg>
