<?xml version="1.0" standalone="no"?>
<!DOCTYPE svg PUBLIC "-//W3C//DTD SVG 20010904//EN"
 "http://www.w3.org/TR/2001/REC-SVG-20010904/DTD/svg10.dtd">
<svg version="1.0" xmlns="http://www.w3.org/2000/svg"
 width="499.000000pt" height="499.000000pt" viewBox="0 0 499.000000 499.000000"
 preserveAspectRatio="xMidYMid meet">
<metadata>
Created by potrace 1.11, written by Peter Selinger 2001-2013
</metadata>
<g transform="translate(0.000000,499.000000) scale(0.100000,-0.100000)"
fill="#000000" stroke="none">
<path d="M1637 3963 c-13 -23 -408 -734 -426 -768 -12 -22 -26 -47 -31 -55
-15 -24 -135 -240 -169 -305 -18 -33 -40 -73 -50 -90 -10 -16 -32 -57 -51 -90
-18 -33 -40 -73 -50 -90 -9 -16 -31 -55 -47 -85 -16 -30 -75 -136 -130 -235
-55 -99 -112 -200 -126 -225 -13 -25 -125 -225 -247 -445 -122 -220 -238 -429
-257 -465 -20 -36 -40 -71 -46 -78 -8 -10 59 -12 339 -10 l349 3 128 230 128
230 1070 0 1070 0 193 200 c106 110 240 248 296 308 57 59 106 107 109 107 6
0 24 -31 83 -140 47 -87 87 -158 108 -195 10 -16 32 -57 50 -90 70 -127 119
-216 195 -350 85 -150 125 -223 147 -267 l18 -38 345 0 c190 0 345 2 345 4 0
2 -17 35 -38 73 -22 37 -52 93 -69 123 -17 30 -39 71 -50 90 -54 96 -271 487
-293 528 -14 26 -41 74 -59 107 -19 33 -44 78 -56 100 -12 22 -53 96 -92 165
-38 69 -85 152 -103 185 -18 33 -39 71 -47 85 -8 14 -26 48 -42 75 -57 105
-106 192 -133 238 -15 26 -28 50 -28 52 0 2 -13 26 -28 52 -16 26 -48 84 -72
128 -24 44 -51 94 -60 110 -9 17 -32 57 -50 90 -78 140 -70 197 -72 -500 l-3
-619 -1188 -1 c-654 0 -1190 2 -1192 6 -2 3 33 70 77 150 44 79 97 174 117
210 20 36 137 248 261 472 l225 406 810 0 c446 0 829 0 853 0 l42 1 0 310 0
310 -1024 0 c-564 0 -1027 -3 -1029 -7z"/>
</g>
</svg>
