<svg xmlns="http://www.w3.org/2000/svg" width="96" height="29.7" viewBox="0 0 96 29.7" class="header-logo__mob" fill="#003399">
   <defs>
      <style>
         .cls-1 {
         fill-rule: evenodd;
         }
      </style>
   </defs>
   <polygon class="cls-1" points="41.52 15.75 32.75 15.75 28.21 7.88 32.76 0 51.05 0 51.05 3.32 34.65 3.32 32.02 7.87 34.66 12.43 44.84 12.43 41.52 15.75"/>
   <polygon class="cls-1" points="41.67 6.22 51.05 6.22 47.74 9.53 41.67 9.53 41.67 6.22"/>
   <rect class="cls-2" x="51.05" y="6.22" width="3.32" height="9.53"/>
   <polygon class="cls-1" points="27.64 15.75 20.46 3.32 20.46 9.95 23.82 15.75 27.64 15.75"/>
   <path class="cls-1" d="M7.18,10H20.47l-3.32,3.32H5.26L3.83,15.75H0L9.1,0H20.47V3.32H11Z"/>
   <polygon class="cls-1" points="57.15 6.22 60.74 0 79.04 0 79.04 3.32 62.64 3.32 60.97 6.22 57.15 6.22"/>
   <polygon class="cls-1" points="62.88 9.53 78.95 9.53 80.63 12.43 83.05 10.01 80.86 6.22 60.97 6.22 62.88 9.53"/>
   <polygon class="cls-1" points="59.94 12.43 80.63 12.43 77.31 15.75 56.62 15.75 59.94 12.43"/>
   <path class="cls-1" d="M5.63,28h1l-2-6H3.06l-2,6h1l.54-1.71H5.08L5.63,28Zm-2-5H4l.76,2.38H2.91L3.67,23Zm5.38.63c-1.14,0-1.84.95-1.84,2.23s.69,2.24,1.84,2.24a1.49,1.49,0,0,0,1.25-.52h.2V28h.91V22h-.94v2.23h-.2a1.41,1.41,0,0,0-1.22-.52Zm.27,3.67c-.78,0-1.16-.61-1.16-1.44s.38-1.43,1.16-1.43,1.18.69,1.18,1.43-.36,1.44-1.18,1.44ZM16,24.91c-.09-.74-.71-1.24-1.75-1.24-1.2,0-1.74.58-1.74,1.29s.45,1,1.08,1.12l.89.15c.49.1.69.25.69.57s-.35.55-.89.55-.91-.17-1-.61h-.94c.09.85.7,1.4,1.95,1.4s1.82-.65,1.82-1.36-.52-1.2-1.3-1.32L14,25.32c-.36-.06-.55-.15-.55-.42s.31-.44.77-.44.78.1.84.45Zm3-1.24A2.07,2.07,0,0,0,16.9,25.9a2.15,2.15,0,1,0,4.29,0A2.07,2.07,0,0,0,19,23.67Zm0,3.67c-.82,0-1.2-.68-1.2-1.44s.38-1.43,1.2-1.43,1.21.69,1.21,1.43-.38,1.44-1.21,1.44Zm5.86-3.56h-.36a1.42,1.42,0,0,0-1.19.49h-.2v-.49h-.91V28h1V26a1.21,1.21,0,0,1,1.32-1.38h.39v-.88Zm7.31,0V22.54h-.94v1.24h-.68v.8h.68v2.2c0,1,.63,1.25,1.58,1.25h.36v-.82h-.35c-.47,0-.65-.2-.65-.56V24.58h1v-.8Zm3.09-.91V22h-1v.91Zm0,.91h-.94V28h.94V23.78Zm3.22-.11a2.07,2.07,0,0,0-2.15,2.23,2.15,2.15,0,1,0,4.29,0,2.07,2.07,0,0,0-2.14-2.23Zm0,3.67c-.83,0-1.2-.68-1.2-1.44s.37-1.43,1.2-1.43,1.2.69,1.2,1.43-.38,1.44-1.2,1.44Zm7.13.69V25.37a1.49,1.49,0,0,0-1.6-1.7,1.44,1.44,0,0,0-1.22.52h-.2v-.41H41.7V28h.94V25.76a1.15,1.15,0,0,1,1.1-1.25c.63,0,.95.35.95,1V28Zm6.09-3.24v.85h1.63a1.44,1.44,0,0,1-1.54,1.6c-1.25,0-1.81-1-1.81-2.19s.57-2.18,1.81-2.18a1.2,1.2,0,0,1,1.33.83h1A2.21,2.21,0,0,0,51.81,22,2.77,2.77,0,0,0,49,25.05c0,1.77,1,3.09,2.82,3.09a2.45,2.45,0,0,0,2.56-2.7v-.65ZM58.14,28H59V25.21c0-1.06-.73-1.54-1.83-1.54s-1.72.48-1.76,1.29h.94c0-.33.31-.55.85-.55s.89.31.89.78v.13H56.85c-1.23,0-1.69.75-1.69,1.42a1.41,1.41,0,0,0,1.52,1.4,1.51,1.51,0,0,0,1.26-.5h.2V28ZM57,27.37c-.55,0-.86-.25-.86-.69s.3-.7.9-.7H58.1v.33A1.08,1.08,0,0,1,57,27.37Zm6.6-2.46c-.09-.74-.71-1.24-1.75-1.24-1.2,0-1.74.58-1.74,1.29s.45,1,1.09,1.12l.88.15c.49.1.69.25.69.57s-.35.55-.89.55-.91-.17-1-.61h-.94c.09.85.7,1.4,2,1.4s1.82-.65,1.82-1.36-.52-1.2-1.3-1.32l-.82-.14c-.36-.06-.55-.15-.55-.42s.31-.44.77-.44.78.1.84.45Zm7.83-1.27A2,2,0,0,0,69.16,22c-1.41,0-2.17.76-2.17,1.71s.56,1.39,1.48,1.57l1.16.23c.54.1.9.32.9.88s-.53.91-1.27.91-1.36-.24-1.5-1h-1a2.2,2.2,0,0,0,2.48,1.86c1.57,0,2.32-.86,2.32-1.83S70.89,24.8,70,24.6l-1.12-.22c-.45-.08-.86-.24-.86-.73s.51-.81,1.14-.81,1.13.26,1.25.8ZM74,29.7l2.55-5.92h-1l-1.07,2.56H74.3l-1.19-2.56h-1l1.8,3.83-.87,2.09Zm6.66-4.79c-.09-.74-.71-1.24-1.74-1.24-1.21,0-1.75.58-1.75,1.29s.45,1,1.09,1.12l.88.15c.49.1.69.25.69.57s-.35.55-.89.55-.91-.17-1-.61H77c.09.85.7,1.4,2,1.4s1.82-.65,1.82-1.36-.52-1.2-1.3-1.32l-.82-.14c-.36-.06-.55-.15-.55-.42s.31-.44.77-.44.78.1.84.45ZM83,23.78V22.54H82v1.24h-.68v.8H82v2.2c0,1,.63,1.25,1.57,1.25H84v-.82h-.35c-.48,0-.65-.2-.65-.56V24.58h1v-.8Zm5.9,1.89a1.89,1.89,0,0,0-2-2,2,2,0,0,0-2.09,2.2,2.06,2.06,0,0,0,2.12,2.27,1.72,1.72,0,0,0,1.89-1.35h-1a.85.85,0,0,1-.92.55c-.77,0-1.17-.49-1.2-1.36h3.14v-.31Zm-2-1.25a1,1,0,0,1,1,.86H85.76a1,1,0,0,1,1.11-.86Zm7.69-.75a1.39,1.39,0,0,0-1.17.52h-.2a1.25,1.25,0,0,0-1.11-.52,1.14,1.14,0,0,0-1.06.49h-.2v-.38H89.9V28h.95V25.72c0-.66.28-1.21.91-1.21s.72.35.72,1V28h1V25.61c0-.64.31-1.1.9-1.1s.73.33.73,1V28H96V25.32c0-1-.44-1.65-1.44-1.65Zm-66.68.8c.77,0,1.16.61,1.16,1.43s-.39,1.44-1.16,1.44-1.18-.68-1.18-1.44.35-1.43,1.18-1.43Zm-2.1-.69V29.7h.95V27.62h.2a1.4,1.4,0,0,0,1.22.52c1.14,0,1.83-.95,1.83-2.24s-.68-2.23-1.83-2.23a1.52,1.52,0,0,0-1.26.52h-.2v-.41Z"/>
</svg>