<svg width="39" height="46" viewBox="0 0 39 46" fill="none" xmlns="http://www.w3.org/2000/svg">
<g filter="url(#filter0_d)">
<path d="M31.1469 26.7345H31.1427C34.4114 20.9256 33.1447 13.5464 28.1381 9.23411C23.1316 4.92213 15.8311 4.92213 10.8246 9.23411C5.81828 13.5464 4.55126 20.9256 7.81996 26.7345L7.83359 26.7548C8.14666 27.3089 8.49702 27.8399 8.88216 28.3437L17.3884 38.7153H17.3992C18.0028 39.3348 18.2541 39.9572 19.5006 39.9572C20.747 39.9572 21.2671 39.0598 21.6019 38.7153H21.6127L30.1273 28.2857C30.4888 27.8073 30.8191 27.3052 31.1166 26.7825L31.1469 26.7345Z" fill="white"/>
</g>
<path d="M30.5945 19.7631C30.5945 26.0627 25.6189 31.1696 19.4811 31.1696C13.3433 31.1696 8.36761 26.0627 8.36761 19.7631C8.36761 13.4635 13.3433 8.35669 19.4811 8.35669C25.6189 8.35669 30.5945 13.4635 30.5945 19.7631Z" fill="#3592EF"/>
<defs>
<filter id="filter0_d" x="0.0140991" y="0.00012207" width="38.9346" height="45.9571" filterUnits="userSpaceOnUse" color-interpolation-filters="sRGB">
<feFlood flood-opacity="0" result="BackgroundImageFix"/>
<feColorMatrix in="SourceAlpha" type="matrix" values="0 0 0 0 0 0 0 0 0 0 0 0 0 0 0 0 0 0 127 0"/>
<feOffset/>
<feGaussianBlur stdDeviation="3"/>
<feColorMatrix type="matrix" values="0 0 0 0 0.207843 0 0 0 0 0.572549 0 0 0 0 0.937255 0 0 0 0.358883 0"/>
<feBlend mode="normal" in2="BackgroundImageFix" result="effect1_dropShadow"/>
<feBlend mode="normal" in="SourceGraphic" in2="effect1_dropShadow" result="shape"/>
</filter>
</defs>
</svg>
