<svg width="22" height="22" viewBox="0 0 22 22" fill="none" xmlns="http://www.w3.org/2000/svg">
<path fill-rule="evenodd" clip-rule="evenodd" d="M15.4826 12.6655C16.0402 12.6655 16.5663 12.9083 17.0025 13.3624L19.4711 15.8401C19.9253 16.2897 20.1636 16.8248 20.1636 17.3824C20.1636 17.9355 19.9298 18.4751 19.4846 18.9383C19.2912 19.1406 19.0934 19.334 18.9 19.5183C18.879 19.5386 18.8581 19.5589 18.8373 19.579C18.577 19.8307 18.3296 20.0699 18.1131 20.3322C18.1109 20.3367 18.1075 20.3401 18.1041 20.3435C18.1008 20.3468 18.0974 20.3502 18.0951 20.3547C17.4116 21.0966 16.5393 21.4699 15.5006 21.4699C15.4106 21.4699 15.3117 21.4654 15.2173 21.4609C13.675 21.3619 12.2945 20.7819 11.2603 20.2917C8.55329 18.9832 6.18357 17.1261 4.21405 14.7744C2.59076 12.8228 1.50258 11.0017 0.774125 9.03668C0.477348 8.23628 0.0906376 7.0132 0.198557 5.70018C0.270503 4.8863 0.598757 4.18482 1.17432 3.60925L2.70318 2.06691L2.71217 2.05792C3.16183 1.62624 3.69244 1.39691 4.24103 1.39691C4.78961 1.39691 5.31122 1.62624 5.7474 2.05792C6.03968 2.32771 6.32296 2.6155 6.59276 2.89429C6.72766 3.03818 6.87155 3.18207 7.01095 3.32147L8.23853 4.54905C9.18282 5.49334 9.18282 6.71642 8.23853 7.66071C8.17557 7.72367 8.11262 7.78774 8.04967 7.85182C7.98672 7.9159 7.92376 7.97997 7.86081 8.04293C7.82871 8.07547 7.79652 8.10813 7.76423 8.14089C7.46187 8.44773 7.15074 8.76345 6.81759 9.06816C7.09189 9.6752 7.4696 10.2733 8.03168 10.9837C9.19181 12.4092 10.4014 13.5108 11.7324 14.3562C11.8628 14.4371 12.0157 14.5136 12.1776 14.5945C12.2157 14.6143 12.2543 14.6342 12.2933 14.6542C12.3693 14.6931 12.4466 14.7328 12.5238 14.7744L13.9447 13.3579C14.3989 12.9038 14.9295 12.6655 15.4826 12.6655ZM18.1662 18.5461C18.3213 18.3954 18.4683 18.2524 18.6122 18.0974C19.0709 17.6207 19.0709 17.1486 18.6078 16.6899L16.1301 14.2123L16.1211 14.2033C15.9817 14.0504 15.7524 13.8751 15.4736 13.8751C15.1903 13.8751 14.9475 14.0594 14.7946 14.2123L13.2568 15.7501C13.1803 15.8266 12.9465 16.0604 12.5733 16.0604C12.4249 16.0604 12.281 16.0244 12.1281 15.948C12.1191 15.9435 12.1101 15.9379 12.1011 15.9323C12.0921 15.9266 12.0831 15.921 12.0742 15.9165C11.9437 15.8356 11.7909 15.7591 11.629 15.6782L11.629 15.6782C11.4491 15.5883 11.2603 15.4938 11.0759 15.3769C9.63248 14.4641 8.32396 13.2725 7.08289 11.7437L7.0784 11.7392C6.39491 10.8713 5.94525 10.1429 5.62599 9.36943L5.6125 9.32896C5.53156 9.07266 5.45961 8.69494 5.84632 8.30823C5.84923 8.30242 5.854 8.29849 5.85945 8.29401C5.86243 8.29155 5.86562 8.28893 5.8688 8.28575C6.26001 7.93501 6.61974 7.57528 6.99746 7.18857C7.08422 7.10479 7.169 7.01903 7.25444 6.9326C7.2974 6.88913 7.34053 6.84549 7.38417 6.80186C7.86081 6.32522 7.86081 5.88455 7.38417 5.4079L6.15659 4.18032C6.0852 4.1067 6.01381 4.03419 5.94297 3.96223C5.87102 3.88916 5.79965 3.81665 5.72941 3.74415C5.45511 3.46086 5.19431 3.19556 4.92002 2.93926L4.90653 2.92577C4.76263 2.78187 4.53331 2.611 4.25002 2.611C4.02069 2.611 3.78687 2.72342 3.56653 2.93026L2.03318 4.46361C1.65996 4.83683 1.45761 5.27301 1.41265 5.79911C1.3452 6.62199 1.49808 7.49434 1.91627 8.614C2.59526 10.4486 3.62049 12.1573 5.15384 14.0055C7.01095 16.2223 9.24577 17.9715 11.7909 19.2036C12.7217 19.6487 13.9627 20.1703 15.2982 20.2558C15.3657 20.2603 15.4376 20.2603 15.5051 20.2603C16.2066 20.2603 16.7417 20.0309 17.1958 19.5453C17.4746 19.217 17.7714 18.9248 18.0637 18.646C18.0983 18.6122 18.1324 18.579 18.1662 18.5461Z" fill="white"/>
<path d="M11.6784 5.23255C12.8566 5.4304 13.9268 5.98798 14.7811 6.84234C15.6355 7.6967 16.1886 8.7669 16.3909 9.94502C16.4404 10.2418 16.6967 10.4486 16.989 10.4486C17.0249 10.4486 17.0564 10.4441 17.0924 10.4396C17.4251 10.3857 17.6455 10.0709 17.5915 9.73817C17.3487 8.31274 16.6742 7.01322 15.6445 5.98349C14.6147 4.95376 13.3152 4.27927 11.8898 4.03645C11.557 3.98249 11.2468 4.20282 11.1883 4.53108C11.1299 4.85933 11.3457 5.17859 11.6784 5.23255Z" fill="white"/>
<path d="M21.4451 9.56277C21.0449 7.21553 19.9388 5.07963 18.239 3.3799C16.5393 1.68018 14.4034 0.574005 12.0562 0.173806C11.7279 0.115349 11.4177 0.340181 11.3592 0.668435C11.3052 1.00119 11.5256 1.31145 11.8583 1.36991C13.9538 1.72514 15.8648 2.7189 17.3847 4.23426C18.9045 5.75412 19.8938 7.66519 20.249 9.76062C20.2985 10.0574 20.5548 10.2642 20.8471 10.2642C20.8831 10.2642 20.9145 10.2597 20.9505 10.2552C21.2788 10.2058 21.5036 9.89102 21.4451 9.56277Z" fill="white"/>
</svg>
