<svg width="128" height="89" viewBox="0 0 128 89" fill="none" xmlns="http://www.w3.org/2000/svg">
<rect x="85" width="2" height="6" fill="#2960D8"/>
<rect x="101" width="2" height="6" fill="#2960D8"/>
<rect x="93.5" y="6.5" width="16" height="81" rx="8" fill="white" stroke="#2960D8" stroke-width="3"/>
<rect x="76.5" y="6.5" width="17" height="81" rx="8.5" fill="white" stroke="#2960D8" stroke-width="3"/>
<rect x="118" width="2" height="6" fill="#2960D8"/>
<rect x="109.5" y="6.5" width="17" height="81" rx="8.5" fill="white" stroke="#2960D8" stroke-width="3"/>
<rect y="80.3188" width="69.4731" height="7.68116" fill="#2960D8"/>
<path fill-rule="evenodd" clip-rule="evenodd" d="M49.6236 80.3189C60.5862 80.3189 69.4731 71.3775 69.4731 60.3478C69.4731 49.3182 60.5862 40.3768 49.6236 40.3768C38.6611 40.3768 29.7742 49.3182 29.7742 60.3478C29.7742 71.3775 38.6611 80.3189 49.6236 80.3189Z" stroke="#2960D8" stroke-width="1.54"/>
<path fill-rule="evenodd" clip-rule="evenodd" d="M49.6237 71.8696C55.9482 71.8696 61.0753 66.7111 61.0753 60.3478C61.0753 53.9846 55.9482 48.8261 49.6237 48.8261C43.2991 48.8261 38.1721 53.9846 38.1721 60.3478C38.1721 66.7111 43.2991 71.8696 49.6237 71.8696Z" stroke="#2960D8" stroke-width="3.08"/>
<path fill-rule="evenodd" clip-rule="evenodd" d="M14.5054 75.7102C19.565 75.7102 23.6667 71.5834 23.6667 66.4928C23.6667 61.4022 19.565 57.2754 14.5054 57.2754C9.44577 57.2754 5.34412 61.4022 5.34412 66.4928C5.34412 71.5834 9.44577 75.7102 14.5054 75.7102Z" stroke="#2960D8" stroke-width="2.31"/>
<rect x="22.9032" y="65.7246" width="1.52688" height="19.2029" fill="#2960D8"/>
<rect x="4.58063" y="65.7246" width="1.52688" height="19.2029" fill="#2960D8"/>
<rect x="47.3399" y="35.77" width="4.56753" height="17.6629" rx="1.925" fill="white" stroke="#2960D8" stroke-width="1.54"/>
<path d="M64.4878 61.1178C65.5509 61.1178 66.4128 61.9797 66.4128 63.0428V63.7978C66.4128 64.8609 65.5509 65.7228 64.4878 65.7228H34.7595C33.6964 65.7228 32.8345 64.8609 32.8345 63.7978V63.0428C32.8345 61.9797 33.6964 61.1178 34.7595 61.1178L64.4878 61.1178Z" fill="white" stroke="#2960D8" stroke-width="1.54"/>
<path d="M42.4393 49.812C43.1855 50.5628 43.1855 51.7752 42.4393 52.526L39.2211 55.7639C38.4684 56.5212 37.2432 56.5212 36.4905 55.7639L31.113 50.3535C30.3668 49.6027 30.3668 48.3902 31.113 47.6394L34.3312 44.4016C35.0838 43.6443 36.3091 43.6443 37.0618 44.4016L42.4393 49.812Z" fill="white" stroke="#2960D8" stroke-width="1.54"/>
<path d="M56.6387 49.812C55.8925 50.5628 55.8924 51.7752 56.6387 52.526L59.8568 55.7639C60.6095 56.5212 61.8348 56.5212 62.5875 55.7639L67.9649 50.3535C68.7111 49.6027 68.7111 48.3902 67.9649 47.6394L64.7468 44.4016C63.9941 43.6443 62.7688 43.6443 62.0161 44.4016L56.6387 49.812Z" fill="white" stroke="#2960D8" stroke-width="1.54"/>
<path d="M35 43C35 19.804 53.804 1 77 1H118.5" stroke="#2960D8" stroke-width="2"/>
</svg>
