<svg width="133" height="112" viewBox="0 0 133 112" fill="none" xmlns="http://www.w3.org/2000/svg">
<rect x="33" y="106" width="66" height="6" fill="#2960D8"/>
<rect x="60" y="66" width="13" height="6" fill="#2960D8"/>
<rect x="65" y="15" width="2" height="54" fill="#2960D8"/>
<rect x="46" y="15" width="2" height="6" fill="#2960D8"/>
<rect x="85" y="15" width="2" height="6" fill="#2960D8"/>
<rect x="86.5" y="15" width="2" height="40" transform="rotate(90 86.5 15)" fill="#2960D8"/>
<rect x="60" y="83" width="13" height="6" fill="#2960D8"/>
<rect x="55" y="96" width="23" height="11" fill="#2960D8"/>
<rect x="71.5" y="21.5" width="26" height="81" rx="8.5" fill="white" stroke="#2960D8" stroke-width="3"/>
<rect x="34.5" y="21.5" width="26" height="81" rx="8.5" fill="white" stroke="#2960D8" stroke-width="3"/>
<mask id="path-11-inside-1" fill="white">
<path fill-rule="evenodd" clip-rule="evenodd" d="M0 109.901V66.5801C0 30.2231 29.7731 0.75 66.5 0.75V0.75C103.227 0.75 133 30.2231 133 66.5801V110.75"/>
</mask>
<path d="M1 109.901V106.806H-1V109.901H1ZM1 100.618V94.429H-1V100.618H1ZM1 88.2403V82.0517H-1V88.2403H1ZM1 75.8631V69.6744H-1V75.8631H1ZM1 66.5801C1 65.5706 1.02331 64.5665 1.06941 63.5684L-0.928463 63.4761C-0.975984 64.505 -1 65.5398 -1 66.5801H1ZM1.62682 57.574C1.90789 55.572 2.28132 53.5993 2.7427 51.6603L0.797022 51.1973C0.321183 53.1971 -0.063918 55.2315 -0.353756 57.2959L1.62682 57.574ZM4.41006 45.8786C5.05905 43.9709 5.7953 42.1029 6.61412 40.2792L4.78959 39.46C3.94523 41.3406 3.18595 43.267 2.51663 45.2344L4.41006 45.8786ZM9.33351 34.9105C10.3249 33.1613 11.3958 31.4621 12.5416 29.8178L10.9007 28.6744C9.71964 30.3693 8.61558 32.1209 7.59351 33.9244L9.33351 34.9105ZM16.2077 25.0432C17.5025 23.5091 18.8677 22.0351 20.2983 20.626L18.8948 19.2011C17.4206 20.6531 16.0138 22.1722 14.6793 23.7533L16.2077 25.0432ZM24.7769 16.6023C26.3278 15.3325 27.9388 14.132 29.6049 13.0057L28.4849 11.3487C26.768 12.5093 25.108 13.7463 23.5099 15.0548L24.7769 16.6023ZM34.7418 9.86639C36.495 8.90256 38.2975 8.01607 40.1447 7.21158L39.3461 5.37794C37.4425 6.20701 35.5849 7.12056 33.7783 8.11379L34.7418 9.86639ZM45.7682 5.06426C47.6636 4.43881 49.5974 3.89677 51.5654 3.44254L51.1157 1.49377C49.0877 1.96185 47.0947 2.52043 45.1415 3.16501L45.7682 5.06426ZM57.4878 2.35851C59.4606 2.08984 61.4616 1.90811 63.4867 1.81737L63.3972 -0.180628C61.3116 -0.0871795 59.2504 0.100003 57.2179 0.376798L57.4878 2.35851ZM66.5 1.75C67.51 1.75 68.5146 1.77262 69.5133 1.81737L69.6028 -0.180627C68.5743 -0.226712 67.5399 -0.25 66.5 -0.25V1.75ZM75.5122 2.35851C77.5168 2.6315 79.4923 2.99426 81.4346 3.44254L81.8844 1.49378C79.8829 1.03183 77.8473 0.658058 75.7821 0.3768L75.5122 2.35851ZM87.2318 5.06427C89.1472 5.69635 91.0232 6.41364 92.8554 7.21158L93.654 5.37795C91.7659 4.55562 89.8325 3.81641 87.8585 3.16501L87.2318 5.06427ZM98.2582 9.8664C100.022 10.8361 101.736 11.8841 103.395 13.0057L104.515 11.3487C102.805 10.193 101.039 9.11308 99.2217 8.1138L98.2582 9.8664ZM108.223 16.6023C109.778 17.8754 111.273 19.2183 112.702 20.626L114.105 19.2011C112.632 17.7505 111.092 16.3667 109.49 15.0548L108.223 16.6023ZM116.792 25.0432C118.086 26.5764 119.31 28.1695 120.458 29.8178L122.099 28.6744C120.915 26.9753 119.654 25.3333 118.321 23.7533L116.792 25.0432ZM123.666 34.9105C124.653 36.652 125.562 38.4432 126.386 40.2792L128.21 39.46C127.36 37.5667 126.424 35.7199 125.406 33.9244L123.666 34.9105ZM128.59 45.8786C129.233 47.7684 129.79 49.6971 130.257 51.6603L132.203 51.1974C131.721 49.1726 131.146 47.1834 130.483 45.2344L128.59 45.8786ZM131.373 57.574C131.65 59.545 131.837 61.5445 131.931 63.5684L133.928 63.4761C133.832 61.3899 133.639 59.3284 133.354 57.2959L131.373 57.574ZM132 66.5801V69.7351H134V66.5801H132ZM132 76.0451V82.3551H134V76.0451H132ZM132 88.6651V94.975H134V88.6651H132ZM132 101.285V107.595H134V101.285H132ZM2 109.901V106.806H-2V109.901H2ZM2 100.618V94.429H-2V100.618H2ZM2 88.2403V82.0517H-2V88.2403H2ZM2 75.8631V69.6744H-2V75.8631H2ZM2 66.5801C2 65.586 2.02295 64.5973 2.06834 63.6145L-1.9274 63.43C-1.97563 64.4742 -2 65.5244 -2 66.5801H2ZM2.61711 57.713C2.8938 55.7422 3.26139 53.8004 3.71554 51.8918L-0.175817 50.9659C-0.658887 52.996 -1.04982 55.0612 -1.34404 57.1569L2.61711 57.713ZM5.35677 46.2007C5.9956 44.3229 6.72034 42.4841 7.52639 40.6888L3.87732 39.0504C3.02019 40.9595 2.24941 42.9151 1.56992 44.9123L5.35677 46.2007ZM10.2035 35.4036C11.1795 33.6814 12.2339 32.0085 13.3621 30.3895L10.0802 28.1027C8.88155 29.8229 7.76094 31.6008 6.72351 33.4313L10.2035 35.4036ZM16.9719 25.6882C18.2469 24.1776 19.5912 22.726 21 21.3385L18.1931 18.4887C16.6971 19.9622 15.2694 21.5037 13.9151 23.1083L16.9719 25.6882ZM25.4104 17.376C26.9377 16.1255 28.5241 14.9433 30.165 13.8341L27.9249 10.5202C26.1826 11.698 24.498 12.9533 22.8763 14.2811L25.4104 17.376ZM35.2236 10.7427C36.95 9.79356 38.725 8.9206 40.544 8.1284L38.9467 4.46112C37.015 5.30248 35.1299 6.22956 33.2966 7.23749L35.2236 10.7427ZM46.0816 6.01389C47.948 5.398 49.8523 4.86423 51.7903 4.41692L50.8908 0.51939C48.8328 0.994387 46.8103 1.56125 44.8281 2.21538L46.0816 6.01389ZM57.6227 3.34936C59.5657 3.08476 61.5366 2.90575 63.5315 2.81636L63.3524 -1.17963C61.2366 -1.08482 59.1453 -0.894917 57.083 -0.614056L57.6227 3.34936ZM66.5 2.75C67.4951 2.75 68.4847 2.77228 69.4686 2.81637L69.6476 -1.17963C68.6042 -1.22638 67.5548 -1.25 66.5 -1.25V2.75ZM75.3773 3.34936C77.3515 3.61823 79.2971 3.97548 81.2097 4.41693L82.1093 0.519393C80.0782 0.0506142 78.0126 -0.328665 75.917 -0.614054L75.3773 3.34936ZM86.9184 6.0139C88.8045 6.63632 90.6519 7.34265 92.456 8.1284L94.0533 4.46113C92.1372 3.62661 90.1751 2.87644 88.1719 2.21538L86.9184 6.0139ZM97.7764 10.7427C99.5134 11.6976 101.201 12.7297 102.835 13.8341L105.075 10.5202C103.34 9.34747 101.548 8.25157 99.7035 7.2375L97.7764 10.7427ZM107.59 17.376C109.121 18.6298 110.593 19.9522 112 21.3385L114.807 18.4887C113.312 17.0166 111.75 15.6124 110.124 14.2811L107.59 17.376ZM116.028 25.6882C117.302 27.1979 118.507 28.7666 119.638 30.3895L122.92 28.1027C121.718 26.3783 120.438 24.7118 119.085 23.1083L116.028 25.6882ZM122.796 35.4036C123.768 37.1181 124.662 38.8814 125.474 40.6888L129.123 39.0504C128.26 37.1285 127.309 35.2538 126.276 33.4313L122.796 35.4036ZM127.643 46.2007C128.276 48.0609 128.825 49.9594 129.284 51.8918L133.176 50.9659C132.687 48.9104 132.103 46.891 131.43 44.9124L127.643 46.2007ZM130.383 57.713C130.655 59.6533 130.84 61.6218 130.932 63.6145L134.927 63.43C134.83 61.3126 134.634 59.2201 134.344 57.1569L130.383 57.713ZM131 66.5801V69.7351H135V66.5801H131ZM131 76.0451V82.3551H135V76.0451H131ZM131 88.6651V94.975H135V88.6651H131ZM131 101.285V107.595H135V101.285H131Z" fill="#2960D8" mask="url(#path-11-inside-1)"/>
</svg>
