<svg width="102" height="76" viewBox="0 0 102 76" fill="none" xmlns="http://www.w3.org/2000/svg">
<rect y="64.9855" width="99.8064" height="11.0145" fill="#2960D8"/>
<path fill-rule="evenodd" clip-rule="evenodd" d="M71.2903 64.9855C87.0393 64.9855 99.8064 52.164 99.8064 36.3478C99.8064 20.5317 87.0393 7.71014 71.2903 7.71014C55.5413 7.71014 42.7742 20.5317 42.7742 36.3478C42.7742 52.164 55.5413 64.9855 71.2903 64.9855Z" stroke="#2960D8" stroke-width="2.2"/>
<path fill-rule="evenodd" clip-rule="evenodd" d="M71.2904 52.8696C80.3763 52.8696 87.742 45.4726 87.742 36.3479C87.742 27.2231 80.3763 19.8261 71.2904 19.8261C62.2044 19.8261 54.8387 27.2231 54.8387 36.3479C54.8387 45.4726 62.2044 52.8696 71.2904 52.8696Z" stroke="#2960D8" stroke-width="4.4"/>
<path fill-rule="evenodd" clip-rule="evenodd" d="M20.8387 58.3768C28.1074 58.3768 33.9999 52.4592 33.9999 45.1594C33.9999 37.8596 28.1074 31.942 20.8387 31.942C13.5699 31.942 7.67737 37.8596 7.67737 45.1594C7.67737 52.4592 13.5699 58.3768 20.8387 58.3768Z" stroke="#2960D8" stroke-width="3.3"/>
<rect x="32.9032" y="44.058" width="2.19355" height="27.5362" fill="#2960D8"/>
<rect x="6.58069" y="44.058" width="2.19355" height="27.5362" fill="#2960D8"/>
<rect x="68.0032" y="1.1" width="6.57419" height="25.3362" rx="2.75" fill="white" stroke="#2960D8" stroke-width="2.2"/>
<path d="M92.6661 37.4478C94.1849 37.4478 95.4161 38.6791 95.4161 40.1978V41.3094C95.4161 42.8282 94.1849 44.0594 92.6661 44.0594L49.9145 44.0594C48.3957 44.0594 47.1645 42.8282 47.1645 41.3094V40.1978C47.1645 38.6791 48.3957 37.4478 49.9145 37.4478L92.6661 37.4478Z" fill="white" stroke="#2960D8" stroke-width="2.2"/>
<path d="M60.9819 21.2454C62.0504 22.3184 62.0504 24.0532 60.9819 25.1262L56.3331 29.7948C55.2582 30.8743 53.5107 30.8743 52.4358 29.7948L44.6848 22.0108C43.6164 20.9379 43.6164 19.203 44.6848 18.13L49.3336 13.4614C50.4085 12.382 52.1561 12.382 53.231 13.4614L60.9819 21.2454Z" fill="white" stroke="#2960D8" stroke-width="2.2"/>
<path d="M81.3555 21.2454C80.287 22.3184 80.287 24.0532 81.3555 25.1262L86.0043 29.7948C87.0792 30.8743 88.8267 30.8743 89.9016 29.7948L97.6526 22.0108C98.721 20.9379 98.721 19.203 97.6526 18.13L93.0038 13.4614C91.9289 12.382 90.1813 12.382 89.1064 13.4614L81.3555 21.2454Z" fill="white" stroke="#2960D8" stroke-width="2.2"/>
</svg>
