<svg width="17" height="19" viewBox="0 0 17 19" fill="none" xmlns="http://www.w3.org/2000/svg">
<path fill-rule="evenodd" clip-rule="evenodd" d="M16.684 5.66032C16.5158 5.26758 16.314 4.95675 16.0783 4.72761L12.1411 0.897851C11.9054 0.66892 11.5859 0.472447 11.1821 0.308691C10.7784 0.145107 10.4082 0.0632935 10.0719 0.0632935H1.99502C1.65857 0.0632935 1.37251 0.177781 1.13697 0.406927C0.901379 0.635945 0.78363 0.914188 0.78363 1.24157V17.7384C0.78363 18.0658 0.901379 18.3441 1.13697 18.5731C1.37255 18.8021 1.65857 18.9167 1.99507 18.9167H15.7251C16.0615 18.9167 16.3473 18.8021 16.5828 18.5731C16.8183 18.3439 16.9362 18.0658 16.9362 17.7384V6.74049C16.9363 6.41315 16.8522 6.05305 16.684 5.66032ZM10.4754 1.73249C10.7192 1.81431 10.8916 1.90442 10.9927 2.00248L14.9427 5.84449C15.0434 5.94277 15.136 6.11044 15.2201 6.34775H10.4754V1.73249ZM2.39883 17.3456H15.3212V7.91893H10.0714C9.73471 7.91893 9.44883 7.80428 9.21315 7.57526C8.97757 7.34611 8.85991 7.06795 8.85991 6.74061V1.63443H2.39883V17.3456Z" fill="white"/>
</svg>
