<svg width="55" height="55" viewBox="0 0 55 55" fill="none" xmlns="http://www.w3.org/2000/svg">
<path fill-rule="evenodd" clip-rule="evenodd" d="M10.4536 27.5C10.4536 18.1006 18.1006 10.4536 27.5 10.4536C36.8994 10.4536 44.5464 18.1006 44.5464 27.5C44.5464 36.8995 36.8994 44.5465 27.5 44.5465C18.1006 44.5465 10.4536 36.8995 10.4536 27.5ZM12.2354 27.5C12.2354 35.917 19.0831 42.7646 27.5 42.7646C35.9169 42.7646 42.7646 35.917 42.7646 27.5C42.7646 19.0831 35.9169 12.2355 27.5 12.2355C19.0831 12.2355 12.2354 19.0831 12.2354 27.5Z" fill="#2960D8"/>
<path fill-rule="evenodd" clip-rule="evenodd" d="M19.9568 27.5C19.9568 23.3407 23.3407 19.9568 27.5 19.9568C31.6593 19.9568 35.0432 23.3407 35.0432 27.5C35.0432 31.6593 31.6593 35.0432 27.5 35.0432C23.3407 35.0432 19.9568 31.6593 19.9568 27.5ZM21.7387 27.5C21.7387 30.6768 24.3232 33.2613 27.5 33.2613C30.6768 33.2613 33.2614 30.6768 33.2614 27.5C33.2614 24.3232 30.6768 21.7386 27.5 21.7386C24.3232 21.7386 21.7387 24.3232 21.7387 27.5Z" fill="#2960D8"/>
<path fill-rule="evenodd" clip-rule="evenodd" d="M14.2549 27.5C14.2549 20.1967 20.1966 14.2549 27.5 14.2549C34.8034 14.2549 40.7451 20.1967 40.7451 27.5C40.7451 34.8034 34.8034 40.7452 27.5 40.7452C20.1966 40.7452 14.2549 34.8034 14.2549 27.5ZM16.0367 27.5C16.0367 33.8209 21.1792 38.9633 27.5 38.9633C33.8208 38.9633 38.9633 33.8209 38.9633 27.5C38.9633 21.1792 33.8208 16.0367 27.5 16.0367C21.1792 16.0367 16.0367 21.1792 16.0367 27.5Z" fill="#2960D8"/>
<path fill-rule="evenodd" clip-rule="evenodd" d="M50.7283 22.8078H52.2084C53.7477 22.8078 55 24.0601 55 25.5995V29.4008C55 30.9401 53.7477 32.1923 52.2084 32.1923H50.7276C50.1251 35.1786 48.9306 38.0601 47.2405 40.6047L48.2894 41.6535C49.3778 42.742 49.3778 44.5131 48.2894 45.6014L45.6014 48.2894C45.0742 48.8167 44.3731 49.107 43.6275 49.107C42.8818 49.107 42.1808 48.8166 41.6535 48.2893L40.6047 47.2405C38.06 48.9306 35.1785 50.1251 32.1922 50.7276V52.2084C32.1922 53.7477 30.9399 55 29.4006 55H25.5994C24.0601 55 22.8078 53.7477 22.8078 52.2084V50.7275C19.8215 50.125 16.94 48.9306 14.3953 47.2404L13.3463 48.2893C12.819 48.8166 12.1181 49.1069 11.3724 49.1069C10.6266 49.1069 9.92566 48.8165 9.39835 48.2892L6.71047 45.6014C5.62212 44.5129 5.62212 42.7419 6.71047 41.6535L7.7594 40.6046C6.06924 38.06 4.87492 35.1786 4.2723 32.1922H2.79158C1.25229 32.1922 0 30.9399 0 29.4006V25.5994C0 24.0601 1.25229 22.8078 2.79158 22.8078H4.27171C4.87647 19.7882 6.04679 16.9648 7.75904 14.3947L6.71059 13.3463C6.1834 12.8192 5.89296 12.1181 5.89296 11.3724C5.89296 10.6268 6.1834 9.92566 6.71059 9.39847L9.39847 6.71047C10.4868 5.62224 12.2579 5.62224 13.3463 6.71047L14.3953 7.7594C16.94 6.06924 19.8215 4.87481 22.8078 4.2723V2.79158C22.8078 1.25229 24.0601 0 25.5994 0H29.4006C30.9399 0 32.1922 1.25229 32.1922 2.79158V4.2723C35.1785 4.87481 38.06 6.06924 40.6046 7.7594L41.6535 6.71047C42.7421 5.62224 44.5129 5.62224 45.6014 6.71047L48.2894 9.39859C48.8166 9.92578 49.107 10.6269 49.107 11.3725C49.107 12.1182 48.8166 12.8193 48.2894 13.3465L47.241 14.3948C48.9532 16.9647 50.1236 19.7882 50.7283 22.8078ZM52.2084 30.4104C52.7652 30.4104 53.2181 29.9574 53.2181 29.4006V25.5994C53.2181 25.0426 52.7652 24.5896 52.2084 24.5896H49.9861C49.551 24.5896 49.1795 24.2752 49.1075 23.8461C48.5569 20.5661 47.2962 17.5247 45.3605 14.806C45.1082 14.4517 45.1487 13.9669 45.4563 13.6592L47.0292 12.0863C47.2199 11.8956 47.3249 11.6422 47.3249 11.3724C47.3249 11.1026 47.2198 10.8491 47.0292 10.6585L44.3413 7.97037C43.9476 7.57681 43.307 7.57693 42.9133 7.97049L41.3404 9.54339C41.0327 9.85094 40.5481 9.89157 40.1937 9.63914C37.4752 7.70333 34.4337 6.44272 31.1536 5.89213C30.7246 5.82014 30.4102 5.44868 30.4102 5.01355V2.79158C30.4102 2.23481 29.9573 1.78186 29.4005 1.78186H25.5992C25.0425 1.78186 24.5895 2.23481 24.5895 2.79158V5.01355C24.5895 5.44868 24.2752 5.82014 23.8461 5.89213C20.5661 6.44272 17.5246 7.70333 14.806 9.63914C14.4517 9.89168 13.9668 9.85094 13.6594 9.54339L12.0865 7.97049C11.6928 7.5767 11.0521 7.57693 10.6585 7.97049L7.9706 10.6585C7.77983 10.8493 7.67482 11.1026 7.67482 11.3724C7.67482 11.6422 7.77995 11.8957 7.9706 12.0863L9.54351 13.6592C9.85106 13.9669 9.89157 14.4517 9.63926 14.806C7.70356 17.5247 6.44284 20.5662 5.89225 23.8461C5.82026 24.2753 5.4488 24.5896 5.01367 24.5896H2.79158C2.23481 24.5896 1.78186 25.0426 1.78186 25.5994V29.4006C1.78186 29.9574 2.23481 30.4104 2.79158 30.4104H5.01367C5.4488 30.4104 5.82026 30.7247 5.89225 31.1539C6.44284 34.4339 7.70356 37.4754 9.63926 40.1938C9.89157 40.5482 9.85106 41.033 9.54351 41.3406L7.9706 42.9135C7.57693 43.3071 7.57693 43.9479 7.9706 44.3415L10.6585 47.0293C10.8493 47.2201 11.1028 47.3251 11.3725 47.3251C11.6422 47.3251 11.8958 47.2201 12.0865 47.0294L13.6595 45.4564C13.832 45.284 14.0602 45.1955 14.2898 45.1955C14.4698 45.1955 14.6506 45.2498 14.8063 45.3607C17.5248 47.2966 20.5663 48.5572 23.8464 49.1078C24.2754 49.1797 24.5898 49.5512 24.5898 49.9863V52.2084C24.5898 52.7652 25.0427 53.2181 25.5995 53.2181H29.4008C29.9575 53.2181 30.4105 52.7652 30.4105 52.2084V49.9862C30.4105 49.5511 30.7248 49.1796 31.1539 49.1076C34.4339 48.557 37.4754 47.2964 40.194 45.3606C40.5483 45.1082 41.0331 45.1489 41.3406 45.4564L42.9135 47.0293C43.1043 47.2201 43.3578 47.3251 43.6275 47.3251C43.8971 47.3251 44.1507 47.2201 44.3414 47.0294L47.0294 44.3414C47.4231 43.9479 47.4231 43.3071 47.0294 42.9134L45.4565 41.3406C45.1489 41.033 45.1084 40.5482 45.3607 40.1938C47.2964 37.4754 48.5572 34.4338 49.1078 31.1539C49.1797 30.7247 49.5512 30.4104 49.9863 30.4104H52.2084Z" fill="#2960D8"/>
</svg>
