<svg width="55" height="43" viewBox="0 0 55 43" fill="none" xmlns="http://www.w3.org/2000/svg">
<path fill-rule="evenodd" clip-rule="evenodd" d="M54.1091 41.2033H53.0994V37.3106C53.0994 36.0726 52.3023 35.0195 51.1987 34.6436V6.64763C51.1987 4.56722 49.5201 2.87465 47.4568 2.87465C45.3935 2.87465 43.7149 4.56722 43.7149 6.64763V13.415H42.7052C41.1659 13.415 39.9136 14.6777 39.9136 16.2298V25.812C39.9136 26.3734 39.4607 26.8301 38.9039 26.8301H37.8942V6.64763C37.8942 4.56722 36.2155 2.87465 34.1523 2.87465C32.089 2.87465 30.4104 4.56722 30.4104 6.64763V13.415H29.4006C27.8614 13.415 26.6091 14.6777 26.6091 16.2298V25.812C26.6091 26.3734 26.1561 26.8301 25.5994 26.8301H24.5896V6.64763C24.5896 4.87673 23.3731 3.38778 21.7387 2.98353V2.81476C21.7387 1.26269 20.4864 0 18.9471 0H9.44384C7.90456 0 6.65227 1.26269 6.65227 2.81476V14.3733H6.59287C5.57757 14.3733 4.75162 15.2061 4.75162 16.2298V18.315C3.11718 18.7191 1.90065 20.2082 1.90065 21.9791V41.2033H0.890929C0.398899 41.2033 0 41.6056 0 42.1017C0 42.5978 0.398899 43 0.890929 43H54.1091C54.6011 43 55 42.5978 55 42.1017C55 41.6056 54.6011 41.2033 54.1091 41.2033ZM51.3175 41.2033H48.3477V39.0583C49.6001 38.7485 50.6063 37.8018 51.0085 36.5792C51.1986 36.7645 51.3175 37.0236 51.3175 37.3106V41.2033ZM46.5659 39.0583C45.3136 38.7485 44.3073 37.8018 43.9051 36.5792C43.7149 36.7644 43.5961 37.0236 43.5961 37.3106V41.2033H46.5659V39.0583ZM49.4168 35.3941C49.4168 36.4839 48.5376 37.3705 47.4568 37.3705C46.376 37.3705 45.4968 36.4839 45.4968 35.3941V32.4596H49.4168V35.3941ZM47.4568 4.67131C46.376 4.67131 45.4968 5.5579 45.4968 6.64763V30.663H49.4168V6.64763C49.4168 5.5579 48.5376 4.67131 47.4568 4.67131ZM38.9039 28.6267C40.4432 28.6267 41.6955 27.364 41.6955 25.812V16.2298C41.6955 15.6684 42.1484 15.2117 42.7052 15.2117H43.7149V34.6436C42.6113 35.0195 41.8143 36.0726 41.8143 37.3106V41.2033H39.7948V37.3106C39.7948 36.0726 38.9977 35.0195 37.8942 34.6436V28.6267H38.9039ZM33.2613 39.0583C32.009 38.7485 31.0028 37.8018 30.6005 36.5792C30.4104 36.7644 30.2916 37.0236 30.2916 37.3106V41.2033H33.2613V39.0583ZM36.1123 35.3941C36.1123 36.4839 35.233 37.3705 34.1523 37.3705C33.0715 37.3705 32.1922 36.4839 32.1922 35.3941V32.4596H36.1123V35.3941ZM37.704 36.5792C37.3018 37.8018 36.2956 38.7485 35.0432 39.0583V41.2033H38.013V37.3106C38.013 37.0236 37.8941 36.7645 37.704 36.5792ZM32.1922 6.64763C32.1922 5.5579 33.0715 4.67131 34.1523 4.67131C35.233 4.67131 36.1123 5.5579 36.1123 6.64763V30.663H32.1922V6.64763ZM28.3909 25.812C28.3909 27.364 27.1386 28.6267 25.5994 28.6267H24.5896V34.6436C25.6932 35.0195 26.4903 36.0726 26.4903 37.3106V41.2033H28.5097V37.3106C28.5097 36.0726 29.3068 35.0195 30.4104 34.6436V15.2117H29.4006C28.8439 15.2117 28.3909 15.6684 28.3909 16.2298V25.812ZM17.296 36.5792C17.6982 37.8018 18.7045 38.7485 19.9568 39.0583V41.2033H16.987V37.3106C16.987 37.0236 17.1058 36.7644 17.296 36.5792ZM20.8477 37.3705C21.9285 37.3705 22.8078 36.4839 22.8078 35.3941V32.4596H18.8877V35.3941C18.8877 36.4839 19.767 37.3705 20.8477 37.3705ZM21.7387 39.0583C22.9911 38.7485 23.9972 37.8018 24.3994 36.5792C24.5895 36.7645 24.7084 37.0236 24.7084 37.3106V41.2033H21.7387V39.0583ZM22.8078 30.663V6.64763C22.8078 5.5579 21.9285 4.67131 20.8477 4.67131C19.767 4.67131 18.8877 5.5579 18.8877 6.64763V30.663H22.8078ZM8.43412 2.81476C8.43412 2.25337 8.88707 1.79666 9.44384 1.79666H18.9471C19.5039 1.79666 19.9568 2.25337 19.9568 2.81476V2.98353C18.3224 3.38766 17.1058 4.87673 17.1058 6.64763V34.6436C16.0023 35.0195 15.2052 36.0726 15.2052 37.3106V41.2033H13.1857V21.9791C13.1857 20.2082 11.9692 18.7193 10.3348 18.315V16.2298C10.3348 15.2061 9.50882 14.3733 8.49352 14.3733H8.43412V2.81476ZM3.68251 33.5376H11.4039V23.8357H3.68251V33.5376ZM3.68251 35.3343H11.4039V37.3705H3.68251V35.3343ZM8.49352 16.1699H6.59287C6.56009 16.1699 6.53348 16.1967 6.53348 16.2298V18.2061H8.55292V16.2298C8.55292 16.1967 8.52631 16.1699 8.49352 16.1699ZM5.64255 20.0028H9.44384C10.5246 20.0028 11.4039 20.8894 11.4039 21.9791V22.039H3.68251V21.9791C3.68251 20.8894 4.56179 20.0028 5.64255 20.0028ZM11.4039 39.1671H3.68251V41.2033H11.4039V39.1671Z" fill="#2960D8"/>
</svg>
