<svg width="41" height="41" viewBox="0 0 41 41" fill="none" xmlns="http://www.w3.org/2000/svg">
<path fill-rule="evenodd" clip-rule="evenodd" d="M39.7988 2.57323H26.8476V1.20117C26.8476 0.537805 26.3097 0 25.6464 0C24.983 0 24.4452 0.537805 24.4452 1.20117V2.57323H15.8986C15.0283 1.03853 13.3806 0 11.4939 0C8.70321 0 6.43292 2.27038 6.43292 5.06094C6.43292 6.03565 6.71055 6.94638 7.18997 7.71953H6.34755C2.8475 7.71953 0 10.567 0 14.0671V24.3598C0 25.0231 0.537805 25.5609 1.20117 25.5609H5.14638V25.6463V39.7988C5.14638 40.4622 5.68419 41 6.34755 41H16.6402C17.047 41 17.4059 40.7972 17.6233 40.4878L17.6243 40.4875L25.6464 29.0274L33.6684 40.4875C34.0489 41.031 34.7978 41.1632 35.3414 40.7827C35.8848 40.4024 36.017 39.6533 35.6366 39.1099L27.9535 28.1341H39.7988C40.4622 28.1341 41 27.5963 41 26.9329V3.7744C41 3.11104 40.4622 2.57323 39.7988 2.57323ZM38.5977 4.97557V20.5854H17.8414V15.2683H28.2195C28.8829 15.2683 29.4207 14.7305 29.4207 14.0672V8.9207C29.4207 8.25734 28.8829 7.71953 28.2195 7.71953H15.7978C16.2772 6.94638 16.5549 6.03565 16.5549 5.06094C16.5549 5.04421 16.5543 5.02764 16.5537 5.01108V5.01106C16.5533 4.99925 16.5529 4.98744 16.5527 4.97557H38.5977ZM11.4939 2.40234C10.0279 2.40234 8.83526 3.59495 8.83526 5.06094C8.83526 6.52693 10.0279 7.71953 11.4939 7.71953C12.9598 7.71953 14.1524 6.52685 14.1524 5.06094C14.1524 3.59503 12.9598 2.40234 11.4939 2.40234ZM2.40234 14.0671C2.40234 11.8917 4.17215 10.1219 6.34755 10.1219H27.0184V12.8659H16.6402C15.9769 12.8659 15.4391 13.4037 15.4391 14.0671V23.1586H7.54872V14.0671C7.54872 13.4037 7.01092 12.8659 6.34755 12.8659C5.68419 12.8659 5.14638 13.4037 5.14638 14.0671V23.1586H2.40234V14.0671ZM12.695 38.5977H15.4391V25.5609H7.54872V25.6464V38.5977H10.2927V29.5061C10.2927 28.8428 10.8305 28.305 11.4939 28.305C12.1572 28.305 12.695 28.8428 12.695 29.5061V38.5977ZM17.8414 35.9882V28.1341H23.3392L17.8414 35.9882ZM17.8414 22.9877V25.7317H38.5977V22.9877H17.8414Z" fill="#427CFB"/>
</svg>
