<svg width="41" height="41" viewBox="0 0 41 41" fill="none" xmlns="http://www.w3.org/2000/svg">
<path fill-rule="evenodd" clip-rule="evenodd" d="M38.5176 6.00586C38.5176 7.82411 37.7043 9.45498 36.4236 10.5573C39.1406 11.9609 41 14.778 41 18.0176V22.8223C41 23.3418 40.666 23.8024 40.1723 23.9639L35.2341 25.5788C35.0264 26.1654 34.808 26.7008 34.5745 27.1953L36.8544 31.7764C37.0843 32.2385 36.9933 32.7959 36.6283 33.1609L33.2411 36.5481C32.8761 36.9132 32.3186 37.0041 31.8565 36.7742L27.2754 34.4944C26.7817 34.7274 26.2474 34.9455 25.662 35.1529L24.0455 40.1673C23.8856 40.6636 23.4237 41 22.9023 41H18.0977C17.5763 41 17.1144 40.6636 16.9545 40.1674L15.338 35.1529C14.7526 34.9455 14.2183 34.7275 13.7246 34.4945L9.14348 36.7743C8.68135 37.0042 8.12401 36.9132 7.75893 36.5482L4.37179 33.161C4.00679 32.7959 3.91574 32.2386 4.14572 31.7764L6.42547 27.1953C6.19212 26.7008 5.97367 26.1655 5.76595 25.5789L0.827768 23.9639C0.334006 23.8024 0 23.3418 0 22.8223V18.0176C0 14.778 1.85941 11.9609 4.57638 10.5573C3.2957 9.45498 2.48242 7.82411 2.48242 6.00586C2.48242 2.69423 5.17665 0 8.48828 0C11.7999 0 14.4941 2.69423 14.4941 6.00586C14.4941 7.82988 13.6757 9.46539 12.3881 10.5678C12.9919 10.8841 13.5582 11.2743 14.0734 11.7326C14.793 11.1988 15.5809 10.7527 16.4213 10.409C15.2371 9.31132 14.4941 7.74404 14.4941 6.00586C14.4941 2.69423 17.1884 0 20.5 0C23.8116 0 26.5059 2.69423 26.5059 6.00586C26.5059 7.74404 25.7629 9.31132 24.5787 10.409C25.4191 10.7527 26.2071 11.1988 26.9266 11.7325C27.4418 11.2743 28.0081 10.884 28.6119 10.5677C27.3243 9.46539 26.5059 7.82988 26.5059 6.00586C26.5059 2.69423 29.2001 0 32.5117 0C35.8233 0 38.5176 2.69423 38.5176 6.00586ZM36.1152 6.00586C36.1152 4.01888 34.4987 2.40234 32.5117 2.40234C30.5247 2.40234 28.9082 4.01888 28.9082 6.00586C28.9082 7.99284 30.5247 9.60938 32.5117 9.60938C34.4987 9.60938 36.1152 7.99284 36.1152 6.00586ZM20.5 2.40234C22.487 2.40234 24.1035 4.01888 24.1035 6.00586C24.1035 7.99284 22.487 9.60938 20.5 9.60938C18.513 9.60938 16.8965 7.99284 16.8965 6.00586C16.8965 4.01888 18.513 2.40234 20.5 2.40234ZM28.8227 19.2188C28.238 15.1494 24.7287 12.0117 20.5001 12.0117C16.2715 12.0117 12.762 15.1494 12.1774 19.2188H28.8227ZM20.5 26.4258C23.4003 26.4258 25.827 24.3511 26.385 21.6131H28.822C28.2374 25.6823 24.7284 28.8281 20.5 28.8281C16.2716 28.8281 12.7626 25.6903 12.178 21.6211H14.615C15.173 24.3591 17.5997 26.4258 20.5 26.4258ZM23.8968 21.6131H17.1031C17.6172 23.0646 18.9908 24.0234 20.5 24.0234C22.0194 24.0234 23.3862 23.0551 23.8968 21.6131ZM8.48828 2.40234C10.4753 2.40234 12.0918 4.01888 12.0918 6.00586C12.0918 7.99284 10.4753 9.60938 8.48828 9.60938C6.5013 9.60938 4.88477 7.99284 4.88477 6.00586C4.88477 4.01888 6.5013 2.40234 8.48828 2.40234ZM8.48828 12.0117C5.13245 12.0117 2.40234 14.7059 2.40234 18.0176V19.2188H9.75648C10.0026 17.0029 10.9207 14.987 12.3024 13.3803C11.2355 12.5021 9.89309 12.0117 8.48828 12.0117ZM38.5977 21.9513L33.916 23.4824C33.5511 23.6017 33.2653 23.8883 33.1468 24.2536C32.8453 25.1833 32.5261 25.9615 32.1707 26.6326C31.9897 26.9747 31.9846 27.3832 32.157 27.7298L34.3185 32.0732L32.1532 34.2385L27.8098 32.077C27.4633 31.9046 27.0548 31.9097 26.7126 32.0907C26.0415 32.4461 25.2633 32.7653 24.3336 33.0668C23.9667 33.1858 23.6792 33.4738 23.5609 33.8409L22.0275 38.5977H18.9725L17.4392 33.8409C17.3208 33.4738 17.0334 33.1857 16.6665 33.0667C15.7367 32.7652 14.9585 32.446 14.2875 32.0907C13.9454 31.9096 13.537 31.9045 13.1903 32.0769L8.84687 34.2384L6.68156 32.0731L8.84311 27.7297C9.01552 27.3831 9.01039 26.9746 8.82933 26.6325C8.47411 25.9616 8.15484 25.1834 7.85326 24.2535C7.73483 23.8883 7.44895 23.6017 7.08411 23.4824L2.40234 21.9513V21.6211H9.75576C10.3619 27.0768 14.9998 31.2305 20.5 31.2305C26.0138 31.2305 30.6395 27.0639 31.2442 21.6211H38.5977V21.9513ZM31.2434 19.2188H38.5977V18.0176C38.5977 14.7059 35.8676 12.0117 32.5117 12.0117C31.1069 12.0117 29.7645 12.5021 28.6975 13.3803C30.0793 14.987 30.9974 17.0029 31.2434 19.2188Z" fill="#427CFB"/>
</svg>
