<svg width="50" height="50" viewBox="0 0 50 50" fill="none" xmlns="http://www.w3.org/2000/svg">
<path fill-rule="evenodd" clip-rule="evenodd" d="M45.375 20.1366C45.375 24.2119 44.1426 28.0071 42.0285 31.1802L49.9985 42.6674L40.8786 40.987L39.1783 50L31.6619 39.1666C29.5732 39.883 27.3318 40.2733 24.9992 40.2733C22.6671 40.2733 20.4256 39.883 18.3366 39.1666L10.8205 50L9.11986 40.987L0 42.6674L7.96999 31.1802C5.85629 28.0071 4.62381 24.2119 4.62381 20.1366C4.62381 9.0332 13.7641 0 24.9992 0C36.2343 0 45.375 9.0332 45.375 20.1366ZM11.5045 37.5496L12.4321 42.466L15.5501 37.9726C13.4109 36.861 11.4945 35.3855 9.88683 33.6285L6.53023 38.4666L11.5045 37.5496ZM7.60561 20.1366C7.60561 10.6583 15.4085 2.94685 24.9992 2.94685C34.5904 2.94685 42.3932 10.6583 42.3932 20.1366C42.3932 29.6154 34.5904 37.3268 24.9992 37.3268C15.4085 37.3268 7.60561 29.6154 7.60561 20.1366ZM37.5664 42.466L38.4939 37.5496L43.4686 38.4663L40.112 33.6285C38.5044 35.3855 36.5879 36.861 34.4487 37.9726L37.5664 42.466Z" fill="#427CFB"/>
<path d="M21.367 24.559L16.519 19.7681L14.4107 21.8517L21.367 28.7266L35.5882 14.6725L33.4799 12.5889L21.367 24.559Z" fill="#427CFB"/>
</svg>
