<svg width="50" height="47" viewBox="0 0 50 47" fill="none" xmlns="http://www.w3.org/2000/svg">
<path fill-rule="evenodd" clip-rule="evenodd" d="M22.9954 1.1221L23.3985 5.37936C23.4422 5.84104 23.8524 6.17991 24.3146 6.13625L25.6074 6.0141C26.0696 5.97045 26.4089 5.56083 26.3652 5.09915L25.9621 0.8419C25.9184 0.380223 25.5082 0.0414313 25.046 0.0850858L23.7532 0.207155C23.291 0.25081 22.9517 0.660428 22.9954 1.1221ZM30.4314 5.49718L31.6544 1.39913C31.787 0.954749 32.2553 0.701879 32.7003 0.834393L33.9447 1.20484C34.3896 1.33736 34.6428 1.80499 34.5102 2.24937L33.2872 6.34743C33.1545 6.79172 32.6862 7.04468 32.2414 6.91216L30.9968 6.54171C30.552 6.40928 30.2987 5.94156 30.4314 5.49718ZM39.579 4.89565L36.9079 8.23771C36.6182 8.60008 36.6777 9.12851 37.0405 9.41769L38.0555 10.2268C38.4183 10.5161 38.9473 10.4568 39.2369 10.0944L41.908 6.75231C42.1977 6.38986 42.1382 5.86152 41.7754 5.57225L40.7605 4.76314C40.3976 4.47396 39.8686 4.5332 39.579 4.89565ZM43.6466 27.8224L44.0994 26.2023C44.2243 25.7557 44.688 25.4946 45.1352 25.6194L49.184 26.7483C49.6312 26.873 49.8925 27.3361 49.7677 27.7828L49.3347 29.3316C45.8731 41.7158 33.166 49.4176 20.7078 46.1774C8.71006 43.057 1.35786 31.2024 3.54217 19.2998L0.615209 18.4837C-0.00823879 18.3099 -0.209383 17.5272 0.253036 17.075L8.65377 8.85964C9.11619 8.40743 9.89527 8.62464 10.0562 9.25066L12.9806 20.6237C13.1416 21.2498 12.5636 21.8151 11.9403 21.6413L9.25124 20.8916C7.91758 29.6908 13.464 38.3275 22.3883 40.5396C31.6798 42.8428 41.0725 37.0317 43.6466 27.8224ZM20.1816 25.7773C18.4736 26.9641 16.4691 28.3569 16.4691 31.0467C16.4691 31.3714 16.5124 31.6961 16.5607 32.058L16.5796 32.2003H25.2115V30.1688H19.1271C19.1509 29.1086 20.2526 28.3733 21.4963 27.5433C23.1306 26.4525 25.01 25.1981 25.01 22.8281C25.01 20.3747 23.0669 18.9841 20.7762 18.9841C17.6601 18.9841 16.4692 21.5836 16.4692 21.5836L18.2287 22.7551C18.2287 22.7551 19.054 21.2169 20.5747 21.2169C21.6745 21.2169 22.5535 21.895 22.5535 23.0293C22.5535 24.1291 21.4492 24.8964 20.1816 25.7773ZM32.145 19.2032L26.5367 27.404V28.8513H32.6211V32.2004H34.9491V28.8513H36.6356V26.8912H34.9491V19.2032H32.145ZM32.621 26.8912V22.8655C32.621 22.2246 32.7135 21.5106 32.7135 21.5106H32.6762C32.6762 21.5106 32.3837 22.2052 32.0345 22.7L29.0289 26.8555V26.8912H32.621ZM48.8837 19.1156L44.6378 19.6665C44.1773 19.7263 43.8526 20.1475 43.9123 20.6074L44.0797 21.8935C44.1395 22.3534 44.5613 22.6777 45.0217 22.6179L49.2676 22.067C49.728 22.0072 50.0527 21.586 49.993 21.1262L49.8256 19.84C49.7659 19.3802 49.3441 19.0559 48.8837 19.1156ZM41.8851 13.2018L45.615 11.1024C46.0195 10.8748 46.5323 11.0177 46.7602 11.4217L47.3977 12.5516C47.6257 12.9557 47.4825 13.4677 47.078 13.6953L43.3481 15.7948C42.9435 16.0224 42.4308 15.8795 42.2029 15.4755L41.5654 14.3456C41.3374 13.9415 41.4806 13.4295 41.8851 13.2018ZM16.8336 7.90137L14.8631 4.10497C14.6494 3.69323 14.8103 3.18643 15.2225 2.97314L16.3753 2.37625C16.7876 2.1628 17.295 2.32354 17.5087 2.7352L19.4792 6.53159C19.6929 6.94333 19.532 7.45005 19.1198 7.66351L17.9669 8.26031C17.5547 8.47377 17.0472 8.31302 16.8336 7.90137Z" fill="#427CFB"/>
</svg>
