<svg width="124" height="59" viewBox="0 0 124 59" fill="none" xmlns="http://www.w3.org/2000/svg">
<path d="M38.1636 38.1431H46.0052V40.6594H42.2749V58.3401H38.1636V38.1431Z" fill="#0079C2"/>
<path d="M50.6545 50.7579L51.3591 40.6594H51.5951L52.2997 50.7579H50.6545ZM46.1016 58.3401H50.1269L50.5079 52.9763H52.4464L52.829 58.3401H56.8527L54.7086 38.1431H48.2457L46.1016 58.3401Z" fill="#0079C2"/>
<path d="M62.7405 51.2711V55.0787C62.7405 55.5919 63.145 55.7409 63.381 55.7409C63.7687 55.7409 64.0384 55.4264 64.0384 55.0787V50.3771C64.0384 49.7481 63.9204 49.0527 62.3865 49.0527H60.7177V46.8344H62.4539C63.617 46.8344 64.0384 46.5695 64.0384 45.3279V41.3216C64.0384 40.974 63.7687 40.6594 63.381 40.6594C63.145 40.6594 62.7405 40.7919 62.7405 41.3216V44.616H58.6274V41.752C58.6274 40.3449 58.796 38.1431 61.6785 38.1431H65.0835C67.966 38.1431 68.1515 40.3449 68.1515 41.752V44.9802C68.1515 47.182 66.5838 47.778 65.3532 47.7284V47.927C68.1177 47.8608 68.1515 49.9467 68.1515 50.6586V54.7311C68.1515 56.1548 67.966 58.3401 65.0835 58.3401H61.6785C58.796 58.3401 58.6274 56.1548 58.6274 54.7311V51.2711H62.7405Z" fill="#0079C2"/>
<path d="M70.8486 38.1431H80.3726V58.3401H76.2596V40.6594H74.9616V58.3401H70.8486V38.1431Z" fill="#0079C2"/>
<path d="M87.1824 49.2514V40.6594H87.7218C88.16 40.6594 88.4803 41.0236 88.4803 41.6693V48.2416C88.4803 48.8872 88.16 49.2514 87.7218 49.2514H87.1824ZM83.0693 58.3401H87.1824V51.4698H89.5423C92.4079 51.4698 92.5933 49.2845 92.5933 47.8608V41.752C92.5933 40.3449 92.4079 38.1431 89.5423 38.1431H83.0693V58.3401Z" fill="#0079C2"/>
<path d="M100.701 55.0787C100.701 55.4264 100.432 55.7409 100.044 55.7409C99.8081 55.7409 99.4035 55.5919 99.4035 55.0787V41.3216C99.4035 40.7919 99.8081 40.6594 100.044 40.6594C100.432 40.6594 100.701 40.974 100.701 41.3216V55.0787ZM95.2905 54.7311C95.2905 56.1548 95.4759 58.3401 98.3416 58.3401H101.763C104.629 58.3401 104.815 56.1548 104.815 54.7311V41.752C104.815 40.3449 104.629 38.1431 101.763 38.1431H98.3416C95.4759 38.1431 95.2905 40.3449 95.2905 41.752V54.7311Z" fill="#0079C2"/>
<path d="M118.199 38.1431H123.559V58.3401H119.446V45.6755H119.295L117.171 58.3401H113.884L111.776 45.6755H111.625V58.3401H107.512V38.1431H112.855L115.535 52.3472L118.199 38.1431Z" fill="#0079C2"/>
<path d="M32.8331 10.5291C31.5739 5.11555 28.4184 0.711874 27.9835 0C27.2957 1.00987 24.779 4.90033 23.4996 9.20469C22.1022 14.0222 21.8966 18.2935 22.3787 22.4819C22.8574 26.687 24.6661 31.0079 24.6661 31.0079C25.6269 33.2594 27.0665 35.693 28.0037 36.885C29.3775 35.1301 32.5348 29.8987 33.5192 23.0779C34.067 19.2702 34.0906 15.9426 32.8331 10.5291ZM27.9835 35.5274C27.3649 34.3851 26.404 32.2164 26.313 28.8391C26.2894 25.5943 27.616 22.7965 28.0037 22.2171C28.3493 22.7965 29.4922 25.2301 29.6287 28.5577C29.7214 31.8025 28.6224 34.3686 27.9835 35.5274ZM32.4673 19.7172C32.4202 21.7866 32.169 23.9719 31.8487 25.2798C31.9633 23.0283 31.6886 19.8662 31.1627 17.383C30.6367 14.9162 29.1483 10.7774 27.9599 8.87358C26.8625 10.6947 25.5106 14.2706 24.8026 17.3664C24.0913 20.4622 24.0711 24.2202 24.0711 25.346C23.8823 24.4023 23.4103 21.0085 23.5435 17.6147C23.6547 14.8169 24.3222 11.9197 24.688 10.5953C26.0837 6.17509 27.6632 3.34415 27.9599 2.89715C28.2566 3.34415 30.2457 6.83729 31.2773 10.496C32.3038 14.1547 32.5112 17.6644 32.4673 19.7172Z" fill="#0079C2"/>
<path d="M30.1194 38.1428H20.5465V44.4504C20.555 44.4504 20.5617 44.4338 20.5701 44.4338C22.8256 42.2154 26.4835 42.2154 28.7406 44.4338C30.996 46.6357 30.996 50.2281 28.7406 52.4465C28.7305 52.4631 28.7203 52.4631 28.7102 52.4797C28.6984 52.4797 28.6866 52.4962 28.6765 52.5128C26.4261 54.6981 23.4864 55.7907 20.5465 55.7907C17.5933 55.7907 14.64 54.6981 12.3879 52.4797C8.41651 48.5892 7.94622 42.5465 10.9737 38.1428C11.3816 37.5468 11.8519 36.9839 12.3879 36.4542C14.64 34.2358 17.5933 33.1431 20.5465 33.1431V17.9785C9.19867 17.9785 0 27.0011 0 38.1428C0 49.2845 9.19867 58.3237 20.5465 58.3237C26.4632 58.3237 31.7933 55.8569 35.5422 51.9333V38.1428H30.1194Z" fill="#0079C2"/>
</svg>
