<svg width="171" height="35" viewBox="0 0 171 35" fill="none" xmlns="http://www.w3.org/2000/svg">
<g opacity="0.87">
<path d="M35 0H0V35H35V0Z" fill="#ED1A3A"/>
<path d="M29.183 4.00186C28.3925 4.00186 27.7827 4.52721 27.4891 5.16676L23.1301 12.4302C22.8365 13.0926 22.6106 13.8464 22.6106 14.3489C22.6106 14.8057 22.6784 15.194 22.8365 15.5594L27.5569 26.9343H9.26246C8.60748 26.9343 8.06542 26.2719 8.06542 25.6552V6.03472C7.90732 3.36231 4.09034 3.36231 4 6.12608L4.09034 26.9343C4.09034 29.1956 5.82944 31 8.04283 31H33L26.9245 15.2625C26.7664 14.6686 26.676 14.1433 27.0826 13.4581L31.1028 6.83415C31.1706 6.69711 31.2383 6.10324 31.2383 5.94335C31.1706 4.75562 30.2445 3.95618 29.183 4.00186ZM19.3131 4.00186C18.3419 4.00186 17.3481 4.68709 17.3481 6.03472V20.0591C17.3481 22.092 14.6379 21.9321 14.6379 20.0591V6.03472C14.6379 3.36231 10.7079 3.36231 10.7079 6.03472V20.1733C10.7079 23.4168 13.102 25.5638 15.9478 25.5638C18.884 25.5638 21.2555 23.4168 21.2555 20.1733V6.03472C21.278 4.66425 20.2843 4.00186 19.3131 4.00186Z" fill="white"/>
<path d="M52.9949 8V19.4647C52.9949 22.3401 52.6831 23.917 50.2277 23.917C49.76 23.917 49.4677 23.917 49 23.75V28.6846C49.9159 29 50.5395 29 51.2995 29C58.1979 29 58.5097 24.0654 58.5097 21.1899V12.9346H62.4851V28.7032H68V8H52.9949Z" fill="black"/>
<path d="M70 8L77.2642 23.1855L74.6038 29H80.3962L89 8H83.2075L80.0943 16.8817L76.3774 8H70Z" fill="black"/>
<path d="M91 29H96.4481V19.9489L102.05 29H109L101.28 18.1801L108.846 8H102.339L96.4481 16.8817V8H91V29Z" fill="black"/>
<path d="M118.433 29C125.676 29 129 23.7901 129 18.4197C129 13.2099 125.676 8 118.433 8C111.324 8 108 13.2099 108 18.4197C108.019 23.7901 111.343 29 118.433 29ZM118.433 24.2362C116.012 24.2362 113.591 22.2379 113.591 18.4197C113.591 14.6015 116.012 12.746 118.433 12.746C121.007 12.746 123.409 14.5837 123.409 18.4197C123.409 22.2557 121.007 24.2362 118.433 24.2362Z" fill="black"/>
<path d="M132 8.52294V29H137.244L144.737 16.7064V29H150V8.52294H144.756L137.263 20.8165V8.52294H132ZM141.153 7.42202C143.403 7.42202 145.653 6.63303 146.701 4.26605L143.555 3C143.097 4.57798 141.763 4.72477 141.153 4.72477C140.695 4.72477 139.208 4.55963 138.903 3L135.756 4.26605C136.653 6.63303 139.055 7.42202 141.153 7.42202Z" fill="black"/>
<path d="M155.995 8V19.4647C155.995 22.3401 155.683 23.917 153.228 23.917C152.76 23.917 152.468 23.917 152 23.75V28.6846C152.916 29 153.539 29 154.299 29C161.198 29 161.51 24.0654 161.51 21.1899V12.9346H165.485V28.7032H171V8H155.995Z" fill="black"/>
</g>
</svg>
