<svg width="188" height="36" viewBox="0 0 188 36" fill="none" xmlns="http://www.w3.org/2000/svg">
<path fill-rule="evenodd" clip-rule="evenodd" d="M100.902 21.729H96.0358V11.157H92.3612V21.729H87.4948V11.157H83.7209V24.3286H104.577V11.157H100.803V21.729H100.902ZM118.381 16.2697H111.231V11.2437H107.357V24.4153H111.231V18.8693H118.381V24.4153H122.254V11.157H118.381V16.2697ZM159.1 13.8433H163.37V24.4153H167.243V13.8433H172.11V11.2437H158.107L159.1 13.8433ZM70.5122 11.157L65.348 24.3286H69.3205L70.5122 21.1224H76.769L78.0601 24.4153H82.2312L76.769 11.2437H70.5122V11.157ZM71.5054 18.436L73.293 13.67H74.0875L75.8752 18.436H71.5054ZM136.456 13.8433L137.449 11.2437H124.936V24.4153H137.052V21.8156H128.809V18.956H135.96V16.3563H128.809V13.93H136.456V13.8433ZM150.857 11.0703H149.963V9.77051H146.388V11.0703H145.494C140.925 11.0703 138.045 13.41 138.045 17.8295C138.045 20.8624 139.734 24.4153 145.295 24.5019C145.494 24.5019 146.288 24.5019 146.388 24.5019V25.8018H149.963V24.5019C150.062 24.5019 150.757 24.5019 151.055 24.5019C156.617 24.4153 158.305 20.7757 158.305 17.8295C158.305 13.41 155.425 11.0703 150.857 11.0703ZM141.819 17.8295C141.819 13.8433 143.905 13.8433 145.593 13.8433C145.792 13.8433 146.487 13.8433 146.487 13.8433V21.8156C146.189 21.8156 145.792 21.8156 145.494 21.8156C143.706 21.729 141.819 21.469 141.819 17.8295ZM150.956 21.8156C150.658 21.8156 150.261 21.8156 149.963 21.8156V13.8433C149.963 13.8433 150.658 13.8433 150.857 13.8433C152.545 13.8433 154.631 13.8433 154.631 17.8295C154.631 21.469 152.744 21.729 150.956 21.8156ZM182.538 15.6631H177.572V11.157H173.699V24.3286H182.538C185.418 24.3286 188 23.2888 188 19.9958C188 16.7029 185.418 15.6631 182.538 15.6631ZM182.14 21.729H177.572V18.2627H182.14C184.027 18.2627 184.325 18.956 184.325 19.9958C184.325 21.209 184.027 21.729 182.14 21.729ZM59.3892 16.0964H54.0262V13.7567H62.5672L63.5603 11.157H50.0537V24.3286H59.2898C62.1699 24.3286 64.7521 23.5487 64.7521 20.1692C64.8514 16.8763 62.1699 16.0964 59.3892 16.0964ZM58.8926 21.729H53.9269V18.696H58.8926C60.7795 18.696 61.0775 19.2159 61.0775 20.1692C61.0775 21.3823 60.8789 21.729 58.8926 21.729Z" fill="#565655"/>
<path d="M0 18.0026C0 27.7944 9.0375 35.6799 20.2599 35.6799C31.383 35.6799 40.5198 27.7944 40.5198 18.0026C40.4205 8.21069 31.383 0.325195 20.2599 0.325195C9.0375 0.325195 0 8.21069 0 18.0026Z" fill="url(#paint0_radial)"/>
<path d="M8.93848 3.35808L20.2602 11.5902V21.2087L37.4414 8.64395C33.8661 3.61804 27.5101 0.325195 20.2602 0.325195C16.089 0.325195 12.1165 1.45169 8.93848 3.35808Z" fill="#E61972"/>
<path d="M0 18.0026C0 27.7078 9.0375 35.6799 20.2599 35.6799C31.383 35.6799 40.5198 27.7945 40.5198 18.0026C40.5198 17.396 40.5198 16.7028 40.4205 16.0962L20.2599 30.8273V21.2088L3.07871 8.64404C1.09244 11.3303 0 14.5365 0 18.0026Z" fill="#0E9B3C"/>
<defs>
<radialGradient id="paint0_radial" cx="0" cy="0" r="1" gradientUnits="userSpaceOnUse" gradientTransform="translate(21.1385 17.8543) scale(21.5768 18.8264)">
<stop stop-color="white"/>
<stop offset="0.1261" stop-color="white"/>
<stop offset="0.4182" stop-color="#FBFBFB"/>
<stop offset="0.7308" stop-color="#EEEEEE"/>
<stop offset="0.9939" stop-color="#DDDDDD"/>
<stop offset="1" stop-color="#DDDDDD"/>
</radialGradient>
</defs>
</svg>
