<svg width="189" height="37" viewBox="0 0 189 37" fill="none" xmlns="http://www.w3.org/2000/svg">
<path d="M44.3136 29.9734C45.4704 29.9734 46.1822 29.8211 46.5382 29.5166C46.8496 29.212 47.0276 28.9836 47.0276 28.7932C47.0276 28.6029 46.8496 28.3745 46.5382 28.0699C46.1822 27.7654 45.4704 27.6131 44.3136 27.6131H39.2415V29.9353H44.3136V29.9734ZM39.2415 36.6355H34.9258L34.8813 33.2854V28.3364L34.9258 24.9863H46.3157C48.2288 24.9863 49.5636 25.2909 50.2755 25.8619C50.9873 26.433 51.3433 27.2705 51.3433 28.3364V29.2881C51.3433 30.3541 50.9873 31.1916 50.2755 31.7626C49.5636 32.3337 48.2288 32.6002 46.3157 32.6002H39.2415V36.6355Z" fill="black"/>
<path d="M65.9361 29.4785C65.9361 28.8313 65.7582 28.3745 65.4467 28.0699C65.1353 27.7654 64.3789 27.6131 63.2666 27.6131H60.8196C59.7963 27.6131 59.0844 27.8034 58.7285 28.108C58.3726 28.4126 58.1946 28.8694 58.1946 29.4785V32.1433C58.1946 32.7144 58.3726 33.1712 58.7285 33.4758C59.0844 33.8184 59.7963 33.9707 60.8196 33.9707H63.2666C64.3789 33.9707 65.1353 33.8184 65.4467 33.5138C65.7137 33.2473 65.9361 32.7524 65.9806 32.1433V29.4785H65.9361ZM69.184 35.798C68.4722 36.369 67.1374 36.6355 65.2688 36.6355H58.951C57.0378 36.6355 55.7031 36.369 54.9912 35.798C54.2348 35.265 53.8789 34.3894 53.8789 33.2854V28.3364C53.8789 27.2324 54.2348 26.3568 54.9912 25.8239C55.7031 25.2909 57.0378 24.9863 58.951 24.9863H65.2688C67.1819 24.9863 68.5167 25.2909 69.184 25.8619C69.8959 26.433 70.2518 27.2705 70.2518 28.3364V33.2854C70.2518 34.3894 69.8959 35.1889 69.184 35.798Z" fill="black"/>
<path d="M88.0932 35.798C87.3814 36.369 86.0911 36.6355 84.178 36.6355H77.8602C75.947 36.6355 74.6123 36.369 73.8559 35.798C73.0996 35.265 72.7437 34.3894 72.7437 33.2854V28.3364C72.7437 27.2324 73.0996 26.3568 73.8559 25.8239C74.6123 25.2909 75.947 24.9863 77.8602 24.9863H84.178C86.0911 24.9863 87.3814 25.2909 88.0932 25.8619C88.8051 26.433 89.161 27.2705 89.161 28.3364V29.4785H84.8453C84.8453 28.8313 84.6674 28.3745 84.3559 28.0699C84 27.7654 83.2881 27.6131 82.1758 27.6131H79.7288C78.661 27.6131 77.9936 27.8034 77.5932 28.108C77.2373 28.4126 77.0593 28.8694 77.0593 29.4785V32.1433C77.0593 32.7144 77.2373 33.1712 77.5932 33.4758C77.9492 33.8184 78.661 33.9707 79.7288 33.9707H82.1758C83.2881 33.9707 84.0445 33.8184 84.3559 33.5138C84.6674 33.2473 84.8453 32.7524 84.8453 32.1433H89.161V33.2854C89.161 34.3894 88.8051 35.1889 88.0932 35.798Z" fill="black"/>
<path d="M95.9684 36.6355H91.6973V33.2854V28.3364V24.9863H95.9684V29.4404H103.754V24.9863H108.115V36.6355H103.754V32.1053H95.9684V36.6355Z" fill="black"/>
<path d="M116.167 32.1053H114.922C114.966 32.7144 115.1 33.1712 115.5 33.5138C115.856 33.8565 116.568 34.0087 117.636 34.0087H127.068V36.6736H115.678C113.765 36.6736 112.43 36.4071 111.674 35.8361C110.962 35.3031 110.562 34.4275 110.562 33.3235V28.3745C110.562 27.2705 110.917 26.3949 111.674 25.8619C112.43 25.329 113.765 25.0244 115.678 25.0244H126.979V27.6893H117.547C116.479 27.6893 115.767 27.8796 115.411 28.1842C115.055 28.4887 114.877 28.9075 114.833 29.5166H126.934V32.1814H116.167" fill="black"/>
<path d="M160.214 27.6131H154.297V24.9863H170.67V27.6131H164.485V36.6355H160.214V27.6131Z" fill="black"/>
<path d="M176.898 31.6486V33.9708H181.97C183.127 33.9708 183.839 33.8185 184.15 33.5521C184.462 33.2475 184.64 33.0191 184.64 32.8287C184.64 32.6384 184.462 32.3719 184.15 32.1054C183.839 31.8008 183.083 31.6486 181.97 31.6486H176.898ZM176.898 28.9837H183.972C185.886 28.9837 187.22 29.2882 187.888 29.8593C188.6 30.4303 188.955 31.2679 188.955 32.3338V33.2475C188.955 34.3135 188.6 35.151 187.888 35.722C187.176 36.2931 185.841 36.5977 183.972 36.5977H172.627L172.583 33.2475V28.2984L172.627 24.9482H176.943V28.9837H176.898Z" fill="black"/>
<path d="M133.697 30.5065C133.697 29.0598 135.21 29.2121 135.21 29.2121H139.57V31.6867H135.165C135.165 31.6867 133.697 31.7247 133.697 30.5065ZM148.201 31.6867H143.796V29.2121H148.157C148.157 29.2121 149.669 29.0598 149.669 30.5065C149.669 31.7247 148.201 31.6867 148.201 31.6867ZM150.47 26.7375H143.796V24.9102H139.57V26.7375H132.718C132.718 26.7375 128.803 26.8517 128.803 30.3923C128.803 33.9709 132.807 34.0089 132.807 34.0089H139.525V36.75H143.752V34.0089H150.381C150.381 34.0089 154.385 33.9709 154.385 30.3923C154.341 26.8517 150.47 26.7375 150.47 26.7375Z" fill="black"/>
<path d="M12.9915 21.1416H9.12061V36.636H12.9915V21.1416Z" fill="#FFD200"/>
<path d="M17.5299 17.9053H13.6592V36.6357H17.5299V17.9053Z" fill="#FFD200"/>
<path d="M22.0679 21.1416H18.2417V36.636H22.0679V21.1416Z" fill="#FFD200"/>
<path d="M3.82629 21.7502L0 18.9712V11.0146H3.82629V21.7502Z" fill="black"/>
<path d="M8.40894 25.2148L4.53809 22.1312V7.51221H8.40894V25.2148Z" fill="black"/>
<path d="M12.9915 4.04785H9.12061V20.6465H12.9915V4.04785Z" fill="black"/>
<path d="M17.5294 0.583496H13.6587V17.2581H17.5294V0.583496Z" fill="black"/>
<path d="M27.3623 21.7502L31.1885 18.9712V11.0146H27.3623V21.7502Z" fill="black"/>
<path d="M22.7798 25.2148L26.6061 22.1312V7.51221H22.7798V25.2148Z" fill="black"/>
<path d="M22.0679 4.04785H18.2417V20.6465H22.0679V4.04785Z" fill="black"/>
</svg>
