<svg width="51" height="51" viewBox="0 0 51 51" fill="none" xmlns="http://www.w3.org/2000/svg">
<path fill-rule="evenodd" clip-rule="evenodd" d="M0 25.5C0 11.4392 11.4392 0 25.5 0C39.5608 0 51 11.4392 51 25.5C51 39.5608 39.5608 51 25.5 51C11.4392 51 0 39.5608 0 25.5ZM2.65509 25.5C2.65509 38.0967 12.9033 48.3449 25.5 48.3449C38.0967 48.3449 48.3449 38.0967 48.3449 25.5C48.3449 12.9033 38.0967 2.65509 25.5 2.65509C12.9033 2.65509 2.65509 12.9033 2.65509 25.5Z" fill="#427CFB"/>
<path d="M33.7401 11.4636C33.1082 11.0919 32.2944 11.3032 31.9228 11.9351C31.5511 12.567 31.7621 13.3807 32.3942 13.7524C36.5426 16.192 39.1196 20.6934 39.1196 25.5C39.1196 33.0099 33.01 39.1195 25.5001 39.1195C17.9902 39.1195 11.8806 33.0097 11.8806 25.5C11.8806 20.6934 14.4575 16.192 18.6059 13.7524C19.2379 13.3808 19.449 12.5671 19.0774 11.9351C18.7058 11.3031 17.8922 11.0922 17.2601 11.4636C12.3042 14.3783 9.22559 19.7567 9.22559 25.5C9.22559 34.4739 16.5263 41.7746 25.5002 41.7746C34.4741 41.7746 41.7747 34.4739 41.7745 25.5C41.7745 19.7568 38.6959 14.3783 33.7401 11.4636Z" fill="#427CFB"/>
<path d="M25.5 7.45398C24.7667 7.45398 24.1724 8.04845 24.1724 8.78157V25.5C24.1724 26.2332 24.7667 26.8276 25.5 26.8276C26.2332 26.8276 26.8276 26.2332 26.8276 25.5V8.78157C26.8276 8.04855 26.2332 7.45398 25.5 7.45398Z" fill="#427CFB"/>
</svg>
