<svg width="49" height="49" viewBox="0 0 49 49" fill="none" xmlns="http://www.w3.org/2000/svg">
<path fill-rule="evenodd" clip-rule="evenodd" d="M0.0473633 24.5C0.0473633 37.983 11.0168 48.9525 24.4998 48.9525C37.9827 48.9525 48.9522 37.983 48.9522 24.5C48.9522 11.0171 37.9827 0.0476074 24.4998 0.0476074C11.0168 0.0476074 0.0473633 11.0171 0.0473633 24.5ZM2.49255 24.5C2.49255 12.3659 12.3656 2.49279 24.4998 2.49279C36.6339 2.49279 46.507 12.3659 46.507 24.5C46.507 36.6342 36.6339 46.5073 24.4998 46.5073C12.3656 46.5073 2.49255 36.6342 2.49255 24.5Z" fill="#427CFB"/>
<path fill-rule="evenodd" clip-rule="evenodd" d="M17.8331 42.7071C18.0088 42.7966 18.1985 42.8392 18.3866 42.8392C18.733 42.8392 19.0727 42.6926 19.3111 42.4161L35.2051 24.0769C35.5191 23.7154 35.5924 23.2038 35.3932 22.769C35.1939 22.3347 34.7602 22.0548 34.2806 22.0548H28.4819L31.8035 7.65961C31.9311 7.11226 31.668 6.54811 31.1666 6.29402C30.6668 6.03993 30.0568 6.15858 29.6885 6.58393L13.7945 24.9231C13.4805 25.2847 13.4072 25.7962 13.6065 26.2311C13.8057 26.6654 14.2394 26.9452 14.7191 26.9452H20.5178L17.1962 41.3415C17.0702 41.8894 17.3327 42.453 17.8331 42.7071ZM22.0546 24.5H17.3965L28.3156 11.9008L25.7529 23.0023C25.6701 23.3667 25.7568 23.7484 25.988 24.0388C26.2202 24.3299 26.5723 24.5 26.945 24.5H31.6031L20.684 37.0992L23.2456 25.9977C23.3284 25.6333 23.2428 25.2516 23.0105 24.9612C22.7794 24.6701 22.4274 24.5 22.0546 24.5Z" fill="#427CFB"/>
</svg>
