<svg width="55" height="56" viewBox="0 0 55 56" fill="none" xmlns="http://www.w3.org/2000/svg">
<path fill-rule="evenodd" clip-rule="evenodd" d="M53.9273 0.120646H0.953962C0.70433 0.111258 0.461279 0.203734 0.281694 0.37695C0.101639 0.550166 9.3751e-05 0.789101 0.000563869 1.03836V43.8317C-0.00601777 44.3668 0.418028 44.8085 0.953962 44.8245H19.0897L17.3799 49.9919H12.9504C12.4187 49.9919 12.0356 50.4341 12.0356 50.9655V54.9635C12.0266 55.209 12.1197 55.447 12.2932 55.6207C12.4667 55.7944 12.7046 55.8888 12.9504 55.8803H41.9308C42.1767 55.8888 42.4146 55.7944 42.588 55.6207C42.7615 55.4466 42.8546 55.2086 42.8452 54.9631V50.9655C42.8452 50.4346 42.463 49.9919 41.9308 49.9919H37.5004L35.7906 44.8245H53.9273C54.4632 44.8085 54.8873 44.3664 54.8802 43.8312V1.03836C54.8807 0.789101 54.7796 0.550166 54.5996 0.37695C54.4195 0.203734 54.1769 0.111258 53.9273 0.120646ZM40.9196 51.9146V53.9576H13.9612V51.9146H40.9196ZM21.1164 44.8245L19.4065 49.9919H35.4747L33.7649 44.8245H21.1164ZM52.9546 42.9018H1.92617V36.6528H52.9546V42.9018ZM1.92617 34.7301H52.9546V2.04339H1.92617V34.7301Z" fill="#427CFB"/>
<path fill-rule="evenodd" clip-rule="evenodd" d="M16.3876 22.3651L14.2091 22.1538C13.7197 22.1045 13.3501 21.6882 13.3596 21.1972V17.347C13.3501 16.8555 13.7201 16.4391 14.21 16.3898L16.3805 16.1781C16.6353 15.2956 16.9945 14.4464 17.451 13.6489L16.0608 11.9749C15.7435 11.5928 15.7698 11.0318 16.122 10.6807L18.8477 7.96512C19.1994 7.61447 19.7597 7.58865 20.1424 7.90504L21.8151 9.28983C22.6152 8.83074 23.4694 8.4721 24.3575 8.22237L24.5686 6.04191C24.616 5.54808 25.0302 5.17066 25.5271 5.16785H29.3877C29.8847 5.17019 30.2993 5.54808 30.3468 6.04191L30.5579 8.22565C31.4431 8.48008 32.2949 8.83919 33.0951 9.29546L34.7729 7.90598C35.157 7.58818 35.7202 7.61588 36.0714 7.96982L38.7633 10.6854C39.1112 11.037 39.1352 11.5952 38.8188 11.9754L37.4296 13.6451C37.8879 14.4427 38.2457 15.2937 38.4949 16.1786L40.6724 16.3898C41.1618 16.4396 41.5313 16.856 41.5215 17.347V21.1972C41.5313 21.6877 41.1628 22.1036 40.6739 22.1538L38.5358 22.3651C38.2805 23.2476 37.9208 24.0972 37.4648 24.8952L38.854 26.5683C39.1718 26.9508 39.1455 27.5118 38.7929 27.8629L36.0676 30.5795C35.7165 30.9301 35.1556 30.9564 34.7729 30.6405L33.0998 29.2585C32.3001 29.7185 31.4459 30.0786 30.5579 30.3297L30.3463 32.5182C30.3002 33.0153 29.8879 33.3988 29.3877 33.4082H25.5271C25.0274 33.3988 24.6146 33.0153 24.5686 32.5182L24.3575 30.3185C23.4722 30.064 22.6204 29.7049 21.8203 29.2491L20.1424 30.6391C19.7597 30.9555 19.1994 30.9296 18.8477 30.579L16.1229 27.8634C15.7708 27.5123 15.7449 26.9513 16.0627 26.5692L17.4515 24.899C16.9936 24.1015 16.6363 23.2504 16.3876 22.3651ZM17.2592 18.0276L15.2852 18.2201L15.2842 20.325L17.2582 20.517C17.6696 20.5583 18.0057 20.8639 18.0852 21.2694C18.331 22.404 18.7871 23.4823 19.4306 24.4488C19.6662 24.8023 19.6417 25.268 19.3705 25.5952L18.103 27.1222L19.5867 28.6013L21.117 27.3353C21.4404 27.0687 21.8997 27.0419 22.2518 27.2691C23.2273 27.9085 24.3109 28.3661 25.45 28.6201C25.8623 28.7116 26.1684 29.0581 26.2083 29.4782L26.4006 31.485H28.5138L28.7065 29.4782C28.7456 29.0567 29.0497 28.7069 29.462 28.6098C30.5997 28.3666 31.6814 27.9122 32.6513 27.2705C33.0053 27.0372 33.4702 27.0621 33.797 27.3325L35.3267 28.5994L36.8104 27.1208L35.5416 25.5937C35.2713 25.2703 35.244 24.8089 35.4729 24.4554C36.1104 23.4818 36.5664 22.4012 36.8194 21.2657C36.9054 20.861 37.2434 20.5583 37.6552 20.5174L39.5959 20.325V18.2201L37.6237 18.0272C37.2119 17.9858 36.8758 17.6803 36.7963 17.2751C36.5509 16.1406 36.0944 15.0623 35.4508 14.0958C35.2153 13.7423 35.2398 13.2766 35.511 12.9494L36.7822 11.4187L35.3234 9.94749L33.7979 11.2107C33.4745 11.4778 33.0156 11.505 32.663 11.2788C31.6871 10.6404 30.6035 10.1841 29.4648 9.932C29.0535 9.84375 28.747 9.49966 28.7065 9.08188L28.5138 7.09059H26.4006L26.2088 9.08235C26.1688 9.50013 25.8633 9.84468 25.4529 9.93481C24.3152 10.178 23.2334 10.6324 22.2636 11.2741C21.91 11.5074 21.4446 11.4825 21.1184 11.2121L19.5881 9.94514L18.1049 11.4238L19.3738 12.9499C19.6441 13.2738 19.6713 13.7348 19.4419 14.0882C18.8049 15.0623 18.3489 16.1434 18.096 17.2794C18.01 17.684 17.6715 17.9868 17.2592 18.0276Z" fill="#427CFB"/>
<path fill-rule="evenodd" clip-rule="evenodd" d="M34.8235 19.2655C34.8273 23.3396 31.5233 26.6453 27.4432 26.65C23.3616 26.6486 20.0515 23.3476 20.0449 19.2716C20.0449 15.1975 23.3513 11.8947 27.4314 11.8928C31.5111 11.8914 34.8202 15.1919 34.8235 19.2655ZM32.8979 19.2787C32.9017 16.2664 30.4599 13.8217 27.4432 13.8165C24.4245 13.8174 21.9762 16.2584 21.9705 19.2726C21.9705 22.2844 24.4147 24.7268 27.4314 24.7282C30.4477 24.7301 32.8946 22.2905 32.8979 19.2787Z" fill="#427CFB"/>
</svg>
