<svg width="51" height="51" viewBox="0 0 51 51" fill="none" xmlns="http://www.w3.org/2000/svg">
<path fill-rule="evenodd" clip-rule="evenodd" d="M49.2836 22.2431C50.2968 22.6014 50.9757 23.557 50.9801 24.6322C50.9757 25.7067 50.2968 26.6626 49.2839 27.0206V50.0814C49.2839 50.5499 48.9038 50.9297 48.4354 50.9297H38.2553C37.7871 50.9297 37.4074 50.5499 37.4074 50.0814V27.0206C36.678 26.7669 36.1047 26.1935 35.8503 25.4642C35.3909 24.1447 36.0878 22.7028 37.4074 22.2431V16.9968H34.8113C34.6603 17.2352 34.505 17.4653 34.3406 17.6816C33.7128 18.5193 32.9685 19.2626 32.1306 19.8901C27.2628 23.5349 20.3614 22.5435 16.7166 17.6757C16.5554 17.4646 16.4013 17.2352 16.2503 16.9968H13.6543V22.2431C14.3836 22.4971 14.9566 23.0705 15.211 23.7995C15.6704 25.119 14.9738 26.5608 13.6543 27.0206V50.0814C13.6543 50.5499 13.2745 50.9297 12.806 50.9297H2.62594C2.15778 50.9297 1.77802 50.5499 1.77802 50.0814V27.0206C1.04869 26.7669 0.475315 26.1935 0.220999 25.4642C-0.238449 24.1447 0.458505 22.7028 1.77802 22.2431V12.7556C1.78269 8.54088 5.19804 5.12553 9.41277 5.12086H16.2503C16.4013 4.88242 16.5566 4.65238 16.721 4.43604C17.3488 3.5987 18.0928 2.85506 18.9308 2.22752C23.7988 -1.41725 30.6999 -0.425827 34.3444 4.44196C34.5059 4.65394 34.6603 4.88242 34.8113 5.12086H41.6488C45.8633 5.12553 49.2789 8.54088 49.2836 12.7556V22.2431ZM33.6032 6.38995C33.4217 6.06839 33.2188 5.7596 32.9959 5.46513C31.4196 3.34532 29.0106 2.00277 26.3787 1.77679V7.78603C27.566 8.09669 28.4929 9.02368 28.8036 10.2106H34.8063C34.6918 8.86711 34.2824 7.56534 33.6085 6.39773L33.6032 6.38995ZM25.5308 12.7556C24.5935 12.7556 23.834 11.9958 23.834 11.0588C23.834 10.1219 24.5935 9.36204 25.5308 9.36204C26.4678 9.36204 27.2273 10.1219 27.2273 11.0588C27.2273 11.9958 26.4678 12.7556 25.5308 12.7556ZM24.6823 7.78603V1.77585C22.0544 2.00309 19.6492 3.34408 18.0738 5.46015C17.8494 5.75711 17.6452 6.0687 17.4621 6.39337C16.7848 7.56191 16.373 8.86524 16.2553 10.2106H22.2577C22.5681 9.02368 23.4954 8.09669 24.6823 7.78603ZM11.9575 49.2329H3.47449V27.1769H11.9575V49.2329ZM2.62594 25.4801H12.806C13.2745 25.4801 13.6543 25.1003 13.6543 24.6322C13.6543 24.1634 13.2745 23.7836 12.806 23.7836H2.62594C2.15778 23.7836 1.77802 24.1634 1.77802 24.6322C1.77802 25.1003 2.15778 25.4801 2.62594 25.4801ZM12.806 15.3003C12.3372 15.3003 11.9575 15.6804 11.9575 16.1489V22.0868H3.47449V12.7556C3.47823 9.47752 6.13468 6.82076 9.41277 6.81733H15.3507V6.82325C15.2268 7.11927 15.121 7.42121 15.0236 7.72751C14.9996 7.80284 14.9759 7.87942 14.9538 7.95568C14.8639 8.25918 14.7842 8.56579 14.7204 8.87582V8.89232C14.6569 9.20765 14.613 9.52671 14.5772 9.84732L14.5763 9.85601C14.5682 9.93307 14.5601 10.0096 14.5535 10.0876C14.5249 10.4098 14.5053 10.7329 14.5053 11.0588C14.5053 11.3847 14.5249 11.7085 14.5535 12.0309C14.5603 12.1087 14.5685 12.1865 14.5767 12.2645L14.5767 12.2646L14.5772 12.2694C14.613 12.5909 14.6581 12.9103 14.7216 13.2269V13.2319C14.7851 13.5494 14.8679 13.8616 14.9588 14.1701L14.9646 14.189L14.9647 14.1893L14.9647 14.1896L14.9649 14.19C14.9842 14.254 15.0033 14.317 15.0236 14.3799C15.1219 14.6915 15.2303 14.9993 15.357 15.3003H12.806ZM17.4531 15.7196C17.6361 16.044 17.841 16.3552 18.0657 16.6528H18.0701C19.6451 18.7714 22.0523 20.1136 24.6826 20.3412V14.3316C23.4954 14.0216 22.5684 13.094 22.2577 11.9074H16.2553C16.3702 13.2502 16.7792 14.552 17.4531 15.7196ZM26.3787 20.3421V14.3316C27.566 14.0216 28.4929 13.094 28.8036 11.9074H34.8063C34.6886 13.253 34.2765 14.5564 33.5989 15.7246C33.4164 16.0489 33.2119 16.3608 32.9872 16.6578C31.4121 18.7736 29.0072 20.1146 26.3787 20.3421ZM35.7106 15.2944V15.3003H38.2553C38.7238 15.3003 39.1038 15.6804 39.1038 16.1489V22.0868H47.5868V12.7556C47.5834 9.47752 44.9266 6.82076 41.6488 6.81733H35.7106V6.82511C35.8342 7.11958 35.9403 7.42121 36.0368 7.72596C36.0617 7.80284 36.0854 7.88097 36.1084 7.9591C36.1965 8.25762 36.2765 8.55987 36.3381 8.86524L36.3447 8.89512C36.4085 9.20951 36.4527 9.52795 36.4885 9.84764L36.4949 9.90998C36.501 9.968 36.5071 10.0258 36.5121 10.0883C36.5408 10.4098 36.5604 10.7335 36.5604 11.0588C36.5604 11.3847 36.5408 11.7082 36.5121 12.0313C36.5053 12.1109 36.4972 12.1897 36.4885 12.2697C36.4527 12.59 36.4085 12.91 36.3447 13.2253L36.3409 13.2418C36.2771 13.5519 36.1971 13.8585 36.1075 14.162C36.0854 14.2382 36.0617 14.3148 36.038 14.3904C35.9406 14.6955 35.8342 14.9987 35.7106 15.2944ZM47.5868 49.2329H39.1038V27.1769H47.5868V49.2329ZM38.2553 25.4801H48.4354C48.9038 25.4801 49.2836 25.1003 49.2836 24.6322C49.2836 24.1634 48.9038 23.7836 48.4354 23.7836H38.2553C37.7871 23.7836 37.407 24.1634 37.407 24.6322C37.407 25.1003 37.7871 25.4801 38.2553 25.4801Z" fill="#427CFB"/>
</svg>
