<svg width="48" height="61" viewBox="0 0 48 61" fill="none" xmlns="http://www.w3.org/2000/svg">
<path fill-rule="evenodd" clip-rule="evenodd" d="M41.874 7.99014H36.3497V5.52193C36.3497 4.72338 35.4775 4.36043 34.6779 4.36043H30.3894C29.3718 1.45661 26.8276 0.00470044 23.9201 0.00470044C21.0445 -0.103265 18.429 1.65768 17.4508 4.36043H13.2349C12.4353 4.36043 11.6357 4.72338 11.6357 5.52193V7.99014H6.11125C2.83751 8.02502 0.159249 10.6042 0.00537109 13.8703V55.4675C0.00537109 58.6617 2.91292 60.9847 6.11125 60.9847H41.874C45.0724 60.9847 47.9799 58.6617 47.9799 55.4675V13.8705C47.826 10.6042 45.1478 8.02502 41.874 7.99014ZM14.5431 7.26426H18.541C19.2389 7.17922 19.7995 6.64898 19.9222 5.95755C20.3526 4.08531 21.9973 2.74136 23.9201 2.69078C25.8251 2.74845 27.445 4.09656 27.8452 5.95755C27.9756 6.67288 28.5732 7.20993 29.299 7.26426H33.4423V13.0719H14.5431V7.26426ZM41.874 58.081C43.4732 58.081 45.0724 57.0647 45.0724 55.4676H45.0722V13.8703C44.9239 12.2079 43.5447 10.9245 41.8739 10.894H36.3496V14.5965C36.2373 15.4212 35.5098 16.0213 34.6778 15.9759H13.2347C12.4178 16.0184 11.7124 15.4099 11.6356 14.5965V10.8941H6.11125C4.44029 10.9245 3.06123 12.208 2.91292 13.8705V55.4676C2.91292 57.0647 4.51208 58.081 6.11125 58.081H41.874Z" fill="#2960D8"/>
<path d="M18.3952 32.4548C17.85 31.8808 16.9448 31.8485 16.3599 32.3823L11.7078 36.8106L9.74523 34.7778C9.19998 34.2038 8.2948 34.1716 7.70989 34.7053C7.14683 35.2945 7.14683 36.2214 7.70989 36.8106L10.6901 39.8596C10.948 40.1481 11.3206 40.3076 11.7077 40.2952C12.0911 40.2898 12.4569 40.1332 12.7253 39.8596L18.395 34.4876C18.9571 33.9726 18.9946 33.1 18.4789 32.5388C18.4524 32.5095 18.4245 32.4815 18.3952 32.4548Z" fill="#2960D8"/>
<path d="M39.2571 35.5764H22.5387C21.7358 35.5764 21.085 36.2264 21.085 37.0283C21.085 37.8302 21.7358 38.4802 22.5387 38.4802H39.2571C40.06 38.4802 40.7108 37.8302 40.7108 37.0283C40.7108 36.2264 40.06 35.5764 39.2571 35.5764Z" fill="#2960D8"/>
<path d="M18.3952 20.8396C17.85 20.2656 16.9448 20.2332 16.3599 20.7671L11.7078 25.1953L9.74523 23.1626C9.19998 22.5886 8.2948 22.5562 7.70989 23.0901C7.14683 23.6792 7.14683 24.6062 7.70989 25.1953L10.6901 28.2444C10.948 28.5328 11.3206 28.6924 11.7077 28.68C12.0911 28.6746 12.4569 28.518 12.7253 28.2444L18.395 22.8723C18.9571 22.3574 18.9946 21.4848 18.4789 20.9235C18.4524 20.8942 18.4245 20.8663 18.3952 20.8396Z" fill="#2960D8"/>
<path d="M39.2571 23.9612H22.5387C21.7358 23.9612 21.085 24.6112 21.085 25.4131C21.085 26.215 21.7358 26.865 22.5387 26.865H39.2571C40.06 26.865 40.7108 26.215 40.7108 25.4131C40.7108 24.6112 40.06 23.9612 39.2571 23.9612Z" fill="#2960D8"/>
<path d="M18.3952 44.07C17.85 43.496 16.9448 43.4638 16.3599 43.9975L11.7078 48.4258L9.74523 46.393C9.19998 45.819 8.2948 45.7868 7.70989 46.3205C7.14683 46.9097 7.14683 47.8366 7.70989 48.4258L10.6901 51.4748C10.948 51.7633 11.3206 51.9228 11.7077 51.9104C12.0911 51.905 12.4569 51.7484 12.7253 51.4748L18.395 46.1028C18.9571 45.5878 18.9946 44.7152 18.4789 44.154C18.4524 44.1248 18.4245 44.0968 18.3952 44.07Z" fill="#2960D8"/>
<path d="M39.2571 47.1917H22.5387C21.7358 47.1917 21.085 47.8417 21.085 48.6436C21.085 49.4455 21.7358 50.0955 22.5387 50.0955H39.2571C40.06 50.0955 40.7108 49.4455 40.7108 48.6436C40.7108 47.8417 40.06 47.1917 39.2571 47.1917Z" fill="#2960D8"/>
</svg>
