<svg width="55" height="55" viewBox="0 0 55 55" fill="none" xmlns="http://www.w3.org/2000/svg">
<path fill-rule="evenodd" clip-rule="evenodd" d="M0 27.5C0 12.2994 12.3015 0 27.5 0C42.7006 0 55 12.3015 55 27.5C55 42.7006 42.6985 55 27.5 55C12.2994 55 0 42.6985 0 27.5ZM4.29688 27.5C4.29688 40.3256 14.6761 50.7031 27.5 50.7031C40.3256 50.7031 50.7031 40.3239 50.7031 27.5C50.7031 14.6744 40.3239 4.29688 27.5 4.29688C14.6744 4.29688 4.29688 14.6761 4.29688 27.5ZM38.1343 13.8276L33.7305 18.2311C31.9496 17.0301 29.8054 16.3281 27.5 16.3281C21.3396 16.3281 16.3281 21.3396 16.3281 27.5C16.3281 33.6604 21.3396 38.6719 27.5 38.6719C33.6604 38.6719 38.6719 33.6604 38.6719 27.5C38.6719 25.1946 37.9699 23.0508 36.7689 21.2695L41.1724 16.8661C42.0116 16.0268 42.0116 14.6664 41.1724 13.8276C40.3336 12.9884 38.9732 12.9884 38.1343 13.8276ZM20.625 27.5C20.625 31.2908 23.7092 34.375 27.5 34.375C31.2908 34.375 34.375 31.2908 34.375 27.5C34.375 23.7092 31.2908 20.625 27.5 20.625C23.7092 20.625 20.625 23.7092 20.625 27.5Z" fill="#4A78DE"/>
</svg>
