<svg width="54" height="55" viewBox="0 0 54 55" fill="none" xmlns="http://www.w3.org/2000/svg">
<path d="M30.871 19.8276H34.1429V35.069H30.871V28.9289H24.0219V35.069H20.75V19.8276H24.0219V25.9677H30.871V19.8276Z" fill="#2960D8"/>
<path fill-rule="evenodd" clip-rule="evenodd" d="M27 53.0001C40.8071 53.0001 52 41.7609 52 27.8967C52 14.0324 40.8071 2.79321 27 2.79321C13.1929 2.79321 2 14.0324 2 27.8967C2 41.7609 13.1929 53.0001 27 53.0001Z" stroke="#4A78DE" stroke-width="3.6"/>
<path fill-rule="evenodd" clip-rule="evenodd" d="M41.2856 13.5517C44.7374 13.5517 47.5356 10.7419 47.5356 7.27586C47.5356 3.8098 44.7374 1 41.2856 1C37.8339 1 35.0356 3.8098 35.0356 7.27586C35.0356 10.7419 37.8339 13.5517 41.2856 13.5517Z" fill="#4A78DE"/>
</svg>
