<svg width="37" height="54" viewBox="0 0 37 54" fill="none" xmlns="http://www.w3.org/2000/svg">
<path fill-rule="evenodd" clip-rule="evenodd" d="M34.8977 0H2.10227C0.941188 0 0 0.944367 0 2.10938V51.8906C0 53.0556 0.941188 54 2.10227 54H34.8977C36.0588 54 37 53.0556 37 51.8906V2.10938C37 0.944367 36.0588 0 34.8977 0ZM18.5 45.5625C24.294 45.5625 29.0077 40.8312 29.0077 35.0156C29.0077 31.6883 27.4243 28.5591 24.805 26.5814V10.5469C24.805 9.38187 23.8638 8.4375 22.7028 8.4375H14.2973C13.1363 8.4375 12.1951 9.38187 12.1951 10.5469V26.5814C9.57585 28.5591 7.99232 31.6883 7.99232 35.0156C7.99232 40.8312 12.706 45.5625 18.5 45.5625ZM15.3506 29.5353C15.9999 29.1581 16.3995 28.4624 16.3995 27.7097V12.6562H20.6004V27.7097C20.6004 28.4624 21.0001 29.158 21.6493 29.5353C23.5946 30.6652 24.803 32.7652 24.803 35.0156C24.803 38.505 21.9755 41.3438 18.4999 41.3438C15.0243 41.3438 12.1968 38.505 12.1968 35.0156C12.1969 32.7652 13.4052 30.6652 15.3506 29.5353ZM18.5 32.9062C17.3389 32.9062 16.3977 33.8506 16.3977 35.0156C16.3977 36.1806 17.3389 37.125 18.5 37.125C19.6611 37.125 20.6023 36.1806 20.6023 35.0156C20.6023 33.8506 19.6611 32.9062 18.5 32.9062ZM3 51H34V3H3V51Z" fill="#4A78DE"/>
</svg>
