<svg width="67" height="67" viewBox="0 0 67 67" fill="none" xmlns="http://www.w3.org/2000/svg">
<path fill-rule="evenodd" clip-rule="evenodd" d="M40.8023 46.8945C41.5238 47.3109 42.2454 47.7356 42.9485 48.1581C44.1263 48.866 44.6172 50.3597 44.0904 51.6325L42.553 55.3441C42.0258 56.617 40.6224 57.3263 39.2888 56.9937C38.4953 56.7959 37.6847 56.5862 36.8779 56.3698C35.9759 57.5116 34.9417 58.546 33.8016 59.4471C34.0193 60.2591 34.2291 61.0694 34.4254 61.8574C34.7578 63.191 34.0483 64.5943 32.776 65.1214L29.0645 66.6588C27.7915 67.1859 26.2979 66.6952 25.5897 65.5171C25.1666 64.8128 24.742 64.0916 24.3268 63.3717C22.8833 63.5406 21.4207 63.5403 19.9756 63.3709C19.5553 64.0992 19.1307 64.8205 18.7121 65.517C18.1953 66.3759 17.2612 66.8694 16.2997 66.8694C15.9426 66.8694 15.5818 66.8013 15.237 66.6585L11.5253 65.121C10.2527 64.5939 9.54356 63.1906 9.87595 61.857C10.0733 61.0647 10.2832 60.2542 10.5 59.4459C9.3581 58.5439 8.32385 57.5101 7.42255 56.3698C6.61476 56.5866 5.80449 56.7963 5.0125 56.9935C3.67799 57.326 2.27543 56.6165 1.74831 55.344L0.210838 51.6325C-0.316281 50.3596 0.17466 48.866 1.35245 48.158C2.05366 47.7367 2.77486 47.3121 3.49815 46.8948C3.32902 45.4511 3.32941 43.9889 3.49893 42.5436C2.7763 42.1266 2.05471 41.7018 1.35271 41.28C0.174921 40.5721 -0.31602 39.0784 0.210968 37.8057L1.74805 34.0943C2.2753 32.8218 3.67825 32.112 5.01224 32.4446C5.80384 32.6418 6.61437 32.8516 7.42359 33.0688C8.32528 31.9269 9.35941 30.8924 10.4997 29.9913C10.2836 29.186 10.0738 28.3758 9.87595 27.581C9.54356 26.2474 10.253 24.8441 11.5253 24.317L15.2369 22.7796C16.5096 22.2524 18.0032 22.7432 18.7116 23.9212C19.1317 24.6202 19.5563 25.3416 19.9745 26.0666C21.4181 25.8974 22.8803 25.8978 24.3257 26.0675C24.7426 25.3447 25.1675 24.6231 25.5892 23.9212C26.2973 22.7429 27.7913 22.2523 29.0639 22.7796L32.7754 24.317C34.0481 24.8442 34.7572 26.2474 34.4249 27.581C34.2274 28.3742 34.0174 29.1847 33.8008 29.9921C34.9427 30.894 35.977 31.9279 36.8783 33.0684C37.6855 32.8518 38.4957 32.642 39.2886 32.4446C40.6228 32.1122 42.0255 32.8215 42.5527 34.0941L44.0901 37.8057L44.0902 37.8058C44.6173 39.0788 44.1263 40.5724 42.9482 41.2803C42.2486 41.7009 41.5274 42.1254 40.803 42.5433C40.9723 43.9862 40.9719 45.4488 40.8023 46.8945ZM37.5374 53.4475C38.3101 53.6557 39.0872 53.8576 39.8495 54.0485L41.2622 50.6366C40.5862 50.2315 39.894 49.825 39.2024 49.4268C38.2207 48.8617 37.6765 47.7734 37.8157 46.654C37.9758 45.3674 37.9761 44.0641 37.8164 42.7806C37.6773 41.6624 38.2218 40.5749 39.2033 40.0097C39.8973 39.6101 40.5892 39.2038 41.2622 38.8003L39.8492 35.3888C39.0879 35.5796 38.3114 35.7816 37.5383 35.9897C36.4441 36.2841 35.2905 35.9 34.5983 35.011C33.8032 33.9902 32.8816 33.0689 31.8591 32.2729C30.9691 31.58 30.5842 30.4255 30.8787 29.3318C31.087 28.5585 31.2889 27.7815 31.4799 27.0197L28.0682 25.6067C27.6639 26.2815 27.2573 26.9737 26.8586 27.6665C26.2936 28.6479 25.2056 29.1926 24.0857 29.0531C22.7988 28.8927 21.4958 28.8927 20.2124 29.0524C19.0953 29.1923 18.0067 28.6472 17.4415 27.6657C17.0414 26.9707 16.635 26.2788 16.2322 25.6067L12.8206 27.0197C13.0119 27.783 13.2138 28.5595 13.4215 29.3306C13.716 30.4243 13.3319 31.5784 12.4427 32.2708C11.422 33.0656 10.5006 33.9872 9.70459 35.0098C9.01135 35.8999 7.8568 36.2849 6.76339 35.9903C5.98838 35.7817 5.21154 35.5798 4.45143 35.3892L3.03829 38.8007C3.71325 39.2055 4.40546 39.6119 5.09818 40.0108C6.08019 40.576 6.62416 41.6646 6.48468 42.7839C6.32495 44.0697 6.32455 45.3729 6.48428 46.657C6.62325 47.7752 6.07889 48.8626 5.0974 49.4277C4.40441 49.8267 3.71234 50.2331 3.03842 50.6371L4.45156 54.0487C5.21233 53.858 5.98903 53.6561 6.7626 53.4477C7.85628 53.1534 9.0103 53.5373 9.7025 54.4266C10.4976 55.4474 11.419 56.3687 12.4417 57.1647C13.3317 57.8576 13.7166 59.0121 13.4221 60.1059C13.2137 60.8798 13.0118 61.6567 12.8209 62.4178L16.2326 63.8309C16.6339 63.161 17.0404 62.4688 17.4424 61.7709C18.0074 60.7893 19.0941 60.2454 20.2154 60.3847C21.501 60.5447 22.8043 60.5448 24.0883 60.3853C25.2064 60.2469 26.2941 60.7907 26.8592 61.7721C27.2564 62.4622 27.6627 63.154 28.0685 63.831L31.4801 62.418C31.2903 61.6611 31.0886 60.8845 30.8792 60.1069C30.5847 59.0136 30.9688 57.8596 31.8578 57.1671C32.8788 56.3721 33.8002 55.4506 34.5963 54.4279C35.2891 53.5379 36.4435 53.1532 37.5374 53.4475Z" fill="#1470FE"/>
<path fill-rule="evenodd" clip-rule="evenodd" d="M31.575 40.8152L31.5752 40.8153C33.7275 46.012 31.2509 51.991 26.0544 54.1436C24.7955 54.6648 23.473 54.9255 22.1505 54.9255C20.828 54.9255 19.5055 54.6648 18.2469 54.1436C15.7296 53.1007 13.7687 51.1402 12.7261 48.6227C10.5735 43.4261 13.0502 37.447 18.2467 35.2944C23.4441 33.1419 29.4227 35.6185 31.575 40.8152ZM19.3923 51.3782C21.1713 52.1148 23.1303 52.1149 24.9089 51.3782C28.5807 49.8572 30.3308 45.6325 28.8099 41.9607C27.6612 39.188 24.971 37.511 22.1412 37.511C21.2236 37.511 20.2916 37.6873 19.3924 38.0598C15.7204 39.5807 13.9704 43.8055 15.4915 47.4773C16.2284 49.256 17.6137 50.6414 19.3923 51.3782Z" fill="#1470FE"/>
<path fill-rule="evenodd" clip-rule="evenodd" d="M63.2702 12.9589C63.8047 13.0303 64.3353 13.1054 64.852 13.1827C66.0021 13.3548 66.8694 14.3633 66.8696 15.5287V18.4484C66.8696 19.6138 66.0021 20.6222 64.8519 20.7943C64.3353 20.8716 63.8045 20.9466 63.2702 21.018C63.0008 21.914 62.641 22.782 62.1975 23.6065C62.524 24.0334 62.8463 24.4621 63.1579 24.8834C63.8497 25.8186 63.7497 27.1452 62.9257 27.969L60.8611 30.0334C60.0374 30.8574 58.7107 30.9573 57.7757 30.2655C57.3535 29.953 56.9248 29.6307 56.4987 29.3047C55.674 29.7485 54.8059 30.1085 53.9102 30.3776C53.8388 30.9121 53.7638 31.4427 53.6866 31.9594C53.5146 33.1099 52.5061 33.9771 51.3408 33.9771H48.4211C47.2558 33.9771 46.2473 33.1096 46.0751 31.9595C45.9978 31.4429 45.9227 30.9121 45.8515 30.3778C44.956 30.1085 44.0877 29.7488 43.263 29.305C42.8367 29.6307 42.4083 29.9532 41.9859 30.2655C41.0508 30.9571 39.7244 30.8574 38.9005 30.0332L36.8359 27.9686C36.0119 27.1452 35.912 25.8185 36.6035 24.8835C36.9153 24.4621 37.2377 24.0337 37.5643 23.6063C37.1206 22.7817 36.761 21.9136 36.4915 21.0179C35.9571 20.9466 35.4264 20.8715 34.9098 20.7942C33.7595 20.622 32.8923 19.6135 32.8923 18.4482V15.5286C32.8923 14.3632 33.7598 13.3548 34.91 13.1827C35.4266 13.1054 35.9574 13.0304 36.4917 12.9589C36.7611 12.0631 37.1209 11.195 37.5644 10.3705C37.2375 9.9429 36.9152 9.51426 36.604 9.09345C35.9122 8.15807 36.0123 6.83152 36.8365 6.00767L38.9008 3.94347C39.7245 3.11948 41.0509 3.01957 41.9862 3.71138C42.4084 4.02366 42.8371 4.34599 43.2632 4.67198C44.0876 4.22818 44.9559 3.8685 45.8517 3.59906C45.9231 3.0645 45.9981 2.53372 46.0753 2.01744C46.2473 0.867474 47.2558 0 48.4211 0H51.3408C52.5061 0 53.5146 0.867474 53.6866 2.01758C53.7639 2.53411 53.8388 3.06476 53.9102 3.59919C54.806 3.86863 55.6742 4.22831 56.4987 4.67211C56.9251 4.34625 57.3535 4.02405 57.7758 3.71151C58.7108 3.0197 60.0373 3.11961 60.8612 3.94373L62.9258 6.00806C63.7498 6.83165 63.8499 8.15807 63.1583 9.09332C62.8468 9.51426 62.5245 9.94277 62.1975 10.3705C62.6412 11.1951 63.0009 12.0634 63.2702 12.9589ZM62.5979 18.2386C63.0781 18.1761 63.5568 18.11 64.0259 18.0419V15.9356C63.5568 15.8674 63.078 15.8014 62.5978 15.7387C61.6479 15.6148 60.8704 14.9407 60.6171 14.0213C60.3746 13.1415 60.0226 12.2921 59.5711 11.497C59.0999 10.6672 59.1725 9.64042 59.7565 8.88109C60.0515 8.49751 60.3435 8.11209 60.6276 7.73138L59.1382 6.24184C58.7559 6.52695 58.3708 6.81898 57.9885 7.11284C57.2294 7.69664 56.2025 7.76991 55.3725 7.2983C54.5776 6.8468 53.7282 6.49469 52.8481 6.25216C51.9288 5.99892 51.2546 5.2213 51.1307 4.27128C51.0681 3.79131 51.0022 3.31265 50.9341 2.84365H48.8275C48.7594 3.31278 48.6934 3.79144 48.6307 4.27167C48.5071 5.2213 47.8329 5.99892 46.9132 6.25229C46.0335 6.49495 45.184 6.84693 44.3893 7.29843C43.5588 7.77004 42.5318 7.69716 41.7728 7.11271C41.3908 6.81898 41.0055 6.52695 40.6235 6.24184L39.134 7.73138C39.4181 8.11196 39.7101 8.49725 40.0052 8.8807C40.5891 9.64016 40.6619 10.6671 40.1902 11.4968C39.7386 12.2918 39.3868 13.1411 39.1442 14.0212C38.8911 14.9403 38.1135 15.6145 37.1636 15.7385C36.6834 15.801 36.2047 15.8671 35.7356 15.9352V18.0415C36.2047 18.1099 36.6835 18.1757 37.1637 18.2384C38.1136 18.3623 38.8911 19.0364 39.1444 19.9558C39.3869 20.8357 39.7389 21.6851 40.1904 22.48C40.6619 23.3097 40.5891 24.3365 40.0053 25.096C39.7104 25.4793 39.4184 25.8645 39.134 26.2457L40.6235 27.7353C41.0057 27.4501 41.3909 27.1582 41.7732 26.8643C42.5324 26.2799 43.5594 26.2074 44.3893 26.6789C45.1845 27.1306 46.0336 27.4825 46.9135 27.7249C47.8329 27.9783 48.507 28.7559 48.6309 29.7059C48.6936 30.1858 48.7596 30.6645 48.8276 31.1336H50.9343C51.0024 30.6645 51.0684 30.1857 51.131 29.7054C51.2545 28.7558 51.9287 27.9782 52.8484 27.7248C53.728 27.4823 54.5773 27.1303 55.3723 26.6787C56.2022 26.2076 57.2293 26.2798 57.9886 26.8643C58.3707 27.1581 58.7562 27.4501 59.1382 27.7353L60.6276 26.2457C60.3433 25.8649 60.0511 25.4795 59.7566 25.0965C59.1724 24.3368 59.0997 23.31 59.5713 22.4803C60.0228 21.6854 60.3747 20.8361 60.6173 19.9559C60.8704 19.0368 61.648 18.3626 62.5979 18.2386Z" fill="#1470FE"/>
<path fill-rule="evenodd" clip-rule="evenodd" d="M43.8208 16.9885C43.8208 13.6469 46.5395 10.9283 49.881 10.9283C53.2226 10.9283 55.9411 13.6469 55.9411 16.9885C55.9411 20.3303 53.2226 23.0488 49.881 23.0488C46.5393 23.0488 43.8208 20.3303 43.8208 16.9885ZM46.5146 16.9884C46.5146 18.8447 48.025 20.3548 49.881 20.3548C51.7371 20.3548 53.2473 18.8447 53.2473 16.9884C53.2472 15.1322 51.7371 13.6221 49.881 13.6221C48.0248 13.6221 46.5146 15.1321 46.5146 16.9884Z" fill="#1470FE"/>
</svg>
