<svg width="48" height="48" viewBox="0 0 48 48" fill="none" xmlns="http://www.w3.org/2000/svg">
<path fill-rule="evenodd" clip-rule="evenodd" d="M47.9824 46.7761C47.8835 45.8712 47.2987 41.3844 45.1142 37.6172C44.3796 36.3604 43.4736 35.2343 42.42 34.2686C42.2604 34.1228 42.1 33.9811 41.9403 33.8452L42.0472 33.4545C42.149 33.0835 42.0135 32.6876 41.7056 32.4569C40.6088 31.6348 39.4973 31.0228 38.4023 30.6379C37.2861 30.2454 36.1377 29.9425 34.9698 29.7484C34.8726 29.7322 34.7612 29.7102 34.6402 29.6864L34.6401 29.6864C33.7644 29.5138 32.3857 29.2422 32.2152 30.3223C32.2148 30.3245 32.2093 30.3574 32.198 30.4167L32.0531 30.4122C31.7328 30.4019 31.6352 30.3988 31.2517 30.3988L31.2524 26.1237C32.4221 24.9785 33.2948 23.5543 33.7778 21.9976H34.1938C35.1756 21.9976 36.0974 21.6152 36.7884 20.9227C37.4824 20.2306 37.8644 19.3085 37.8644 18.327C37.864 18.3164 37.864 18.3058 37.8644 18.2952C37.8644 17.3137 37.4824 16.392 36.7899 15.7009C36.7588 15.6698 36.7269 15.6401 36.6951 15.6105C36.7287 15.5138 36.7478 15.4105 36.7478 15.3029V12.8738C36.7478 12.0421 36.2622 11.3221 35.5602 10.9812C35.4294 8.93408 34.7468 6.98071 33.5665 5.29285C32.3976 3.62183 30.8192 2.31702 28.9764 1.48865C28.9226 1.25061 28.8223 1.02209 28.6765 0.819214C28.3297 0.335449 27.7676 0.046875 27.1725 0.046875H21.5757C20.9806 0.046875 20.4184 0.335449 20.0716 0.819214C19.9259 1.02246 19.8256 1.25061 19.7717 1.48901C17.9297 2.31775 16.3513 3.62183 15.1827 5.29285C14.0028 6.98035 13.3205 8.93298 13.1891 10.9794C12.9796 11.0804 12.787 11.2174 12.6185 11.3862C12.2204 11.7825 12.0015 12.3105 12.0015 12.8734L12.0004 15.3025C12.0004 15.4083 12.0194 15.512 12.0535 15.6101C12.022 15.6394 11.9905 15.6687 11.9597 15.6995C11.2661 16.392 10.8838 17.3137 10.8838 18.2952C10.8841 18.3058 10.8841 18.3164 10.8838 18.327C10.8838 19.3085 11.2661 20.2302 11.9586 20.9213C12.6511 21.6152 13.5729 21.9972 14.5543 21.9972H14.9711C15.4548 23.5547 16.3279 24.9792 17.4975 26.124L17.4983 30.3834C17.436 30.3852 17.312 30.3871 17.1735 30.3893H17.1735H17.1734C16.9627 30.3927 16.7185 30.3966 16.6069 30.401L16.6066 30.3971L16.6066 30.3971C16.6065 30.3949 16.6064 30.3936 16.6062 30.3933C16.5295 29.4494 15.5758 29.5041 14.8696 29.5447L14.8227 29.5474C12.8485 29.6591 10.8208 30.0919 9.00548 30.887C8.09545 31.2887 7.21178 31.7992 6.37865 32.4031C6.06261 32.632 5.92162 33.0333 6.02489 33.4094L6.12816 33.7881C5.94249 33.9434 5.75866 34.1045 5.57848 34.2704C4.52672 35.2339 3.62072 36.3596 2.88353 37.6201C0.701283 41.3844 0.116811 45.8708 0.0175675 46.7761C0.00548253 46.8633 -0.00367275 46.9453 0.00145421 47.0391C0.0281876 47.5334 0.43871 47.9293 0.93932 47.9293H47.0625C47.5745 47.9293 47.9908 47.5184 47.9996 47.0083C48.0018 46.927 47.9934 46.8538 47.9824 46.7761ZM35.989 18.3497C35.9831 18.821 35.7971 19.2627 35.4624 19.597C35.1244 19.9358 34.6739 20.1222 34.1938 20.1222H34.1645C34.2004 19.7772 34.2191 19.4304 34.2191 19.0836V16.5C34.6897 16.5066 35.1306 16.6923 35.4639 17.0266C35.7978 17.3599 35.9839 17.8019 35.9894 18.2743C35.9879 18.2992 35.9879 18.3245 35.989 18.3497ZM22.9684 5.93335H25.7798L27.1388 1.92188H21.6097L22.9684 5.93335ZM16.7193 6.36731C17.6045 5.10132 18.7709 4.08691 20.1288 3.39441L21.4083 7.17151C21.5127 7.47986 21.7672 7.73328 22.0737 7.80835C22.1459 7.82593 26.4521 7.80835 26.4521 7.80835H26.4529C26.855 7.80835 27.212 7.552 27.3409 7.17151L28.6201 3.39441C29.978 4.08655 31.1444 5.10132 32.0295 6.36731C33.1278 7.93762 33.7082 9.78479 33.7082 11.7092C33.7082 12.2271 34.1279 12.6467 34.6457 12.6467C34.771 12.6467 34.8728 12.7485 34.8728 12.8734V14.365H13.8757L13.8765 12.8734C13.8765 12.7496 13.9797 12.6467 14.1031 12.6467H25.6996C26.217 12.6467 26.6371 12.2271 26.6371 11.7092C26.6371 11.1914 26.217 10.7717 25.6996 10.7717H15.0886C15.2461 9.18787 15.8009 7.68054 16.7193 6.36731ZM13.2843 19.5956C13.6238 19.9358 14.0746 20.1222 14.5543 20.1222H14.5865C14.5481 19.778 14.5309 19.4297 14.5309 19.0836V16.5C14.0596 16.5059 13.6183 16.6919 13.2858 17.0251C12.951 17.3591 12.765 17.8008 12.7591 18.2725C12.7602 18.2977 12.7602 18.323 12.7591 18.3483C12.7646 18.8203 12.9507 19.2623 13.2843 19.5956ZM16.6044 20.8594C16.4751 20.2775 16.4059 19.6798 16.4059 19.0836V16.2404H32.3441V19.0836C32.3441 19.6783 32.2782 20.2731 32.146 20.8528C31.7801 22.4685 30.9016 23.9458 29.6568 25.0499C27.3622 27.0824 24.0051 27.6193 21.1922 26.3925C20.4258 26.0581 19.7139 25.6007 19.0884 25.0455C17.8462 23.9418 16.9687 22.4667 16.6044 20.8594ZM19.3736 31.3374C19.3736 31.8552 18.954 32.2749 18.4361 32.2749C18.4234 32.2749 18.3856 32.2745 18.3294 32.2738C18.0572 32.2707 17.3533 32.2628 16.9772 32.2749C17.1533 32.8828 17.41 33.5665 17.7825 34.255C19.1103 36.7075 21.5317 37.9735 24.2992 37.9014C26.9758 37.8314 29.2753 36.4607 30.6929 34.2063C31.1107 33.5416 31.4216 32.8711 31.6498 32.2782C31.3109 32.2733 30.7164 32.2743 30.4381 32.2747L30.3142 32.2749C30.0655 32.2749 29.8271 32.176 29.6514 32.0002C29.4752 31.8245 29.3767 31.5861 29.3767 31.3374L29.3771 27.5647C28.7944 27.9093 28.177 28.1924 27.5284 28.4117C25.5004 29.0977 23.2507 29.0951 21.2223 28.4125C20.5734 28.1924 19.9556 27.9093 19.3729 27.5647L19.3736 31.3374ZM4.50402 38.5635C5.10534 37.5355 5.83629 36.6097 6.68114 35.8063L7.75414 39.7266V46.0543H2.01012C2.26537 44.4705 2.94066 41.2603 4.50402 38.5635ZM9.59581 39.353C9.61779 39.4336 9.62914 39.5171 9.62914 39.6006V46.0543H23.1046V39.7346C23.085 39.7329 23.0656 39.731 23.0462 39.729C23.0345 39.7277 23.0228 39.7264 23.0111 39.7252L22.9658 39.7203C22.9607 39.72 22.9559 39.7196 22.9512 39.7189C21.2812 39.5541 19.9548 39.015 18.9049 38.295C18.1857 37.8069 17.5433 37.2012 16.9881 36.4816C15.616 34.7025 15.0758 32.6254 14.8758 31.5454C14.8707 31.5174 14.8629 31.4714 14.8562 31.4325L14.8487 31.3887L14.1368 31.4795C12.3127 31.7329 10.923 32.0892 9.76354 32.6019C9.16332 32.8671 8.57555 33.1868 8.00902 33.5563L9.59581 39.353ZM24.9796 39.7346C27.5303 39.5259 29.6565 38.4514 31.3096 36.5306C32.558 35.0797 33.3823 33.3179 33.8767 31.4784L33.9584 31.4897C35.2588 31.6637 36.5449 31.9724 37.7805 32.4067C38.5287 32.6697 39.2955 33.0667 40.0664 33.5896L38.4884 39.353C38.4664 39.434 38.4554 39.5171 38.4554 39.601V46.0543H24.9796V39.7346ZM40.3301 39.7266V46.0543H45.9899C45.7346 44.4705 45.0589 41.2595 43.4941 38.5605C42.9104 37.5623 42.2018 36.6577 41.3862 35.87L40.3301 39.7266Z" fill="#2960D8"/>
<path d="M29.146 12.0678C29.3423 12.5398 29.8978 12.7701 30.3702 12.575C30.8423 12.3801 31.073 11.8224 30.8774 11.3507C30.6815 10.8787 30.1256 10.6476 29.6532 10.8435C29.1823 11.0383 28.9493 11.5968 29.146 12.0678V12.0678Z" fill="#2960D8"/>
<path d="M23.313 21.4428H25.6058C26.1233 21.4428 26.5433 21.0231 26.5433 20.5053C26.5433 19.9874 26.1233 19.5678 25.6058 19.5678H24.6365L25.1656 18.0645C25.3374 17.5759 25.0807 17.0409 24.5925 16.8688C24.1036 16.6974 23.5686 16.9537 23.3968 17.4419L22.4286 20.194C22.3279 20.4811 22.3722 20.799 22.548 21.0469C22.7237 21.2952 23.009 21.4428 23.313 21.4428V21.4428Z" fill="#2960D8"/>
<path d="M35.4349 41.4598H28.9871C28.4692 41.4598 28.0496 41.8795 28.0496 42.3973C28.0496 42.9148 28.4692 43.3348 28.9871 43.3348H35.4349C35.9528 43.3348 36.3724 42.9148 36.3724 42.3973C36.3724 41.8795 35.9528 41.4598 35.4349 41.4598V41.4598Z" fill="#2960D8"/>
</svg>
