<svg width="48" height="46" viewBox="0 0 48 46" fill="none" xmlns="http://www.w3.org/2000/svg">
<path fill-rule="evenodd" clip-rule="evenodd" d="M42.3204 5.49315H47.0625C47.5803 5.49315 48 5.90832 48 6.42057V11.1327C48 11.6449 47.5803 12.0601 47.0625 12.0601H39.6295L36.5365 19.607C36.4427 19.8348 36.2618 20.017 36.0326 20.1127C35.9161 20.1616 35.7916 20.1859 35.6675 20.1859C35.5477 20.1859 35.428 20.1634 35.3152 20.1181L34.4707 19.7794L35.2072 21.3053C35.3207 21.5408 35.3287 21.8121 35.2299 22.0537L34.1649 24.6516C34.0715 24.8795 33.8903 25.0613 33.6614 25.1573L32.5386 25.6268C32.4196 25.6765 32.2958 25.7004 32.1738 25.7004C31.8083 25.7004 31.4612 25.4877 31.3099 25.1338C31.1082 24.6621 31.3312 24.118 31.8083 23.9184L32.573 23.5985L33.3369 21.7357L32.1061 19.1853L29.4272 20.167L28.6633 22.0302L28.9849 22.7816C29.1866 23.2532 28.9636 23.7974 28.4865 23.997C28.01 24.1966 27.4596 23.976 27.2582 23.5043L26.7854 22.399C26.6884 22.1722 26.6865 21.9172 26.7799 21.6889L27.8452 19.0911C27.9441 18.8498 28.1411 18.6607 28.3879 18.5701L29.9912 17.9825L29.1467 17.6434C28.6666 17.4511 28.4355 16.9106 28.63 16.4356L30.4233 12.0604H17.844L19.5817 16.5769C19.6703 16.8066 19.6626 17.062 19.5608 17.2862C19.4594 17.5108 19.2715 17.6862 19.0393 17.7735L18.665 17.9144L19.4674 19.9993C19.5447 20.2 19.5491 20.421 19.4802 20.6246L18.5889 23.2511L18.9697 24.2404C19.1539 24.719 18.9108 25.2548 18.427 25.437C18.3171 25.4783 18.2043 25.4979 18.0934 25.4979C17.7158 25.4979 17.3595 25.2704 17.217 24.9001L16.8365 23.9111L14.4053 22.5352C14.217 22.4287 14.0717 22.261 13.9948 22.0603L13.1924 19.9754L12.8185 20.1159C12.7086 20.1572 12.5958 20.1768 12.4849 20.1768C12.1069 20.1768 11.751 19.9493 11.6085 19.5791L8.71545 12.0601H0.9375C0.419678 12.0601 0 11.6449 0 11.1327V6.42057C0 5.90832 0.419678 5.49315 0.9375 5.49315H6.18823L5.46057 3.60245C5.37231 3.3724 5.38 3.11736 5.48145 2.89275C5.58325 2.66851 5.77112 2.49317 6.0033 2.4055L12.2241 0.0630378C12.7083 -0.119186 13.2499 0.121364 13.4341 0.599927L15.3168 5.49315H19.9545C20.4126 5.49315 20.8037 5.82101 20.8792 6.26805C20.8824 6.28798 20.885 6.3079 20.8872 6.32783C20.937 6.81074 20.5994 7.25525 20.1086 7.33603C20.0416 7.34726 19.975 7.35089 19.9098 7.34799H16.0305L17.1302 10.2052H31.1832L32.3544 7.34799H28.4205C28.411 7.34835 28.4015 7.34835 28.392 7.34835C27.8741 7.34835 27.4545 6.93355 27.4545 6.42129C27.4545 5.90904 27.8741 5.49315 28.392 5.49315H33.1146L35.1284 0.578915C35.2218 0.351045 35.4031 0.169184 35.632 0.0731814C35.8612 -0.0224587 36.1194 -0.0242701 36.3497 0.0681096L42.5178 2.5428C42.9979 2.73516 43.229 3.27568 43.0345 3.75062L42.3204 5.49315ZM16.9127 18.5741L14.9443 19.3153L15.6273 21.0901L17.0676 21.9049L17.5957 20.3489L16.9127 18.5741ZM14.38 8.70688C14.38 10.0111 13.3074 11.0718 11.9894 11.0718C10.9673 11.0718 10.0931 10.4338 9.75183 9.53974L9.74158 9.51221C9.64929 9.26079 9.59875 8.98981 9.59875 8.70688C9.59875 7.40306 10.671 6.34196 11.9894 6.34196C13.014 6.34196 13.8904 6.98354 14.2295 7.88198L14.2361 7.89901C14.3291 8.15115 14.38 8.42322 14.38 8.70688ZM12.9672 4.60051L12.015 2.12655L7.54651 3.8093L8.42102 6.08112C8.42212 6.08438 8.42358 6.08764 8.42505 6.0909L8.49939 6.28472C9.27209 5.19899 10.548 4.48748 11.9894 4.48748C12.3259 4.48748 12.653 4.52733 12.9672 4.60051ZM1.875 10.2052V7.34799H6.90198L8.00171 10.2052H1.875ZM11.9894 12.9266C11.6528 12.9266 11.3258 12.8868 11.0112 12.8136L13.0272 18.0524L17.4957 16.37L15.479 11.129C14.7067 12.2151 13.4308 12.9266 11.9894 12.9266ZM36.401 11.0718C35.083 11.0718 34.0104 10.0111 34.0104 8.70688C34.0104 7.40306 35.083 6.34196 36.401 6.34196C37.7194 6.34196 38.7916 7.40306 38.7916 8.70688C38.7916 9.00901 38.7338 9.29738 38.629 9.56293L38.5972 9.64045C38.2306 10.4817 37.3843 11.0718 36.401 11.0718ZM40.9446 3.91291L36.5138 2.1356L35.5122 4.58022C35.799 4.51972 36.0963 4.48712 36.4014 4.48712C37.8746 4.48712 39.1761 5.2305 39.9426 6.35753L40.9446 3.91291ZM35.1504 18.0506L32.9359 17.1623L32.9352 17.1619L32.9344 17.1616L30.7196 16.2733L32.6818 11.4855C32.682 11.4844 32.6825 11.4836 32.683 11.4826C32.6832 11.4822 32.6834 11.4819 32.6836 11.4815L32.8586 11.0548C33.6251 12.1829 34.9266 12.927 36.401 12.927C36.7053 12.927 37.002 12.8944 37.2883 12.8343L35.1504 18.0506ZM40.3898 10.2052H46.125V7.34799H41.5609L40.3898 10.2052Z" fill="#2960D8"/>
<path fill-rule="evenodd" clip-rule="evenodd" d="M39.5625 44.1444H31.9655L35.1207 41.0546C35.3588 40.8217 35.3987 40.5264 35.3987 40.2178V31.6953C35.3987 31.3413 35.2771 31.0153 34.9625 30.815C34.8776 30.761 24.8177 25.0037 24.4746 24.8201C24.1659 24.6549 23.825 24.657 23.5188 24.8237C23.4056 24.8853 13.0239 30.8121 12.9199 30.9026C12.5624 31.2133 12.5798 31.7261 12.5953 32.1818C12.5983 32.2717 12.6013 32.3595 12.6013 32.443V40.2485C12.6013 40.5474 12.6515 40.8318 12.8793 41.0546L16.0345 44.1444H12.6053C12.0875 44.1444 11.6678 44.5596 11.6678 45.0719C11.6678 45.5841 12.0875 45.9993 12.6053 45.9993H39.5625C40.0803 45.9993 40.5 45.5841 40.5 45.0719C40.5 44.5596 40.0803 44.1444 39.5625 44.1444ZM23.0625 27.2266V32.3532L16.2242 31.1345L23.0625 27.2266ZM31.7758 31.1348L24.9375 27.2266V32.3532L31.7758 31.1348ZM23.0625 34.2381V39.4682H14.4763V32.7078L23.0625 34.2381ZM33.5237 32.7078L24.9375 34.2381V39.4682H33.5237V32.7078ZM15.8185 41.323H23.0625V44.1444H18.6998L15.8185 41.323ZM24.9375 41.323V44.1444H29.3002L32.1815 41.323H24.9375Z" fill="#2960D8"/>
<path d="M23.3427 6.77523C23.5393 7.24111 24.0949 7.47116 24.5673 7.27698C25.0386 7.08316 25.27 6.53287 25.0745 6.0659C24.8793 5.59929 24.3215 5.3707 23.8499 5.56415C23.3771 5.75833 23.1489 6.30717 23.3427 6.77523V6.77523Z" fill="#2960D8"/>
<path d="M9.26989 44.7172C8.94689 43.9499 7.80797 43.9785 7.52269 44.7592C7.23119 45.5569 8.13646 46.2938 8.87291 45.875C9.27501 45.6464 9.44823 45.1403 9.26989 44.7172Z" fill="#2960D8"/>
</svg>
