<svg width="52" height="50" viewBox="0 0 52 50" fill="none" xmlns="http://www.w3.org/2000/svg">
<path fill-rule="evenodd" clip-rule="evenodd" d="M52 5.39501C52 5.95863 51.5453 6.41542 50.9844 6.41542H48.5112V29.8449H50.9844C51.5453 29.8449 52 30.3017 52 30.8654V35.342C52 35.9052 51.5453 36.3624 50.9844 36.3624H47.5888C47.0278 36.3624 46.5732 35.9052 46.5732 35.342C46.5732 34.7784 47.0278 34.3216 47.5888 34.3216H49.9688V31.8858H2.03125V34.3216H38.4485C39.0095 34.3216 39.4642 34.7784 39.4642 35.342C39.4642 35.9052 39.0095 36.3624 38.4485 36.3624H33.1717L36.1007 47.9377H39.4796C40.0406 47.9377 40.4953 48.3949 40.4953 48.9581C40.4953 49.5217 40.0406 49.9785 39.4796 49.9785H12.9353C12.3744 49.9785 11.9197 49.5217 11.9197 48.9581C11.9197 48.3949 12.3744 47.9377 12.9353 47.9377H15.8993L18.8283 36.3624H5.52008V39.5667C6.70868 39.9884 7.56323 41.128 7.56323 42.4649C7.56323 44.1598 6.19095 45.5385 4.50446 45.5385C2.81757 45.5385 1.44528 44.1598 1.44528 42.4649C1.44528 41.128 2.29984 39.9884 3.48883 39.5667V36.3624H1.01562C0.454651 36.3624 0 35.9052 0 35.342V30.8654C0 30.3017 0.454651 29.8449 1.01562 29.8449H3.48883V6.41542H1.01562C0.454651 6.41542 0 5.95863 0 5.39501V1.02041C0 0.456792 0.454651 0 1.01562 0H50.9844C51.5453 0 52 0.456792 52 1.02041V5.39501ZM3.47653 42.4653C3.47653 43.0345 3.93753 43.4977 4.50446 43.4977C5.07098 43.4977 5.53198 43.0345 5.53198 42.4653C5.53198 41.8957 5.07098 41.4326 4.50446 41.4326C3.93753 41.4326 3.47653 41.8957 3.47653 42.4653ZM20.7342 37.1142L24.3571 39.9781L18.9224 44.2742L20.7342 37.1142ZM18.1011 47.5199L17.9952 47.9381H34.0048L33.8989 47.5199L26 41.2763L18.1011 47.5199ZM27.6425 39.9781L31.2658 37.1142L33.0776 44.2742L27.6425 39.9781ZM23.0682 36.3624L26 38.6798L28.9318 36.3624H23.0682ZM2.03125 2.04082H49.9688V4.3746H2.03125V2.04082ZM5.52008 29.8449H46.4799V6.41542H5.52008V29.8449Z" fill="#2960D8"/>
<path fill-rule="evenodd" clip-rule="evenodd" d="M9.06247 19.2813L10.2213 18.4228C10.2884 18.3733 10.3272 18.2916 10.3268 18.1991V18.1529C10.3276 18.0568 10.2892 17.9775 10.2217 17.9273L9.06247 17.0687C8.64631 16.7606 8.52689 16.1878 8.78476 15.7382L10.8612 12.1178C11.1151 11.6745 11.6567 11.4888 12.1276 11.6837L13.4451 12.2286C13.534 12.2652 13.6352 12.2593 13.7181 12.2126C13.724 12.2086 13.73 12.205 13.7363 12.2015C13.8212 12.152 13.8784 12.0639 13.8895 11.9667L14.0497 10.582C14.1089 10.067 14.5429 9.67914 15.0582 9.67914H19.2108C19.7265 9.67914 20.1602 10.0674 20.2197 10.582L20.3823 11.993C20.3919 12.0747 20.4375 12.1465 20.5049 12.1855L20.5747 12.2262C20.6398 12.2652 20.7239 12.27 20.7985 12.2393L22.1414 11.6837C22.6119 11.4892 23.1539 11.6745 23.4082 12.1178L25.4843 15.7382C25.7421 16.1882 25.6227 16.761 25.2069 17.0691L24.0477 17.9273C23.9799 17.9775 23.9418 18.0572 23.9422 18.1469V18.198V18.1995C23.9422 18.2916 23.9807 18.3733 24.0485 18.4236L25.2065 19.2813C25.6227 19.5895 25.7421 20.1622 25.4843 20.6119L23.4078 24.2323C23.1539 24.6748 22.6135 24.8605 22.143 24.6672L20.8286 24.1263C20.7533 24.0948 20.6692 24.1 20.6045 24.1386C20.5739 24.1574 20.539 24.1781 20.5041 24.1984C20.4347 24.2383 20.3907 24.3092 20.3811 24.3906L20.2193 25.7701C20.159 26.2839 19.7257 26.6713 19.2108 26.6713H15.0586C14.5437 26.6713 14.1101 26.2839 14.0497 25.7701L13.8883 24.391C13.8788 24.3092 13.8343 24.2383 13.7697 24.2012C13.7304 24.1781 13.6955 24.1574 13.6606 24.1362C13.5999 24.0996 13.5161 24.0952 13.4408 24.1263L12.126 24.6672C11.6559 24.8609 11.1151 24.6752 10.8612 24.2323L8.78516 20.6119C8.52729 20.1622 8.64631 19.5895 9.06247 19.2813ZM12.6707 14.1151L12.1772 13.911L10.9981 15.967L11.4266 16.2847C12.0153 16.7204 12.3637 17.4219 12.3581 18.1609V18.198C12.3593 18.9334 12.0114 19.6321 11.4274 20.0654L10.9981 20.3831L12.178 22.4402L12.6707 22.2377C13.3352 21.9639 14.097 22.0201 14.7079 22.3876C14.7365 22.4051 14.7611 22.4195 14.7861 22.4338C15.401 22.789 15.8211 23.4323 15.9052 24.1522L15.9616 24.6305H18.3078L18.3638 24.1522C18.4479 23.4323 18.868 22.789 19.4877 22.4314C19.5079 22.4195 19.5325 22.4051 19.5575 22.39C20.1725 22.0201 20.9338 21.9643 21.5983 22.2377L22.091 22.4406L23.2709 20.3831L22.8424 20.0658C22.2577 19.6321 21.9097 18.9338 21.9109 18.1964V18.1529C21.9066 17.4203 22.2549 16.7196 22.8424 16.2847L23.2713 15.9674L22.0922 13.9114L21.5721 14.1263C20.9112 14.4001 20.1506 14.3463 19.5385 13.982L19.4865 13.9513C18.8684 13.5938 18.4475 12.9484 18.3646 12.2278L18.3059 11.72H15.9632L15.9076 12.2007C15.8239 12.9293 15.3986 13.5862 14.7686 13.9593C14.7623 13.9633 14.7555 13.9672 14.7492 13.9708C14.1204 14.3403 13.3436 14.3945 12.6707 14.1151Z" fill="#2960D8"/>
<path fill-rule="evenodd" clip-rule="evenodd" d="M20.3799 18.1752C20.3799 19.9733 18.924 21.4361 17.1347 21.4361C15.3451 21.4361 13.8891 19.9733 13.8891 18.1752C13.8891 16.3776 15.3451 14.9147 17.1347 14.9147C18.924 14.9147 20.3799 16.3776 20.3799 18.1752ZM18.3487 18.1752C18.3487 17.5028 17.804 16.9555 17.1347 16.9555C16.465 16.9555 15.9203 17.5028 15.9203 18.1752C15.9203 18.8481 16.465 19.3953 17.1347 19.3953C17.804 19.3953 18.3487 18.8481 18.3487 18.1752Z" fill="#2960D8"/>
<path fill-rule="evenodd" clip-rule="evenodd" d="M27.7857 19.1952H29.7558V23.2737C29.7558 23.8369 30.2109 24.2941 30.7715 24.2941H34.7034V26.3576C34.7034 26.9208 35.1585 27.378 35.7191 27.378H41.8584C42.4194 27.378 42.8741 26.9208 42.8741 26.3576V20.1897C42.8741 19.6261 42.4194 19.1693 41.8584 19.1693H35.7191C35.1585 19.1693 34.7034 19.6261 34.7034 20.1897V22.2533H31.7871V14.141H34.7034V16.2046C34.7034 16.7682 35.1585 17.225 35.7191 17.225H41.8584C42.4194 17.225 42.8741 16.7682 42.8741 16.2046V10.0367C42.8741 9.47306 42.4194 9.01627 41.8584 9.01627H35.7191C35.1585 9.01627 34.7034 9.47306 34.7034 10.0367V12.1002H30.7715C30.2109 12.1002 29.7558 12.557 29.7558 13.1206V17.1548H27.7857C27.2247 17.1548 26.7701 17.6116 26.7701 18.1752C26.7701 18.7388 27.2247 19.1952 27.7857 19.1952ZM36.7347 21.2097H40.8428V25.3372H36.7347V21.2097ZM40.8428 11.0567H36.7347V15.1842H40.8428V11.0567Z" fill="#2960D8"/>
<path d="M44.0162 34.9518C43.8496 34.55 43.4362 34.2921 43.0034 34.3248C42.5809 34.3563 42.2139 34.6596 42.1 35.0698C41.8552 35.9538 42.8582 36.6893 43.6239 36.2026C44.0345 35.9415 44.2027 35.4014 44.0162 34.9518V34.9518Z" fill="#2960D8"/>
</svg>
