<svg width="50" height="46" viewBox="0 0 50 46" fill="none" xmlns="http://www.w3.org/2000/svg">
<path fill-rule="evenodd" clip-rule="evenodd" d="M48.9279 18.9947H42.7449L41.1447 16.2596L42.7449 13.5231H48.9279C49.2591 13.5231 49.5679 13.3559 49.7472 13.079C49.9269 12.8017 49.9524 12.4533 49.815 12.1537C48.6515 9.61271 46.4509 7.66641 43.7774 6.81375C43.265 6.65033 42.716 6.93064 42.5515 7.43982C42.387 7.949 42.6691 8.49449 43.182 8.65791C44.8229 9.18109 46.2422 10.2168 47.2394 11.5863H42.1841C41.8369 11.5863 41.5159 11.7697 41.3415 12.0682L39.1748 15.7732C38.9989 16.0743 38.9989 16.4458 39.1752 16.7465L41.3415 20.45C41.5159 20.748 41.8369 20.9315 42.1845 20.9315H47.2394C45.7461 22.9803 43.3278 24.2415 40.7232 24.2415C37.4284 24.2415 34.5029 22.279 33.2705 19.2417C33.1098 18.846 32.7082 18.6012 32.2799 18.6391L29.3704 18.8967V13.6211L32.2799 13.8787C32.7078 13.9169 33.1102 13.6718 33.2705 13.2761C33.7856 12.0062 34.6293 10.8807 35.7102 10.0213C36.1305 9.68724 36.1987 9.07781 35.8625 8.66018C35.5263 8.24255 34.913 8.17484 34.4926 8.50887C33.3417 9.42395 32.4074 10.5819 31.7609 11.8881L29.3704 11.6763V10.9447L29.3702 10.9363L29.37 10.928L29.3702 10.9241L29.3704 10.9197V5.41294C29.3981 3.31911 27.7157 1.58012 25.6164 1.53396C24.778 1.51467 23.9797 1.76169 23.3134 2.23569C22.7118 0.918487 21.377 0 19.8294 0C18.8067 0 17.8458 0.395691 17.1247 1.11368C16.7927 1.44355 16.53 1.82411 16.3419 2.23683C15.7168 1.79423 14.953 1.53321 14.1284 1.53321C12.618 1.53321 11.3095 2.40743 10.6881 3.67357C10.0546 3.21054 9.27297 2.93628 8.42775 2.93628C6.31853 2.93628 4.6026 4.64123 4.6026 6.73696V9.9963C1.89297 10.8531 0 13.3691 0 16.2589C0 18.0898 0.777443 19.8515 2.13245 21.0923C3.22665 22.0944 4.63077 22.694 6.10152 22.8093V33.532H4.06349C3.52552 33.532 3.08883 33.9655 3.08883 34.5004V45.0263C3.08883 45.5612 3.52552 45.9947 4.06349 45.9947H24.4639C25.0023 45.9947 25.4386 45.5612 25.4386 45.0263V34.5004C25.4386 33.9655 25.0023 33.532 24.4639 33.532H22.3585V30.5196L29.0646 24.2328C29.2596 24.0498 29.3704 23.7948 29.3704 23.5285V20.8415L31.7602 20.6296C33.4312 24.0233 36.8745 26.1784 40.7232 26.1784C44.6291 26.1784 48.198 23.8962 49.815 20.3641C49.9524 20.0645 49.9269 19.7161 49.7476 19.4388C49.5679 19.1619 49.2591 18.9947 48.9279 18.9947ZM25.5734 3.47043C26.6257 3.49312 27.4374 4.33747 27.421 5.39138V5.40614V7.09898C27.022 6.80391 26.5751 6.56975 26.095 6.40747C25.5985 6.23875 25.0716 6.15212 24.5469 6.15212H23.6541V5.33388C23.6541 4.83567 23.8494 4.36735 24.2039 4.01516C24.569 3.65238 25.0579 3.45832 25.5734 3.47043ZM21.1558 14.3364C21.3587 14.1344 21.5114 13.8885 21.6035 13.6188C20.231 13.4096 18.9647 12.7779 17.9619 11.7883L17.9535 11.7803V13.0181V13.0234C17.9562 14.0485 18.7964 14.8815 19.8294 14.8815C20.3308 14.8815 20.8017 14.6878 21.1558 14.3364ZM18.5037 2.48234C18.8574 2.13053 19.3279 1.93684 19.8294 1.93684C20.8634 1.93684 21.7048 2.77324 21.7048 3.80105V6.1525H17.9535V5.3335L17.9533 5.32613L17.9531 5.31875V3.80105C17.9531 3.3036 18.1485 2.83528 18.5037 2.48234ZM14.1284 3.47005C13.0943 3.47005 12.2529 4.30607 12.2529 5.3335H12.2525V13.0181C12.2525 13.5689 12.4958 14.0637 12.8796 14.4049C13.212 14.7003 13.6487 14.8815 14.1287 14.8815C15.0444 14.8815 15.8439 14.1968 15.9806 13.298C15.9947 13.2061 16.0038 13.113 16.0038 13.0185V5.32632C15.9996 4.30191 15.1601 3.47005 14.1284 3.47005ZM6.55192 6.73696C6.55192 5.70914 7.39332 4.87313 8.42775 4.87313C9.46181 4.87313 10.3036 5.70914 10.3036 6.73696V13.0128C10.2971 14.0277 9.45609 14.8819 8.42775 14.8819C7.87113 14.8819 7.372 14.6383 7.0282 14.2547C6.73276 13.9252 6.55192 13.4928 6.55192 13.0181V6.73696ZM4.60222 12.0735C3.01383 12.8274 1.94932 14.4382 1.94932 16.2589C1.94932 17.5693 2.48348 18.7802 3.45319 19.668C4.42366 20.5563 5.68196 20.9864 6.9966 20.8793L13.3886 20.313C13.6441 19.9427 13.9338 19.5769 14.2574 19.2156C14.4524 18.9973 14.6545 18.7862 14.8632 18.5812C15.7605 17.6994 16.771 16.9345 17.8328 16.2589C17.5168 16.066 17.2279 15.8261 16.9804 15.5519C16.6644 15.9022 16.2833 16.195 15.8611 16.4079C14.3347 17.1785 12.4204 16.8191 11.2794 15.5519C10.5572 16.3538 9.5113 16.8188 8.42775 16.8188C7.34192 16.8188 6.36079 16.3663 5.66406 15.6419C5.00693 14.9591 4.60222 14.0353 4.60222 13.0185V12.0735ZM23.4893 44.0579H5.03815V35.4688H23.4893V44.0579ZM20.7149 29.3976L27.421 23.1105V10.9447C27.421 10.7775 27.4058 10.6095 27.3765 10.445C27.1389 9.12775 25.9667 8.12452 24.6197 8.09048C24.3235 8.08322 20.1868 8.08755 18.6284 8.08918C18.3195 8.0895 18.1119 8.08972 18.0556 8.08972C18.201 8.77215 18.5029 9.41638 18.935 9.96641C19.6596 10.8891 20.7214 11.5204 21.8864 11.702C22.0285 11.7241 22.1782 11.7298 22.3287 11.7355C22.7081 11.7499 23.0925 11.7645 23.3735 12.0432C23.6903 12.3576 23.6755 12.7858 23.6568 13.1966C23.5898 14.6027 22.7552 15.8534 21.4794 16.462C19.2069 17.5485 13.919 20.515 13.919 24.5752C13.919 25.1101 13.4827 25.5436 12.9443 25.5436C12.4063 25.5436 11.9696 25.1101 11.9696 24.5752C11.9696 23.8213 12.0957 23.0791 12.345 22.3501L8.05083 22.7307V33.532H20.4092V30.102C20.4092 29.8353 20.52 29.5803 20.7149 29.3976Z" fill="#2960D8"/>
<path fill-rule="evenodd" clip-rule="evenodd" d="M7.01868 39.7631C7.01868 38.0953 8.38434 36.7383 10.0633 36.7383C11.742 36.7383 13.1076 38.0953 13.1076 39.7631C13.1076 41.4314 11.742 42.7883 10.0633 42.7883C8.38472 42.7883 7.01868 41.4314 7.01868 39.7631ZM8.96799 39.7631C8.96799 40.3635 9.45951 40.8515 10.0633 40.8515C10.6672 40.8515 11.1583 40.3635 11.1583 39.7631C11.1583 39.1632 10.6672 38.6752 10.0633 38.6752C9.45951 38.6752 8.96799 39.1632 8.96799 39.7631Z" fill="#2960D8"/>
<path d="M38.226 7.8181C38.3799 8.1911 38.7678 8.43623 39.1733 8.41542C39.5746 8.39462 39.9306 8.12452 40.0535 7.74434C40.1784 7.35848 40.0417 6.92685 39.7189 6.68021C39.3926 6.43016 38.9273 6.41578 38.5847 6.64276C38.2032 6.89545 38.0498 7.39782 38.226 7.8181Z" fill="#2960D8"/>
</svg>
