<svg width="106" height="100" viewBox="0 0 106 100" fill="none" xmlns="http://www.w3.org/2000/svg">
<circle cx="50" cy="50" r="50" fill="url(#paint0_linear)"/>
<path d="M26 29.1224V81H74V19H36.1053L26 29.1224Z" fill="white"/>
<path d="M63.2003 77.5049C61.2675 77.5049 60.3505 75.8684 59.6734 74.6692C59.0244 73.5265 58.6717 72.9904 58.1215 72.9904C57.5713 72.9904 57.2045 73.5265 56.5697 74.6692C55.8925 75.8684 54.9756 77.5049 53.0428 77.5049C51.1101 77.5049 50.1931 75.8684 49.5159 74.6692C48.867 73.5265 48.5143 72.9904 47.9641 72.9904C47.4139 72.9904 47.0471 73.5265 46.4123 74.6692C45.7351 75.8684 44.8181 77.5049 42.8854 77.5049H41.5169C40.7128 77.5049 39.9369 77.265 39.2597 76.8277L37.3975 75.5862C35.5212 76.6161 33.1229 77.519 30.4707 77.519V75.2618C32.2059 75.2618 33.8424 74.7821 35.2391 74.1473L34.5478 73.6817C33.4192 72.9199 32.742 71.6643 32.742 70.2959C32.742 68.0528 34.5619 66.2329 36.805 66.2329H37.6938C39.9369 66.2329 41.7568 68.0528 41.7568 70.2959V70.5357C41.7568 71.7913 41.2066 72.9481 40.2331 73.7099C40.0074 73.8933 39.7535 74.0767 39.4854 74.2742L40.5153 74.9514C40.8116 75.1489 41.1642 75.2618 41.5169 75.2618H42.8854C43.4356 75.2618 43.8024 74.7257 44.4372 73.583C45.1144 72.3838 46.0314 70.7473 47.9641 70.7473C49.8968 70.7473 50.8138 72.3838 51.491 73.583C52.1399 74.7257 52.4926 75.2618 53.0428 75.2618C53.593 75.2618 53.9598 74.7257 54.5946 73.583C55.2718 72.3838 56.1888 70.7473 58.1215 70.7473C60.0543 70.7473 60.9713 72.3838 61.6484 73.583C62.2974 74.7257 62.6501 75.2618 63.2003 75.2618V77.5049ZM36.7909 68.476C35.7893 68.476 34.9851 69.2943 34.9851 70.2818C34.9851 70.8884 35.2814 71.4527 35.7893 71.7913L37.4681 72.9058C38.0041 72.5531 38.4697 72.2145 38.8365 71.9183C39.2597 71.5797 39.4995 71.0718 39.4995 70.5216V70.2818C39.4995 69.2801 38.6813 68.476 37.6938 68.476H36.7909Z" fill="#EB5757"/>
<path d="M30 43H33V46H30V43Z" fill="#E6EAF0"/>
<path d="M53 58H38V61H53V58Z" fill="#B8BDCE"/>
<path d="M41 53H38V56H41V53Z" fill="#B8BDCE"/>
<path d="M58 53H43V56H58V53Z" fill="#B8BDCE"/>
<path d="M58 48H38V51H58V48Z" fill="#B8BDCE"/>
<path d="M58 43H38V46H58V43Z" fill="#B8BDCE"/>
<path d="M58 38H38V41H58V38Z" fill="#B8BDCE"/>
<path d="M30 38H33V41H30V38Z" fill="#E6EAF0"/>
<path d="M67.5 30C65.575 30 64 28.425 64 26.5C64 24.575 65.575 23 67.5 23C69.425 23 71 24.575 71 26.5C71 28.425 69.425 30 67.5 30ZM67.5 25.3333C66.8583 25.3333 66.3333 25.8583 66.3333 26.5C66.3333 27.1417 66.8583 27.6667 67.5 27.6667C68.1417 27.6667 68.6667 27.1417 68.6667 26.5C68.6667 25.8583 68.1417 25.3333 67.5 25.3333Z" fill="#E6EAF0"/>
<path d="M58.5 30C56.575 30 55 28.425 55 26.5C55 24.575 56.575 23 58.5 23C60.425 23 62 24.575 62 26.5C62 28.425 60.425 30 58.5 30ZM58.5 25.3333C57.8583 25.3333 57.3333 25.8583 57.3333 26.5C57.3333 27.1417 57.8583 27.6667 58.5 27.6667C59.1417 27.6667 59.6667 27.1417 59.6667 26.5C59.6667 25.8583 59.1417 25.3333 58.5 25.3333Z" fill="#E6EAF0"/>
<path d="M49.5 30C47.575 30 46 28.425 46 26.5C46 24.575 47.575 23 49.5 23C51.425 23 53 24.575 53 26.5C53 28.425 51.425 30 49.5 30ZM49.5 25.3333C48.8583 25.3333 48.3333 25.8583 48.3333 26.5C48.3333 27.1417 48.8583 27.6667 49.5 27.6667C50.1417 27.6667 50.6667 27.1417 50.6667 26.5C50.6667 25.8583 50.1417 25.3333 49.5 25.3333Z" fill="#E6EAF0"/>
<path d="M36 29V19L26 29H36Z" fill="#D7DEE9"/>
<path d="M98.6217 38.3441C100.578 37.0495 103.214 37.5862 104.509 39.5429C105.803 41.4995 105.266 44.1352 103.31 45.4298L73.921 64.8743C70.2932 64.833 67.8521 61.1435 69.2328 57.7886L98.6217 38.3441Z" fill="#B8BDCE"/>
<path fill-rule="evenodd" clip-rule="evenodd" d="M100.844 49.5614C101.08 48.7276 100.519 47.879 99.6592 47.7704L98.6918 47.6482L98.996 45.2399L99.9634 45.3621C102.297 45.6569 103.821 47.96 103.18 50.2232C102.929 51.1079 102.369 51.8734 101.603 52.3808L83.7095 64.2193L82.37 62.1948L100.263 50.3563C100.546 50.1693 100.752 49.8873 100.844 49.5614Z" fill="#D7DEE9"/>
<path d="M86.981 46.0459L91.6691 53.1316C91.6691 53.1316 76.2296 63.3468 74.0844 64.7661C71.9392 66.1855 63.3441 66.7785 63.3441 66.7785C63.3441 66.7785 66.8935 59.3363 69.3963 57.6804C71.899 56.0245 86.981 46.0459 86.981 46.0459Z" fill="#D7DEE9"/>
<defs>
<linearGradient id="paint0_linear" x1="-5.59808e-07" y1="100" x2="120.545" y2="54.8326" gradientUnits="userSpaceOnUse">
<stop stop-color="#003399"/>
<stop offset="0.520833" stop-color="#0057B6"/>
<stop offset="1" stop-color="#5960EA"/>
</linearGradient>
</defs>
</svg>
