<svg width="107" height="100" viewBox="0 0 107 100" fill="none" xmlns="http://www.w3.org/2000/svg">
<circle cx="50" cy="50" r="50" fill="url(#paint0_linear)"/>
<path d="M55.4884 80.1691L50.3344 82.0783L48.0897 86.1777L36.8849 84.242L36.1746 79.6357L31.974 76.1275L27.3148 76.2496L23.4255 65.568L27.0526 62.6231L28.0003 57.2125L25.607 53.2641L32.9326 44.4925L37.2443 46.1439L42.3927 44.2415L44.6374 40.142L55.8467 42.0587L56.5569 46.665L60.7576 50.1732L65.4167 50.0512L69.3005 60.7394L65.679 63.6776L64.7246 69.0827L67.1123 73.0377L59.7867 81.8093L55.4884 80.1691ZM50.8537 57.7834C47.9019 55.3182 43.5029 55.7259 41.0237 58.6946C38.5444 61.6632 38.9272 66.0644 41.879 68.5296C44.8308 70.9949 49.2297 70.5871 51.709 67.6185C54.1816 64.6442 53.7999 60.2553 50.8537 57.7834Z" fill="white"/>
<path d="M69.1947 48.776L65.9454 47.9789L63.4147 49.2789L58.4282 44.4785L59.6426 41.9145L58.7229 38.7125L56.333 37.1836L58.0189 30.4724L60.8522 30.2263L63.1768 27.8228L63.3183 25.0158L70.0046 23.0955L71.614 25.3996L74.8582 26.1981L77.3889 24.8982L82.3842 29.6905L81.1698 32.2545L82.0895 35.4566L84.4794 36.9854L82.7884 43.6981L79.9602 43.9428L77.6342 46.3411L77.4875 49.1496L70.8012 51.0699L69.1947 48.776ZM74.5001 35.9115C73.8539 33.6614 71.4976 32.3653 69.2347 33.0153C66.9718 33.6652 65.6624 36.014 66.3086 38.2641C66.9549 40.5142 69.3111 41.8103 71.574 41.1603C73.8355 40.5053 75.1412 38.163 74.5001 35.9115Z" fill="#B8BDCE"/>
<path d="M35.1749 38.1729L32.9235 36.8492L30.74 37.2546L28.0859 32.5481L29.5683 30.9027L29.5976 28.3022L28.1528 26.6237L30.9164 21.9825L33.0903 22.4329L35.3669 21.1561L36.1013 19.0887L41.5315 19.1499L42.2191 21.2334L44.4663 22.5571L46.6499 22.1517L49.3123 26.8541L47.83 28.4996L47.8006 31.1001L49.2454 32.7786L46.4777 37.4197L44.3079 36.9693L42.0314 38.242L41.2928 40.3094L35.8626 40.2481L35.1749 38.1729ZM42.0233 29.7407C42.0439 27.9133 40.5721 26.4164 38.7343 26.3957C36.8965 26.375 35.3913 27.8383 35.3707 29.6656C35.3501 31.493 36.8219 32.9899 38.6597 33.0106C40.4975 33.0272 41.9985 31.568 42.0233 29.7407Z" fill="#0D356C"/>
<path d="M78.3502 52.9329L80.8122 51.0467L83.2515 49.1778C84.3357 48.3472 85.2528 47.322 85.9663 46.1481L86.4908 48.0134C87.0286 49.9312 87.928 51.7244 89.1396 53.3053L105.321 74.4407C107.078 76.7329 106.644 80.0137 104.351 81.7701C102.059 83.5265 98.7772 83.0923 97.0204 80.8001L80.8364 59.6847C79.6247 58.1038 78.1168 56.7679 76.4045 55.7499L74.7107 54.7445C76.0287 54.371 77.266 53.7636 78.3502 52.9329ZM99.6162 78.5156C100.183 79.2908 101.278 79.4559 102.055 78.8788C102.066 78.8702 102.088 78.8529 102.1 78.8442C102.868 78.2559 103.011 77.1689 102.423 76.4011C101.834 75.6332 100.747 75.4894 99.9794 76.0778C99.214 76.6462 99.049 77.7405 99.6162 78.5156Z" fill="#D7DEE9"/>
<path d="M84.1611 50.5955C84.2911 50.4959 84.4223 50.3868 84.5427 50.286C89.0494 46.4551 89.6015 39.7075 85.7793 35.2028L77.8247 30.2291C77.4387 29.9834 76.9713 29.9119 76.5277 30.0283L74.0809 30.6484C73.9706 30.6727 73.8661 30.727 73.7794 30.7934C73.4112 31.0755 73.3417 31.6014 73.6251 31.96L78.7291 38.6192C79.8495 40.081 79.5711 42.1848 78.1091 43.3049L74.0276 46.4233C72.5656 47.5434 70.4614 47.265 69.3411 45.8032L64.2371 39.144C64.1707 39.0574 64.0839 38.9778 63.9837 38.9256C63.5857 38.6978 63.0701 38.8436 62.8422 39.2416L61.6312 41.4068C61.4009 41.8239 61.3555 42.3141 61.5089 42.7723L64.3072 50.8973L65.3944 52.3158C68.7638 56.7119 75.0572 57.5446 79.454 54.176L84.1611 50.5955Z" fill="#EEF1F3"/>
<circle r="12.6865" transform="matrix(0.767535 0.641007 0.641007 -0.767535 46.4441 63.0501)" fill="#B8BDCE"/>
<circle r="6.08295" transform="matrix(0.767535 0.641007 0.641007 -0.767535 46.4443 63.0502)" fill="url(#paint1_linear)"/>
<path d="M87.6648 70.0083L96.7872 62.2795M85.3726 67.1208L94.4949 59.392" stroke="#EB5757" stroke-width="2"/>
<path d="M54.179 22.3355C60.6672 14.4182 72.3452 13.2598 80.2625 19.748" stroke="#D7DEE9" stroke-miterlimit="16" stroke-linecap="round" stroke-dasharray="4 4"/>
<path d="M73.1763 75.9473C69.6526 89.0977 56.1356 96.9018 42.9851 93.3782" stroke="#D7DEE9" stroke-miterlimit="16" stroke-linecap="round" stroke-dasharray="4 4"/>
<defs>
<linearGradient id="paint0_linear" x1="-5.59808e-07" y1="100" x2="120.545" y2="54.8326" gradientUnits="userSpaceOnUse">
<stop stop-color="#003399"/>
<stop offset="0.520833" stop-color="#0057B6"/>
<stop offset="1" stop-color="#5960EA"/>
</linearGradient>
<linearGradient id="paint1_linear" x1="-6.81057e-08" y1="12.1659" x2="14.6654" y2="6.67087" gradientUnits="userSpaceOnUse">
<stop stop-color="#003399"/>
<stop offset="0.520833" stop-color="#0057B6"/>
<stop offset="1" stop-color="#5960EA"/>
</linearGradient>
</defs>
</svg>
