<svg width="106" height="100" viewBox="0 0 106 100" fill="none" xmlns="http://www.w3.org/2000/svg">
<circle cx="50" cy="50" r="50" fill="url(#paint0_linear)"/>
<path d="M29 80H103" stroke="#D7DEE9" stroke-width="18"/>
<path d="M29 84H103" stroke="#EEF1F3" stroke-width="3"/>
<mask id="mask0" mask-type="alpha" maskUnits="userSpaceOnUse" x="0" y="0" width="100" height="100">
<circle cx="50" cy="50" r="50" fill="url(#paint1_linear)"/>
</mask>
<g mask="url(#mask0)">
<path d="M-9 80H65" stroke="#D7DEE9" stroke-width="18"/>
<path d="M-9 84H65" stroke="#EEF1F3" stroke-width="3"/>
</g>
<path d="M42.1707 67.4507H58.6339V71.5665C58.6339 76.1127 54.9485 79.7981 50.4023 79.7981C45.8561 79.7981 42.1707 76.1127 42.1707 71.5665V67.4507Z" fill="#262C40"/>
<path d="M50.4023 20.9998C37.4776 20.9998 27.0001 31.4773 27.0001 44.402C27.0001 57.3267 37.4776 67.8042 50.4023 67.8042C63.3269 67.8042 73.8044 57.3267 73.8044 44.402C73.8044 31.4773 63.3269 20.9998 50.4023 20.9998Z" fill="white" stroke="#262C40" stroke-width="4"/>
<rect x="39.7012" y="54.2803" width="22.2253" height="4.1158" rx="2.0579" fill="#D7DEE9"/>
<circle cx="50.4022" cy="44.4022" r="6.58529" fill="#EEF1F3"/>
<path d="M35.5852 42.7554C35.5852 35.0268 42.2189 28.7616 50.4021 28.7616C58.5852 28.7616 65.219 35.0268 65.219 42.7554" stroke="#E6EAF0" stroke-width="3" stroke-linecap="round"/>
<path d="M49.3544 46.0555C48.5692 45.5972 48.3042 44.589 48.7626 43.8038L56.6472 30.2966C57.5639 28.7261 59.5802 28.1961 61.1507 29.1129L51.6062 45.4637C51.1478 46.2489 50.1397 46.5139 49.3544 46.0555Z" fill="#EB5757"/>
<rect x="99" y="68" width="7" height="24" fill="#E6EAF0"/>
<rect x="99" y="87" width="7" height="3" fill="#F7F9FB"/>
<defs>
<linearGradient id="paint0_linear" x1="-5.59808e-07" y1="100" x2="120.545" y2="54.8326" gradientUnits="userSpaceOnUse">
<stop stop-color="#003399"/>
<stop offset="0.520833" stop-color="#0057B6"/>
<stop offset="1" stop-color="#5960EA"/>
</linearGradient>
<linearGradient id="paint1_linear" x1="-5.59808e-07" y1="100" x2="120.545" y2="54.8326" gradientUnits="userSpaceOnUse">
<stop stop-color="#003399"/>
<stop offset="0.520833" stop-color="#0057B6"/>
<stop offset="1" stop-color="#5960EA"/>
</linearGradient>
</defs>
</svg>
