<svg width="56" height="56" viewBox="0 0 56 56" fill="none" xmlns="http://www.w3.org/2000/svg">
<path fill-rule="evenodd" clip-rule="evenodd" d="M50.6691 27.609L53.2097 27.9265C54.8005 28.1252 56 29.4818 56 31.0818V36.5854C56 38.1855 54.8004 39.542 53.2096 39.7407L50.936 40.0248C49.9442 42.7868 48.2684 45.2457 46.0476 47.195V52.7256C46.0476 54.471 44.6249 55.891 42.8762 55.891H36.5317C34.7829 55.891 33.3601 54.471 33.3601 52.7256V51.5176H26.3586V52.7256C26.3586 54.471 24.9359 55.891 23.1871 55.891H16.8425C15.0939 55.891 13.6711 54.471 13.6711 52.7256V49.1005C8.39278 45.9791 5.14062 40.3154 5.14062 34.1643C5.14062 33.4654 5.18339 32.7765 5.26433 32.099H4.86719C2.18345 32.099 0 29.9199 0 27.2413C0 24.5627 2.18345 22.3836 4.86719 22.3836C5.47116 22.3836 5.96094 22.8723 5.96094 23.4752C5.96094 24.0781 5.47116 24.5669 4.86719 24.5669C3.38953 24.5669 2.1875 25.7667 2.1875 27.2413C2.1875 28.716 3.38953 29.9158 4.86719 29.9158H5.66858C7.57225 22.3942 14.4087 16.8109 22.5279 16.8109H23.8984C24.5024 16.8109 24.9922 17.2996 24.9922 17.9025C24.9922 18.5054 24.5024 18.9942 23.8984 18.9942H22.5279C14.1467 18.9942 7.32812 25.7994 7.32812 34.1643C7.32812 39.7335 10.3778 44.8456 15.2868 47.5057C15.6392 47.6966 15.8587 48.0647 15.8587 48.465V52.7255C15.8587 53.267 16.3002 53.7076 16.8427 53.7076H23.1873C23.7299 53.7076 24.1713 53.267 24.1713 52.7255V50.4259C24.1713 49.823 24.6611 49.3343 25.2651 49.3343H34.4541C35.0581 49.3343 35.5479 49.823 35.5479 50.4259V52.7255C35.5479 53.267 35.9893 53.7076 36.5319 53.7076H42.8764C43.4189 53.7076 43.8604 53.267 43.8604 52.7255V46.6917C43.8604 46.3667 44.0055 46.0585 44.2563 45.8511C46.5316 43.9696 48.1976 41.497 49.0745 38.7008C49.2025 38.2927 49.5574 37.9967 49.9825 37.9437L52.9382 37.5744C53.4367 37.512 53.8127 37.0869 53.8127 36.5854V31.0818C53.8127 30.5803 53.4368 30.1551 52.9382 30.0927L49.7486 29.6942C49.3412 29.6433 48.9966 29.3689 48.8565 28.9838C48.1248 26.9739 46.9968 25.1804 45.5698 23.6855C45.465 23.6106 45.3759 23.518 45.3043 23.4135C43.3467 21.4635 40.8632 20.0584 38.079 19.4011C37.4911 19.2624 37.1273 18.6743 37.2664 18.0876C37.4054 17.5007 37.9946 17.1378 38.5825 17.2765C39.3975 17.4689 40.1967 17.723 40.9742 18.0313C42.0734 15.1752 44.868 13.228 47.9689 13.228H47.9728L48.2117 13.2281C48.5459 13.2283 48.8616 13.3809 49.069 13.6425C49.2764 13.9041 49.3525 14.2458 49.2757 14.5705L47.4077 22.4688C48.7869 23.9783 49.8967 25.7229 50.6691 27.609ZM42.9618 18.9687C43.881 19.4755 44.7549 20.0656 45.5709 20.7317L46.7978 15.5438C45.0401 15.9464 43.5661 17.2358 42.9618 18.9687Z" fill="#427CFB"/>
<path d="M43.5388 27.7195C43.3355 27.5164 43.0533 27.3996 42.7656 27.3996C42.478 27.3996 42.1958 27.5164 41.9923 27.7195C41.7889 27.9225 41.6719 28.2041 41.6719 28.4912C41.6719 28.7783 41.7888 29.06 41.9923 29.263C42.1959 29.466 42.478 29.5828 42.7656 29.5828C43.0533 29.5828 43.3355 29.466 43.5388 29.263C43.7422 29.06 43.8594 28.7783 43.8594 28.4912C43.8594 28.2041 43.7422 27.9225 43.5388 27.7195Z" fill="#427CFB"/>
<path d="M32.0732 6.36774C31.4693 6.36774 30.9795 6.85645 30.9795 7.45935V11.7893C30.9795 12.3922 31.4693 12.8809 32.0732 12.8809C32.6772 12.8809 33.167 12.3922 33.167 11.7893V7.45935C33.167 6.85656 32.6773 6.36774 32.0732 6.36774Z" fill="#427CFB"/>
<path d="M32.8464 2.72686C32.6431 2.52382 32.3609 2.40701 32.0732 2.40701C31.7855 2.40701 31.5034 2.52382 31.3 2.72686C31.0965 2.9299 30.9795 3.21154 30.9795 3.49863C30.9795 3.78682 31.0964 4.06736 31.3 4.2704C31.5034 4.47345 31.7855 4.59025 32.0732 4.59025C32.3609 4.59025 32.6431 4.47345 32.8464 4.2704C33.0499 4.06736 33.167 3.78573 33.167 3.49863C33.167 3.21154 33.0499 2.93099 32.8464 2.72686Z" fill="#427CFB"/>
<path d="M23.1875 0C22.5835 0 22.0938 0.488717 22.0938 1.09162V2.94737C22.0938 3.55027 22.5835 4.03899 23.1875 4.03899C23.7915 4.03899 24.2812 3.55027 24.2812 2.94737V1.09162C24.2812 0.488717 23.7916 0 23.1875 0Z" fill="#427CFB"/>
<path d="M12.4619 34.1642C12.4619 33.5613 11.9721 33.0726 11.3682 33.0726C10.7642 33.0726 10.2744 33.5613 10.2744 34.1642L10.2745 34.2222C10.2782 34.8227 10.7673 35.3071 11.3682 35.3071C11.3704 35.3071 11.3726 35.3071 11.3751 35.3071C11.979 35.3032 12.4657 34.8115 12.462 34.2086L12.4619 34.1642Z" fill="#427CFB"/>
<path d="M17.3034 42.7533C15.4022 41.5985 13.9181 39.8243 13.1247 37.7575C12.9084 37.1944 12.2759 36.9128 11.712 37.1288C11.1479 37.3445 10.8658 37.9756 11.082 38.5387C12.0478 41.0545 13.8534 43.2137 16.1664 44.6184C16.344 44.7262 16.5401 44.7776 16.7338 44.7776C17.103 44.7776 17.4633 44.5911 17.6693 44.2533C17.9833 43.7383 17.8194 43.0667 17.3034 42.7533Z" fill="#427CFB"/>
<path fill-rule="evenodd" clip-rule="evenodd" d="M18.5938 9.83023C18.5938 7.30216 20.6545 5.24544 23.1875 5.24544C25.7205 5.24544 27.7812 7.30216 27.7812 9.83023C27.7812 12.3583 25.7205 14.415 23.1875 14.415C20.6545 14.415 18.5938 12.3583 18.5938 9.83023ZM20.7812 9.83023C20.7812 11.1545 21.8607 12.2318 23.1875 12.2318C24.5143 12.2318 25.5938 11.1545 25.5938 9.83023C25.5938 8.50599 24.5143 7.42867 23.1875 7.42867C21.8607 7.42867 20.7812 8.50599 20.7812 9.83023Z" fill="#427CFB"/>
<path fill-rule="evenodd" clip-rule="evenodd" d="M35.9844 23.1423H36.9688C37.5728 23.1423 38.0625 23.631 38.0625 24.2339C38.0625 24.8368 37.5727 25.3255 36.9688 25.3255H22.75C22.146 25.3255 21.6562 24.8368 21.6562 24.2339C21.6562 23.631 22.146 23.1423 22.75 23.1423H28.1622C27.7297 22.4433 27.4795 21.6208 27.4796 20.7407C27.4796 18.2127 29.5403 16.1559 32.0733 16.1559C34.6064 16.1559 36.6671 18.2127 36.6671 20.7407C36.6671 21.6208 36.4168 22.4433 35.9844 23.1423ZM29.6671 20.7407C29.6671 22.065 30.7465 23.1423 32.0733 23.1423C33.4001 23.1423 34.4796 22.065 34.4796 20.7407C34.4796 19.4165 33.4002 18.3392 32.0733 18.3392C30.7465 18.3392 29.6671 19.4165 29.6671 20.7407Z" fill="#427CFB"/>
</svg>
