<svg width="44" height="44" viewBox="0 0 44 44" fill="none" xmlns="http://www.w3.org/2000/svg">
<path fill-rule="evenodd" clip-rule="evenodd" d="M41.5867 12.0004C37.9386 4.88489 30.5312 0 22 0C13.466 0 6.05766 4.88676 2.41045 12.0074C2.40551 12.0172 2.40023 12.0266 2.39499 12.0359C2.38488 12.054 2.37486 12.0718 2.36748 12.0915C0.85704 15.0718 0 18.4369 0 22C0 25.5641 0.85704 28.9292 2.36748 31.9085C2.37486 31.9282 2.38488 31.946 2.39499 31.9641C2.40023 31.9734 2.40551 31.9828 2.41045 31.9926C6.05673 39.1132 13.466 44 22 44C30.5312 44 37.9386 39.116 41.5867 31.9996C41.592 31.9894 41.5975 31.9796 41.6029 31.9699C41.6146 31.9491 41.6261 31.9286 41.6344 31.9057C43.1439 28.9264 44 25.5622 44 22C44 18.4378 43.1439 15.0736 41.6344 12.0943C41.6254 12.0713 41.6141 12.0507 41.6026 12.0298L41.6024 12.0294C41.5971 12.0199 41.5918 12.0103 41.5867 12.0004ZM40.1211 30.6087H31.7133C32.1803 28.252 32.4578 25.6748 32.5101 22.9565H42.0384C41.909 25.6855 41.2374 28.2692 40.1211 30.6087ZM14.7219 32.5217C16.2609 38.2081 18.9744 42.087 22 42.087C25.0256 42.087 27.7391 38.2081 29.2781 32.5217H14.7219ZM14.2647 30.6087C13.7701 28.2566 13.4707 25.6701 13.4133 22.9565H30.5877C30.5293 25.6701 30.2299 28.2566 29.7362 30.6087H14.2647ZM11.4899 22.9565H1.96162C2.09099 25.6855 2.76261 28.2692 3.87886 30.6087H12.2867C11.8197 28.252 11.5432 25.6748 11.4899 22.9565ZM3.87886 13.3913H12.2867C11.8197 15.748 11.5422 18.3252 11.4899 21.0435H1.96162C2.09099 18.3145 2.76261 15.7308 3.87886 13.3913ZM29.2781 11.4783C27.7391 5.79191 25.0256 1.91304 22 1.91304C18.9744 1.91304 16.2609 5.79191 14.7219 11.4783H29.2781ZM29.7353 13.3913C30.2299 15.7424 30.5293 18.3299 30.5867 21.0435H13.4123C13.4707 18.3299 13.7701 15.7424 14.2638 13.3913H29.7353ZM31.7133 13.3913C32.1803 15.748 32.4568 18.3252 32.5101 21.0435H42.0384C41.909 18.3145 41.2374 15.7308 40.1211 13.3913H31.7133ZM39.0777 11.4783H31.2803C30.3121 7.683 28.8278 4.58738 27.0091 2.57112C32.0892 3.8826 36.3861 7.12534 39.0777 11.4783ZM12.7188 11.4783C13.6879 7.683 15.1722 4.58738 16.9899 2.57112C11.9108 3.8826 7.61388 7.12534 4.92132 11.4783H12.7188ZM4.92226 32.5217H12.7188C13.6869 36.317 15.1712 39.4126 16.9899 41.4289C11.9108 40.1174 7.61388 36.8737 4.92226 32.5217ZM31.2812 32.5217C30.3121 36.317 28.8278 39.4126 27.0101 41.4289C32.0892 40.1174 36.3861 36.8737 39.0777 32.5217H31.2812Z" fill="#427CFB"/>
</svg>
