<svg width="46" height="46" viewBox="0 0 46 46" fill="none" xmlns="http://www.w3.org/2000/svg">
<path fill-rule="evenodd" clip-rule="evenodd" d="M45.7354 13.5369L36.1119 0.54538C35.8575 0.202499 35.456 0 35.0289 0C34.6018 0 34.1999 0.202499 33.9462 0.54538L24.3227 13.5369C24.0199 13.9458 23.9732 14.4908 24.2024 14.9453C24.4312 15.3998 24.8969 15.6869 25.4058 15.6869H28.8697V22.2005C28.1913 21.851 27.4231 21.6523 26.6085 21.6523H24.2027C21.4699 21.6523 19.2466 23.8756 19.2466 26.6085V29.4179C18.5682 29.0683 17.7996 28.8697 16.9854 28.8697H14.5796C11.8467 28.8697 9.62346 31.0933 9.62346 33.8262V36.6352C8.94472 36.286 8.17648 36.087 7.36228 36.087H4.95615C2.22328 36.087 0 38.3106 0 41.0435V44.6523C0 45.3967 0.603287 46 1.34766 46H39.8404C40.5848 46 41.1881 45.3967 41.1881 44.6523V15.6869H44.6523C45.1612 15.6869 45.6269 15.3998 45.8558 14.9453C46.0849 14.4908 46.0383 13.9458 45.7354 13.5369ZM2.69531 41.0435C2.69531 39.7969 3.70956 38.7823 4.95615 38.7823H7.36192C8.60886 38.7823 9.62311 39.7969 9.62311 41.0435V43.3047H2.69531V41.0435ZM12.3184 33.8262V41.0435V43.3047H19.2462V33.8262C19.2462 32.5792 18.232 31.565 16.9854 31.565H14.5796C13.3327 31.565 12.3184 32.5792 12.3184 33.8262ZM21.9419 33.8262V26.6085C21.9419 25.3619 22.9561 24.3477 24.2027 24.3477H26.6085C27.8551 24.3477 28.8697 25.3619 28.8697 26.6085V43.3047H21.9419V33.8262ZM38.4928 14.3392C38.4928 13.5948 39.0961 12.9915 39.8404 12.9915H41.977L35.0289 3.61165L28.0811 12.9915H30.2173C30.9614 12.9915 31.565 13.5948 31.565 14.3392V43.3047H38.4928V14.3392Z" fill="#427CFB"/>
</svg>
