<svg width="56" height="65" viewBox="0 0 56 65" fill="none" xmlns="http://www.w3.org/2000/svg">
<path d="M34.3413 22.8516C35.0406 22.8516 35.6083 22.2828 35.6083 21.582C35.6083 20.8813 35.0406 20.3125 34.3413 20.3125C33.6405 20.3125 33.0743 20.8813 33.0743 21.582C33.0743 22.2828 33.6405 22.8516 34.3413 22.8516Z" fill="#2A61D8"/>
<path d="M21.6716 22.8516C22.3709 22.8516 22.9386 22.2828 22.9386 21.582C22.9386 20.8813 22.3709 20.3125 21.6716 20.3125C20.9708 20.3125 20.4047 20.8813 20.4047 21.582C20.4047 22.2828 20.9708 22.8516 21.6716 22.8516Z" fill="#2A61D8"/>
<path d="M24.6193 31.5776C25.6828 32.08 26.8226 32.3349 28.0059 32.3349C29.1635 32.3349 30.281 32.0904 31.3278 31.6084C31.9637 31.3153 32.2419 30.5615 31.9499 29.9243C31.6574 29.2875 30.9051 29.0083 30.2692 29.3014C29.557 29.6292 28.7953 29.7958 28.0059 29.7958C27.1987 29.7958 26.4227 29.6228 25.6997 29.2811C25.0667 28.982 24.3114 29.2538 24.0135 29.8881C23.7151 30.5223 23.9863 31.2786 24.6193 31.5776Z" fill="#2A61D8"/>
<path fill-rule="evenodd" clip-rule="evenodd" d="M41.2126 38.7986C48.0136 39.0579 55.948 44.5328 55.948 51.5137V63.7305C55.948 64.4317 55.3809 65 54.6811 65H1.33032C0.630521 65 0.0633545 64.4317 0.0633545 63.7305V51.5137C0.0633545 44.5184 8.01259 39.0574 14.7988 38.7986L18.2948 35.651C14.1237 32.5669 11.5928 27.6113 11.5928 22.3438V13.9648C11.5928 6.24252 17.7861 0 25.4849 0H30.5527C38.262 0 44.5339 6.26484 44.5339 13.9648V22.3438C44.5339 27.6202 41.9688 32.5853 37.7428 35.6748L41.2126 38.7986ZM30.8052 56.6211H25.1993L23.8324 62.4609H32.1335L30.8052 56.6211ZM30.914 54.082H25.1191L24.1471 51.0476L28.0064 49.114L31.9484 51.0897L30.914 54.082ZM23.6032 38.2421L28.0059 45.2995L32.4017 38.2526C30.9794 38.6443 29.5045 38.8472 28.0188 38.8472C26.5187 38.8472 25.033 38.6404 23.6032 38.2421ZM29.8193 47.1839L35.9022 37.4308L39.183 40.3845L35.0084 49.7845L29.8193 47.1839ZM30.5527 2.53906H25.4849C19.2218 2.53906 14.1267 7.6643 14.1267 13.9648V14.9051L16.3845 11.5899C16.5983 11.2755 16.9417 11.0742 17.3199 11.041C17.6975 11.0077 18.0711 11.1456 18.3364 11.4178C20.9139 14.0571 23.8962 15.2344 28.0064 15.2344C32.1172 15.2344 35.099 14.0571 37.6745 11.4178C37.9388 11.1471 38.309 11.0087 38.6861 11.0405C39.0627 11.0722 39.4057 11.2706 39.621 11.5815L42 15.0142V13.9648C42 7.6643 36.8648 2.53906 30.5527 2.53906ZM14.1267 22.3438V19.4094L17.6455 14.2426C20.4645 16.6452 23.7957 17.7734 28.0064 17.7734C32.2216 17.7734 35.5553 16.6428 38.3748 14.2351L42 19.466V22.3438C42 29.9466 35.7983 36.3086 28.0188 36.3086C20.2646 36.3086 14.1267 29.9664 14.1267 22.3438ZM26.1931 47.1839L20.1092 37.4313L16.8284 40.3845L21.003 49.7845L26.1931 47.1839ZM2.59729 51.5137C2.59729 46.2838 8.94203 41.7681 14.4865 41.3575L19.2267 52.03C19.3673 52.3463 19.6311 52.5918 19.9567 52.7089C20.2824 52.8259 20.6412 52.8041 20.951 52.6493L21.8537 52.1966L22.8817 55.4041L21.2296 62.4609H2.59729V51.5137ZM34.7323 62.4609H53.4141V51.5137C53.4141 46.2838 47.0694 41.7686 41.5249 41.3575L36.7846 52.03C36.6441 52.3463 36.3803 52.5918 36.0547 52.7089C35.732 52.8249 35.3722 52.8056 35.0604 52.6493L34.2339 52.2348L33.1317 55.4235L34.7323 62.4609Z" fill="#2A61D8"/>
<path d="M44.4771 56.6211H39.4092C38.7094 56.6211 38.1422 57.1894 38.1422 57.8906C38.1422 58.5918 38.7094 59.1602 39.4092 59.1602H44.4771C45.1769 59.1602 45.744 58.5918 45.744 57.8906C45.744 57.1894 45.1769 56.6211 44.4771 56.6211Z" fill="#2A61D8"/>
<path d="M49.4751 56.6211C50.1744 56.6211 50.7421 57.1899 50.7421 57.8906C50.7421 58.5913 50.1744 59.1602 49.4751 59.1602C48.7758 59.1602 48.2081 58.5913 48.2081 57.8906C48.2081 57.1899 48.7758 56.6211 49.4751 56.6211Z" fill="#2A61D8"/>
</svg>
