<svg width="65" height="65" viewBox="0 0 65 65" fill="none" xmlns="http://www.w3.org/2000/svg">
<path fill-rule="evenodd" clip-rule="evenodd" d="M8.87135 50.9206C9.64745 50.4941 10.5222 50.267 11.4322 50.267C12.8565 50.267 14.1954 50.8214 15.2026 51.8286C16.2098 52.8353 16.7643 54.1748 16.7643 55.5985C16.7643 57.0228 16.2098 58.3622 15.2026 59.3689C14.1954 60.3761 12.8565 60.9311 11.4322 60.9311C10.008 60.9311 8.66901 60.3761 7.66232 59.3689C6.65512 58.3622 6.1002 57.0233 6.1002 55.599C6.1002 54.5303 6.41262 53.5098 6.99383 52.6414C2.47955 46.9285 0 39.8023 0 32.5C0 23.8191 3.38062 15.6574 9.519 9.519C15.6574 3.38062 23.8191 0 32.5 0C34.677 0 36.8536 0.216713 38.9697 0.644188C39.657 0.783539 40.1013 1.45302 39.9625 2.14035C39.8236 2.82768 39.1531 3.27202 38.4668 3.13316C36.5159 2.73891 34.5084 2.53906 32.5 2.53906C15.9792 2.53906 2.53906 15.9792 2.53906 32.5C2.53906 39.1695 4.78306 45.6798 8.87135 50.9206ZM11.4322 58.392C12.1781 58.392 12.8798 58.1014 13.4069 57.5737C13.9346 57.0461 14.2252 56.3449 14.2252 55.599C14.2252 54.8527 13.9346 54.1515 13.4069 53.6238C12.8793 53.0967 12.1781 52.8061 11.4322 52.8061C10.6864 52.8061 9.98466 53.0962 9.45751 53.6238C8.92986 54.1515 8.63926 54.8527 8.63926 55.599C8.63926 56.3449 8.92986 57.0461 9.45751 57.5737C9.98516 58.1014 10.6864 58.392 11.4322 58.392Z" fill="#2A61D8"/>
<path fill-rule="evenodd" clip-rule="evenodd" d="M57.3382 5.63059C59.1636 7.45604 59.3853 10.2867 58.0051 12.3571C62.5199 18.0705 65 25.1972 65 32.5C65 41.1809 61.6193 49.3426 55.481 55.481C49.3426 61.6194 41.1809 65 32.5 65C30.3442 65 28.188 64.7873 26.0918 64.3682C25.4045 64.2304 24.9587 63.5619 25.096 62.8741C25.2339 62.1867 25.9029 61.7409 26.5902 61.8783C28.5228 62.2651 30.5114 62.461 32.5 62.461C49.0207 62.461 62.4609 49.0208 62.4609 32.5C62.4609 25.8305 60.2169 19.3207 56.1286 14.0794C55.3525 14.5059 54.4777 14.733 53.5677 14.733C52.1435 14.733 50.8045 14.1786 49.7973 13.1714C48.7901 12.1642 48.2357 10.8253 48.2357 9.401C48.2357 7.97675 48.7901 6.63779 49.7973 5.63059C50.8045 4.62389 52.1435 4.06897 53.5677 4.06897C54.992 4.06897 56.331 4.62389 57.3382 5.63059ZM50.7748 9.401C50.7748 10.1473 51.0654 10.8486 51.593 11.3762C52.1202 11.9034 52.8214 12.194 53.5677 12.194C54.3136 12.194 55.0153 11.9034 55.543 11.3762C56.6315 10.2872 56.6315 8.5153 55.543 7.42628C55.0153 6.89864 54.3136 6.60803 53.5677 6.60803C52.8219 6.60803 52.1202 6.89864 51.593 7.42628C51.0654 7.95393 50.7748 8.65515 50.7748 9.401Z" fill="#2A61D8"/>
<path fill-rule="evenodd" clip-rule="evenodd" d="M28.5308 55.6055C27.83 55.6055 27.2612 55.0372 27.2612 54.3359V51.8747C25.5925 51.4254 23.9967 50.7639 22.4965 49.9L20.7593 51.6377C20.5213 51.8757 20.1985 52.0096 19.8617 52.0096H19.8613C19.5245 52.0096 19.2017 51.8752 18.9637 51.6372L13.3529 46.0225C12.857 45.5266 12.8575 44.7227 13.3529 44.2273L15.0886 42.4916C14.2247 40.992 13.5632 39.3961 13.1139 37.7269H10.6621C10.3249 37.7269 10.0021 37.593 9.76402 37.355C9.52598 37.1169 9.39208 36.7936 9.39258 36.4569L9.39704 28.5188C9.39704 27.8181 9.96536 27.2498 10.6666 27.2498H13.1139C13.5632 25.5806 14.2247 23.9852 15.0886 22.4856L13.3623 20.7593C13.1243 20.5213 12.9904 20.1979 12.9904 19.8612C12.9904 19.5245 13.1243 19.2017 13.3628 18.9636L18.9775 13.3524C19.4735 12.857 20.2773 12.8575 20.7727 13.3529L22.497 15.0772C23.9967 14.2133 25.5925 13.5518 27.2612 13.103V10.6641C27.2612 9.96284 27.83 9.39453 28.5308 9.39453H36.4688C37.17 9.39453 37.7383 9.96284 37.7383 10.6641V13.1025C39.4076 13.5518 41.0034 14.2133 42.503 15.0772L44.2268 13.3529C44.7227 12.857 45.5266 12.857 46.022 13.3524L51.6372 18.9631C51.8753 19.2012 52.0092 19.5245 52.0097 19.8612C52.0097 20.1979 51.8758 20.5213 51.6377 20.7593L49.9115 22.4856C50.7753 23.9852 51.4364 25.5811 51.8857 27.2498H54.338C55.0392 27.2498 55.6075 27.8181 55.6075 28.5193V36.4574C55.6075 37.1586 55.0392 37.7269 54.338 37.7269H51.8862C51.4369 39.3961 50.7753 40.992 49.9115 42.4916L51.6471 44.2273C52.1426 44.7227 52.1426 45.5266 51.6471 46.0225L46.0364 51.6372C45.7984 51.8757 45.475 52.0096 45.1388 52.0096C44.8016 52.0096 44.4788 51.8757 44.2407 51.6377L42.503 49.9C41.0034 50.7639 39.4076 51.4254 37.7383 51.8747V54.3359C37.7383 55.0372 37.17 55.6055 36.4688 55.6055H28.5308ZM21.4075 47.3986C21.831 46.9756 22.4921 46.9052 22.9944 47.23C24.7757 48.381 26.7281 49.1904 28.7976 49.6347C29.3822 49.7607 29.8003 50.2779 29.8003 50.876V53.0664H35.1993V50.876C35.1993 50.2774 35.6168 49.7607 36.202 49.6347C38.2714 49.1899 40.2238 48.381 42.0051 47.23C42.5075 46.9052 43.1686 46.9751 43.5921 47.3986L45.1378 48.9439L48.9538 45.1249L47.4096 43.5806C46.9866 43.1576 46.9162 42.4966 47.241 41.9937C48.392 40.2129 49.2013 38.26 49.6456 36.1906C49.7716 35.6059 50.2883 35.1878 50.8869 35.1878H53.0684V29.7889H50.8869C50.2883 29.7889 49.7711 29.3713 49.6456 28.7861C49.2008 26.7167 48.392 24.7643 47.241 22.983C46.9162 22.4806 46.9861 21.8196 47.4096 21.3961L48.9439 19.8617L45.1249 16.0457L43.5916 17.5785C43.1686 18.0021 42.5075 18.072 42.0051 17.7472C40.2243 16.5961 38.2714 15.7873 36.202 15.3425C35.6168 15.217 35.1993 14.6998 35.1993 14.1012V11.9336H29.8003V14.1017C29.8003 14.6998 29.3822 15.217 28.7976 15.343C26.7276 15.7873 24.7752 16.5966 22.9944 17.7477C22.4916 18.072 21.831 18.0021 21.4075 17.579L19.8746 16.0457L16.0556 19.8617L17.59 21.3966C18.013 21.8196 18.0834 22.4806 17.7586 22.983C16.6076 24.7643 15.7983 26.7167 15.3539 28.7861C15.228 29.3713 14.7112 29.7889 14.1127 29.7889H11.9351L11.9321 35.1878H14.1127C14.7112 35.1878 15.228 35.6059 15.3539 36.1906C15.7983 38.2605 16.6076 40.2129 17.7586 41.9942C18.0834 42.4966 18.013 43.1576 17.59 43.5806L16.0457 45.1254L19.8617 48.9444L21.4075 47.3986Z" fill="#2A61D8"/>
<path fill-rule="evenodd" clip-rule="evenodd" d="M32.5 22.01C38.2843 22.01 42.99 26.7157 42.99 32.5C42.99 38.2843 38.2843 42.99 32.5 42.99C26.7157 42.99 22.01 38.2843 22.01 32.5C22.01 26.7157 26.7157 22.01 32.5 22.01ZM32.5 24.5491C28.1157 24.5491 24.5491 28.1157 24.5491 32.5C24.5491 36.8844 28.1157 40.4509 32.5 40.4509C36.8844 40.4509 40.4509 36.8839 40.4509 32.5C40.4509 28.1162 36.8844 24.5491 32.5 24.5491Z" fill="#2A61D8"/>
<path d="M44.1896 4.80141C44.5238 4.80141 44.8511 4.66553 45.0872 4.42948C45.3232 4.19194 45.4591 3.86464 45.4591 3.5304C45.4591 3.19814 45.3237 2.87034 45.0872 2.6328C44.8511 2.39674 44.5238 2.26086 44.1896 2.26086C43.8543 2.26086 43.5285 2.39674 43.2925 2.6328C43.0559 2.87034 42.92 3.19665 42.92 3.5304C42.92 3.86563 43.0559 4.19194 43.2925 4.42948C43.5285 4.66553 43.8543 4.80141 44.1896 4.80141Z" fill="#2A61D8"/>
<path d="M20.866 60.2214C20.5322 60.2214 20.2044 60.3573 19.9684 60.5934C19.7323 60.8294 19.5964 61.1572 19.5964 61.491C19.5964 61.8262 19.7323 62.1525 19.9684 62.3886C20.2044 62.6246 20.5322 62.7605 20.866 62.7605C21.1997 62.7605 21.5275 62.6246 21.7636 62.3886C21.9996 62.1525 22.1355 61.8247 22.1355 61.491C22.1355 61.1572 21.9996 60.8294 21.7636 60.5934C21.5275 60.3573 21.1997 60.2214 20.866 60.2214Z" fill="#2A61D8"/>
</svg>
