<svg width="60" height="51" viewBox="0 0 60 51" fill="none" xmlns="http://www.w3.org/2000/svg">
<path fill-rule="evenodd" clip-rule="evenodd" d="M53.6705 4.63636H55.3125C57.8975 4.63636 60 6.71594 60 9.27273V46.3636C60 48.9204 57.8975 51 55.3125 51H4.6875C2.10251 51 0 48.9204 0 46.3636V9.27273C0 6.71594 2.10251 4.63636 4.6875 4.63636H6.44669C6.99005 1.99355 9.35852 0 12.1875 0C15.0165 0 17.3849 1.99355 17.9283 4.63636H24.2592C24.8026 1.99355 27.171 0 30 0C32.829 0 35.1974 1.99355 35.7408 4.63636H42.1889C42.7322 1.99355 45.1007 0 47.9297 0C50.7587 0 53.1271 1.99355 53.6705 4.63636ZM51.2439 4.63636C50.761 3.28711 49.4577 2.31818 47.9297 2.31818C46.4017 2.31818 45.0984 3.28711 44.6155 4.63636H51.2439ZM30 2.31818C31.528 2.31818 32.8313 3.28711 33.3142 4.63636H26.6858C27.1687 3.28711 28.472 2.31818 30 2.31818ZM15.5017 4.63636C15.0188 3.28711 13.7155 2.31818 12.1875 2.31818C10.6595 2.31818 9.35623 3.28711 8.87329 4.63636H15.5017ZM57.6562 46.3636C57.6562 47.6423 56.6052 48.6818 55.3125 48.6818H4.6875C3.39478 48.6818 2.34375 47.6423 2.34375 46.3636V18.5455H57.6562V46.3636ZM2.34375 9.27273V16.2273H57.6562V9.27273C57.6562 7.99411 56.6052 6.95455 55.3125 6.95455H4.6875C3.39478 6.95455 2.34375 7.99411 2.34375 9.27273Z" fill="#2A61D8"/>
<path d="M18.1919 12.7636H5.88721C5.23993 12.7636 4.71533 12.2447 4.71533 11.6045C4.71533 10.9643 5.23993 10.4454 5.88721 10.4454H18.1919C18.8392 10.4454 19.3638 10.9643 19.3638 11.6045C19.3638 12.2447 18.8392 12.7636 18.1919 12.7636Z" fill="#2A61D8"/>
<path d="M22.4131 12.7636C21.7658 12.7636 21.2407 12.2447 21.2407 11.6045C21.2407 10.9643 21.7649 10.4454 22.4117 10.4454H22.4131C23.0603 10.4454 23.5849 10.9643 23.5849 11.6045C23.5849 12.2447 23.0603 12.7636 22.4131 12.7636Z" fill="#2A61D8"/>
<path fill-rule="evenodd" clip-rule="evenodd" d="M17.5781 33.6136C17.5781 40.3884 23.1505 45.9 30 45.9C36.8495 45.9 42.4219 40.3884 42.4219 33.6136C42.4219 26.8388 36.8495 21.3273 30 21.3273C23.1505 21.3273 17.5781 26.8388 17.5781 33.6136ZM19.9219 33.6136C19.9219 28.117 24.4427 23.6455 30 23.6455C35.5573 23.6455 40.0781 28.117 40.0781 33.6136C40.0781 39.1098 35.5573 43.5818 30 43.5818C24.4427 43.5818 19.9219 39.1098 19.9219 33.6136Z" fill="#2A61D8"/>
<path d="M27.5836 38.2432C27.2837 38.2432 26.9844 38.1305 26.7555 37.9045L24.5587 35.7353C24.1009 35.283 24.1 34.5491 24.5573 34.0963C25.0151 33.6431 25.7566 33.6426 26.2149 34.0949L27.5836 35.4465L33.7858 29.3227C34.2436 28.8704 34.9856 28.8713 35.4429 29.3241C35.9002 29.7773 35.8993 30.5113 35.4416 30.9636L28.4117 37.9045C28.1828 38.1305 27.8834 38.2432 27.5836 38.2432Z" fill="#2A61D8"/>
</svg>
