<svg width="63" height="62" viewBox="0 0 63 62" fill="none" xmlns="http://www.w3.org/2000/svg">
<path fill-rule="evenodd" clip-rule="evenodd" d="M56.0255 3.99444L62.968 34.0684C62.9894 34.1619 63 34.2565 63 34.3506V60.6653C63 61.3581 62.438 61.9199 61.745 61.9199H1.25496C0.561955 61.9199 0 61.3581 0 60.6653V34.3506C0 34.2565 0.010582 34.1619 0.0321152 34.0684L6.97467 3.99444C7.1062 3.42525 7.61316 3.022 8.19751 3.022H18.5867V1.33472C18.5867 0.641892 19.1487 0.0800781 19.8417 0.0800781H43.1584C43.8514 0.0800781 44.4134 0.641892 44.4134 1.33472V3.022H54.8026C55.387 3.022 55.8939 3.42525 56.0255 3.99444ZM53.8042 5.53128H44.4134V7.27159H46.7725C47.4655 7.27159 48.0274 7.8334 48.0274 8.52623V14.4632H50.5612C51.2542 14.4632 51.8161 15.025 51.8161 15.7179V33.0958H60.1676L53.8042 5.53128ZM21.5801 26.1126H21.5812C21.914 26.1126 22.2331 25.9803 22.4686 25.7451C22.7041 25.5096 22.8365 25.19 22.8361 24.8568L22.8289 16.9725H49.3061V33.0959H13.6939V26.1053L21.5801 26.1126ZM20.3207 18.7445L15.4664 23.5976L20.3253 23.6021L20.3207 18.7445ZM21.0968 2.58936H41.9034V7.27146H21.0968V2.58936ZM45.5173 14.4631V9.78086H17.4827V18.0328L20.6858 14.8305C20.9213 14.5953 21.2404 14.4631 21.5732 14.4631H45.5173ZM9.19591 5.53128H18.5868V7.27146H16.2278C15.5348 7.27146 14.9728 7.83328 14.9728 8.5261V20.5422L11.5515 23.9626C11.3163 24.198 11.184 24.5171 11.184 24.8498V33.0958H2.83254L9.19591 5.53128ZM2.50991 59.4106H60.49V35.6052H2.50991V59.4106Z" fill="#2A61D8"/>
<path fill-rule="evenodd" clip-rule="evenodd" d="M25.489 47.7531C25.489 44.4394 28.1855 41.7437 31.5 41.7437C34.8145 41.7437 37.5109 44.4395 37.5109 47.7532C37.5109 51.0669 34.8145 53.7627 31.5 53.7627C28.1855 53.7627 25.489 51.0668 25.489 47.7531ZM27.9989 47.7532C27.9989 49.6832 29.5695 51.2534 31.5 51.2534C33.4305 51.2534 35.001 49.683 35.001 47.7531C35.001 45.8231 33.4306 44.2529 31.5 44.2529C29.5694 44.2529 27.9989 45.8232 27.9989 47.7532Z" fill="#2A61D8"/>
<path d="M43.736 28.4907H43.2967C42.6037 28.4907 42.0417 29.0525 42.0417 29.7454C42.0417 30.4382 42.6037 31 43.2967 31H43.736C44.429 31 44.9909 30.4382 44.9909 29.7454C44.9909 29.0525 44.429 28.4907 43.736 28.4907Z" fill="#2A61D8"/>
<path d="M39.0299 28.4907H19.264C18.571 28.4907 18.009 29.0525 18.009 29.7454C18.009 30.4382 18.571 31 19.264 31H39.0299C39.7229 31 40.2848 30.4382 40.2848 29.7454C40.2848 29.0525 39.7229 28.4907 39.0299 28.4907Z" fill="#2A61D8"/>
</svg>
