<svg width="112" height="97" viewBox="0 0 112 97" fill="none" xmlns="http://www.w3.org/2000/svg">
<rect y="91" width="112" height="6" fill="#2960D8"/>
<rect x="8" y="35" width="4" height="57" fill="#2960D8"/>
<rect x="99" y="35" width="4" height="57" fill="#2960D8"/>
<rect x="50" y="51" width="13" height="6" fill="#2960D8"/>
<rect x="55" width="2" height="54" fill="#2960D8"/>
<rect x="36" width="2" height="9" fill="#2960D8"/>
<rect x="75" width="2" height="9" fill="#2960D8"/>
<rect x="76.5" width="2" height="40" transform="rotate(90 76.5 0)" fill="#2960D8"/>
<rect x="50" y="68" width="13" height="6" fill="#2960D8"/>
<rect x="45" y="81" width="23" height="11" fill="#2960D8"/>
<rect x="63.5" y="6.5" width="13" height="81" rx="6.5" fill="white" stroke="#2960D8" stroke-width="3"/>
<rect x="76.5" y="6.5" width="13" height="81" rx="6.5" fill="white" stroke="#2960D8" stroke-width="3"/>
<rect x="23.5" y="6.5" width="13" height="81" rx="6.5" fill="white" stroke="#2960D8" stroke-width="3"/>
<rect x="36.5" y="6.5" width="13" height="81" rx="6.5" fill="white" stroke="#2960D8" stroke-width="3"/>
</svg>
