<svg width="46" height="46" viewBox="0 0 46 46" fill="none" xmlns="http://www.w3.org/2000/svg">
<path d="M44.6074 1.38766C43.7114 0.492737 42.5252 0 41.2671 0C41.2653 0 41.2632 0 41.2614 0L27.0686 0.0182495C26.5681 0.0189515 26.1631 0.425003 26.1635 0.925461C26.1642 1.42522 26.5699 1.83022 27.0696 1.83022H27.0707L41.2635 1.81232H41.2671C42.0416 1.81232 42.773 2.11659 43.3268 2.67004C43.882 3.22455 44.188 3.95804 44.188 4.73505V41.2625C44.188 42.8755 42.8755 44.188 41.2625 44.188H4.73505C3.12312 44.188 1.81232 42.8755 1.81232 41.2625V4.73505C1.81232 3.12347 3.12347 1.81197 4.73505 1.81197H18.9125C19.4129 1.81197 19.8183 1.40627 19.8183 0.906159C19.8183 0.405701 19.4129 0 18.9125 0H4.73505C2.12396 0 0 2.12396 0 4.73505V41.2625C0 43.8746 2.12396 46 4.73505 46H41.2625C43.8746 46 46 43.8746 46 41.2625V4.73505C46 3.47337 45.5055 2.2847 44.6074 1.38766Z" fill="#6FC0FF"/>
<path fill-rule="evenodd" clip-rule="evenodd" d="M25.2005 5.86101C25.2194 5.86311 25.2384 5.86592 25.2573 5.86908C29.7579 6.45938 33.7188 8.78795 36.4418 12.1567L36.4425 12.1574C36.493 12.2062 36.5345 12.2606 36.5713 12.3175C38.8922 15.2588 40.2788 18.9701 40.2788 22.9991C40.2788 28.4227 37.7659 33.27 33.8444 36.4405C33.7897 36.4974 33.7286 36.5472 33.6616 36.5876C30.7227 38.8989 27.0191 40.2785 22.9989 40.2785C17.5736 40.2785 12.7248 37.7636 9.55501 33.8393C9.50096 33.7866 9.45358 33.7284 9.41463 33.6648C7.1022 30.7256 5.72156 27.0203 5.72156 22.9987C5.72156 22.2512 5.76929 21.5145 5.86194 20.7916C5.86334 20.7786 5.86545 20.7652 5.86755 20.7523C6.4547 16.2492 8.78291 12.2862 12.1517 9.56145C12.2075 9.50319 12.2703 9.4523 12.3384 9.41124C15.2766 7.10092 18.9795 5.72168 22.9986 5.72168C23.7444 5.72168 24.4792 5.76906 25.2005 5.86101ZM27.5845 18.8659C30.8227 18.291 33.5696 16.0474 34.78 12.9899C32.6771 10.5192 29.8134 8.716 26.5537 7.94672C27.542 11.0733 27.1279 14.5183 25.41 17.3182C26.121 17.6186 26.7868 18.0566 27.3651 18.635C27.4406 18.7104 27.5136 18.7873 27.5845 18.8659ZM26.0845 26.0836C25.9431 26.2247 25.7939 26.3531 25.6388 26.4707C25.63 26.4768 25.6217 26.4835 25.6134 26.4902L25.6012 26.4998C23.8946 27.7678 21.4635 27.6295 19.9162 26.0839C18.2155 24.3836 18.2155 21.6167 19.9162 19.9163C20.7665 19.0659 21.8833 18.6409 23 18.6409C24.1167 18.6409 25.2334 19.0659 26.0835 19.9156C26.2291 20.0616 26.3614 20.2157 26.4818 20.3757L26.4838 20.3783C26.4936 20.3914 26.5032 20.4042 26.5137 20.4167C27.7673 22.1224 27.6241 24.5418 26.0845 26.0836ZM23.5468 16.8546C25.4373 14.1638 25.7999 10.6333 24.4957 7.60629C24.003 7.55856 23.504 7.53365 22.9986 7.53365C19.9267 7.53365 17.0612 8.43419 14.6519 9.98505C17.5557 11.4769 19.7049 14.1831 20.4931 17.3603C21.4586 16.9325 22.5118 16.7633 23.5468 16.8546ZM12.9905 11.219C16.0483 12.4294 18.2916 15.1767 18.8661 18.4149C18.7875 18.4858 18.7103 18.5592 18.6348 18.6346C18.0568 19.2126 17.6192 19.8784 17.3184 20.5887C14.5178 18.8719 11.0729 18.4581 7.94589 19.4464C8.71518 16.1864 10.5191 13.3219 12.9905 11.219ZM16.8548 22.4509C14.1634 20.562 10.6324 20.2002 7.60617 21.5043C7.55844 21.9964 7.53352 22.4947 7.53352 22.9987C7.53352 26.0713 8.43407 28.9375 9.98492 31.3475C11.4789 28.4423 14.1851 26.2931 17.3598 25.5063C16.932 24.5401 16.7629 23.4865 16.8548 22.4509ZM11.2185 33.0086C12.4321 29.949 15.1794 27.706 18.4148 27.134C18.486 27.2126 18.5594 27.2898 18.6352 27.3656C19.2136 27.9436 19.8797 28.3809 20.5907 28.681C18.8717 31.4819 18.4573 34.9276 19.4469 38.0542C16.1862 37.2849 13.3218 35.4807 11.2185 33.0086ZM22.4543 29.1439C20.5619 31.8357 20.199 35.3677 21.5053 38.3943C21.997 38.4417 22.495 38.4666 22.9989 38.4666C26.0712 38.4666 28.9374 37.566 31.347 36.0148C28.4422 34.5208 26.2933 31.8143 25.5065 28.6385C24.7105 28.9909 23.8553 29.1684 22.9996 29.1684C22.8178 29.1684 22.6357 29.1597 22.4543 29.1439ZM33.0077 34.7812C29.9492 33.5676 27.7066 30.8204 27.1342 27.5846C27.2128 27.5137 27.29 27.4407 27.3658 27.3649C27.9438 26.7862 28.3811 26.1197 28.6812 25.4087C30.4826 26.5142 32.5501 27.082 34.6288 27.082C35.7817 27.082 36.938 26.9073 38.0534 26.5542C37.2837 29.8142 35.4795 32.6783 33.0077 34.7812ZM29.1438 23.5458C31.8356 25.4382 35.3672 25.8007 38.3938 24.4952C38.4412 24.0024 38.4664 23.5034 38.4664 22.9987C38.4664 19.9268 37.5656 17.0609 36.0147 14.6517C34.5224 17.5554 31.8159 19.7047 28.6384 20.4929C29.0655 21.4584 29.2346 22.5112 29.1438 23.5458Z" fill="#6FC0FF"/>
<path fill-rule="evenodd" clip-rule="evenodd" d="M10.2268 7.19138C10.2268 8.86507 8.86507 10.2268 7.19138 10.2268C5.51909 10.2268 4.15845 8.86507 4.15845 7.19138C4.15845 5.51909 5.51909 4.15845 7.19138 4.15845C8.86507 4.15845 10.2268 5.51909 10.2268 7.19138ZM8.41479 7.19138C8.41479 6.51825 7.86591 5.97041 7.19138 5.97041C6.51825 5.97041 5.97041 6.51825 5.97041 7.19138C5.97041 7.86591 6.51825 8.41479 7.19138 8.41479C7.86591 8.41479 8.41479 7.86591 8.41479 7.19138Z" fill="#6FC0FF"/>
<path fill-rule="evenodd" clip-rule="evenodd" d="M35.7705 7.19138C35.7705 5.51909 37.1322 4.15845 38.8062 4.15845C40.4799 4.15845 41.8416 5.51909 41.8416 7.19138C41.8416 8.86507 40.4799 10.2268 38.8062 10.2268C37.1322 10.2268 35.7705 8.86507 35.7705 7.19138ZM37.5828 7.19138C37.5828 7.86591 38.1314 8.41479 38.8062 8.41479C39.4808 8.41479 40.0297 7.86591 40.0297 7.19138C40.0297 6.51825 39.4808 5.97076 38.8062 5.97076C38.1314 5.97076 37.5828 6.51825 37.5828 7.19138Z" fill="#6FC0FF"/>
<path fill-rule="evenodd" clip-rule="evenodd" d="M10.2268 38.8061C10.2268 40.4798 8.86507 41.8415 7.19138 41.8415C5.51909 41.8415 4.15845 40.4798 4.15845 38.8061C4.15845 37.1324 5.51909 35.7708 7.19138 35.7708C8.86507 35.7708 10.2268 37.1324 10.2268 38.8061ZM8.41479 38.8058C8.41479 38.1313 7.86591 37.5827 7.19138 37.5827C6.51825 37.5827 5.97041 38.1313 5.97041 38.8058C5.97041 39.4803 6.51825 40.0292 7.19138 40.0292C7.86591 40.0292 8.41479 39.4803 8.41479 38.8058Z" fill="#6FC0FF"/>
<path fill-rule="evenodd" clip-rule="evenodd" d="M35.7705 38.8059C35.7705 37.1322 37.1322 35.7705 38.8062 35.7705C40.4799 35.7705 41.8416 37.1322 41.8416 38.8059C41.8416 40.4799 40.4799 41.8416 38.8062 41.8416C37.1322 41.8416 35.7705 40.4799 35.7705 38.8059ZM37.5828 38.8062C37.5828 39.4808 38.1314 40.0297 38.8062 40.0297C39.4808 40.0297 40.0297 39.4808 40.0297 38.8062C40.0297 38.1317 39.4808 37.5828 38.8062 37.5828C38.1314 37.5828 37.5828 38.1317 37.5828 38.8062Z" fill="#6FC0FF"/>
<path d="M22.9832 1.81197H22.9986C23.4991 1.81197 23.9048 1.40627 23.9048 0.906159C23.9048 0.405701 23.4991 0 22.9986 0H22.9832C22.4827 0 22.0774 0.405701 22.0774 0.905807C22.0774 1.40627 22.4827 1.81197 22.9832 1.81197Z" fill="#6FC0FF"/>
</svg>
