<svg width="43" height="43" viewBox="0 0 43 43" fill="none" xmlns="http://www.w3.org/2000/svg">
<path fill-rule="evenodd" clip-rule="evenodd" d="M21.5 0C27.2429 0 32.642 2.23642 36.7029 6.29715C40.7636 10.358 43 15.7571 43 21.5C43 27.2429 40.7636 32.642 36.7029 36.7029C32.642 40.7636 27.2429 43 21.5 43C15.7571 43 10.358 40.7636 6.29715 36.7029C2.23642 32.642 0 27.2429 0 21.5C0 15.7571 2.23642 10.358 6.29715 6.29715C10.358 2.23642 15.7571 0 21.5 0ZM2.51953 21.5C2.51953 31.9659 11.0341 40.4805 21.5 40.4805C31.9659 40.4805 40.4805 31.9659 40.4805 21.5C40.4805 11.0341 31.9659 2.51953 21.5 2.51953C11.0341 2.51953 2.51953 11.0341 2.51953 21.5Z" fill="#6FC0FF"/>
<path fill-rule="evenodd" clip-rule="evenodd" d="M21.5 10.0781C27.798 10.0781 32.9219 15.2019 32.9219 21.5C32.9219 27.7981 27.798 32.9219 21.5 32.9219C15.202 32.9219 10.0781 27.7981 10.0781 21.5C10.0781 15.2019 15.202 10.0781 21.5 10.0781ZM12.5977 21.5C12.5977 26.4088 16.5913 30.4023 21.5 30.4023C26.4087 30.4023 30.4023 26.4088 30.4023 21.5C30.4023 16.5912 26.4087 12.5977 21.5 12.5977C16.5913 12.5977 12.5977 16.5912 12.5977 21.5Z" fill="#6FC0FF"/>
<path d="M17.0563 5.60376L19.5279 5.11245L20.0192 7.58411L17.5476 8.07542L17.0563 5.60376Z" fill="#6FC0FF"/>
<path d="M11.3169 8.51196L13.4131 7.1111L14.814 9.20735L12.7178 10.6082L11.3169 8.51196Z" fill="#6FC0FF"/>
<path d="M7.12292 13.4033L8.52378 11.3071L10.62 12.7079L9.21917 14.8042L7.12292 13.4033Z" fill="#6FC0FF"/>
<path d="M5.11279 19.5215L5.6041 17.0498L8.07576 17.5411L7.58445 20.0128L5.11279 19.5215Z" fill="#6FC0FF"/>
<path d="M5.10864 23.4812L7.5803 22.9899L8.07161 25.4616L5.59995 25.9529L5.10864 23.4812Z" fill="#6FC0FF"/>
<path d="M7.12976 29.6096L9.22601 28.2088L10.6269 30.305L8.53062 31.7059L7.12976 29.6096Z" fill="#6FC0FF"/>
<path d="M11.3298 34.4949L12.7307 32.3986L14.8269 33.7995L13.4261 35.8957L11.3298 34.4949Z" fill="#6FC0FF"/>
<path d="M17.0591 37.3921L17.5504 34.9204L20.0221 35.4117L19.5307 37.8834L17.0591 37.3921Z" fill="#6FC0FF"/>
<path d="M22.9862 35.4287L25.4579 34.9374L25.9492 37.4091L23.4775 37.9004L22.9862 35.4287Z" fill="#6FC0FF"/>
<path d="M28.2273 33.7966L30.3235 32.3958L31.7244 34.492L29.6282 35.8929L28.2273 33.7966Z" fill="#6FC0FF"/>
<path d="M32.4214 30.2878L33.8222 28.1916L35.9185 29.5925L34.5176 31.6887L32.4214 30.2878Z" fill="#6FC0FF"/>
<path d="M34.9296 25.4458L35.4209 22.9741L37.8925 23.4654L37.4012 25.9371L34.9296 25.4458Z" fill="#6FC0FF"/>
<path d="M34.9337 17.5515L37.4054 17.0602L37.8967 19.5319L35.425 20.0232L34.9337 17.5515Z" fill="#6FC0FF"/>
<path d="M32.4144 12.6992L34.5107 11.2984L35.9115 13.3946L33.8153 14.7955L32.4144 12.6992Z" fill="#6FC0FF"/>
<path d="M28.2145 9.19629L29.6153 7.10004L31.7116 8.5009L30.3107 10.5971L28.2145 9.19629Z" fill="#6FC0FF"/>
<path d="M22.9834 7.5752L23.4747 5.10354L25.9464 5.59484L25.4551 8.0665L22.9834 7.5752Z" fill="#6FC0FF"/>
</svg>
