<svg width="51" height="51" viewBox="0 0 51 51" fill="none" xmlns="http://www.w3.org/2000/svg">
<path fill-rule="evenodd" clip-rule="evenodd" d="M24.5727 21.0627C26.5114 21.0627 28.0831 22.6344 28.0831 24.5731C28.0831 26.5118 26.5114 28.0834 24.5727 28.0834C22.634 28.0834 21.0624 26.5118 21.0624 24.5731C21.0624 22.6344 22.634 21.0627 24.5727 21.0627ZM22.8175 24.5731C22.8175 25.5425 23.6032 26.3283 24.5726 26.3283C25.542 26.3283 26.3279 25.5425 26.3278 24.5731C26.3278 23.6038 25.5419 22.8179 24.5726 22.8179C23.6033 22.8179 22.8175 23.6037 22.8175 24.5731Z" fill="#6FC0FF"/>
<path d="M22.9333 36.7446C19.7262 36.3214 16.8185 34.6418 14.8498 32.0749C14.5501 31.7026 14.0075 31.6386 13.6294 31.9308C13.2512 32.2231 13.1765 32.7643 13.4614 33.1482C15.7121 36.0816 19.0359 38.0009 22.7016 38.484C23.1758 38.5365 23.605 38.2005 23.668 37.7275C23.731 37.2546 23.4048 36.8181 22.9333 36.7446Z" fill="#6FC0FF"/>
<path d="M14.1548 17.4121C14.4267 17.4124 14.6835 17.2866 14.8498 17.0716C16.8185 14.5048 19.7262 12.8251 22.9334 12.4019C23.4139 12.3378 23.7516 11.8964 23.6876 11.4159C23.6236 10.9353 23.1822 10.5976 22.7016 10.6616C19.0358 11.1444 15.7119 13.0637 13.4614 15.9974C13.2566 16.2621 13.2201 16.6201 13.3674 16.9207C13.5148 17.2212 13.8202 17.4118 14.1548 17.4121Z" fill="#6FC0FF"/>
<path d="M13.2105 19.9087C13.3002 19.6938 13.3008 19.4522 13.2122 19.2369C13.1237 19.0217 12.9533 18.8504 12.7384 18.7608C12.5236 18.6711 12.2819 18.6705 12.0667 18.7591C11.8514 18.8477 11.6801 19.0181 11.5905 19.2329C10.1782 22.6527 10.1782 26.4926 11.5905 29.9124C11.7078 30.2066 11.9745 30.4148 12.2885 30.457C12.6024 30.4993 12.9147 30.3692 13.1057 30.1166C13.2966 29.864 13.3368 29.5281 13.2105 29.2376C11.9784 26.25 11.9784 22.8963 13.2105 19.9087Z" fill="#6FC0FF"/>
<path d="M22.9772 33.2052C20.9978 32.8337 19.2044 31.7975 17.8942 30.2679C17.5792 29.8996 17.0252 29.8563 16.6568 30.1714C16.2885 30.4864 16.2452 31.0405 16.5603 31.4088C18.1325 33.2419 20.2833 34.4837 22.6569 34.9288C22.7098 34.9393 22.7636 34.9452 22.8175 34.9464C23.2724 34.9482 23.6533 34.602 23.6948 34.149C23.7364 33.6959 23.4249 33.2862 22.9772 33.2052Z" fill="#6FC0FF"/>
<path d="M22.6569 14.2176C20.2833 14.6641 18.1328 15.9062 16.5603 17.7394C16.3565 17.9777 16.2953 18.3065 16.3997 18.6022C16.5041 18.8979 16.7584 19.1153 17.0667 19.1726C17.375 19.23 17.6904 19.1186 17.8942 18.8803C19.2049 17.3509 20.9985 16.3145 22.9781 15.9429C23.4545 15.8542 23.7689 15.396 23.6802 14.9197C23.5914 14.4433 23.1333 14.129 22.6569 14.2176Z" fill="#6FC0FF"/>
<path d="M15.7669 20.5169C15.5477 20.4386 15.3063 20.4507 15.096 20.5505C14.8856 20.6502 14.7235 20.8294 14.6453 21.0487C13.8402 23.3294 13.8402 25.8169 14.6453 28.0976C14.77 28.447 15.1009 28.6803 15.472 28.6803C15.5724 28.68 15.6722 28.6628 15.7669 28.6294C16.2231 28.4663 16.4608 27.9641 16.2979 27.5078C15.6297 25.6084 15.6297 23.5379 16.2979 21.6385C16.4609 21.182 16.2232 20.68 15.7669 20.5169Z" fill="#6FC0FF"/>
<path d="M20.1174 28.1878C19.8162 28.2747 19.5841 28.5157 19.5088 28.8201C19.4334 29.1244 19.5262 29.4459 19.752 29.6633C20.5439 30.4321 21.512 30.9953 22.5718 31.3035C22.6515 31.3275 22.7343 31.3396 22.8175 31.3395C23.2542 31.3395 23.6246 31.0184 23.6863 30.5861C23.748 30.1537 23.4825 29.7417 23.0633 29.6194C22.2762 29.3893 21.5574 28.9702 20.9693 28.3987C20.7434 28.1812 20.4187 28.1008 20.1174 28.1878Z" fill="#6FC0FF"/>
<path d="M23.6601 18.4379C23.5239 17.9726 23.0362 17.7058 22.571 17.842C21.5117 18.1513 20.5441 18.7146 19.7521 19.4831C19.4946 19.7314 19.4134 20.1111 19.5471 20.443C19.6809 20.7748 20.0026 20.9922 20.3603 20.9926C20.5873 20.9928 20.8056 20.9052 20.9693 20.7478C21.5573 20.1758 22.2766 19.7567 23.0641 19.5271C23.5294 19.3908 23.7963 18.9032 23.6601 18.4379Z" fill="#6FC0FF"/>
<path d="M19.3407 22.6864C19.2173 22.4891 19.0205 22.3489 18.7937 22.2966C18.5668 22.244 18.3284 22.2838 18.131 22.407C17.9335 22.5303 17.7931 22.7271 17.7406 22.9539C17.4878 24.0186 17.4878 25.1276 17.7406 26.1923C17.8324 26.5899 18.1863 26.8719 18.5944 26.8724C18.6612 26.8722 18.7278 26.8645 18.7928 26.8495C19.0197 26.7973 19.2167 26.6569 19.3402 26.4594C19.4636 26.2619 19.5035 26.0234 19.451 25.7964C19.3564 25.3955 19.308 24.985 19.307 24.573C19.309 24.1607 19.3575 23.75 19.4519 23.3487C19.5042 23.122 19.4642 22.8837 19.3407 22.6864Z" fill="#6FC0FF"/>
<path d="M35.516 31.9309C35.1378 31.6386 34.5953 31.7025 34.2956 32.0749C32.3269 34.6417 29.4192 36.3214 26.212 36.7447C25.8958 36.7796 25.6232 36.9831 25.4997 37.2763C25.3762 37.5696 25.4211 37.9067 25.617 38.1573C25.813 38.4081 26.1293 38.533 26.4437 38.484C30.1094 38.001 33.4332 36.0817 35.6839 33.1482C35.9688 32.7644 35.8941 32.2232 35.516 31.9309Z" fill="#6FC0FF"/>
<path d="M26.4438 10.6615C26.1329 10.6201 25.8235 10.7477 25.6322 10.9962C25.441 11.2448 25.3968 11.5764 25.5164 11.8664C25.636 12.1563 25.9012 12.3604 26.212 12.4018C29.4192 12.825 32.3269 14.5047 34.2956 17.0715C34.5922 17.4548 35.1435 17.5252 35.5268 17.2286C35.9102 16.9319 35.9806 16.3807 35.6839 15.9973C33.4335 13.0636 30.1096 11.1443 26.4438 10.6615Z" fill="#6FC0FF"/>
<path d="M35.9332 29.9093C36.0218 30.1245 36.1922 30.2958 36.407 30.3855C36.622 30.475 36.8638 30.4755 37.079 30.3868C37.2943 30.2981 37.4655 30.1274 37.5549 29.9123C38.9672 26.4926 38.9672 22.6527 37.5549 19.2329C37.3683 18.7855 36.8543 18.5741 36.4069 18.7607C35.9596 18.9473 35.7482 19.4613 35.9348 19.9086C37.167 22.8961 37.167 26.2499 35.9348 29.2374C35.8453 29.4524 35.8446 29.694 35.9332 29.9093Z" fill="#6FC0FF"/>
<path d="M25.4652 34.2266C25.5414 34.6432 25.9043 34.9459 26.3278 34.9462C26.382 34.946 26.436 34.9411 26.4892 34.9313C28.8629 34.4855 31.0132 33.2431 32.585 31.4095C32.7888 31.1712 32.8499 30.8424 32.7455 30.5467C32.6412 30.251 32.3868 30.0336 32.0786 29.9763C31.7703 29.9189 31.4548 30.0303 31.251 30.2686C29.9405 31.7983 28.1469 32.8346 26.1671 33.206C25.692 33.2947 25.3782 33.7511 25.4652 34.2266Z" fill="#6FC0FF"/>
<path d="M26.4885 14.2174C26.0118 14.1287 25.5535 14.4432 25.4648 14.9198C25.3761 15.3965 25.6907 15.8548 26.1674 15.9435C28.1465 16.3142 29.94 17.3491 31.2513 18.8773C31.4551 19.1156 31.7705 19.2271 32.0788 19.1697C32.3871 19.1124 32.6413 18.8949 32.7458 18.5993C32.8502 18.3036 32.789 17.9748 32.5852 17.7365V17.7356C31.0121 15.9038 28.8616 14.6629 26.4885 14.2174Z" fill="#6FC0FF"/>
<path d="M33.3785 28.6294C33.4732 28.6628 33.5729 28.68 33.6733 28.6803C34.0444 28.6803 34.3754 28.4471 34.5001 28.0975C35.3051 25.8168 35.3051 23.3294 34.5001 21.0487C34.4008 20.7456 34.1448 20.5202 33.8314 20.4601C33.5182 20.4 33.1969 20.5146 32.9925 20.7595C32.788 21.0043 32.7325 21.3409 32.8475 21.6384C33.5157 23.5378 33.5157 25.6084 32.8475 27.5078C32.6846 27.9641 32.9223 28.4663 33.3785 28.6294Z" fill="#6FC0FF"/>
<path d="M26.3279 31.3395C26.4111 31.3396 26.4939 31.3274 26.5736 31.3035C27.6334 30.9952 28.6015 30.4321 29.3933 29.6632C29.7426 29.3271 29.7531 28.7716 29.417 28.4223C29.0809 28.0731 28.5252 28.0625 28.1761 28.3987C27.5881 28.9701 26.8692 29.3892 26.0821 29.6194C25.6629 29.7417 25.3973 30.1536 25.4591 30.586C25.5208 31.0183 25.8911 31.3395 26.3279 31.3395Z" fill="#6FC0FF"/>
<path d="M26.0813 19.5279V19.527C26.8689 19.7567 27.588 20.1758 28.1761 20.7478C28.4019 20.9652 28.7267 21.0456 29.028 20.9587C29.3292 20.8718 29.5612 20.6308 29.6366 20.3264C29.7119 20.0221 29.6192 19.7006 29.3933 19.4832C28.6013 18.7151 27.6337 18.152 26.5745 17.8429C26.1092 17.7068 25.6216 17.9736 25.4854 18.4388C25.3492 18.9041 25.616 19.3917 26.0813 19.5279Z" fill="#6FC0FF"/>
<path d="M29.8046 26.4599C29.9281 26.6572 30.1248 26.7974 30.3517 26.8497C30.4167 26.8646 30.4833 26.8723 30.55 26.8726C30.9582 26.872 31.3121 26.5901 31.4039 26.1925C31.6566 25.1278 31.6566 24.0187 31.4039 22.9541C31.2949 22.4818 30.8235 22.1873 30.3512 22.2964C29.8789 22.4054 29.5844 22.8768 29.6935 23.3491C29.7877 23.7504 29.8363 24.1611 29.8383 24.5734C29.8371 24.9857 29.7885 25.3964 29.6935 25.7976C29.6412 26.0243 29.6811 26.2625 29.8046 26.4599Z" fill="#6FC0FF"/>
<path fill-rule="evenodd" clip-rule="evenodd" d="M45.635 24.5732C45.635 26.0273 44.4562 27.2061 43.0022 27.2061C41.5482 27.2061 40.3694 26.0273 40.3694 24.5732C40.3694 23.1192 41.5482 21.9404 43.0022 21.9404C44.4562 21.9404 45.635 23.1192 45.635 24.5732ZM43.8798 24.5732C43.8798 24.0885 43.4868 23.6956 43.0022 23.6956C42.5174 23.6956 42.1246 24.0885 42.1246 24.5732C42.1246 25.058 42.5175 25.4509 43.0022 25.4509C43.4869 25.4509 43.8798 25.0579 43.8798 24.5732Z" fill="#6FC0FF"/>
<path fill-rule="evenodd" clip-rule="evenodd" d="M46.9145 34.7805C48.3908 31.5805 49.1522 28.0973 49.1454 24.5731C49.1454 11.002 38.1438 0.000488281 24.5728 0.000488281C11.0017 0.000488281 0 11.0021 0 24.5732C0 38.1444 11.0016 49.1459 24.5727 49.1459C28.0971 49.1526 31.5807 48.3909 34.7808 46.9141C36.7294 49.909 40.3002 51.4222 43.8075 50.7394C47.3147 50.0566 50.057 47.3144 50.7398 43.8071C51.4227 40.3 49.9094 36.7292 46.9145 34.7805ZM33.9727 45.3556C31.0223 46.7024 27.816 47.3966 24.5728 47.3907C11.971 47.3907 1.75527 37.175 1.75527 24.5732C1.75527 11.9715 11.971 1.75576 24.5727 1.75576C37.1743 1.75576 47.3902 11.9715 47.3902 24.5732C47.3967 27.8163 46.7025 31.0224 45.3551 33.9723C42.1028 32.6747 38.3903 33.4386 35.9143 35.9146C33.4384 38.3907 32.6748 42.1034 33.9727 45.3556ZM42.1246 49.146C45.3507 49.1422 48.159 46.9404 48.9325 43.8084C49.7059 40.6764 48.2454 37.4204 45.392 35.9153C42.8094 34.5531 39.6534 34.9315 37.466 36.8655C35.2786 38.7996 34.5166 41.8855 35.5522 44.6154C36.5878 47.3454 39.2049 49.1494 42.1246 49.146Z" fill="#6FC0FF"/>
<path d="M42.1246 36.8594C41.6399 36.8594 41.2469 37.2523 41.2469 37.737V43.0026C41.2469 43.4873 41.6398 43.8803 42.1246 43.8803C42.6092 43.8803 43.0022 43.4874 43.0022 43.0026V37.737C43.0022 37.2523 42.6092 36.8594 42.1246 36.8594Z" fill="#6FC0FF"/>
<path d="M42.1246 44.7578C41.6399 44.7578 41.2469 45.1507 41.2469 45.6354V46.5131C41.2469 46.9977 41.6398 47.3907 42.1246 47.3907C42.6092 47.3907 43.0022 46.9978 43.0022 46.5131V45.6354C43.0022 45.1508 42.6092 44.7578 42.1246 44.7578Z" fill="#6FC0FF"/>
</svg>
