<svg width="51" height="40" viewBox="0 0 51 40" fill="none" xmlns="http://www.w3.org/2000/svg">
<path d="M32.2068 4.19507C23.6296 4.19507 16.6514 11.2852 16.6514 20C16.6514 23.8901 18.0548 27.6285 20.6034 30.5267C20.9248 30.8921 21.4771 30.9239 21.8371 30.5972C22.1969 30.2705 22.2279 29.7094 21.9065 29.3438C19.6446 26.7715 18.3989 23.4531 18.3989 20.0001C18.3989 12.2642 24.5932 5.97052 32.207 5.97052C39.8208 5.97052 46.015 12.2642 46.015 20.0001C46.015 27.7361 39.8206 34.0297 32.2069 34.0297C29.3085 34.0297 26.5348 33.1277 24.1854 31.421C23.793 31.1359 23.2474 31.2281 22.9666 31.6269C22.686 32.0257 22.7766 32.58 23.1692 32.8653C25.8167 34.7885 28.9419 35.8051 32.2069 35.8051C40.7842 35.8051 47.7623 28.715 47.7623 20.0001C47.7623 11.2853 40.784 4.19507 32.2068 4.19507Z" fill="#6FC0FF"/>
<path d="M41.5022 0.027832H3.54008C1.58796 0.027832 0 1.64127 0 3.6246V28.3721C0 28.8623 0.391199 29.2598 0.873661 29.2598C1.35612 29.2598 1.74732 28.8623 1.74732 28.3721V3.6246C1.74732 2.62016 2.55149 1.80319 3.53998 1.80319H41.5021C41.9845 1.80319 42.3757 1.40571 42.3757 0.915509C42.3758 0.425206 41.9846 0.027832 41.5022 0.027832Z" fill="#6FC0FF"/>
<path d="M47.3605 0.027832H44.531C44.0485 0.027832 43.6573 0.425307 43.6573 0.915509C43.6573 1.40571 44.0485 1.80319 44.531 1.80319H47.3605C48.349 1.80319 49.1532 2.62026 49.1532 3.6246V36.3753C49.1532 37.3797 48.349 38.1967 47.3605 38.1967H3.53998C2.55139 38.1967 1.74732 37.3797 1.74732 36.3753V31.3311C1.74732 30.8409 1.35612 30.4434 0.873661 30.4434C0.391199 30.4434 0 30.8409 0 31.3311V36.3753C0 38.3586 1.58796 39.9721 3.54008 39.9721H47.3606C49.3126 39.9721 50.9007 38.3586 50.9007 36.3753V3.6246C50.9005 1.64127 49.3125 0.027832 47.3605 0.027832Z" fill="#6FC0FF"/>
<path fill-rule="evenodd" clip-rule="evenodd" d="M36.951 14.9393C38.6972 14.1531 40.6962 14.3157 42.2977 15.3745C43.8993 16.4333 44.8555 18.2244 44.8558 20.1658C44.8558 20.656 44.4646 21.0535 43.9821 21.0535H36.4044C36.3158 21.4193 36.1813 21.7712 36.0032 22.1024L37.1869 24.819C37.9608 26.5936 37.8006 28.6251 36.7582 30.2528C35.7161 31.88 33.9539 32.8515 32.0441 32.8515C31.5616 32.8515 31.1704 32.454 31.1704 31.9638V24.2655C30.8098 24.1754 30.4629 24.0377 30.1361 23.8556L27.4634 25.0586C26.731 25.3886 25.9541 25.5516 25.1807 25.5516C24.1102 25.5517 23.0466 25.2393 22.1167 24.6247C20.5149 23.5661 19.5586 21.7748 19.5586 19.8333C19.5586 19.3431 19.9498 18.9456 20.4323 18.9456V18.9455H28.0087C28.0974 18.5791 28.2324 18.2265 28.4109 17.8949L27.2274 15.179C26.4535 13.4044 26.6136 11.3732 27.6558 9.74595C28.6977 8.11888 30.4602 7.14746 32.3701 7.14746C32.8526 7.14746 33.2438 7.54494 33.2438 8.03514V15.7345C33.6039 15.8244 33.9503 15.9614 34.2761 16.1426L36.951 14.9393ZM23.0696 23.1365C24.1735 23.8661 25.5515 23.9779 26.7554 23.4354L28.6961 22.5621C28.3111 22.0171 28.051 21.3874 27.9413 20.721H21.4047C21.627 21.7045 22.2152 22.5716 23.0696 23.1365ZM29.1204 10.7143C29.6762 9.84635 30.5292 9.24928 31.4965 9.02332V15.6656C30.8403 15.7772 30.2206 16.0412 29.6844 16.432L28.8251 14.46C28.2916 13.2365 28.402 11.8362 29.1204 10.7143ZM32.0828 22.6157L32.1006 22.6167C32.1354 22.6189 32.1704 22.6195 32.2061 22.6194C33.0379 22.6194 33.8233 22.2082 34.3068 21.5193C34.5947 21.1102 34.7587 20.6283 34.7814 20.125L34.7823 20.1085C34.7845 20.073 34.7851 20.0366 34.7851 20.0002C34.7851 19.1547 34.3805 18.3574 33.7029 17.8673C33.2995 17.5734 32.8257 17.4067 32.3301 17.3835L32.324 17.3832L32.314 17.3826C32.278 17.3803 32.242 17.3798 32.206 17.3798C31.375 17.3798 30.5905 17.7908 30.1075 18.4788C29.8186 18.8881 29.6547 19.3699 29.6318 19.8742L29.6318 19.8743C29.6317 19.8769 29.6316 19.8795 29.6315 19.8821C29.6314 19.8846 29.6312 19.8871 29.631 19.8896C29.6289 19.9266 29.6283 19.9634 29.6283 20.0004C29.6283 20.8341 30.0231 21.6223 30.6862 22.1151C30.6952 22.1212 30.704 22.1275 30.7129 22.1338C31.115 22.4269 31.5888 22.5935 32.0828 22.6157ZM35.2936 29.2846C34.7379 30.1526 33.885 30.7498 32.9177 30.9757V24.3332C33.5738 24.2215 34.1936 23.9571 34.7299 23.566L35.5892 25.5381C36.123 26.7617 36.0124 28.1623 35.2936 29.2846ZM35.7171 17.436C36.102 17.9807 36.3622 18.6108 36.4721 19.2781V19.278H43.0097C42.7874 18.2945 42.1994 17.4274 41.3449 16.8625C40.2408 16.1326 38.8627 16.0204 37.6587 16.5625L35.7171 17.436Z" fill="#6FC0FF"/>
<path d="M13.8747 5.88647H4.78894C4.30648 5.88647 3.91528 6.28395 3.91528 6.77415C3.91528 7.26435 4.30648 7.66183 4.78894 7.66183H13.8747C14.3572 7.66183 14.7484 7.26435 14.7484 6.77415C14.7484 6.28395 14.3574 5.88647 13.8747 5.88647Z" fill="#6FC0FF"/>
<path d="M13.8747 19.1123H4.78894C4.30648 19.1123 3.91528 19.5098 3.91528 20C3.91528 20.4902 4.30648 20.8877 4.78894 20.8877H13.8747C14.3572 20.8877 14.7484 20.4902 14.7484 20C14.7484 19.5098 14.3574 19.1123 13.8747 19.1123Z" fill="#6FC0FF"/>
<path d="M13.8747 27.9297H4.78894C4.30648 27.9297 3.91528 28.3272 3.91528 28.8174C3.91528 29.3076 4.30648 29.705 4.78894 29.705H13.8747C14.3572 29.705 14.7484 29.3076 14.7484 28.8174C14.7484 28.3272 14.3574 27.9297 13.8747 27.9297Z" fill="#6FC0FF"/>
<path d="M13.8747 23.521H4.78894C4.30648 23.521 3.91528 23.9185 3.91528 24.4087C3.91528 24.8989 4.30648 25.2963 4.78894 25.2963H13.8747C14.3572 25.2963 14.7484 24.8989 14.7484 24.4087C14.7484 23.9185 14.3574 23.521 13.8747 23.521Z" fill="#6FC0FF"/>
<path d="M13.8747 32.3384H4.78894C4.30648 32.3384 3.91528 32.7359 3.91528 33.2261C3.91528 33.7163 4.30648 34.1137 4.78894 34.1137H13.8747C14.3572 34.1137 14.7484 33.7163 14.7484 33.2261C14.7484 32.7359 14.3574 32.3384 13.8747 32.3384Z" fill="#6FC0FF"/>
<path d="M13.8747 14.7039H12.8846C12.4022 14.7039 12.011 15.1013 12.011 15.5915C12.011 16.0817 12.4022 16.4792 12.8846 16.4792H13.8747C14.3572 16.4792 14.7484 16.0817 14.7484 15.5915C14.7484 15.1013 14.3574 14.7039 13.8747 14.7039Z" fill="#6FC0FF"/>
<path d="M9.97245 14.7039H4.78894C4.30648 14.7039 3.91528 15.1013 3.91528 15.5915C3.91528 16.0817 4.30648 16.4792 4.78894 16.4792H9.97245C10.4549 16.4792 10.8461 16.0817 10.8461 15.5915C10.8461 15.1013 10.4549 14.7039 9.97245 14.7039Z" fill="#6FC0FF"/>
<path d="M13.8747 10.2952H4.78894C4.30648 10.2952 3.91528 10.6926 3.91528 11.1828C3.91528 11.673 4.30648 12.0705 4.78894 12.0705H13.8747C14.3572 12.0705 14.7484 11.673 14.7484 11.1828C14.7484 10.6925 14.3574 10.2952 13.8747 10.2952Z" fill="#6FC0FF"/>
</svg>
