<svg width="46" height="46" viewBox="0 0 46 46" fill="none" xmlns="http://www.w3.org/2000/svg">
<path d="M11.4494 3.33716C11.0225 2.97247 10.3923 2.97741 9.9711 3.34863L6.89125 6.10478V5.74359C6.89125 5.32098 6.54871 4.97845 6.12611 4.97845C5.7035 4.97845 5.36096 5.32098 5.36096 5.74359V7.47518L4.08534 8.61684C3.77517 8.89975 3.75087 9.37975 4.03091 9.6926C4.31094 10.0055 4.79067 10.0341 5.10604 9.75698L10.717 4.73437L16.3281 9.75698C16.5313 9.94233 16.8184 10.0044 17.0799 9.91946C17.3416 9.83454 17.5374 9.61575 17.593 9.3463C17.6486 9.07693 17.5554 8.79842 17.3488 8.61684L11.4494 3.33716Z" fill="#6FC0FF"/>
<path d="M15.3082 10.7173C14.8856 10.7173 14.543 11.0598 14.543 11.4824V16.8386H6.89125V11.4824C6.89125 11.0598 6.54871 10.7173 6.1261 10.7173C5.7035 10.7173 5.36096 11.0598 5.36096 11.4824V17.3245C5.36849 17.9087 5.84804 18.3762 6.43223 18.369H15.0021C15.5867 18.3749 16.0658 17.9067 16.0734 17.3222V11.4824C16.0733 11.0598 15.7307 10.7173 15.3082 10.7173Z" fill="#6FC0FF"/>
<path fill-rule="evenodd" clip-rule="evenodd" d="M5.36096 25.2553C5.36096 22.2973 7.75897 19.8992 10.7171 19.8992C13.6739 19.9025 16.0699 22.2986 16.0733 25.2553C16.0733 28.2134 13.6752 30.6115 10.7171 30.6115C7.75906 30.6115 5.36096 28.2134 5.36096 25.2553ZM9.95191 21.506C8.1718 21.8721 6.89358 23.4379 6.89125 25.2553C6.89492 25.6867 6.97258 26.1143 7.1208 26.5194L9.95191 24.8215V21.506ZM7.90934 27.8314L10.5985 26.2179L12.8236 28.4431C11.2604 29.4859 9.16919 29.2256 7.90934 27.8314ZM11.4823 24.9385L13.9056 27.3611C14.6086 26.3021 14.7386 24.9628 14.2526 23.7885C13.7665 22.6141 12.728 21.7584 11.4823 21.506V24.9385Z" fill="#6FC0FF"/>
<path fill-rule="evenodd" clip-rule="evenodd" d="M41.3241 11.1586V13.7778C41.7467 13.7778 42.0893 14.1204 42.0893 14.543C42.0893 14.9656 41.7468 15.3082 41.3242 15.3082H23.7252C22.4574 15.3082 21.4297 14.2804 21.4297 13.0126V3.83057C21.4297 3.40796 21.7723 3.06543 22.1948 3.06543C22.6173 3.06543 22.96 3.40796 22.96 3.83057V13.0126C22.96 13.4352 23.3025 13.7778 23.7251 13.7778H24.4903V5.36086C24.4903 4.51564 25.1754 3.83048 26.0206 3.83048H27.551C28.3962 3.83048 29.0814 4.51564 29.0814 5.36086V13.7778H30.6117V8.98015C30.6126 8.24944 31.2047 7.65727 31.9354 7.65637H33.8789C34.6097 7.65727 35.2019 8.24944 35.2027 8.98015V13.7778H36.7331V11.1586C36.7335 10.4923 37.2735 9.95234 37.9397 9.95189H40.1174C40.7837 9.95234 41.3237 10.4923 41.3241 11.1586ZM26.0206 13.7778H27.551V5.36086H26.0206V13.7778ZM33.6724 13.7778H32.142V9.18675H33.6724V13.7778ZM38.2634 13.7778H39.7937H39.7938V11.4823H38.2634V13.7778Z" fill="#6FC0FF"/>
<path d="M41.3241 29.0812H23.7251C23.3025 29.0812 22.96 28.7387 22.96 28.3161V27.1025L25.4797 24.5828C25.7819 24.2927 26.2593 24.2927 26.5616 24.5828L27.4584 25.4796C28.3548 26.3758 29.8079 26.3758 30.7042 25.4796L33.8965 22.2873C34.1988 21.9972 34.6762 21.9972 34.9784 22.2873L35.8752 23.1849C36.7726 24.0785 38.2236 24.0785 39.121 23.1849L41.865 20.441C42.155 20.1407 42.1508 19.6634 41.8557 19.3683C41.5605 19.0732 41.0833 19.069 40.783 19.359L38.0391 22.1022C37.7403 22.4008 37.2559 22.4008 36.9572 22.1022L36.0604 21.2054C35.152 20.3385 33.7228 20.3385 32.8146 21.2054L29.6223 24.3977C29.3235 24.6964 28.8391 24.6964 28.5403 24.3977L27.6444 23.5009C26.7358 22.6339 25.3062 22.6339 24.3977 23.5009L22.96 24.9386V19.134C22.96 18.7114 22.6173 18.3689 22.1948 18.3689C21.7723 18.3689 21.4297 18.7115 21.4297 19.134V28.3161C21.4297 29.5838 22.4574 30.6116 23.7252 30.6116H41.3242C41.7468 30.6116 42.0893 30.269 42.0893 29.8465C42.0892 29.4238 41.7467 29.0812 41.3241 29.0812Z" fill="#6FC0FF"/>
<path fill-rule="evenodd" clip-rule="evenodd" d="M45.9151 35.5499V4.24749C46.0215 2.02245 44.3133 0.128112 42.0892 0.00463867H3.83064C1.6065 0.128202 -0.10169 2.02254 0.00474656 4.24749V35.5499C-0.102049 37.7752 1.60614 39.67 3.83064 39.7936H16.0734V41.3239H13.0127C11.3224 41.3239 9.95204 42.6943 9.95204 44.3846V45.1497C9.95204 45.5723 10.2946 45.9149 10.7172 45.9149H35.2027C35.6253 45.9149 35.9679 45.5723 35.9679 45.1497V44.3846C35.9679 42.6943 34.5976 41.3239 32.9072 41.3239H29.8466V39.7936H42.0893C44.3137 39.6701 46.0219 37.7752 45.9151 35.5499ZM32.9071 42.8543C33.7523 42.8543 34.4375 43.5395 34.4375 44.3847H11.4823C11.4823 43.5395 12.1675 42.8543 13.0127 42.8543H32.9071ZM17.6037 39.7936V41.3239H28.3162V39.7936H17.6037ZM42.0892 38.2633H3.83064C2.45324 38.1368 1.43164 36.9293 1.53512 35.55V33.6722H44.3848V35.55C44.4883 36.9293 43.4667 38.1368 42.0892 38.2633ZM44.3847 32.1419V4.24749C44.4883 2.8683 43.4665 1.661 42.0893 1.53492H3.83064C2.45333 1.661 1.43164 2.8683 1.53512 4.24749V32.1419H44.3847Z" fill="#6FC0FF"/>
</svg>
