<svg width="46" height="55" viewBox="0 0 46 55" fill="none" xmlns="http://www.w3.org/2000/svg">
<path fill-rule="evenodd" clip-rule="evenodd" d="M1.21791 0H44.7803C45.4152 0 45.9291 0.512725 45.9291 1.14555V53.8553C45.9291 54.4864 45.4151 55 44.7803 55H1.21791C0.584769 55 0.0709229 54.4864 0.0709229 53.8553V1.14555C0.0709229 0.512725 0.584769 0 1.21791 0ZM2.36404 52.7072H43.6351V2.29195H2.36404V52.7072Z" fill="#6AB5F0"/>
<path fill-rule="evenodd" clip-rule="evenodd" d="M42.4899 44.6875C42.4899 45.3202 41.9759 45.8321 41.3412 45.8321V50.4178H4.65723V4.58301H41.3412V8.02051C41.976 8.02051 42.4899 8.53409 42.4899 9.16691V16.0419C42.4899 16.6747 41.9759 17.1875 41.3412 17.1875V36.6678C41.976 36.6678 42.4899 37.1796 42.4899 37.8125V44.6875ZM6.94949 48.125H39.0506V6.87496H6.94949V48.125Z" fill="#6AB5F0"/>
<path fill-rule="evenodd" clip-rule="evenodd" d="M34.4878 36.6678H11.5113C11.105 36.6678 10.7288 36.4513 10.5231 36.1005C10.3165 35.7514 10.3115 35.3183 10.5096 34.9625L21.9979 14.3383C22.2002 13.9749 22.584 13.75 22.9996 13.75C23.4152 13.75 23.7989 13.9749 24.0013 14.3383L35.4635 34.9154C35.5727 35.09 35.6348 35.2982 35.6348 35.5197C35.6348 36.1542 35.1227 36.6678 34.4895 36.6678H34.4878ZM32.5382 34.375L22.9996 17.2513L13.4611 34.375H32.5382Z" fill="#6AB5F0"/>
<path d="M26.2675 26.8975C26.0592 26.5601 25.6898 26.3545 25.2935 26.3545H22.5621L24.0248 23.4289C24.3086 22.8633 24.0785 22.1751 23.5125 21.8915C22.9458 21.6087 22.2572 21.8387 21.9743 22.4042L19.6812 26.9881C19.5032 27.3432 19.5225 27.7645 19.7316 28.1026C19.9407 28.4401 20.3093 28.6457 20.7064 28.6457H23.437L21.9735 31.5704C21.6905 32.1361 21.9197 32.8243 22.4857 33.1079C22.6502 33.1901 22.8258 33.2304 22.9979 33.2304C23.4186 33.2304 23.8234 32.9971 24.024 32.596L26.318 28.013C26.4959 27.6578 26.4758 27.2356 26.2675 26.8975Z" fill="#6AB5F0"/>
<path d="M31.0251 38.9572H14.975C14.3418 38.9572 13.8289 39.4707 13.8289 40.1053C13.8289 40.7364 14.3418 41.25 14.975 41.25H31.0251C31.6583 41.25 32.1721 40.7364 32.1721 40.1053C32.1721 39.4708 31.6583 38.9572 31.0251 38.9572Z" fill="#6AB5F0"/>
</svg>
