<svg width="29" height="51" viewBox="0 0 29 51" fill="none" xmlns="http://www.w3.org/2000/svg">
<path d="M25.6393 0H3.35717C1.50613 0 0 1.50542 0 3.35559V8.88625C0 9.29869 0.334394 9.63332 0.747423 9.63332C1.16045 9.63332 1.49485 9.29869 1.49485 8.88625V3.35559C1.49485 2.32915 2.33025 1.49414 3.35717 1.49414H25.6393C26.6663 1.49414 27.5017 2.32915 27.5017 3.35559V47.6444C27.5017 48.6709 26.6659 49.5059 25.6393 49.5059H3.35717C2.33025 49.5059 1.49485 48.6705 1.49485 47.6444V12.3726C1.49485 11.9597 1.16045 11.6255 0.747423 11.6255C0.334394 11.6255 0 11.9597 0 12.3726V47.6444C0 49.4946 1.50613 51 3.35717 51H25.6393C27.4904 51 28.9965 49.4946 28.9965 47.6444V3.35559C28.9965 1.50542 27.4904 0 25.6393 0Z" fill="#6FC0FF"/>
<path fill-rule="evenodd" clip-rule="evenodd" d="M14.4981 46.5726C10.8906 46.5726 7.95581 43.6349 7.95581 40.024C7.95581 37.4342 9.48842 35.0961 11.8191 34.0482V30.7144H9.23344C8.82041 30.7144 8.48601 30.3802 8.48601 29.9674C8.48601 29.5549 8.82041 29.2203 9.23344 29.2203H11.8191V25.8799H9.23344C8.82041 25.8799 8.48601 25.5456 8.48601 25.1328C8.48601 24.7204 8.82041 24.3857 9.23344 24.3857H11.8191V21.0453H9.23344C8.82041 21.0453 8.48601 20.7111 8.48601 20.2983C8.48601 19.8858 8.82041 19.5512 9.23344 19.5512H11.8191V16.2108H9.23344C8.82041 16.2108 8.48601 15.8765 8.48601 15.4637C8.48601 15.0513 8.82041 14.7166 9.23344 14.7166H11.8191V11.3766H9.23344C8.82041 11.3766 8.48601 11.042 8.48601 10.6295C8.48601 10.2167 8.82041 9.88246 9.23344 9.88246H11.8191V7.46849C11.8191 5.9903 13.0208 4.7876 14.4981 4.7876C15.9754 4.7876 17.1771 5.9903 17.1771 7.46849V9.88246H19.7628C20.1758 9.88246 20.5102 10.2167 20.5102 10.6295C20.5102 11.042 20.1758 11.3766 19.7628 11.3766H17.1771V14.717H19.7628C20.1758 14.717 20.5102 15.0513 20.5102 15.4641C20.5102 15.8765 20.1758 16.2112 19.7628 16.2112H17.1771V19.5516H19.7628C20.1758 19.5516 20.5102 19.8858 20.5102 20.2986C20.5102 20.7111 20.1758 21.0457 19.7628 21.0457H17.1771V24.3861H19.7628C20.1758 24.3861 20.5102 24.7204 20.5102 25.1332C20.5102 25.5456 20.1758 25.8803 19.7628 25.8803H17.1771V29.2207H19.7628C20.1758 29.2207 20.5102 29.5549 20.5102 29.9678C20.5102 30.3802 20.1758 30.7148 19.7628 30.7148H17.1771V34.0482C19.5082 35.0961 21.0408 37.4346 21.0408 40.024C21.0408 43.6349 18.1056 46.5726 14.4981 46.5726ZM14.4981 6.28174C13.8453 6.28174 13.3139 6.81441 13.3139 7.46849H13.3143V34.5696C13.3143 34.942 13.041 35.2502 12.684 35.3066C10.7446 36.0544 9.45105 37.9326 9.45105 40.024C9.45105 42.8108 11.7151 45.0784 14.4985 45.0784C17.2815 45.0784 19.5459 42.8108 19.5459 40.024C19.5459 37.9326 18.2519 36.0548 16.3125 35.3066C15.9556 35.2502 15.6823 34.942 15.6823 34.5696V7.46849C15.6823 6.81441 15.1513 6.28174 14.4981 6.28174Z" fill="#6FC0FF"/>
</svg>
