<svg width="42" height="41" viewBox="0 0 42 41" fill="none" xmlns="http://www.w3.org/2000/svg">
<path fill-rule="evenodd" clip-rule="evenodd" d="M13.667 10.635C11.7234 10.635 9.7798 11.1261 8.01759 12.341V14.5122C9.83163 13.2456 11.6975 12.6511 13.4856 12.6511C16.0253 12.6511 17.5024 13.5817 17.5024 15.3135C17.5024 17.5085 15.6441 18.5963 13.5345 19.8312C13.4581 19.8759 13.3813 19.9209 13.3042 19.9661C13.1791 20.0391 13.0531 20.1121 12.9266 20.1855C10.2757 21.7225 7.39563 23.3925 7.39563 27.4878V28.5217H19.8089V26.4539L9.7798 26.4797C9.8273 24.3478 11.8555 23.171 14.089 21.8751C14.2926 21.757 14.498 21.6379 14.7036 21.5169C17.1655 20.0695 19.6793 18.3377 19.6793 15.3393C19.6793 12.341 17.2692 10.635 13.667 10.635ZM34.1398 10.9452H23.5665L22.9964 20.3796C24.344 19.8885 26.0025 19.5525 27.5574 19.5525C30.3044 19.5525 32.7922 20.3538 32.7922 23.2229C32.7922 25.6009 30.7709 26.8157 27.8943 26.8157C26.0025 26.8157 24.0071 26.3763 22.504 25.5751V27.6429C24.033 28.3925 26.1062 28.8319 28.1535 28.8319C31.9889 28.8319 34.995 26.7899 34.995 23.2229C34.995 19.0097 31.6261 17.5881 28.3089 17.5881C27.2724 17.5881 26.2358 17.7173 25.3028 17.9758L25.6138 13.013H34.1398V10.9452Z" fill="#6FC0FF"/>
<rect x="0.9" y="0.9" width="40.2" height="39.2" rx="3.6" stroke="#6FC0FF" stroke-width="1.8"/>
</svg>
