<svg width="32" height="51" viewBox="0 0 32 51" fill="none" xmlns="http://www.w3.org/2000/svg">
<path fill-rule="evenodd" clip-rule="evenodd" d="M31 0H1C0.4477 0 0 0.446051 0 0.996094V50.0039C0 50.5539 0.4477 51 1 51H31C31.5523 51 32 50.5539 32 50.0039V0.996094C32 0.446051 31.5523 0 31 0ZM30 26.3627V49.0078H2V26.3627L3.507 27.2133C3.8129 27.3858 4.1872 27.3858 4.493 27.2133L7 25.7982L9.507 27.2133C9.8129 27.3858 10.1872 27.3858 10.493 27.2133L13 25.7982L15.507 27.2133C15.8129 27.3858 16.1872 27.3858 16.493 27.2133L19 25.7982L21.507 27.2133C21.8129 27.3858 22.1872 27.3858 22.493 27.2133L25 25.7982L27.507 27.2133C27.6599 27.2995 27.8299 27.3428 28 27.3428C28.1701 27.3428 28.3401 27.2995 28.493 27.2133L30 26.3627ZM28 25.2018L30 24.0729V1.99219H28V7.76953C28 8.31957 27.5523 8.76562 27 8.76562C26.4477 8.76562 26 8.31957 26 7.76953V1.99219H22V6.97266C22 7.5227 21.5523 7.96875 21 7.96875C20.4477 7.96875 20 7.5227 20 6.97266V1.99219H17V4.98047C17 5.53051 16.5523 5.97656 16 5.97656C15.4477 5.97656 15 5.53051 15 4.98047V1.99219H12V6.97266C12 7.5227 11.5523 7.96875 11 7.96875C10.4477 7.96875 10 7.5227 10 6.97266V1.99219H6V7.76953C6 8.31957 5.5523 8.76562 5 8.76562C4.4477 8.76562 4 8.31957 4 7.76953V1.99219H2V24.0729L4 25.2018L6.507 23.7867C6.8128 23.6142 7.1871 23.6142 7.493 23.7867L10 25.2018L12.507 23.7867C12.8128 23.6142 13.1871 23.6142 13.493 23.7867L16 25.2018L18.507 23.7867C18.8128 23.6142 19.1871 23.6142 19.493 23.7867L22 25.2018L24.507 23.7867C24.6599 23.7005 24.8299 23.6572 25 23.6572C25.1701 23.6572 25.3401 23.7005 25.493 23.7867L28 25.2018Z" fill="#6FC0FF"/>
<path d="M27 41.0889C26.449 41.0889 26 41.5361 26 42.085V46.0693C26 46.6182 26.449 47.0654 27 47.0654C27.552 47.0654 28 46.6182 28 46.0693V42.085C28 41.5361 27.552 41.0889 27 41.0889Z" fill="#6FC0FF"/>
<path d="M27 37.1045C26.449 37.1045 26 37.5517 26 38.1006C26 38.6494 26.449 39.0967 27 39.0967C27.552 39.0967 28 38.6494 28 38.1006C28 37.5517 27.552 37.1045 27 37.1045Z" fill="#6FC0FF"/>
<path d="M21 39.0469C20.4477 39.0469 20 39.4929 20 40.043V46.0195C20 46.5696 20.4477 47.0156 21 47.0156C21.5523 47.0156 22 46.5696 22 46.0195V40.043C22 39.4929 21.5523 39.0469 21 39.0469Z" fill="#6FC0FF"/>
<path d="M16 41.0391C15.4477 41.0391 15 41.4851 15 42.0352V46.0195C15 46.5696 15.4477 47.0156 16 47.0156C16.5523 47.0156 17 46.5696 17 46.0195V42.0352C17 41.4851 16.5523 41.0391 16 41.0391Z" fill="#6FC0FF"/>
<path d="M11 39.0469C10.4477 39.0469 10 39.4929 10 40.043V46.0195C10 46.5696 10.4477 47.0156 11 47.0156C11.5523 47.0156 12 46.5696 12 46.0195V40.043C12 39.4929 11.5523 39.0469 11 39.0469Z" fill="#6FC0FF"/>
<path d="M5 37.1045C4.449 37.1045 4 37.5517 4 38.1006C4 38.6494 4.449 39.0967 5 39.0967C5.552 39.0967 6 38.6494 6 38.1006C6 37.5517 5.552 37.1045 5 37.1045Z" fill="#6FC0FF"/>
<path d="M5 41.0889C4.449 41.0889 4 41.5361 4 42.085V46.0693C4 46.6182 4.449 47.0654 5 47.0654C5.552 47.0654 6 46.6182 6 46.0693V42.085C6 41.5361 5.552 41.0889 5 41.0889Z" fill="#6FC0FF"/>
</svg>
