<svg width="41" height="71" viewBox="0 0 41 71" fill="none" xmlns="http://www.w3.org/2000/svg">
<path fill-rule="evenodd" clip-rule="evenodd" d="M8.34229 54.6339C8.34229 63.6584 15.6678 71 24.6714 71C33.675 71 41 63.6584 41 54.6339C41 49.4086 38.5441 44.5325 34.399 41.4686V9.73788C34.399 4.36822 30.0354 0 24.6714 0C19.3074 0 14.9433 4.36822 14.9433 9.73788V41.4686C10.7982 44.533 8.34229 49.4091 8.34229 54.6339ZM17.2861 9.73788C17.2861 5.63133 20.5989 2.29032 24.6714 2.29032C28.7433 2.29032 32.0561 5.63133 32.0567 9.73788V42.052C32.0567 42.4265 32.2435 42.7769 32.5575 42.9911C36.3763 45.5969 38.6571 49.9491 38.6571 54.6339C38.6571 62.3953 32.3829 68.7097 24.672 68.7097C16.9599 68.7097 10.6857 62.3953 10.6857 54.6339C10.6857 49.9496 12.9659 45.5969 16.7854 42.9911C17.0993 42.7769 17.2861 42.4265 17.2861 42.052V9.73788Z" fill="#2960D8"/>
<path fill-rule="evenodd" clip-rule="evenodd" d="M25.8429 11.2724V47.3593C29.455 47.925 32.2295 51.0495 32.2295 54.8177C32.2295 58.9855 28.8388 62.3763 24.6715 62.3763C20.5041 62.3763 17.1134 58.9855 17.1134 54.8177C17.1134 51.0495 19.8879 47.925 23.5 47.3593V11.2724C23.5 10.6402 24.0248 10.1272 24.6715 10.1272C25.3181 10.1272 25.8429 10.6402 25.8429 11.2724ZM19.4563 54.8177C19.4563 57.723 21.7956 60.086 24.6715 60.086C27.5473 60.086 29.8867 57.723 29.8867 54.8177C29.8867 51.9124 27.5473 49.5488 24.6715 49.5488C21.7956 49.5488 19.4563 51.9124 19.4563 54.8177Z" fill="#2960D8"/>
<path d="M9.75859 13.3377H1.17143C0.5248 13.3377 0 12.8247 0 12.1925C0 11.5604 0.5248 11.0474 1.17143 11.0474H9.75859C10.4052 11.0474 10.93 11.5604 10.93 12.1925C10.93 12.8247 10.4058 13.3377 9.75859 13.3377Z" fill="#2960D8"/>
<path d="M9.75859 21.0098H1.17143C0.5248 21.0098 0 20.4968 0 19.8646C0 19.2325 0.5248 18.7195 1.17143 18.7195H9.75859C10.4052 18.7195 10.93 19.2325 10.93 19.8646C10.93 20.4968 10.4058 21.0098 9.75859 21.0098Z" fill="#2960D8"/>
<path d="M9.75859 28.7127H1.17143C0.5248 28.7127 0 28.1997 0 27.5675C0 26.9354 0.5248 26.4224 1.17143 26.4224H9.75859C10.4052 26.4224 10.93 26.9354 10.93 27.5675C10.93 28.1997 10.4058 28.7127 9.75859 28.7127Z" fill="#2960D8"/>
</svg>
