<svg width="67" height="67" viewBox="0 0 67 67" fill="none" xmlns="http://www.w3.org/2000/svg">
<path fill-rule="evenodd" clip-rule="evenodd" d="M61.5967 28.0968C61.5967 43.5899 48.992 56.1936 33.5 56.1936C18.0079 56.1936 5.4032 43.5899 5.4032 28.0968C5.4032 12.6037 18.0079 0 33.5 0C48.992 0 61.5967 12.6037 61.5967 28.0968ZM59.4355 28.0968C59.4355 13.7967 47.8001 2.16129 33.5 2.16129C19.1999 2.16129 7.56449 13.7967 7.56449 28.0968C7.56449 42.3969 19.1999 54.0323 33.5 54.0323C47.8001 54.0323 59.4355 42.3969 59.4355 28.0968Z" fill="#2960D8"/>
<path fill-rule="evenodd" clip-rule="evenodd" d="M33.5 51.8709C46.6092 51.8709 57.2742 41.2059 57.2742 28.0967C57.2742 14.9875 46.6092 4.32251 33.5 4.32251C20.3909 4.32251 9.72583 14.9875 9.72583 28.0967C9.72583 41.2059 20.3909 51.8709 33.5 51.8709ZM16.1137 34.1289L13.1656 35.3499C12.4697 33.4039 12.0491 31.3344 11.9409 29.1773H17.2903V27.0161H11.942C12.0491 24.86 12.4697 22.7895 13.1667 20.8435L16.1147 22.0645L16.9426 20.0673L13.9967 18.8474C14.9085 16.9325 16.0899 15.1765 17.4977 13.6204L21.2747 17.3984L22.8028 15.8703L19.0258 12.0923C20.5808 10.6845 22.3369 9.50306 24.2517 8.59127L25.4717 11.5367L27.4689 10.7093L26.2479 7.76126C28.1928 7.06634 30.2634 6.64579 32.4194 6.53868V11.887H34.5807V6.53868C36.7367 6.64579 38.8072 7.06634 40.7532 7.76337L39.5322 10.7114L41.5294 11.5393L42.7494 8.59338C44.6642 9.50517 46.4203 10.6866 47.9753 12.0944L44.1983 15.8724L45.7264 17.4005L49.5034 13.6225C50.9112 15.1775 52.0937 16.9346 53.0044 18.8495L50.059 20.0694L50.8864 22.0666L53.8344 20.8456C54.5304 22.7916 54.9509 24.8611 55.0591 27.0182H49.7097V29.1795H55.058C54.9509 31.3355 54.5304 33.406 53.8334 35.352L50.8853 34.131L50.0574 36.1282L53.0033 37.3481C52.176 39.0878 51.1317 40.7014 49.8902 42.1483H38.794C38.6225 41.3056 38.2363 40.5479 37.7208 39.8973L35.7552 18.2728C35.6481 17.0945 34.6788 16.2096 33.5 16.2096C32.3212 16.2096 31.3519 17.0945 31.2459 18.268L29.2793 39.8941C28.7638 40.5458 28.3775 41.3024 28.206 42.1451H17.1088C15.8673 40.6982 14.823 39.0847 13.9956 37.345L16.941 36.125L16.1137 34.1289ZM36.543 42.1451C36.0956 40.8903 34.9068 39.9838 33.5 39.9838C32.0933 39.9838 30.9045 40.8903 30.4581 42.1451H36.543ZM31.6057 38.1834L33.3982 18.4648C33.4082 18.3567 33.5929 18.3567 33.6019 18.4648L35.3943 38.1834C34.8033 37.9608 34.1691 37.8225 33.5 37.8225C32.831 37.8225 32.1967 37.9608 31.6057 38.1834ZM47.7473 44.3064H19.2517C23.0608 47.6586 28.0393 49.7096 33.5 49.7096C38.9608 49.7096 43.9392 47.6586 47.7473 44.3064Z" fill="#2960D8"/>
<path fill-rule="evenodd" clip-rule="evenodd" d="M60.5161 64.8386H58.3548V50.7903H51.8709V64.8386H49.7096V56.1935H43.2258V64.8386H41.0645V60.5161H34.5806V64.8386H32.4193V66.9999H67V41.0645H60.5161V64.8386ZM54.0322 52.9515H56.1935V64.8386H54.0322V52.9515ZM47.5483 58.3548H45.3871V64.8386H47.5483V58.3548ZM36.7419 62.6774H38.9032V64.8386H36.7419V62.6774ZM62.6774 64.8386H64.8387V43.2257H62.6774V64.8386Z" fill="#2960D8"/>
<path d="M15.4609 61.1038L12.6912 51.8708H0V54.0321H11.0829L14.7971 66.4121L18.9825 59.4354H25.9355V57.2741H17.7594L15.4609 61.1038Z" fill="#2960D8"/>
<path d="M4.32263 58.3547H6.48392V60.516H4.32263V58.3547Z" fill="#2960D8"/>
<path d="M0 58.3547H2.16129V60.516H0V58.3547Z" fill="#2960D8"/>
<path d="M8.64514 58.3547H10.8064V60.516H8.64514V58.3547Z" fill="#2960D8"/>
</svg>
