<svg width="62" height="58" viewBox="0 0 62 58" fill="none" xmlns="http://www.w3.org/2000/svg">
<path d="M4.13113 49.6741H6.1967V47.6051H4.13113C2.99016 47.6051 2.06557 46.6789 2.06557 45.536V4.15473C2.06557 3.01183 2.99016 2.08567 4.13113 2.08567H49.5736C50.7145 2.08567 51.6391 3.01183 51.6391 4.15473V6.22379H53.7047V4.15473C53.7047 1.86945 51.855 0.0166016 49.5736 0.0166016H4.13113C1.84971 0.0166016 0 1.86945 0 4.15473V45.536C0 47.8213 1.84971 49.6741 4.13113 49.6741Z" fill="#2960D8"/>
<path d="M4.1311 4.15479H6.19667V6.22385H4.1311V4.15479Z" fill="#2960D8"/>
<path d="M8.26221 4.15479H10.3278V6.22385H8.26221V4.15479Z" fill="#2960D8"/>
<path d="M12.3934 4.15479H14.459V6.22385H12.3934V4.15479Z" fill="#2960D8"/>
<path fill-rule="evenodd" clip-rule="evenodd" d="M12.3933 57.9505C10.1119 57.9505 8.26221 56.0977 8.26221 53.8124V12.4311C8.26221 10.1458 10.1119 8.29297 12.3933 8.29297H57.8358C60.1172 8.29297 61.9669 10.1458 61.9669 12.4311V53.8124C61.9669 56.0977 60.1172 57.9505 57.8358 57.9505H12.3933ZM12.3933 10.362C11.2524 10.362 10.3278 11.2882 10.3278 12.4311V53.8124C10.3278 54.9553 11.2524 55.8814 12.3933 55.8814H57.8358C58.9767 55.8814 59.9013 54.9553 59.9013 53.8124V12.4311C59.9013 11.2882 58.9767 10.362 57.8358 10.362H12.3933Z" fill="#2960D8"/>
<path d="M12.3934 12.4312H14.459V14.5002H12.3934V12.4312Z" fill="#2960D8"/>
<path d="M16.5245 12.4312H18.5901V14.5002H16.5245V12.4312Z" fill="#2960D8"/>
<path d="M20.6556 12.4312H22.7212V14.5002H20.6556V12.4312Z" fill="#2960D8"/>
<path d="M12.3934 16.5688H57.8359V18.6379H12.3934V16.5688Z" fill="#2960D8"/>
<path fill-rule="evenodd" clip-rule="evenodd" d="M27.8851 37.2598C27.8851 33.26 31.1216 30.0181 35.1146 30.0181C39.1053 30.0227 42.3394 33.2624 42.3441 37.2598C42.3441 41.2595 39.1076 44.5015 35.1146 44.5015C31.1216 44.5015 27.8851 41.2595 27.8851 37.2598ZM29.9507 37.2598C29.9507 40.1164 32.2628 42.4325 35.1146 42.4325C37.9651 42.4288 40.2749 40.1151 40.2785 37.2598C40.2785 34.4032 37.9664 32.0871 35.1146 32.0871C32.2628 32.0871 29.9507 34.4032 29.9507 37.2598Z" fill="#2960D8"/>
<path fill-rule="evenodd" clip-rule="evenodd" d="M50.6063 33.1214C51.177 33.1214 51.6391 33.5844 51.6391 34.1559V40.3631C51.6391 40.9347 51.177 41.3977 50.6063 41.3977H47.8767C47.658 42.0774 47.3854 42.7387 47.0598 43.3736L48.99 45.3059C49.3928 45.7101 49.3928 46.3647 48.99 46.769L44.6079 51.1585C44.2044 51.5619 43.5509 51.5619 43.1473 51.1585L41.2184 49.226C40.5835 49.5508 39.9238 49.8239 39.2457 50.0433V52.7775C39.2457 53.3491 38.7836 53.8121 38.213 53.8121H32.0163C31.4456 53.8121 30.9835 53.3491 30.9835 52.7775V50.0433C30.3055 49.8239 29.6458 49.5508 29.0109 49.226L27.0819 51.1585C26.6783 51.5619 26.0248 51.5619 25.6213 51.1585L21.2392 46.769C20.8364 46.3647 20.8364 45.7101 21.2392 45.3059L23.1694 43.3736C22.8439 42.7387 22.5712 42.0774 22.3525 41.3977H19.6229C19.0523 41.3977 18.5901 40.9347 18.5901 40.3631V34.1559C18.5901 33.5844 19.0523 33.1214 19.6229 33.1214H22.3525C22.5131 32.6223 22.7026 32.1334 22.9205 31.6565C22.999 31.4848 23.0822 31.3149 23.1684 31.1455L21.2392 29.2132C20.8364 28.809 20.8364 28.1544 21.2392 27.7501L25.6213 23.3606C26.0248 22.9571 26.6783 22.9571 27.0819 23.3606L29.0109 25.2931C29.6458 24.9683 30.3055 24.6952 30.9835 24.4758V21.7416C30.9835 21.17 31.4456 20.707 32.0163 20.707H38.213C38.7836 20.707 39.2457 21.17 39.2457 21.7416V24.4758C39.9238 24.6952 40.5835 24.9683 41.2184 25.2931L43.1473 23.3606C43.5509 22.9571 44.2044 22.9571 44.6079 23.3606L48.99 27.7501C49.3928 28.1544 49.3928 28.809 48.99 29.2132L47.0598 31.1455C47.3854 31.7804 47.658 32.4417 47.8767 33.1214H50.6063ZM47.1011 39.3286H49.5736V35.1905H47.1011C46.6301 35.1905 46.2191 34.8711 46.1013 34.4146C45.8375 33.3878 45.4308 32.4024 44.893 31.4889C44.6536 31.0829 44.7195 30.5656 45.052 30.232L46.7982 28.4818L43.8775 25.5548L42.1303 27.3053C41.797 27.6389 41.2806 27.7046 40.875 27.4646C39.963 26.9259 38.9798 26.5183 37.9548 26.2542C37.499 26.1363 37.1802 25.7245 37.1802 25.2528V22.7761H33.049V25.2489C33.049 25.7199 32.7302 26.1321 32.2745 26.2498C31.2494 26.5139 30.2662 26.922 29.3543 27.4602C28.9486 27.7005 28.4322 27.6353 28.0989 27.3017L26.3517 25.5507L23.431 28.4777L25.1772 30.2278C25.5095 30.5612 25.5748 31.0777 25.3362 31.484C25.14 31.8192 24.9608 32.1645 24.7994 32.5185C24.5196 33.1292 24.2947 33.7633 24.1279 34.4146C24.0101 34.8711 23.5991 35.1905 23.1281 35.1905H20.6557V39.3286H23.1281C23.5991 39.3286 24.0101 39.648 24.1279 40.1045C24.3917 41.1313 24.7984 42.1167 25.3362 43.0302C25.5756 43.4362 25.5097 43.9535 25.1772 44.2871L23.431 46.0373L26.3517 48.9642L28.0989 47.2138C28.4322 46.8802 28.9486 46.8145 29.3543 47.0545C30.2662 47.5932 31.2494 48.0008 32.2745 48.2649C32.7302 48.3828 33.049 48.7946 33.049 49.2663V51.743H37.1802V49.2663C37.1802 48.7946 37.499 48.3828 37.9548 48.2649C38.9798 48.0008 39.963 47.5932 40.875 47.0545C41.2806 46.8145 41.797 46.8802 42.1303 47.2138L43.8775 48.9642L46.7982 46.0373L45.052 44.2871C44.7195 43.9535 44.6536 43.4362 44.893 43.0302C45.4308 42.1167 45.8375 41.1313 46.1013 40.1045C46.2191 39.648 46.6301 39.3286 47.1011 39.3286Z" fill="#2960D8"/>
</svg>
