<svg width="48" height="61" viewBox="0 0 48 61" fill="none" xmlns="http://www.w3.org/2000/svg">
<path fill-rule="evenodd" clip-rule="evenodd" d="M41.8738 7.99014H36.3495V5.52193C36.3495 4.72338 35.4773 4.36043 34.6777 4.36043H30.3891C29.3715 1.45661 26.8274 0.00470044 23.9198 0.00470044C21.0443 -0.103265 18.4288 1.65768 17.4506 4.36043H13.2346C12.435 4.36043 11.6355 4.72338 11.6355 5.52193V7.99014H6.11101C2.83727 8.02502 0.159005 10.6042 0.00512695 13.8703V55.4675C0.00512695 58.6617 2.91267 60.9847 6.11101 60.9847H41.8738C45.0721 60.9847 47.9797 58.6617 47.9797 55.4675V13.8705C47.8258 10.6042 45.1475 8.02502 41.8738 7.99014ZM14.5429 7.26426H18.5408C19.2387 7.17922 19.7992 6.64898 19.9219 5.95755C20.3524 4.08531 21.9971 2.74136 23.9198 2.69078C25.8248 2.74845 27.4447 4.09656 27.845 5.95755C27.9754 6.67288 28.5729 7.20993 29.2988 7.26426H33.4421V13.0719H14.5429V7.26426ZM41.8738 58.081C43.473 58.081 45.0721 57.0647 45.0721 55.4676H45.072V13.8703C44.9237 12.2079 43.5445 10.9245 41.8736 10.894H36.3493V14.5965C36.2371 15.4212 35.5095 16.0213 34.6775 15.9759H13.2345C12.4175 16.0184 11.7121 15.4099 11.6353 14.5965V10.8941H6.111C4.44005 10.9245 3.06099 12.208 2.91267 13.8705V55.4676C2.91267 57.0647 4.51184 58.081 6.111 58.081H41.8738Z" fill="#2960D8"/>
<path d="M18.3954 32.4548C17.8501 31.8808 16.9449 31.8485 16.36 32.3823L11.7079 36.8106L9.74535 34.7778C9.2001 34.2038 8.29492 34.1716 7.71002 34.7053C7.14695 35.2945 7.14695 36.2214 7.71002 36.8106L10.6902 39.8596C10.9481 40.1481 11.3207 40.3076 11.7078 40.2952C12.0912 40.2898 12.457 40.1332 12.7254 39.8596L18.3951 34.4876C18.9572 33.9726 18.9947 33.1 18.479 32.5388C18.4526 32.5095 18.4246 32.4815 18.3954 32.4548Z" fill="#2960D8"/>
<path d="M39.2571 35.5764H22.5387C21.7358 35.5764 21.085 36.2264 21.085 37.0283C21.085 37.8302 21.7358 38.4802 22.5387 38.4802H39.2571C40.06 38.4802 40.7108 37.8302 40.7108 37.0283C40.7108 36.2264 40.06 35.5764 39.2571 35.5764Z" fill="#2960D8"/>
<path d="M18.3954 20.8396C17.8501 20.2656 16.9449 20.2332 16.36 20.7671L11.7079 25.1953L9.74535 23.1626C9.2001 22.5886 8.29492 22.5562 7.71002 23.0901C7.14695 23.6792 7.14695 24.6062 7.71002 25.1953L10.6902 28.2444C10.9481 28.5328 11.3207 28.6924 11.7078 28.68C12.0912 28.6746 12.457 28.518 12.7254 28.2444L18.3951 22.8723C18.9572 22.3574 18.9947 21.4848 18.479 20.9235C18.4526 20.8942 18.4246 20.8663 18.3954 20.8396Z" fill="#2960D8"/>
<path d="M39.2571 23.9612H22.5387C21.7358 23.9612 21.085 24.6112 21.085 25.4131C21.085 26.215 21.7358 26.865 22.5387 26.865H39.2571C40.06 26.865 40.7108 26.215 40.7108 25.4131C40.7108 24.6112 40.06 23.9612 39.2571 23.9612Z" fill="#2960D8"/>
<path d="M18.3954 44.07C17.8501 43.496 16.9449 43.4638 16.36 43.9975L11.7079 48.4258L9.74535 46.393C9.2001 45.819 8.29492 45.7868 7.71002 46.3205C7.14695 46.9097 7.14695 47.8366 7.71002 48.4258L10.6902 51.4748C10.9481 51.7633 11.3207 51.9228 11.7078 51.9104C12.0912 51.905 12.457 51.7484 12.7254 51.4748L18.3951 46.1028C18.9572 45.5878 18.9947 44.7152 18.479 44.154C18.4526 44.1248 18.4246 44.0968 18.3954 44.07Z" fill="#2960D8"/>
<path d="M39.2571 47.1917H22.5387C21.7358 47.1917 21.085 47.8417 21.085 48.6436C21.085 49.4455 21.7358 50.0955 22.5387 50.0955H39.2571C40.06 50.0955 40.7108 49.4455 40.7108 48.6436C40.7108 47.8417 40.06 47.1917 39.2571 47.1917Z" fill="#2960D8"/>
</svg>
