<svg width="50" height="50" viewBox="0 0 50 50" fill="none" xmlns="http://www.w3.org/2000/svg">
<circle cx="25" cy="25" r="25" fill="#0057B6"/>
<circle cx="25" cy="25" r="17" fill="#003399"/>
<path d="M43 39H34.8481V37.0603C37.1154 35.3608 38.6125 34.1509 39.3394 33.4304C40.0837 32.6915 40.4558 32.0172 40.4558 31.4076C40.4558 30.9089 40.2913 30.5302 39.9625 30.2716C39.6337 30.0129 39.2096 29.8836 38.6904 29.8836C38.1192 29.8836 37.574 30.0222 37.0548 30.2993C36.5356 30.5764 36.1375 30.8996 35.8606 31.2691L34.5625 29.5788C35.5837 28.3596 36.9769 27.75 38.7423 27.75C39.9712 27.75 40.975 28.0548 41.7538 28.6644C42.5327 29.274 42.9221 30.1238 42.9221 31.2137C42.9221 32.0819 42.5673 32.9501 41.8577 33.8183C41.1654 34.6681 40.0317 35.6841 38.4567 36.8664H43V39Z" fill="#0057B6"/>
<path d="M22.5168 36C18.9374 36 15.9508 34.8603 13.557 32.5808C11.1857 30.2795 10 27.4192 10 24C10 20.5808 11.1857 17.7315 13.557 15.4521C15.9508 13.1507 18.9374 12 22.5168 12C24.8658 12 26.9911 12.526 28.8926 13.5781C30.8166 14.6082 32.3154 16.0438 33.3893 17.8849C34.4631 19.7041 35 21.7425 35 24C35 27.4411 33.8143 30.3014 31.443 32.5808C29.0716 34.8603 26.0962 36 22.5168 36ZM22.5168 31.2986C23.9038 31.2986 25.1566 30.9918 26.2752 30.3781C27.3937 29.7425 28.2662 28.8658 28.8926 27.7479C29.5414 26.6301 29.8658 25.3808 29.8658 24C29.8658 21.9178 29.1611 20.1863 27.7517 18.8055C26.3647 17.4027 24.6197 16.7014 22.5168 16.7014C20.4362 16.7014 18.6801 17.4027 17.2483 18.8055C15.8389 20.1863 15.1342 21.9178 15.1342 24C15.1342 26.0822 15.8389 27.8247 17.2483 29.2274C18.6801 30.6082 20.4362 31.2986 22.5168 31.2986Z" fill="#0057B6"/>
<path d="M41.1875 36.25H33.0356V34.3103C35.3029 32.6108 36.8 31.4009 37.5269 30.6804C38.2712 29.9415 38.6433 29.2672 38.6433 28.6576C38.6433 28.1589 38.4788 27.7802 38.15 27.5216C37.8212 27.2629 37.3971 27.1336 36.8779 27.1336C36.3067 27.1336 35.7615 27.2722 35.2423 27.5493C34.7231 27.8264 34.325 28.1496 34.0481 28.5191L32.75 26.8288C33.7712 25.6096 35.1644 25 36.9298 25C38.1587 25 39.1625 25.3048 39.9413 25.9144C40.7202 26.524 41.1096 27.3738 41.1096 28.4637C41.1096 29.3319 40.7548 30.2001 40.0452 31.0683C39.3529 31.9181 38.2192 32.9341 36.6442 34.1164H41.1875V36.25Z" fill="white"/>
<path d="M20.5168 34C16.9374 34 13.9508 32.8603 11.557 30.5808C9.18568 28.2795 8 25.4192 8 22C8 18.5808 9.18568 15.7315 11.557 13.4521C13.9508 11.1507 16.9374 10 20.5168 10C22.8658 10 24.9911 10.526 26.8926 11.5781C28.8166 12.6082 30.3154 14.0438 31.3893 15.8849C32.4631 17.7041 33 19.7425 33 22C33 25.4411 31.8143 28.3014 29.443 30.5808C27.0716 32.8603 24.0962 34 20.5168 34ZM20.5168 29.2986C21.9038 29.2986 23.1566 28.9918 24.2752 28.3781C25.3937 27.7425 26.2662 26.8658 26.8926 25.7479C27.5414 24.6301 27.8658 23.3808 27.8658 22C27.8658 19.9178 27.1611 18.1863 25.7517 16.8055C24.3647 15.4027 22.6197 14.7014 20.5168 14.7014C18.4362 14.7014 16.6801 15.4027 15.2483 16.8055C13.8389 18.1863 13.1342 19.9178 13.1342 22C13.1342 24.0822 13.8389 25.8247 15.2483 27.2274C16.6801 28.6082 18.4362 29.2986 20.5168 29.2986Z" fill="white"/>
</svg>
