<svg width="51" height="50" viewBox="0 0 51 50" fill="none" xmlns="http://www.w3.org/2000/svg">
<circle cx="25" cy="25" r="25" fill="#0057B6"/>
<path d="M39.2268 13.8927C39.2766 12.8333 40.15 12 41.2106 12L44.6216 35.4036C44.8383 36.8903 43.9217 38.3081 42.4771 38.7208L38 40L39.2268 13.8927Z" fill="#B8BDCE"/>
<rect x="8" y="10" width="33" height="30" rx="3" fill="white"/>
<path d="M8 13C8 11.3431 9.34315 10 11 10H38C39.6569 10 41 11.3431 41 13V17H8V13Z" fill="#0C6EDA"/>
<path d="M14 10C14 9.44772 14.4477 9 15 9H18C18.5523 9 19 9.44772 19 10V12H14V10Z" fill="#508BE2"/>
<path d="M30 10C30 9.44772 30.4477 9 31 9H34C34.5523 9 35 9.44772 35 10V12H30V10Z" fill="#508BE2"/>
<path d="M41.4286 19H8" stroke="#E0E8F0" stroke-width="2" stroke-miterlimit="10"/>
<path fill-rule="evenodd" clip-rule="evenodd" d="M19 24H22.551V22H19V24ZM26 24H29.551V22H26V24ZM36.551 24H33V22H36.551V24ZM12 30H15.551V28H12V30ZM22.551 30H19V28H22.551V30ZM26 30H29.551V28H26V30ZM36.551 30H33V28H36.551V30ZM12 36H15.551V34H12V36ZM22.551 36H19V34H22.551V36ZM26 36H29.551V34H26V36Z" fill="#262C40"/>
<path d="M35 12C35 12.5523 34.5523 13 34 13L31 13C30.4477 13 30 12.5523 30 12L30 11L35 11L35 12Z" fill="#003399"/>
<path d="M19 12C19 12.5523 18.5523 13 18 13L15 13C14.4477 13 14 12.5523 14 12L14 11L19 11L19 12Z" fill="#003399"/>
<path d="M41.4286 17H8" stroke="#EB5757" stroke-width="2" stroke-miterlimit="10"/>
</svg>
