<svg width="50" height="50" viewBox="0 0 50 50" fill="none" xmlns="http://www.w3.org/2000/svg">
<circle cx="25" cy="25" r="25" fill="#0057B6"/>
<mask id="mask0" mask-type="alpha" maskUnits="userSpaceOnUse" x="0" y="0" width="50" height="50">
<circle cx="25" cy="25" r="25" fill="#0057B6"/>
</mask>
<g mask="url(#mask0)">
<path d="M8 15.8571V51H41V9H14.9474L8 15.8571Z" fill="white"/>
<path d="M11 37H13V39H11V37Z" fill="#E0E8F0"/>
<path d="M28 41H18V43H28V41Z" fill="#D7DEE9"/>
<path d="M37 37H18V39H37V37Z" fill="#D7DEE9"/>
<path d="M37 33H18V35H37V33Z" fill="#D7DEE9"/>
<path d="M11 23H13V28H11V23Z" fill="#E0E8F0"/>
<path d="M11 33H13V36H11V33Z" fill="#E0E8F0"/>
<path d="M15 16V9L8 16H15Z" fill="#EB5757" stroke="#EB5757"/>
<path d="M22.7917 25.6318H26.4902V28H18V27.4521C19.7369 25.4963 20.9758 24.0707 21.7167 23.1753C22.4698 22.268 22.9739 21.5729 23.2289 21.0898C23.4961 20.6068 23.6298 20.1532 23.6298 19.729C23.6298 19.3166 23.5022 18.9867 23.2472 18.7393C22.9921 18.4919 22.6581 18.3682 22.2451 18.3682C21.82 18.3682 21.4738 18.4978 21.2066 18.757C20.9515 19.0044 20.824 19.3402 20.824 19.7644V19.9764H18.2186V19.729C18.2186 18.6333 18.583 17.7378 19.3118 17.0427C20.0406 16.3476 21.0062 16 22.2087 16C22.986 16 23.6844 16.1591 24.3039 16.4772C24.9233 16.7835 25.4031 17.2194 25.7432 17.785C26.0833 18.3505 26.2533 18.9867 26.2533 19.6937C26.2533 20.4477 26.0165 21.243 25.5428 22.0795C25.0691 22.9161 24.152 24.1001 22.7917 25.6318Z" fill="#0057B6"/>
<path d="M37 23.5464V25.7378H35.9433V28H33.5019V25.7378H27.69V25.296L31.68 16.2474H34.2489L31.0241 23.5464H33.5748L33.9938 20.7364H35.9433V23.5464H37Z" fill="#0057B6"/>
</g>
</svg>
