<svg width="50" height="50" viewBox="0 0 50 50" fill="none" xmlns="http://www.w3.org/2000/svg">
<circle cx="25" cy="25" r="25" fill="#0057B6"/>
<circle cx="25" cy="25" r="17" fill="#003399"/>
<path d="M26 13H30V34H26.3818L17 21V34H13V13H16.9341L26 25.5V13Z" fill="#0057B6"/>
<path d="M24 11H28V32H24.3818L15 19V32H11V11H14.9341L24 23.5V11Z" fill="white"/>
<path d="M41 38H32.8481V36.0603C35.1154 34.3608 36.6125 33.1509 37.3394 32.4304C38.0837 31.6915 38.4558 31.0172 38.4558 30.4076C38.4558 29.9089 38.2913 29.5302 37.9625 29.2716C37.6337 29.0129 37.2096 28.8836 36.6904 28.8836C36.1192 28.8836 35.574 29.0222 35.0548 29.2993C34.5356 29.5764 34.1375 29.8996 33.8606 30.2691L32.5625 28.5788C33.5837 27.3596 34.9769 26.75 36.7423 26.75C37.9712 26.75 38.975 27.0548 39.7538 27.6644C40.5327 28.274 40.9221 29.1238 40.9221 30.2137C40.9221 31.0819 40.5673 31.9501 39.8577 32.8183C39.1654 33.6681 38.0317 34.6841 36.4567 35.8664H41V38Z" fill="#0057B6"/>
<path d="M39.1875 35.25H31.0356V33.3103C33.3029 31.6108 34.8 30.4009 35.5269 29.6804C36.2712 28.9415 36.6433 28.2672 36.6433 27.6576C36.6433 27.1589 36.4788 26.7802 36.15 26.5216C35.8212 26.2629 35.3971 26.1336 34.8779 26.1336C34.3067 26.1336 33.7615 26.2722 33.2423 26.5493C32.7231 26.8264 32.325 27.1496 32.0481 27.5191L30.75 25.8288C31.7712 24.6096 33.1644 24 34.9298 24C36.1587 24 37.1625 24.3048 37.9413 24.9144C38.7202 25.524 39.1096 26.3738 39.1096 27.4637C39.1096 28.3319 38.7548 29.2001 38.0452 30.0683C37.3529 30.9181 36.2192 31.9341 34.6442 33.1164H39.1875V35.25Z" fill="white"/>
</svg>
