<svg width="119" height="107" viewBox="0 0 119 107" fill="none" xmlns="http://www.w3.org/2000/svg">
<circle cx="56" cy="56" r="50" fill="url(#paint0_linear)"/>
<path d="M72 84.9995L35.9998 72L0 85.0005L36.0002 98L72 84.9995Z" fill="#EBF0F5"/>
<path d="M71.9999 84.9993L72 90.5L36.0002 103.5L36 97.9998L71.9999 84.9993Z" fill="white"/>
<path d="M0.0001297 84.9993L0 90.5L35.9998 103.5L36 97.9998L0.0001297 84.9993Z" fill="#B8BDCE"/>
<path d="M76.5 13L80.5035 16.7953L85.5635 14.5981L88.0275 19.5338L93.5339 19.1998L94.1612 24.6805L99.4497 26.25L98.1646 31.6147L102.597 34.8983L99.555 39.5L102.597 44.1017L98.1646 47.3853L99.4497 52.75L94.1612 54.3195L93.5339 59.8002L88.0275 59.4662L85.5635 64.4019L80.5035 62.2047L76.5 66L72.4965 62.2047L67.4365 64.4019L64.9725 59.4662L59.4661 59.8002L58.8388 54.3195L53.5503 52.75L54.8354 47.3853L50.4026 44.1017L53.445 39.5L50.4026 34.8983L54.8354 31.6147L53.5503 26.25L58.8388 24.6805L59.4661 19.1998L64.9725 19.5338L67.4365 14.5981L72.4965 16.7953L76.5 13Z" fill="#003399"/>
<path d="M76.5 25L79.923 35.3131H91L82.0385 41.6869L85.4615 52L76.5 45.6262L67.5385 52L70.9615 41.6869L62 35.3131H73.077L76.5 25Z" fill="white"/>
<path d="M33.4945 30.8953C33.4367 30.3461 32.9446 29.9477 32.3953 30.0055C31.8461 30.0633 31.4477 30.5554 31.5055 31.1047L33.4945 30.8953ZM39.2892 31.0627L38.4412 31.5927L39.2892 31.0627ZM32.7439 33.3174L31.7494 33.4221L32.7439 33.3174ZM31.5055 31.1047L31.7494 33.4221L33.7384 33.2127L33.4945 30.8953L31.5055 31.1047ZM40.1372 30.5327L39.1431 28.9422L37.4471 30.0022L38.4412 31.5927L40.1372 30.5327ZM38 24.9563V0H36V24.9563H38ZM39.1431 28.9422C38.3961 27.747 38 26.3658 38 24.9563H36C36 26.7407 36.5014 28.4891 37.4471 30.0022L39.1431 28.9422ZM40.7686 33.6859C40.9487 32.593 40.7242 31.472 40.1372 30.5327L38.4412 31.5927C38.7703 32.1193 38.8962 32.7479 38.7952 33.3606L40.7686 33.6859ZM31.7494 33.4221C32.3049 38.6987 39.9056 38.9211 40.7686 33.6859L38.7952 33.3606C38.3114 36.2958 34.0499 36.1712 33.7384 33.2127L31.7494 33.4221Z" fill="#B8BDCE"/>
<path d="M61 63.5V51L36.2581 33L13 51V63.5" stroke="#EB5757" stroke-width="2"/>
<circle r="5" transform="matrix(1 0 0 -1 37 23)" fill="#EBF0F5"/>
<path d="M62 54L37 62.4444V92L62 83.5556V54Z" fill="white"/>
<path d="M37 92L12 83.5556V54L37 62.4444V92Z" fill="#D7DEE9"/>
<path d="M61.9551 54.005L36.955 45L11.9551 54.0057L36.9552 63.0106L61.9551 54.005Z" fill="#EBF0F5"/>
<path d="M50 88V58.4444L24 50" stroke="#B8BDCE" stroke-width="2"/>
<path d="M23 88V58.55L49 50" stroke="#B8BDCE" stroke-width="2"/>
<defs>
<linearGradient id="paint0_linear" x1="6" y1="106" x2="126.545" y2="60.8326" gradientUnits="userSpaceOnUse">
<stop stop-color="#003399"/>
<stop offset="0.520833" stop-color="#0057B6"/>
<stop offset="1" stop-color="#5960EA"/>
</linearGradient>
</defs>
</svg>
