<svg width="113" height="103" viewBox="0 0 113 103" fill="none" xmlns="http://www.w3.org/2000/svg">
<circle cx="50" cy="52" r="50" fill="url(#paint0_linear)"/>
<path d="M75.9107 62.3575C70.1203 77.631 53.0764 85.3306 37.842 79.5551C22.6077 73.7795 14.9518 56.7159 20.7422 41.4425C22.6718 36.3526 25.8513 32.1038 29.797 28.9145" stroke="#EB5757" stroke-width="2"/>
<path d="M52 30C52 30 52.0402 60.7558 52 76C52 77.5855 51.8846 78.1383 51.9935 78.8016C52.593 82.4529 55.5617 85.3166 59.3469 85.8949C60.0346 86 60.8564 86 62.5 86C64.1436 86 64.9654 86 65.6531 85.8949C69.4383 85.3166 72.407 82.4529 73.0065 78.8016C73.1154 78.1383 73.0065 77.5855 73.0065 76C72.9663 60.7558 73 30 73 30H74V27.12H72.3775C71.1906 24.4959 68.6835 22.5681 65.6531 22.1051C64.9654 22 64.1436 22 62.5 22C60.8564 22 60.0346 22 59.3469 22.1051C56.3165 22.5681 53.8094 24.4959 52.6225 27.12H51V30H52Z" fill="#003399"/>
<path d="M27 30C27 30 27.0402 60.7558 27 76C27 77.5855 26.8846 78.1383 26.9935 78.8016C27.593 82.4529 30.5617 85.3166 34.3469 85.8949C35.0346 86 35.8564 86 37.5 86C39.1436 86 39.9654 86 40.6531 85.8949C44.4383 85.3166 47.407 82.4529 48.0065 78.8016C48.1154 78.1383 48.0065 77.5855 48.0065 76C47.9663 60.7558 48 30 48 30H49V27.12H47.3775C46.1906 24.4959 43.6835 22.5681 40.6531 22.1051C39.9654 22 39.1436 22 37.5 22C35.8564 22 35.0346 22 34.3469 22.1051C31.3165 22.5681 28.8094 24.4959 27.6225 27.12H26V30H27Z" fill="#003399"/>
<path d="M38 22V21C38 18.7909 36.2091 17 34 17V17C31.7909 17 30 18.7909 30 21V76" stroke="#508BE2" stroke-width="3"/>
<path d="M31.1273 58.0182H55.0546" stroke="#508BE2" stroke-width="2"/>
<path d="M62 22V20.5C62 18.567 60.433 17 58.5 17V17C56.567 17 55 18.567 55 20.5V79" stroke="#508BE2" stroke-width="3"/>
<path d="M33 23C33 21.3431 34.3431 20 36 20H39C40.6569 20 42 21.3431 42 23H33Z" fill="#003399"/>
<path d="M58 23C58 21.3431 59.3431 20 61 20H63C64.6569 20 66 21.3431 66 23H58Z" fill="#003399"/>
<path d="M75.9107 62.3576C70.1203 77.631 53.0764 85.3306 37.842 79.5551C22.6077 73.7796 14.9518 56.716 20.7422 41.4425" stroke="#EB5757" stroke-width="5"/>
<path fill-rule="evenodd" clip-rule="evenodd" d="M53 75.884C63.9681 75.884 72.942 66.9101 72.942 55.942L64.6328 55.942L77.9275 36L91.2221 55.942H82.913C82.913 72.3941 69.4521 85.855 53 85.855V75.884ZM47 77.5C42.571 77.5 39.6801 76.6306 37.5385 75.5266C35.4129 74.4307 33.8419 73.0283 31.9491 71.3386L31.662 71.0824L26.3379 77.0535C26.4702 77.1714 26.6051 77.2923 26.7428 77.4156L26.7428 77.4156C28.5392 79.0245 30.81 81.0583 33.8727 82.6372C37.2607 84.3839 41.4289 85.5 47 85.5V77.5Z" fill="white"/>
<defs>
<linearGradient id="paint0_linear" x1="-5.59808e-07" y1="102" x2="120.545" y2="56.8326" gradientUnits="userSpaceOnUse">
<stop stop-color="#003399"/>
<stop offset="0.520833" stop-color="#0057B6"/>
<stop offset="1" stop-color="#5960EA"/>
</linearGradient>
</defs>
</svg>
