<svg width="115" height="103" viewBox="0 0 115 103" fill="none" xmlns="http://www.w3.org/2000/svg">
<circle cx="50" cy="51.999" r="50" fill="url(#paint0_linear)"/>
<circle cx="26.5" cy="31.499" r="22" fill="white" stroke="#0D356C" stroke-width="3"/>
<circle cx="26.5" cy="31.499" r="15.5" fill="#EBF0F5"/>
<circle cx="26.5" cy="31.499" r="5.5" fill="#D7DEE9"/>
<path fill-rule="evenodd" clip-rule="evenodd" d="M20.5 3.49902C20.5 2.6706 21.1716 1.99902 22 1.99902H32C32.8284 1.99902 33.5 2.6706 33.5 3.49902C33.5 4.32745 32.8284 4.99902 32 4.99902H28.5V9.49902H25.5V4.99902H22C21.1716 4.99902 20.5 4.32745 20.5 3.49902ZM40.9394 15.2165L43.0607 17.3378L46.2427 14.1559L47.182 15.0952C47.7678 15.681 48.7175 15.681 49.3033 15.0952C49.8891 14.5094 49.8891 13.5597 49.3033 12.9739L45.3033 8.97389C44.7176 8.3881 43.7678 8.3881 43.182 8.97389C42.5962 9.55967 42.5962 10.5094 43.182 11.0952L44.1214 12.0345L40.9394 15.2165Z" fill="#0D356C"/>
<path d="M44.5 30.999L40.5 30.999" stroke="#414C6D" stroke-width="2" stroke-linecap="round"/>
<path d="M13.5 30.999L9.5 30.999" stroke="#414C6D" stroke-width="2" stroke-linecap="round"/>
<path d="M27 48.499V44.499" stroke="#414C6D" stroke-width="2" stroke-linecap="round"/>
<path d="M27 17.499V13.499" stroke="#414C6D" stroke-width="2" stroke-linecap="round"/>
<path d="M26.0002 30.1578C26.0002 30.1578 33.7688 25.0292 29.404 17.2044C30.5695 16.6787 31.8172 16.45 33.0891 16.5819C36.944 16.9817 41.1246 19.7068 41.9712 24.438L26.0002 30.1578Z" fill="url(#paint1_linear)"/>
<path d="M28.5293 18.3164C32.7367 18.4321 37.4881 21.039 38.7942 26.0926" stroke="#EBF0F5" stroke-width="1.5"/>
<path d="M27.4766 23.7446C30.3282 23.823 33.5485 25.5899 34.4337 29.0151" stroke="#EBF0F5" stroke-width="1.5"/>
<path d="M25.9032 31.4209C26.1096 31.9331 26.6922 32.1811 27.2044 31.9746L40.6537 26.5554C41.7755 26.1034 42.3903 24.9297 42.1786 23.7847L26.4569 30.1196C25.9447 30.326 25.6967 30.9086 25.9032 31.4209Z" fill="#EB5757" stroke="#EB5757"/>
<path d="M2 78.999H39.1863C41.308 78.999 43.3429 78.1562 44.8431 76.6559L72.6569 48.8422C74.1571 47.3419 75 45.307 75 43.1853V0.999023" stroke="#E0E8F0" stroke-width="20"/>
<path d="M2 74.999H36.9584C39.0853 74.999 41.1246 74.1521 42.6258 72.6454L68.6673 46.507C70.1612 45.0076 71 42.9773 71 40.8607V0.999023" stroke="#F7F9FB" stroke-width="4"/>
<path d="M58.1646 39.999L81.309 61.0595L62.1443 82.1206L38.9998 61.0601L58.1646 39.999Z" fill="#D7DEE9"/>
<rect x="18.9282" y="90.0303" width="6.92822" height="22" transform="rotate(-180 18.9282 90.0303)" fill="#D7DEE9"/>
<rect x="86" y="20.999" width="6.92822" height="22" transform="rotate(90 86 20.999)" fill="#D7DEE9"/>
<rect x="16.9487" y="97.0303" width="2.96924" height="9.9" transform="rotate(-180 16.9487 97.0303)" fill="#B8BDCE"/>
<rect x="93" y="22.9785" width="2.96924" height="9.9" transform="rotate(90 93 22.9785)" fill="#B8BDCE"/>
<rect x="16.9487" y="71.0303" width="2.96924" height="11" transform="rotate(-180 16.9487 71.0303)" fill="#B8BDCE"/>
<rect x="67" y="22.9785" width="2.96924" height="11" transform="rotate(90 67 22.9785)" fill="#B8BDCE"/>
<path fill-rule="evenodd" clip-rule="evenodd" d="M80.266 53.409C78.1963 50.5789 74.4993 49.2123 70.9458 50.2686L69.4884 50.7018L63.5012 54.8971C63.1665 55.1358 62.9528 55.496 62.9029 55.8983L62.6545 57.9942C62.6125 58.3821 62.8946 58.7402 63.2825 58.7823C63.3775 58.7964 63.4771 58.785 63.5661 58.7585L70.4081 56.7247C71.91 56.2783 73.4978 57.1382 73.9446 58.6401L75.196 62.8268C75.6428 64.3287 74.783 65.9162 73.2811 66.3626L66.439 68.3964C66.0646 68.5016 65.8497 68.8985 65.9622 69.2767C65.9887 69.3657 66.0335 69.4553 66.0973 69.5272L67.472 71.177C67.7192 71.4788 68.0767 71.6632 68.4652 71.6869L76.4274 72.2383C80.4729 71.2515 83.2206 67.704 83.3683 63.7355C84.6853 62.7033 86.1835 61.9315 87.7878 61.4546L109.491 54.9907C111.846 54.2907 113.187 51.815 112.487 49.46C111.786 47.105 109.31 45.7639 106.955 46.4639L85.2596 52.9128C83.6431 53.3933 81.9458 53.5601 80.266 53.409ZM109.46 50.3027C109.214 49.5173 108.378 49.0839 107.6 49.3341C106.822 49.5843 106.389 50.4202 106.632 51.194C106.866 51.9829 107.687 52.4272 108.476 52.1927C109.265 51.9582 109.709 51.138 109.474 50.3491L109.46 50.3027Z" fill="#B8BDCE"/>
<path d="M80.1736 53.3187L80.9259 55.8477L81.6713 58.3536C82.0025 59.4673 82.1215 60.6314 82.0261 61.7962L83.3194 60.7741C84.6482 59.7226 86.1636 58.9375 87.7878 58.4547L109.491 51.9908C111.846 51.2907 113.187 48.8151 112.487 46.46C111.786 44.105 109.31 42.764 106.955 43.464L85.2596 49.9129C83.6354 50.3957 81.9295 50.5618 80.2419 50.4069L78.5733 50.2526C79.294 51.1684 79.8423 52.205 80.1736 53.3187ZM107.6 46.3342C108.378 46.084 109.214 46.5173 109.46 47.3027C109.464 47.3143 109.471 47.3375 109.474 47.3492C109.709 48.138 109.265 48.9582 108.476 49.1927C107.687 49.4272 106.866 48.9829 106.632 48.1941C106.389 47.4202 106.822 46.5843 107.6 46.3342Z" fill="#D7DEE9"/>
<path d="M83.0064 57.8322C83.0461 57.9657 83.0819 58.1064 83.1144 58.236C84.3025 63.1258 81.3103 68.0473 76.4275 69.2383L68.4652 68.687C68.0767 68.6632 67.7192 68.4789 67.472 68.177L66.0973 66.5272C66.0335 66.4554 65.9887 66.3658 65.9622 66.2768C65.8497 65.8985 66.0647 65.5017 66.439 65.3965L73.2811 63.3627C74.783 62.9162 75.6428 61.3287 75.1961 59.8269L73.9446 55.6401C73.4979 54.1383 71.9101 53.2783 70.4081 53.7248L63.5661 55.7586C63.4771 55.785 63.3775 55.7965 63.2825 55.7823C62.8946 55.7402 62.6125 55.3821 62.6546 54.9943L62.903 52.8983C62.9528 52.4961 63.1666 52.1359 63.5012 51.8971L69.4884 47.7019L70.9458 47.2686C75.4627 45.926 80.2116 48.498 81.5552 53.0147L83.0064 57.8322Z" fill="white"/>
<circle cx="70.5" cy="59.499" r="3.5" fill="#EBF0F5"/>
<circle cx="60" cy="69.999" r="3" fill="#343D57"/>
<path d="M110.336 58.9989C109.543 65.8307 107.786 75.8823 104.651 84.48" stroke="#508BE2" stroke-width="2"/>
<path d="M104.77 59.9147C103.379 71.8922 102.192 80.3553 92.1705 92.999" stroke="#508BE2" stroke-width="2"/>
<circle cx="50" cy="61.999" r="3" fill="#343D57"/>
<circle cx="59" cy="50.999" r="3" fill="#343D57"/>
<defs>
<linearGradient id="paint0_linear" x1="-5.59808e-07" y1="101.999" x2="120.545" y2="56.8316" gradientUnits="userSpaceOnUse">
<stop stop-color="#003399"/>
<stop offset="0.520833" stop-color="#0057B6"/>
<stop offset="1" stop-color="#5960EA"/>
</linearGradient>
<linearGradient id="paint1_linear" x1="31.7186" y1="15.5271" x2="38.0721" y2="26.0607" gradientUnits="userSpaceOnUse">
<stop stop-color="#EB5757" stop-opacity="0"/>
<stop offset="1" stop-color="#FF4C4D" stop-opacity="0.62"/>
</linearGradient>
</defs>
</svg>
