<svg width="113" height="106" viewBox="0 0 113 106" fill="none" xmlns="http://www.w3.org/2000/svg">
<circle cx="50" cy="55" r="50" fill="url(#paint0_linear)"/>
<path d="M92.2979 20.2979C92.2979 20.1554 92.2955 20.0136 92.2907 19.8723H94V16.4681H91.6921C90.0807 11.5275 85.436 7.95746 79.9575 7.95746H79.1064C73.6279 7.95746 68.9832 11.5275 67.3718 16.4681H65.0639V19.8723H66.7732C66.7684 20.0136 66.766 20.1554 66.766 20.2979V67.5318H65.0639V70.9361H66.7732C66.9975 77.5545 72.4334 82.851 79.1064 82.851H79.9575C86.6305 82.851 92.0664 77.5545 92.2907 70.9361H94V67.5318H92.2979V20.2979Z" fill="#003399"/>
<path d="M79.5002 7.41667V7.41667C79.5002 4.42512 81.9254 2 84.9169 2H86.2502C89.9782 2 93.0002 5.02208 93.0002 8.75V44C93.0002 47.3137 90.314 50 87.0002 50H54.0002" stroke="#508BE2" stroke-width="4"/>
<path d="M82.936 8.80856C82.936 7.39847 81.7929 6.25537 80.3828 6.25537H78.6807C77.2706 6.25537 76.1275 7.39847 76.1275 8.80856H82.936Z" fill="#003399"/>
<path d="M72.0002 75V88M87.0002 75V88" stroke="#003399" stroke-width="3"/>
<rect x="23" y="79" width="18" height="7" fill="#D7DEE9"/>
<rect x="23" y="79" width="18" height="4" fill="#B8BDCE"/>
<rect x="19" y="87" width="26" height="2" fill="#D7DEE9"/>
<path d="M23 85H41L45 87H19L23 85Z" fill="#EBF0F5"/>
<rect y="36" width="64" height="44" rx="3" fill="#D7DEE9"/>
<path d="M0 73H64V77C64 78.6569 62.6569 80 61 80H3C1.34315 80 0 78.6569 0 77V73Z" fill="#E0E8F0"/>
<path d="M2 40C2 38.8954 2.89543 38 4 38H60C61.1046 38 62 38.8954 62 40V73H2V40Z" fill="#F7F9FB"/>
<circle r="1.5" transform="matrix(1 0 0 -1 31.5 76.5)" fill="#262C40"/>
<path d="M38.0003 50H27C26.4477 50 26 50.4477 26 51V62.0003C26 62.5526 26.4477 63.0003 27 63.0003H38.0003C38.5526 63.0003 39.0003 62.5526 39.0003 62.0003V51C39.0003 50.4477 38.5526 50 38.0003 50Z" fill="#0057B6"/>
<path d="M34 54H31C30.4477 54 30 54.4477 30 55V58C30 58.5523 30.4477 59 31 59H34C34.5523 59 35 58.5523 35 58V55C35 54.4477 34.5523 54 34 54Z" fill="#EB5757" stroke="#EB5757" stroke-width="1.5" stroke-miterlimit="10" stroke-linecap="round" stroke-linejoin="round"/>
<path d="M5 26H70.0001C72.7615 26 75.0001 28.2386 75.0001 31V71C75.0001 73.7614 77.2387 76 80.0001 76H93.0001C95.7615 76 98.0001 73.7614 98.0001 71V63C98.0001 60.2386 95.7615 58 93.0001 58H92.0001" stroke="#EB5757" stroke-width="4"/>
<path fill-rule="evenodd" clip-rule="evenodd" d="M35 46V51H36V46H35ZM43 59H38V60H43V59ZM22 59H27V60H22V59ZM35 62V67H36V62H35ZM38 56H43V57H38V56ZM32 46V51H33V46H32ZM22 56H27V57H22V56ZM32 62V67H33V62H32ZM38 53H43V54H38V53ZM29 46V51H30V46H29ZM22 53H27V54H22V53ZM29 62V67H30V62H29Z" fill="#003399"/>
<defs>
<linearGradient id="paint0_linear" x1="-5.59808e-07" y1="105" x2="120.545" y2="59.8326" gradientUnits="userSpaceOnUse">
<stop stop-color="#003399"/>
<stop offset="0.520833" stop-color="#0057B6"/>
<stop offset="1" stop-color="#5960EA"/>
</linearGradient>
</defs>
</svg>
