<svg width="113" height="105" viewBox="0 0 113 105" fill="none" xmlns="http://www.w3.org/2000/svg">
<circle cx="50" cy="54" r="50" fill="url(#paint0_linear)"/>
<path d="M35 38L15 32.5L27 90.5L35 86.6314V38Z" fill="#508BE2"/>
<path d="M35 38.5L55 32.5L43 90.5L35 86.7661V38.5Z" fill="#0C6EDA"/>
<path d="M27 80.485L35 83.4698V93.6515L27 90.7425V80.485Z" fill="white"/>
<path d="M35 93.6517L43 90.7426V80.485L35 83.4699V93.6517Z" fill="#D7DEE9"/>
<path d="M27.0002 80.4999L35.0002 77.6665L43.0002 80.4999L35.0002 83.4849L27.0002 80.4999Z" fill="#EBF0F5"/>
<path d="M15 7.2724L35 14.5451V39.9994L15 32.7267V7.2724Z" fill="white"/>
<path d="M35 40L55 32.7273V7.27298L35 14.5457V40Z" fill="#D7DEE9"/>
<path d="M15 7.27265L35 -1.71661e-05L54.9999 7.27323L34.9998 14.5459L15 7.27265Z" fill="#EBF0F5"/>
<path d="M21.9954 50.5817L35 55.4337V71.985L21.9954 67.2561V50.5817Z" fill="white"/>
<path d="M35 71.9852L48.0046 67.2563V50.5818L35 55.4339V71.9852Z" fill="#D7DEE9"/>
<path d="M21.9957 50.6059L35.0004 46L48.005 50.6059L35.0002 55.4583L21.9957 50.6059Z" fill="#EBF0F5"/>
<mask id="path-14-inside-1" fill="white">
<path fill-rule="evenodd" clip-rule="evenodd" d="M60.2058 78L68 90L75.7943 78L71 78L71 60L65 60L65 78L60.2058 78ZM70 58L70 50L66 50L66 58L70 58ZM69 42L69 47L67 47L67 42L69 42Z"/>
</mask>
<path fill-rule="evenodd" clip-rule="evenodd" d="M60.2058 78L68 90L75.7943 78L71 78L71 60L65 60L65 78L60.2058 78ZM70 58L70 50L66 50L66 58L70 58ZM69 42L69 47L67 47L67 42L69 42Z" fill="#EB5757"/>
<path d="M68 90L67.1614 90.5447L68 91.8359L68.8387 90.5447L68 90ZM60.2058 78L60.2058 77L58.3639 77L59.3672 78.5447L60.2058 78ZM75.7943 78L76.6329 78.5447L77.6362 77L75.7943 77L75.7943 78ZM71 78L70 78L70 79L71 79L71 78ZM71 60L72 60L72 59L71 59L71 60ZM65 60L65 59L64 59L64 60L65 60ZM65 78L65 79L66 79L66 78L65 78ZM70 50L71 50L71 49L70 49L70 50ZM70 58L70 59L71 59L71 58L70 58ZM66 50L66 49L65 49L65 50L66 50ZM66 58L65 58L65 59L66 59L66 58ZM69 47L69 48L70 48L70 47L69 47ZM69 42L70 42L70 41L69 41L69 42ZM67 47L66 47L66 48L67 48L67 47ZM67 42L67 41L66 41L66 42L67 42ZM68.8387 89.4553L61.0444 77.4553L59.3672 78.5447L67.1614 90.5447L68.8387 89.4553ZM74.9556 77.4553L67.1614 89.4553L68.8387 90.5447L76.6329 78.5447L74.9556 77.4553ZM71 79L75.7943 79L75.7943 77L71 77L71 79ZM70 60L70 78L72 78L72 60L70 60ZM65 61L71 61L71 59L65 59L65 61ZM66 78L66 60L64 60L64 78L66 78ZM60.2058 79L65 79L65 77L60.2058 77L60.2058 79ZM69 50L69 58L71 58L71 50L69 50ZM66 51L70 51L70 49L66 49L66 51ZM67 58L67 50L65 50L65 58L67 58ZM70 57L66 57L66 59L70 59L70 57ZM70 47L70 42L68 42L68 47L70 47ZM67 48L69 48L69 46L67 46L67 48ZM66 42L66 47L68 47L68 42L66 42ZM69 41L67 41L67 43L69 43L69 41Z" fill="#EB5757" mask="url(#path-14-inside-1)"/>
<path fill-rule="evenodd" clip-rule="evenodd" d="M84.7942 33L77 21L69.2057 33L74 33L74 51L80 51L80 33L84.7942 33ZM75 53L75 61L79 61L79 53L75 53ZM76 69L76 64L78 64L78 69L76 69Z" fill="white"/>
<defs>
<linearGradient id="paint0_linear" x1="-5.59808e-07" y1="104" x2="120.545" y2="58.8326" gradientUnits="userSpaceOnUse">
<stop stop-color="#003399"/>
<stop offset="0.520833" stop-color="#0057B6"/>
<stop offset="1" stop-color="#5960EA"/>
</linearGradient>
</defs>
</svg>
