<svg width="113" height="103" viewBox="0 0 113 103" fill="none" xmlns="http://www.w3.org/2000/svg">
<circle cx="50" cy="51.999" r="50" fill="url(#paint0_linear)"/>
<mask id="mask0" mask-type="alpha" maskUnits="userSpaceOnUse" x="0" y="1" width="100" height="101">
<path d="M100 51.999C100 79.6133 77.6142 101.999 50 101.999C22.3858 101.999 0 79.6133 0 51.999C0 24.3848 22.3858 1.99902 50 1.99902C77.6142 1.99902 100 24.3848 100 51.999Z" fill="url(#paint1_linear)"/>
</mask>
<g mask="url(#mask0)">
<path d="M87.92 39.1505H90V35.0899H87.92C86.4721 30.6701 82.305 28.999 77.3824 28.999H76.6176C71.695 28.999 67.5279 30.6701 66.08 35.0899H64V39.1505H66.08C66.08 55.0546 66.08 69.9435 66.08 85.8475C66.2815 91.7683 70.6218 95.999 76.6176 95.999H77.3824C83.3782 95.999 87.7185 91.7683 87.92 85.8475C87.92 69.9435 87.92 55.0546 87.92 39.1505Z" fill="#003399"/>
<path d="M58 38.999H60V34.999H58C56.5521 30.5792 52.305 28.999 47.3824 28.999H46.6176C41.695 28.999 37.4479 30.5792 36 34.999H34V38.999H36C36 54.9031 36 70.095 36 85.999C36.2015 91.9199 40.6218 95.999 46.6176 95.999H47.3824C53.3782 95.999 57.7985 91.9199 58 85.999C58 70.095 58 54.9031 58 38.999Z" fill="#003399"/>
<path d="M83 30.999C83 29.3422 81.6569 27.999 80 27.999H74C72.3431 27.999 71 29.3422 71 30.999H83Z" fill="#003399"/>
<path d="M14.1333 62.999H25.8667V67.999L28 69.999V101.999H12V69.999L14.1333 67.999V62.999Z" fill="#0D356C"/>
</g>
<path fill-rule="evenodd" clip-rule="evenodd" d="M56 24.9624C56 21.6296 53.2839 18.9355 49.9512 18.9626C46.6566 18.9894 44 21.6678 44 24.9624V27.9989H47V24.9624C47 23.3151 48.3283 21.9759 49.9756 21.9625C51.6419 21.9489 53 23.296 53 24.9624V73.4989C53 75.9842 50.9853 77.9989 48.5 77.9989H25V80.9989H48.5C52.6421 80.9989 56 77.641 56 73.4989V58.9989H83V80.4989C83 82.9842 80.9853 84.9989 78.5 84.9989H21V87.9989H78.5C82.6421 87.9989 86 84.641 86 80.4989V24.4989C86 21.4613 83.5376 18.9989 80.5 18.9989C77.4624 18.9989 75 21.4613 75 24.4989V27.9989H78V24.4989C78 23.1182 79.1193 21.9989 80.5 21.9989C81.8807 21.9989 83 23.1182 83 24.4989V55.9989H56V24.9624Z" fill="#508BE2"/>
<path d="M52 30.999C52 29.3422 50.6569 27.999 49 27.999H44C42.3431 27.999 41 29.3422 41 30.999H52Z" fill="#003399"/>
<path d="M59 16.499L64 21.499L72.5 12.999" stroke="white" stroke-width="3"/>
<path d="M14 48.499L19 53.499L27.5 44.999" stroke="white" stroke-width="3"/>
<path d="M22 21.499L27 26.499L35.5 17.999" stroke="white" stroke-width="3"/>
<path d="M69 22.999C72.5528 28.3172 78.5461 39.5263 72.2438 49.999" stroke="#B8BDCE" stroke-width="2" stroke-dasharray="5 3"/>
<path d="M54.9399 46.2195C47.5773 45.2749 33.4677 41.9275 31.5 27.9989" stroke="#B8BDCE" stroke-width="2" stroke-dasharray="5 3"/>
<path d="M24.417 54.999C25.609 60.422 26.7566 71.0623 16.9619 74.7161" stroke="#B8BDCE" stroke-width="2" stroke-dasharray="5 3"/>
<circle cx="17.5" cy="75.499" r="2.5" fill="#EB5757"/>
<circle cx="54.5" cy="46.499" r="2.5" fill="#EB5757"/>
<circle cx="72.5" cy="49.499" r="2.5" fill="#EB5757"/>
<defs>
<linearGradient id="paint0_linear" x1="-5.59808e-07" y1="101.999" x2="120.545" y2="56.8316" gradientUnits="userSpaceOnUse">
<stop stop-color="#003399"/>
<stop offset="0.520833" stop-color="#0057B6"/>
<stop offset="1" stop-color="#5960EA"/>
</linearGradient>
<linearGradient id="paint1_linear" x1="-5.59808e-07" y1="101.999" x2="120.545" y2="56.8316" gradientUnits="userSpaceOnUse">
<stop stop-color="#003399"/>
<stop offset="0.520833" stop-color="#0057B6"/>
<stop offset="1" stop-color="#5960EA"/>
</linearGradient>
</defs>
</svg>
