<svg width="113" height="103" viewBox="0 0 113 103" fill="none" xmlns="http://www.w3.org/2000/svg">
<circle cx="50" cy="51" r="50" fill="url(#paint0_linear)"/>
<path d="M19 25L19 67C19 75.8366 11.8366 83 3 83V83" stroke="#E0E8F0" stroke-width="6"/>
<ellipse cx="68" cy="31.5" rx="10" ry="3.5" fill="#414C6D"/>
<ellipse cx="28" cy="31.5" rx="10" ry="3.5" fill="#5C6B99"/>
<mask id="mask0" mask-type="alpha" maskUnits="userSpaceOnUse" x="0" y="1" width="100" height="100">
<circle cx="50" cy="51" r="50" fill="url(#paint1_linear)"/>
</mask>
<g mask="url(#mask0)">
<path d="M75.4559 40.5H77C77.5523 40.5 78 40.0523 78 39.5V31.6602C78 31.1079 77.5523 30.6602 77 30.6602H73.9403C73.5074 30.6602 73.1254 30.3805 72.9795 29.9729C69.4391 20.0787 59.9868 13 48.8824 13H47.1176C36.0132 13 26.5609 20.0787 23.0205 29.9729C22.8746 30.3805 22.4926 30.6602 22.0597 30.6602H19C18.4477 30.6602 18 31.1079 18 31.6602V39.5C18 40.0523 18.4477 40.5 19 40.5H20.5441C21.0965 40.5 21.5442 40.9479 21.5441 41.5002L21.5296 104C21.5295 104.552 21.9773 105 22.5296 105H73.4704C74.0227 105 74.4705 104.552 74.4704 104L74.4559 41.5002C74.4558 40.9479 74.9035 40.5 75.4559 40.5Z" fill="#343D57"/>
<mask id="mask1" mask-type="alpha" maskUnits="userSpaceOnUse" x="18" y="13" width="60" height="92">
<path d="M75.4559 40.5H77C77.5523 40.5 78 40.0523 78 39.5V31.6602C78 31.1079 77.5523 30.6602 77 30.6602H73.9403C73.5074 30.6602 73.1254 30.3805 72.9795 29.9729C69.4391 20.0787 59.9868 13 48.8824 13H47.1176C36.0132 13 26.5609 20.0787 23.0205 29.9729C22.8746 30.3805 22.4926 30.6602 22.0597 30.6602H19C18.4477 30.6602 18 31.1079 18 31.6602V39.5C18 40.0523 18.4477 40.5 19 40.5H20.5441C21.0965 40.5 21.5442 40.9479 21.5441 41.5002L21.5296 104C21.5295 104.552 21.9773 105 22.5296 105H73.4704C74.0227 105 74.4705 104.552 74.4704 104L74.4559 41.5002C74.4558 40.9479 74.9035 40.5 75.4559 40.5Z" fill="#343D57"/>
</mask>
<g mask="url(#mask1)">
<path d="M70.0464 35.5594C71.1103 33.0698 71.287 30.4374 70.5612 27.8896C69.8354 25.3419 68.2289 22.9553 65.8805 20.9361C63.532 18.9169 60.5123 17.3258 57.0821 16.3002C53.6518 15.2746 49.9142 14.8453 46.1922 15.0495C42.4701 15.2537 38.8754 16.0851 35.7186 17.472C32.5618 18.8589 29.9378 20.7596 28.0733 23.0098C26.2087 25.2601 25.1597 27.7923 25.0168 30.3877C24.874 32.9831 25.6415 35.5637 27.2532 37.9066L48 31L70.0464 35.5594Z" fill="#343D57"/>
<rect x="18" y="9" width="30" height="92" fill="#414C6D"/>
</g>
<path d="M27 37.5C27 25.6259 36.6259 16 48.5 16C60.3741 16 70 25.6259 70 37.5V104H27V37.5Z" fill="#262C40"/>
<path d="M33 39.5C33 30.9396 39.9396 24 48.5 24C57.0604 24 64 30.9396 64 39.5V110H33V39.5Z" fill="#EBF0F5" stroke="white" stroke-width="2"/>
<path d="M72 30C72 27.5571 71.0454 25.1512 69.2191 22.9914C67.3929 20.8316 64.7503 18.9832 61.521 17.607C58.2917 16.2307 54.5735 15.3682 50.6896 15.0945C46.8056 14.8207 42.8734 15.144 39.2348 16.0362C35.5962 16.9283 32.3613 18.3624 29.8113 20.2138C27.2613 22.0651 25.4733 24.2777 24.6028 26.6592C23.7323 29.0407 23.8056 31.5191 24.8163 33.8789C25.8271 36.2387 27.7446 38.4084 30.4024 40.1996L48 30H72Z" fill="#343D57"/>
<mask id="mask2" mask-type="alpha" maskUnits="userSpaceOnUse" x="23" y="12" width="49" height="31">
<path d="M71.9999 30C71.9999 27.5571 71.0453 25.1512 69.2191 22.9914C63.9294 16.7355 55.9656 12.8012 47.9999 13C38.4998 13 27.897 17.8408 23.9999 28C22.1037 33.1875 23.8778 41.5697 25.9999 43L47.9999 30H71.9999Z" fill="#343D57"/>
</mask>
<g mask="url(#mask2)">
<rect x="18" y="9" width="30" height="92" fill="#414C6D"/>
</g>
<path fill-rule="evenodd" clip-rule="evenodd" d="M52 40C52 41.6569 50.6569 43 49 43C47.3431 43 46 41.6569 46 40C46 38.3431 47.3431 37 49 37C50.6569 37 52 38.3431 52 40ZM43 49C44.6569 49 46 47.6569 46 46C46 44.3431 44.6569 43 43 43C41.3431 43 40 44.3431 40 46C40 47.6569 41.3431 49 43 49ZM43 61C44.6569 61 46 59.6569 46 58C46 56.3431 44.6569 55 43 55C41.3431 55 40 56.3431 40 58C40 59.6569 41.3431 61 43 61ZM58 58C58 59.6569 56.6569 61 55 61C53.3431 61 52 59.6569 52 58C52 56.3431 53.3431 55 55 55C56.6569 55 58 56.3431 58 58ZM55 49C56.6569 49 58 47.6569 58 46C58 44.3431 56.6569 43 55 43C53.3431 43 52 44.3431 52 46C52 47.6569 53.3431 49 55 49ZM52 76C52 77.6569 50.6569 79 49 79C47.3431 79 46 77.6569 46 76C46 74.3431 47.3431 73 49 73C50.6569 73 52 74.3431 52 76ZM43 97C44.6569 97 46 95.6569 46 94C46 92.3431 44.6569 91 43 91C41.3431 91 40 92.3431 40 94C40 95.6569 41.3431 97 43 97ZM46 106C46 107.657 44.6569 109 43 109C41.3431 109 40 107.657 40 106C40 104.343 41.3431 103 43 103C44.6569 103 46 104.343 46 106ZM55 97C56.6569 97 58 95.6569 58 94C58 92.3431 56.6569 91 55 91C53.3431 91 52 92.3431 52 94C52 95.6569 53.3431 97 55 97ZM58 106C58 107.657 56.6569 109 55 109C53.3431 109 52 107.657 52 106C52 104.343 53.3431 103 55 103C56.6569 103 58 104.343 58 106ZM49 67C50.6569 67 52 65.6569 52 64C52 62.3431 50.6569 61 49 61C47.3431 61 46 62.3431 46 64C46 65.6569 47.3431 67 49 67ZM46 82C46 83.6569 44.6569 85 43 85C41.3431 85 40 83.6569 40 82C40 80.3431 41.3431 79 43 79C44.6569 79 46 80.3431 46 82ZM55 85C56.6569 85 58 83.6569 58 82C58 80.3431 56.6569 79 55 79C53.3431 79 52 80.3431 52 82C52 83.6569 53.3431 85 55 85ZM52 100C52 101.657 50.6569 103 49 103C47.3431 103 46 101.657 46 100C46 98.3431 47.3431 97 49 97C50.6569 97 52 98.3431 52 100ZM49 55C50.6569 55 52 53.6569 52 52C52 50.3431 50.6569 49 49 49C47.3431 49 46 50.3431 46 52C46 53.6569 47.3431 55 49 55ZM43 73C44.6569 73 46 71.6569 46 70C46 68.3431 44.6569 67 43 67C41.3431 67 40 68.3431 40 70C40 71.6569 41.3431 73 43 73ZM58 70C58 71.6569 56.6569 73 55 73C53.3431 73 52 71.6569 52 70C52 68.3431 53.3431 67 55 67C56.6569 67 58 68.3431 58 70ZM49 91C50.6569 91 52 89.6569 52 88C52 86.3431 50.6569 85 49 85C47.3431 85 46 86.3431 46 88C46 89.6569 47.3431 91 49 91Z" fill="#B8BDCE"/>
</g>
<path d="M64 18.9091C64 21.1684 56.8366 24 48 24C39.1634 24 32 21.1684 32 18.9091C32 16.6497 39.1634 13 48 13C56.8366 13 64 16.6497 64 18.9091Z" fill="#343D57"/>
<ellipse cx="48" cy="17.5" rx="13" ry="4.5" fill="#414C6D"/>
<ellipse cx="48" cy="16" rx="6" ry="2" fill="#343D57"/>
<ellipse cx="48" cy="15" rx="3" ry="1" fill="#E0E8F0"/>
<path d="M48 15V15C48 9.47715 43.5228 5 38 5H29C23.4772 5 19 9.47715 19 15V25" stroke="#E0E8F0" stroke-width="6"/>
<path d="M103.476 72.949C103.504 71.3123 104.839 69.9999 106.476 69.9999L106.684 69.9999L112.267 97.401C112.646 99.2604 111.225 101 109.327 101H103L103.476 72.949Z" fill="#B8BDCE"/>
<rect x="68" y="68" width="39" height="33" rx="3" fill="#F7F9FB"/>
<path d="M68 71C68 69.3431 69.3431 68 71 68H104C105.657 68 107 69.3431 107 71V76H68V71Z" fill="#0C6EDA"/>
<path d="M75 67C75 66.4477 75.4477 66 76 66H80C80.5523 66 81 66.4477 81 67V71H75V67Z" fill="#508BE2"/>
<path d="M94 67C94 66.4477 94.4477 66 95 66H99C99.5523 66 100 66.4477 100 67V71H94V67Z" fill="#508BE2"/>
<path d="M107 78.9999H68" stroke="#E0E8F0" stroke-width="2" stroke-miterlimit="10"/>
<path fill-rule="evenodd" clip-rule="evenodd" d="M81.6955 84.6087H85.6086V82.6087H81.6955V84.6087ZM89.5214 84.6087H93.4345V82.6087H89.5214V84.6087ZM101.261 84.6087H97.3476V82.6087H101.261V84.6087ZM73.8694 90.7229H77.7824V88.7229H73.8694V90.7229ZM85.6086 90.7229H81.6955V88.7229H85.6086V90.7229ZM89.5214 90.7229H93.4345V88.7229H89.5214V90.7229ZM101.261 90.7229H97.3476V88.7229H101.261V90.7229ZM73.8694 96.8369H77.7824V94.8369H73.8694V96.8369ZM85.6086 96.8369H81.6955V94.8369H85.6086V96.8369ZM89.5214 96.8369H93.4345V94.8369H89.5214V96.8369Z" fill="#262C40"/>
<path d="M100 71C100 71.5523 99.5523 72 99 72L95 72C94.4477 72 94 71.5523 94 71L94 70L100 70L100 71Z" fill="#003399"/>
<path d="M81 71C81 71.5523 80.5523 72 80 72L76 72C75.4477 72 75 71.5523 75 71L75 70L81 70L81 71Z" fill="#003399"/>
<path d="M107 76.9999H68" stroke="#EB5757" stroke-width="2" stroke-miterlimit="10"/>
<defs>
<linearGradient id="paint0_linear" x1="-5.59808e-07" y1="101" x2="120.545" y2="55.8326" gradientUnits="userSpaceOnUse">
<stop stop-color="#003399"/>
<stop offset="0.520833" stop-color="#0057B6"/>
<stop offset="1" stop-color="#5960EA"/>
</linearGradient>
<linearGradient id="paint1_linear" x1="-5.59808e-07" y1="101" x2="120.545" y2="55.8326" gradientUnits="userSpaceOnUse">
<stop stop-color="#003399"/>
<stop offset="0.520833" stop-color="#0057B6"/>
<stop offset="1" stop-color="#5960EA"/>
</linearGradient>
</defs>
</svg>
