<svg width="113" height="103" viewBox="0 0 113 103" fill="none" xmlns="http://www.w3.org/2000/svg">
<circle cx="50" cy="52" r="50" fill="url(#paint0_linear)"/>
<mask id="mask0" mask-type="alpha" maskUnits="userSpaceOnUse" x="0" y="2" width="100" height="100">
<path d="M100 52C100 79.6142 77.6142 102 50 102C22.3858 102 0 79.6142 0 52C0 24.3858 22.3858 2 50 2C77.6142 2 100 24.3858 100 52Z" fill="url(#paint1_linear)"/>
</mask>
<g mask="url(#mask0)">
<path d="M87.92 39.1515H90V35.0909H87.92C86.4721 30.671 82.305 29 77.3824 29H76.6176C71.695 29 67.5279 30.671 66.08 35.0909H64V39.1515H66.08C66.08 55.0556 66.08 69.9444 66.08 85.8485C66.2815 91.7693 70.6218 96 76.6176 96H77.3824C83.3782 96 87.7185 91.7693 87.92 85.8485C87.92 69.9444 87.92 55.0556 87.92 39.1515Z" fill="#003399"/>
<path d="M58 39H60V35H58C56.5521 30.5801 52.305 29 47.3824 29H46.6176C41.695 29 37.4479 30.5801 36 35H34V39H36C36 54.904 36 70.096 36 86C36.2015 91.9208 40.6218 96 46.6176 96H47.3824C53.3782 96 57.7985 91.9208 58 86C58 70.096 58 54.904 58 39Z" fill="#003399"/>
<path d="M83 31C83 29.3431 81.6569 28 80 28H74C72.3431 28 71 29.3431 71 31H83Z" fill="#003399"/>
<path d="M14.1333 63H25.8667V68L28 70V102H12V70L14.1333 68V63Z" fill="#0D356C"/>
</g>
<path fill-rule="evenodd" clip-rule="evenodd" d="M56 24.9634C56 21.6306 53.2839 18.9365 49.9512 18.9636C46.6566 18.9904 44 21.6687 44 24.9634V27.9999H47V24.9634C47 23.3161 48.3283 21.9769 49.9756 21.9635C51.6419 21.9499 53 23.297 53 24.9634V73.4999C53 75.9851 50.9853 77.9999 48.5 77.9999H25V80.9999H48.5C52.6421 80.9999 56 77.642 56 73.4999V58.9999H83V80.4999C83 82.9851 80.9853 84.9999 78.5 84.9999H21V87.9999H78.5C82.6421 87.9999 86 84.642 86 80.4999V24.4999C86 21.4623 83.5376 18.9999 80.5 18.9999C77.4624 18.9999 75 21.4623 75 24.4999V27.9999H78V24.4999C78 23.1191 79.1193 21.9999 80.5 21.9999C81.8807 21.9999 83 23.1191 83 24.4999V55.9999H56V24.9634Z" fill="#508BE2"/>
<path d="M52 31C52 29.3431 50.6569 28 49 28H44C42.3431 28 41 29.3431 41 31H52Z" fill="#003399"/>
<path d="M59 16.5L64 21.5L72.5 13" stroke="white" stroke-width="3"/>
<path d="M14 48.5L19 53.5L27.5 45" stroke="white" stroke-width="3"/>
<path d="M22 21.5L27 26.5L35.5 18" stroke="white" stroke-width="3"/>
<path d="M69 23C72.5528 28.3182 78.5461 39.5273 72.2438 50" stroke="#B8BDCE" stroke-width="2" stroke-dasharray="5 3"/>
<path d="M54.9399 46.2204C47.5773 45.2758 33.4677 41.9284 31.5 27.9998" stroke="#B8BDCE" stroke-width="2" stroke-dasharray="5 3"/>
<path d="M24.4167 55C25.6088 60.423 26.7564 71.0633 16.9617 74.717" stroke="#B8BDCE" stroke-width="2" stroke-dasharray="5 3"/>
<circle cx="17.5" cy="75.5" r="2.5" fill="#EB5757"/>
<circle cx="54.5" cy="46.5" r="2.5" fill="#EB5757"/>
<circle cx="72.5" cy="49.5" r="2.5" fill="#EB5757"/>
<defs>
<linearGradient id="paint0_linear" x1="-5.59808e-07" y1="102" x2="120.545" y2="56.8326" gradientUnits="userSpaceOnUse">
<stop stop-color="#003399"/>
<stop offset="0.520833" stop-color="#0057B6"/>
<stop offset="1" stop-color="#5960EA"/>
</linearGradient>
<linearGradient id="paint1_linear" x1="-5.59808e-07" y1="102" x2="120.545" y2="56.8326" gradientUnits="userSpaceOnUse">
<stop stop-color="#003399"/>
<stop offset="0.520833" stop-color="#0057B6"/>
<stop offset="1" stop-color="#5960EA"/>
</linearGradient>
</defs>
</svg>
