<svg width="119" height="107" viewBox="0 0 119 107" fill="none" xmlns="http://www.w3.org/2000/svg">
<circle cx="56" cy="55.999" r="50" fill="url(#paint0_linear)"/>
<path d="M72 84.9985L35.9998 71.999L0 84.9995L36.0002 97.999L72 84.9985Z" fill="#EBF0F5"/>
<path d="M71.9999 84.9983L72 90.499L36.0002 103.5L36 97.9988L71.9999 84.9983Z" fill="white"/>
<path d="M0.0001297 84.9983L0 90.499L35.9998 103.5L36 97.9988L0.0001297 84.9983Z" fill="#B8BDCE"/>
<path d="M76.5 12.999L80.5035 16.7943L85.5635 14.5972L88.0275 19.5328L93.5339 19.1988L94.1612 24.6796L99.4497 26.249L98.1646 31.6137L102.597 34.8973L99.555 39.499L102.597 44.1007L98.1646 47.3843L99.4497 52.749L94.1612 54.3185L93.5339 59.7992L88.0275 59.4652L85.5635 64.4009L80.5035 62.2038L76.5 65.999L72.4965 62.2038L67.4365 64.4009L64.9725 59.4652L59.4661 59.7992L58.8388 54.3185L53.5503 52.749L54.8354 47.3843L50.4026 44.1007L53.445 39.499L50.4026 34.8973L54.8354 31.6137L53.5503 26.249L58.8388 24.6796L59.4661 19.1988L64.9725 19.5328L67.4365 14.5972L72.4965 16.7943L76.5 12.999Z" fill="#003399"/>
<path d="M76.5 24.999L79.923 35.3121H91L82.0385 41.6859L85.4615 51.999L76.5 45.6252L67.5385 51.999L70.9615 41.6859L62 35.3121H73.077L76.5 24.999Z" fill="white"/>
<path d="M33.4945 30.8943C33.4367 30.3451 32.9446 29.9467 32.3953 30.0045C31.8461 30.0623 31.4477 30.5545 31.5055 31.1037L33.4945 30.8943ZM39.2892 31.0618L38.4412 31.5918L39.2892 31.0618ZM32.7439 33.3164L31.7494 33.4211L32.7439 33.3164ZM31.5055 31.1037L31.7494 33.4211L33.7384 33.2117L33.4945 30.8943L31.5055 31.1037ZM40.1372 30.5318L39.1431 28.9412L37.4471 30.0012L38.4412 31.5918L40.1372 30.5318ZM38 24.9554V-0.000976562H36V24.9554H38ZM39.1431 28.9412C38.3961 27.746 38 26.3649 38 24.9554H36C36 26.7397 36.5014 28.4881 37.4471 30.0012L39.1431 28.9412ZM40.7686 33.6849C40.9487 32.5921 40.7242 31.471 40.1372 30.5318L38.4412 31.5918C38.7703 32.1184 38.8962 32.7469 38.7952 33.3596L40.7686 33.6849ZM31.7494 33.4211C32.3049 38.6978 39.9056 38.9201 40.7686 33.6849L38.7952 33.3596C38.3114 36.2949 34.0499 36.1702 33.7384 33.2117L31.7494 33.4211Z" fill="#B8BDCE"/>
<path d="M61 63.499V50.999L36.2581 32.999L13 50.999V63.499" stroke="#EB5757" stroke-width="2"/>
<circle r="5" transform="matrix(1 0 0 -1 37 22.999)" fill="#EBF0F5"/>
<path d="M62 53.999L37 62.4435V91.999L62 83.5546V53.999Z" fill="white"/>
<path d="M37 91.999L12 83.5546V53.999L37 62.4435V91.999Z" fill="#D7DEE9"/>
<path d="M61.9551 54.0041L36.955 44.9991L11.9551 54.0048L36.9552 63.0098L61.9551 54.0041Z" fill="#EBF0F5"/>
<path d="M50 87.999V58.4435L24 49.999" stroke="#B8BDCE" stroke-width="2"/>
<path d="M23 87.999V58.549L49 49.999" stroke="#B8BDCE" stroke-width="2"/>
<defs>
<linearGradient id="paint0_linear" x1="6" y1="105.999" x2="126.545" y2="60.8316" gradientUnits="userSpaceOnUse">
<stop stop-color="#003399"/>
<stop offset="0.520833" stop-color="#0057B6"/>
<stop offset="1" stop-color="#5960EA"/>
</linearGradient>
</defs>
</svg>
