<svg width="115" height="103" viewBox="0 0 115 103" fill="none" xmlns="http://www.w3.org/2000/svg">
<circle cx="52" cy="49.999" r="50" fill="url(#paint0_linear)"/>
<mask id="mask0" mask-type="alpha" maskUnits="userSpaceOnUse" x="2" y="-1" width="100" height="101">
<circle cx="52" cy="49.999" r="50" fill="url(#paint1_linear)"/>
</mask>
<g mask="url(#mask0)">
<path d="M47.8973 31.7495C45.2788 23.8448 37.8323 18.1426 29.0549 18.1426H27.6862C18.9088 18.1426 11.4622 23.8448 8.84371 31.7495C8.82383 31.8095 8.80999 31.8716 8.80208 31.9343L7.85126 39.4718L7.83987 98.9988C7.83976 99.5512 8.28751 99.999 8.83987 99.999H47.9012C48.4535 99.999 48.9013 99.5512 48.9012 98.9988L48.8898 39.4718L47.939 31.9343C47.9311 31.8716 47.9172 31.8095 47.8973 31.7495Z" fill="#343D57"/>
<ellipse cx="28.3703" cy="32.4914" rx="23.2683" ry="4.26585" fill="#414C6D"/>
<mask id="mask1" mask-type="alpha" maskUnits="userSpaceOnUse" x="7" y="18" width="42" height="82">
<path d="M47.8973 31.7495C45.2788 23.8448 37.8323 18.1426 29.0549 18.1426H27.6862C18.9088 18.1426 11.4622 23.8448 8.84371 31.7495C8.82383 31.8095 8.80999 31.8716 8.80208 31.9343L7.85126 39.4718L7.83987 98.9988C7.83976 99.5512 8.28751 99.999 8.83987 99.999H47.9012C48.4535 99.999 48.9013 99.5512 48.9012 98.9988L48.8898 39.4718L47.939 31.9343C47.9311 31.8716 47.9172 31.8095 47.8973 31.7495Z" fill="#343D57"/>
</mask>
<g mask="url(#mask1)">
<ellipse cx="28.3707" cy="30.1643" rx="19.3902" ry="4.26585" fill="#343D57"/>
<rect x="5" y="14.999" width="23" height="83" fill="#414C6D"/>
</g>
<path d="M95.8973 31.7495C93.2788 23.8448 85.8323 18.1426 77.0549 18.1426H75.6862C66.9088 18.1426 59.4622 23.8448 56.8437 31.7495C56.8238 31.8095 56.81 31.8716 56.8021 31.9343L55.8513 39.4718L55.8399 98.9988C55.8398 99.5512 56.2875 99.999 56.8399 99.999H95.9012C96.4535 99.999 96.9013 99.5512 96.9012 98.9988L96.8898 39.4718L95.939 31.9343C95.9311 31.8716 95.9172 31.8095 95.8973 31.7495Z" fill="#343D57"/>
<ellipse cx="76.3703" cy="32.4914" rx="23.2683" ry="4.26585" fill="#414C6D"/>
<mask id="mask2" mask-type="alpha" maskUnits="userSpaceOnUse" x="55" y="18" width="42" height="84">
<path d="M95.8973 31.7495C93.2788 23.8448 85.8323 18.1426 77.0549 18.1426H75.6862C66.9088 18.1426 59.4622 23.8448 56.8437 31.7495C56.8238 31.8095 56.81 31.8716 56.8021 31.9343L55.8513 39.4718L55.8399 100.499C55.8398 101.051 56.2875 101.499 56.8399 101.499H95.9012C96.4535 101.499 96.9013 101.051 96.9012 100.499L96.8898 39.4718L95.939 31.9343C95.9311 31.8716 95.9172 31.8095 95.8973 31.7495Z" fill="#343D57"/>
</mask>
<g mask="url(#mask2)">
<ellipse cx="76.3707" cy="30.1643" rx="19.3902" ry="4.26585" fill="#343D57"/>
<rect x="53" y="14.999" width="23" height="83" fill="#414C6D"/>
</g>
</g>
<path d="M28.3708 36.4347C41.2215 36.4347 51.6391 34.5478 51.6391 32.2202V37.9672C51.6391 40.2948 41.2215 42.1817 28.3708 42.1817C15.5201 42.1817 5.10254 40.2948 5.10254 37.9672V32.2202C5.10254 34.5478 15.5201 36.4347 28.3708 36.4347Z" fill="#343D57"/>
<path d="M40.7804 21.7491C40.7804 23.1656 35.2244 24.9408 28.3707 24.9408C21.517 24.9408 15.9609 23.1656 15.9609 21.7491C15.9609 20.3326 21.517 18.0444 28.3707 18.0444C35.2244 18.0444 40.7804 20.3326 40.7804 21.7491Z" fill="#343D57"/>
<ellipse cx="28.371" cy="20.7264" rx="10.0829" ry="2.68193" fill="#414C6D"/>
<ellipse cx="28.3705" cy="20.3436" rx="4.65366" ry="1.53253" fill="#343D57"/>
<path d="M28.5 73.499L22.5 73.499C11.4543 73.499 2.49998 64.5447 2.49998 53.499L2.49998 19.499C2.49998 13.9762 6.97713 9.49902 12.5 9.49902L20.5 9.49902C24.9183 9.49902 28.5 13.0807 28.5 17.499L28.5 18.999" stroke="#E0E8F0" stroke-width="5"/>
<path d="M76.3708 36.4347C89.2215 36.4347 99.6391 34.5478 99.6391 32.2202V37.9672C99.6391 40.2948 89.2215 42.1817 76.3708 42.1817C63.5201 42.1817 53.1025 40.2948 53.1025 37.9672V32.2202C53.1025 34.5478 63.5201 36.4347 76.3708 36.4347Z" fill="#343D57"/>
<path d="M88.7809 21.7491C88.7809 23.1656 83.2249 24.9408 76.3712 24.9408C69.5175 24.9408 63.9614 23.1656 63.9614 21.7491C63.9614 20.3326 69.5175 18.0444 76.3712 18.0444C83.2249 18.0444 88.7809 20.3326 88.7809 21.7491Z" fill="#343D57"/>
<ellipse cx="76.371" cy="20.7264" rx="10.0829" ry="2.68193" fill="#414C6D"/>
<ellipse cx="76.3709" cy="20.3436" rx="4.65366" ry="1.53253" fill="#343D57"/>
<path d="M49.5 72.499L49.5 19.499C49.5 13.9762 53.9772 9.49902 59.5 9.49902L68.5 9.49902C72.9183 9.49902 76.5 13.0807 76.5 17.499L76.5 18.999" stroke="#E0E8F0" stroke-width="5"/>
<path d="M72 72.499L104 72.499" stroke="#E0E8F0" stroke-width="5"/>
<path d="M72 62.499H110" stroke="#E0E8F0" stroke-width="5"/>
<path d="M30 44.999H71L73 49.999H28L30 44.999Z" fill="white"/>
<path d="M28 50.999C28 49.8945 28.8954 48.999 30 48.999H71C72.1046 48.999 73 49.8945 73 50.999V82.999C73 84.1036 72.1046 84.999 71 84.999H30C28.8954 84.999 28 84.1036 28 82.999V50.999Z" fill="#D7DEE9"/>
<path d="M28 68.999C28 67.8945 28.8954 66.999 30 66.999H71C72.1046 66.999 73 67.8945 73 68.999V100.999C73 102.104 72.1046 102.999 71 102.999H30C28.8954 102.999 28 102.104 28 100.999V68.999Z" fill="#D7DEE9"/>
<path d="M36 84.999C36 83.8945 36.8954 82.999 38 82.999H63C64.1046 82.999 65 83.8945 65 84.999C65 86.1036 64.1046 86.999 63 86.999H38C36.8954 86.999 36 86.1036 36 84.999Z" fill="#EBF0F5"/>
<path d="M36 90.999C36 89.8945 36.8954 88.999 38 88.999H63C64.1046 88.999 65 89.8945 65 90.999C65 92.1036 64.1046 92.999 63 92.999H38C36.8954 92.999 36 92.1036 36 90.999Z" fill="#EBF0F5"/>
<path d="M36 96.999C36 95.8945 36.8954 94.999 38 94.999H63C64.1046 94.999 65 95.8945 65 96.999C65 98.1036 64.1046 98.999 63 98.999H38C36.8954 98.999 36 98.1036 36 96.999Z" fill="#EBF0F5"/>
<rect x="32" y="53.999" width="37" height="20" rx="3" fill="#0057B6"/>
<rect x="32" y="59.999" width="37" height="20" rx="3" fill="#B8BDCE"/>
<rect x="32" y="57.999" width="37" height="20" rx="3" fill="#0C6EDA"/>
<path d="M39.118 72.9867C38.1822 72.9867 37.4267 72.7229 36.8514 72.1955C36.2838 71.6597 36 70.9303 36 70.0073H37.7603C37.7603 70.2133 37.7949 70.3987 37.8639 70.5636C37.9406 70.7202 38.0403 70.8479 38.163 70.9468C38.2934 71.0457 38.4392 71.1199 38.6002 71.1694C38.7613 71.2188 38.9301 71.2435 39.1065 71.2435C39.4593 71.2435 39.7623 71.1529 40.0154 70.9715C40.2762 70.7902 40.4066 70.543 40.4066 70.2298C40.4066 70.0979 40.3759 69.9825 40.3146 69.8836C40.2532 69.7765 40.1803 69.6941 40.0959 69.6364C40.0192 69.5705 39.8965 69.5045 39.7278 69.4386C39.5667 69.3726 39.4286 69.3232 39.3136 69.2902C39.1985 69.2573 39.0259 69.2119 38.7958 69.1542C38.6117 69.1048 38.4737 69.0677 38.3816 69.043C38.2896 69.0183 38.1515 68.977 37.9674 68.9194C37.791 68.8617 37.653 68.8122 37.5532 68.771C37.4612 68.7216 37.3385 68.6556 37.1851 68.5732C37.0317 68.4908 36.9128 68.4084 36.8284 68.3259C36.744 68.2435 36.6481 68.1405 36.5408 68.0169C36.441 67.8933 36.3643 67.7655 36.3106 67.6336C36.257 67.4935 36.2109 67.3369 36.1726 67.1639C36.1342 66.9825 36.1151 66.793 36.1151 66.5952C36.1151 65.771 36.3758 65.1323 36.8974 64.679C37.419 64.2257 38.1323 63.999 39.0374 63.999C39.9502 63.999 40.6597 64.2463 41.166 64.7408C41.6799 65.2353 41.9368 65.9152 41.9368 66.7806H40.211C40.211 66.4262 40.0921 66.1584 39.8543 65.977C39.6242 65.7875 39.3366 65.6927 38.9914 65.6927C38.6846 65.6927 38.4161 65.7628 38.186 65.9029C37.9636 66.043 37.8524 66.2449 37.8524 66.5086C37.8524 66.6323 37.8792 66.7435 37.9329 66.8424C37.9943 66.9331 38.0633 67.0114 38.14 67.0773C38.2167 67.135 38.3356 67.1968 38.4967 67.2628C38.6578 67.3205 38.792 67.3658 38.8994 67.3987C39.0144 67.4235 39.1832 67.4647 39.4056 67.5224C39.6511 67.5883 39.8352 67.6419 39.9579 67.6831C40.0806 67.7161 40.257 67.7779 40.4871 67.8685C40.7172 67.9509 40.8937 68.0334 41.0164 68.1158C41.1468 68.1982 41.2964 68.3095 41.4651 68.4496C41.6338 68.5814 41.7604 68.7298 41.8448 68.8946C41.9368 69.0512 42.0135 69.2449 42.0749 69.4757C42.1439 69.6982 42.1784 69.9413 42.1784 70.2051C42.1784 70.8067 42.0365 71.3218 41.7527 71.7504C41.4689 72.179 41.1008 72.4922 40.6482 72.69C40.2033 72.8878 39.6933 72.9867 39.118 72.9867Z" fill="white"/>
<path d="M46.416 71.2064H47.1753V72.8136H45.9903C45.5377 72.8136 45.1427 72.7188 44.8052 72.5292C44.4754 72.3397 44.2222 72.0677 44.0458 71.7133C43.8694 71.3507 43.7812 70.9221 43.7812 70.4276V67.5842H42.6537V67.2009L45.1158 64.3946H45.4265V66.1378H47.1408V67.5842H45.461V70.1927C45.461 70.5141 45.5415 70.7655 45.7026 70.9468C45.8714 71.1199 46.1091 71.2064 46.416 71.2064Z" fill="white"/>
<path d="M53.34 66.1254H54.5941V72.8012H53.271L53.1329 72.2078C52.5653 72.7353 51.8942 72.999 51.1195 72.999C50.1837 72.999 49.4051 72.6652 48.7838 71.9976C48.1702 71.3218 47.8634 70.477 47.8634 69.4633C47.8634 68.4578 48.1702 67.6213 48.7838 66.9537C49.4051 66.2861 50.1837 65.9523 51.1195 65.9523C51.9095 65.9523 52.5883 66.2243 53.1559 66.7683L53.34 66.1254ZM50.0379 70.7737C50.3601 71.1199 50.7628 71.293 51.246 71.293C51.7369 71.293 52.1434 71.1199 52.4656 70.7737C52.7877 70.4276 52.9488 69.9908 52.9488 69.4633C52.9488 68.9358 52.7877 68.499 52.4656 68.1529C52.1434 67.8067 51.7407 67.6336 51.2575 67.6336C50.9354 67.6336 50.6439 67.7161 50.3831 67.8809C50.13 68.0375 49.9306 68.2559 49.7848 68.5361C49.6391 68.8081 49.5662 69.1172 49.5662 69.4633C49.5662 69.9908 49.7235 70.4276 50.0379 70.7737Z" fill="white"/>
<path d="M64.2867 71.1446H65V72.8136H64.0681C63.301 72.8136 62.6912 72.5705 62.2387 72.0842C61.7938 71.5979 61.5714 70.9468 61.5714 70.1309V67.6707H60.2252V66.1378H61.5714V64.271H63.2512V66.1378H64.977V67.6707H63.2512V70.032C63.2512 70.3946 63.3394 70.6707 63.5158 70.8603C63.6922 71.0498 63.9492 71.1446 64.2867 71.1446ZM57.5905 66.9661C58.0123 66.3974 58.6106 66.113 59.3853 66.113H59.7995V67.7696H59.2127C58.7372 67.7696 58.3959 67.8933 58.1888 68.1405C57.9893 68.3795 57.8896 68.771 57.8896 69.315V72.8136H56.2098V66.1378H57.2913L57.5905 66.9661Z" fill="white"/>
<defs>
<linearGradient id="paint0_linear" x1="2" y1="99.999" x2="122.545" y2="54.8316" gradientUnits="userSpaceOnUse">
<stop stop-color="#003399"/>
<stop offset="0.520833" stop-color="#0057B6"/>
<stop offset="1" stop-color="#5960EA"/>
</linearGradient>
<linearGradient id="paint1_linear" x1="2" y1="99.999" x2="122.545" y2="54.8316" gradientUnits="userSpaceOnUse">
<stop stop-color="#003399"/>
<stop offset="0.520833" stop-color="#0057B6"/>
<stop offset="1" stop-color="#5960EA"/>
</linearGradient>
</defs>
</svg>
