<svg width="113" height="103" viewBox="0 0 113 103" fill="none" xmlns="http://www.w3.org/2000/svg">
<circle cx="50" cy="52" r="50" fill="url(#paint0_linear)"/>
<rect x="45" y="1" width="55" height="76" rx="3" fill="#F7F9FB"/>
<path d="M57.5 59.5L83.5 59.5C88.4706 59.5 92.5 55.4706 92.5 50.5V50.5C92.5 45.5294 88.4706 41.5 83.5 41.5L64.5 41.5C59.5294 41.5 55.5 37.4706 55.5 32.5L55.5 8" stroke="#EB5757" stroke-width="3" stroke-linecap="round" stroke-linejoin="round"/>
<path d="M62 24H61V22.0227H62.5952C63.7089 18.5264 66.9193 16 70.7059 16H71.2941C75.0807 16 78.2911 18.5264 79.4048 22.0227H81V24H80C80 24 80 46.7781 80 58H81V61H80C79.845 65.6836 75.9063 69 71.2941 69H70.7059C66.0937 69 62.155 65.6836 62 61H61V58H62C62 46.7781 62 24 62 24Z" fill="#D7DEE9"/>
<path d="M67 42C67 43.1046 67.8954 44 69 44H73C74.1046 44 75 43.1046 75 42V29C75 27.8954 74.1046 27 73 27H69C67.8954 27 67 27.8954 67 29V42Z" fill="#EBF0F5"/>
<path d="M70.4697 17.4305V17.4305C70.4697 14.7075 68.2623 12.5 65.5392 12.5L64.9849 12.5C61.9557 12.5 59.5 14.9556 59.5 17.9848L59.5 47.5C59.5 50.8137 62.1863 53.5 65.5 53.5H87" stroke="#003399" stroke-width="3"/>
<path d="M23.1239 77.2504C23.1239 77.2504 12.0057 71.7733 3.35073 67.3548C0.0740374 65.6748 -1.01066 61.4174 1.04575 58.3107L17.0224 37.8521C19.2144 35.0445 23.2368 34.5383 26.039 36.7245C29.1575 39.1869 29.4287 43.8815 26.5813 46.6891L13.9265 59.1622C13.3164 59.7605 13.4294 60.7731 14.1751 61.2103L26.6491 71.6352L23.1239 77.2504Z" fill="#0D356C"/>
<path d="M24.0183 45.9581C23.5527 46.4593 23.1092 46.9834 22.6436 47.4391C20.4041 49.581 17.3442 50.5152 14.883 52.3608C12.7323 53.9785 6.8564 60.9281 11.3797 63.0243C12.2001 63.4117 13.1314 63.5256 13.9518 63.913C14.9717 64.4143 15.7256 65.3485 16.6125 66.0548C17.8542 67.0346 19.362 67.5814 20.515 68.6751C21.2689 69.4043 21.8232 70.3157 22.4884 71.1132C23.8853 72.7993 26.7456 74.3487 28.9186 74.3943L30.6924 71.5689L18.4529 61.2471C17.7434 60.8142 17.6325 59.8116 18.209 59.2192L30.6259 46.8695C32.4662 45.0467 32.9762 42.4035 32.2223 40.125C31.1802 40.8541 30.1602 41.6516 29.229 42.5175C28.2977 43.3833 27.9873 43.4517 26.8786 43.8162C25.7035 44.2036 24.8387 45.0467 24.0183 45.9581Z" fill="#262C40"/>
<path d="M14.852 85.8179C14.852 85.8179 11.1439 93.6609 16.0001 102L36.3708 102.001C36.7717 99.5957 37.1504 97.3256 37.5068 95.3477C38.2642 90.9874 38.1083 91.4818 37.9301 89.5714L14.852 85.8179Z" fill="#262C40"/>
<path d="M34.2692 22.4989C34.2692 22.4989 29.6327 25.5627 31.5066 33.6443C32.2753 36.9252 19.0385 28.6506 19.0385 28.6506C19.0385 28.6506 20.8402 24.9355 20.1675 22.9814L30.1132 20.1348L34.2692 22.4989Z" fill="white"/>
<path opacity="0.4" d="M34.2693 22.4587C34.2693 22.4587 32.3564 23.7392 31.5062 26.7982L29.2626 25.2569L21.8943 21.937L30.16 20.1348L34.2693 22.4587Z" fill="#B8BDCE"/>
<path d="M31.452 4.90714C31.452 4.90714 34.0541 5.56827 34.542 6.63977L35.3086 8.32682C35.9359 9.69469 36.2844 11.1765 36.3541 12.6812V12.704L38.933 17.9019C39.1653 18.2895 38.9562 18.7682 38.5148 18.8822L37.3067 19.0874L37.6784 24.3993C37.8642 26.2003 35.843 27.4314 34.2632 26.4511L29.4075 24.0573L20.4861 23.0314C20.4861 23.0314 20.7185 18.5175 18.7669 16.8532C18.7669 16.8532 13.6557 4.65636 31.452 4.90714Z" fill="white"/>
<path d="M17.4165 8.26724C17.5285 7.86887 17.7077 7.49393 17.9318 7.16586C19.4327 5.03339 22.3226 5.61924 24.4732 5.174C26.5118 4.75219 28.416 3.79141 30.4322 3.27587C32.4484 2.78376 34.7782 2.85406 36.3464 4.28352C37.0857 4.96309 37.3769 6.04104 36.9961 7.02526C36.772 7.58767 36.3912 8.07977 36.0104 8.54845C35.7863 8.82965 35.5399 9.13429 35.2711 9.34519C34.9575 9.57953 34.6214 9.74356 34.263 9.9076C33.3669 10.3294 30.5666 10.7278 30.1186 11.7354C29.6033 12.954 31.2835 15.4848 31.5075 16.7502C31.7987 18.4843 31.978 20.2653 32.2244 21.9994C32.2468 22.1869 32.2916 22.3978 32.4036 22.5384C32.65 22.8664 33.1205 22.7961 33.5013 22.7024C33.6133 22.0228 33.7701 21.3432 33.927 20.6871C34.0614 20.1247 34.263 19.5154 34.7334 19.1873C35.7191 18.5312 37.2201 18.9061 37.7129 19.9841C37.937 20.4996 37.9594 21.0855 37.9818 21.6713C38.0042 23.1476 38.049 24.6474 38.0714 26.1237C38.0938 26.8033 38.0714 27.5532 37.6457 28.0687C37.1753 28.6311 36.3688 28.678 35.6519 28.7014C34.375 28.7248 33.1653 27.975 31.9556 27.5297C30.8803 27.1314 29.8946 26.4752 28.9537 25.7722C28.2592 25.2567 27.5647 24.6708 27.1615 23.8741C26.7582 23.0773 26.7134 22.0228 27.2735 21.3198C27.9232 20.4996 29.2449 20.3356 29.5809 19.2342C29.8946 18.2266 29.3345 16.8674 28.8192 16.0707C28.4832 15.5317 28.0128 14.9927 27.4079 14.9693C26.9375 14.9458 26.4894 15.2739 26.243 15.6723C25.4813 16.9143 25.5709 18.9296 25.3693 20.3356C25.1901 21.7182 24.8092 23.0305 23.5099 23.5226C22.4122 23.9444 20.9113 24.2256 19.836 23.546C18.8055 22.9133 18.6038 21.2261 18.2902 20.0778C17.4389 16.9377 17.0581 13.657 17.1477 10.3763C17.1477 9.74356 17.1925 8.97025 17.4165 8.26724Z" fill="#262C40"/>
<path d="M39.5501 92.3072L39.9807 52.2826C39.4368 38.0693 31.776 32.4977 26.2685 30.3146C23.0047 29.0183 19.265 29.6551 16.6359 31.9974C14.0521 34.2943 11.219 37.6373 11.287 41.2531C11.3777 45.5512 14.2788 57.4449 13.8255 63.3121C13.1002 72.5451 10.4711 91.534 10.4711 91.534C15.48 97.424 25.1806 87.2587 39.5501 92.3072Z" fill="#0D356C"/>
<path d="M20.3387 86.2929C18.9224 87.8511 18.4812 89.9966 18.1562 92.0517C18.133 92.1872 18.1098 92.3227 18.0865 92.4808C23.473 91.329 30.6241 88.8222 39.5397 91.871L39.9808 52.1238C39.4236 38.0089 31.576 32.4759 25.9341 30.3079C24.216 29.653 22.3818 29.4949 20.6173 29.8111C19.1081 32.7695 18.3419 35.999 19.5493 39.0026C20.1994 40.6061 21.337 41.9837 22.4283 43.3387C24.4946 45.9132 26.4217 48.6459 27.5129 51.7172C28.6041 54.7886 28.7667 58.2891 27.3504 61.2476C26.2592 63.5511 24.2392 65.4707 23.7749 67.9549C23.3105 70.3714 24.4018 72.7652 25.2376 75.0914C26.0734 77.4175 26.6074 80.1501 25.2144 82.2052C24.0535 83.9667 21.7782 84.7346 20.3387 86.2929Z" fill="#508BE2"/>
<path d="M29.2294 39.3857L40.444 52.2523C40.9922 52.8575 41.9743 52.8127 42.4312 52.1402L55.0619 39.0719L54.765 37.1442C54.6051 36.0458 54.9021 34.9474 55.6329 34.0956L58.054 31.204L65.6828 25.8467V26.2502C65.6828 27.2813 65.2488 28.2676 64.4951 28.9849L61.5943 31.742L63.4216 35.3285C64.0382 36.5614 64.1753 37.9735 63.7642 39.2736C63.5814 39.9013 63.1018 40.3944 62.4851 40.641L59.927 41.6273C59.927 41.6273 52.5038 54.8749 47.7301 62.9221C45.9029 65.9931 41.7459 66.7552 38.8909 64.6033L20.1845 48.0606C17.6036 45.7742 17.3752 41.8963 19.6592 39.3409C22.1717 36.4717 26.7169 36.4941 29.2294 39.3857Z" fill="white"/>
<path d="M17.5375 27.8825C19.4384 27.1743 25.6909 25.4039 32.7679 28.874C33.1115 29.0392 33.3176 29.4169 33.3176 29.8182L33.0657 35.3657C33.0657 35.3657 23.9274 29.0156 18.4078 30.4792C18.1101 30.55 17.7894 30.3848 17.6749 30.0779L17.1939 28.7323C17.0336 28.3782 17.2168 28.0005 17.5375 27.8825Z" fill="#D7DEE9"/>
<path d="M59.0196 43.856C59.0196 43.856 52.8541 54.5462 47.908 62.8384C46.0215 65.9983 41.6965 66.7827 38.7288 64.564L19.3123 47.5091C16.6437 45.1559 16.3906 41.1667 18.7602 38.5222C21.4058 35.5639 26.1219 35.5863 28.7215 38.567L40.3622 51.8344C40.9143 52.4619 41.9496 52.4171 42.4327 51.7224L53.6133 40.0013L59.0196 43.856Z" fill="#0D356C"/>
<defs>
<linearGradient id="paint0_linear" x1="-5.59808e-07" y1="102" x2="120.545" y2="56.8326" gradientUnits="userSpaceOnUse">
<stop stop-color="#003399"/>
<stop offset="0.520833" stop-color="#0057B6"/>
<stop offset="1" stop-color="#5960EA"/>
</linearGradient>
</defs>
</svg>
