<svg width="116" height="103" viewBox="0 0 116 103" fill="none" xmlns="http://www.w3.org/2000/svg">
<circle cx="53" cy="52" r="50" fill="url(#paint0_linear)"/>
<mask id="mask0" mask-type="alpha" maskUnits="userSpaceOnUse" x="3" y="2" width="100" height="100">
<circle cx="53" cy="52" r="50" fill="url(#paint1_linear)"/>
</mask>
<g mask="url(#mask0)">
<path d="M-1 29C-1 26.2386 1.23858 24 4 24H61C63.7614 24 66 26.2386 66 29V66H-1V29Z" fill="#F7F9FB"/>
<path d="M2 64H62L66 66H113C113 69.866 109.866 73 106 73H79H76.5H36.5H2V64Z" fill="#0D356C"/>
<rect x="11" y="83" width="80" height="2" fill="#003399"/>
</g>
<path fill-rule="evenodd" clip-rule="evenodd" d="M54.4545 49H41.7273L38.2273 42L41.7273 35H55.7727V37.9474H43.1818L41.1364 42L43.1818 46.0526H57L54.4545 49Z" fill="#0057B6"/>
<path fill-rule="evenodd" clip-rule="evenodd" d="M21.2273 49L15.7273 37.9474V43.8421L18.3182 49H21.2273Z" fill="#0057B6"/>
<path fill-rule="evenodd" clip-rule="evenodd" d="M5.5 43.8421L15.7273 43.8421L13.1818 46.7895H4.04545L2.95454 49H0L6.99999 35C9.90908 35 12.8182 35 15.7273 35L15.7273 37.9474L8.45454 37.9474L5.5 43.8421Z" fill="#0057B6"/>
<path fill-rule="evenodd" clip-rule="evenodd" d="M37.6363 35H25.9091L28.4545 37.9474H37.6363V35Z" fill="#0057B6"/>
<path d="M25.9091 35H23.3636V49H25.909L25.9091 35Z" fill="#0057B6"/>
<path d="M66 29H83.4856C85.0675 29 86.5561 29.7486 87.4994 31.0184L98.1299 45.3286C98.6981 46.0936 99.4731 46.6802 100.364 47.0195L106.994 49.5452C108.559 50.1415 109.722 51.4822 110.091 53.1163L111.622 59.8987C112.328 63.0257 109.951 66 106.745 66H66V29Z" fill="#D7DEE9"/>
<path d="M31 63H62L65.9758 66H113C113 69.866 109.866 73 106 73H79.2061H76.7212H36.9636H31V63Z" fill="#0D356C"/>
<path d="M70 33H81.018L87 46H70V33Z" fill="#B8BDCE"/>
<path d="M87.5 58C78.9396 58 72 65.1634 72 74H103C103 65.1634 96.0604 58 87.5 58Z" fill="#B8BDCE"/>
<circle cx="87.5" cy="73.5" r="11.5" fill="#262C40"/>
<circle cx="87.5" cy="73.5" r="5.5" fill="white"/>
<path d="M85.5 33H88.5L99 46H92.5L85.5 33Z" fill="#B8BDCE"/>
<rect x="106" y="62" width="7" height="4" fill="#B8BDCE"/>
<rect x="70" y="51" width="28" height="2" fill="#F7F9FB"/>
<rect x="109" y="52" width="2" height="7" fill="#D7DEE9"/>
<path d="M106 57H97.6429L96 51H96.731C100.228 51 103.471 52.8265 105.283 55.817L106 57Z" fill="white"/>
<path d="M25.5 58C16.9396 58 10 65.1634 10 74H41C41 65.1634 34.0604 58 25.5 58Z" fill="#B8BDCE"/>
<circle cx="25.5" cy="73.5" r="11.5" fill="#262C40"/>
<circle cx="25.5" cy="73.5" r="5.5" fill="white"/>
<path d="M89 85L66.92 85C69.8253 84.4667 65 79 65 79C65 79 81.0105 83.8 89 85Z" fill="white"/>
<defs>
<linearGradient id="paint0_linear" x1="3" y1="102" x2="123.545" y2="56.8326" gradientUnits="userSpaceOnUse">
<stop stop-color="#003399"/>
<stop offset="0.520833" stop-color="#0057B6"/>
<stop offset="1" stop-color="#5960EA"/>
</linearGradient>
<linearGradient id="paint1_linear" x1="3" y1="102" x2="123.545" y2="56.8326" gradientUnits="userSpaceOnUse">
<stop stop-color="#003399"/>
<stop offset="0.520833" stop-color="#0057B6"/>
<stop offset="1" stop-color="#5960EA"/>
</linearGradient>
</defs>
</svg>
