<svg width="115" height="103" viewBox="0 0 115 103" fill="none" xmlns="http://www.w3.org/2000/svg">
<circle cx="52" cy="52" r="50" fill="url(#paint0_linear)"/>
<mask id="mask0" mask-type="alpha" maskUnits="userSpaceOnUse" x="2" y="2" width="100" height="100">
<circle r="50" transform="matrix(-1 0 0 1 52 52)" fill="url(#paint1_linear)"/>
</mask>
<g mask="url(#mask0)">
<path d="M40.8152 32.5697C44.1835 22.3645 53.7911 15 65.1175 15H66.8822C78.2087 15 87.8163 22.3645 91.1846 32.5697C91.2044 32.6297 91.2183 32.6918 91.2262 32.7545L92.4555 42.5L92.4702 106C92.4704 106.552 92.0226 107 91.4702 107H40.5295C39.9772 107 39.5294 106.552 39.5295 106L39.5442 42.5L40.7736 32.7545C40.7815 32.6918 40.7953 32.6297 40.8152 32.5697Z" fill="#343D57"/>
<ellipse rx="30" ry="5.5" transform="matrix(-1 0 0 1 66 33.5)" fill="#414C6D"/>
<mask id="mask1" mask-type="alpha" maskUnits="userSpaceOnUse" x="39" y="15" width="54" height="92">
<path d="M40.8154 32.5697C44.1837 22.3645 53.7914 15 65.1178 15H66.8825C78.2089 15 87.8165 22.3645 91.1849 32.5697C91.2047 32.6297 91.2185 32.6918 91.2264 32.7545L92.4558 42.5L92.4705 106C92.4706 106.552 92.0229 107 91.4705 107H40.5298C39.9774 107 39.5296 106.552 39.5298 106L39.5445 42.5L40.7738 32.7545C40.7817 32.6918 40.7956 32.6297 40.8154 32.5697Z" fill="#343D57"/>
</mask>
<g mask="url(#mask1)">
<ellipse rx="25" ry="5.5" transform="matrix(-1 0 0 1 66 30.5)" fill="#343D57"/>
<rect width="30" height="92" transform="matrix(-1 0 0 1 96 11)" fill="#414C6D"/>
</g>
</g>
<path d="M65.9998 39C49.4312 39 35.9998 36.5376 35.9998 33.5V41C35.9998 44.0376 49.4312 46.5 65.9998 46.5C82.5683 46.5 95.9998 44.0376 95.9998 41V33.5C95.9998 36.5376 82.5683 39 65.9998 39Z" fill="#343D57"/>
<path d="M36.4998 41C36.4998 44.9765 49.712 47 65.9998 47" stroke="#414C6D"/>
<path d="M49.9998 19.8347C49.9998 21.6833 57.1632 24 65.9998 24C74.8363 24 81.9998 21.6833 81.9998 19.8347C81.9998 17.9862 74.8363 15 65.9998 15C57.1632 15 49.9998 17.9862 49.9998 19.8347Z" fill="#343D57"/>
<ellipse rx="13" ry="3.5" transform="matrix(-1 0 0 1 66 18.5)" fill="#414C6D"/>
<ellipse rx="6" ry="2" transform="matrix(-1 0 0 1 66 18)" fill="#343D57"/>
<path d="M61.9998 17C61.9998 17.5523 63.5668 18 65.4998 18C67.4328 18 68.9998 17.5523 68.9998 17C68.9998 16.4477 67.4328 16 65.4998 16C63.5668 16 61.9998 16.4477 61.9998 17Z" fill="#E0E8F0"/>
<path d="M7.5 87.5L80.5 87.5C91.5457 87.5 100.5 78.5457 100.5 67.5L100.5 14.5C100.5 8.97715 96.0228 4.5 90.5 4.5L73.5 4.5C69.0817 4.5 65.5 8.08172 65.5 12.5L65.5 16.5" stroke="#E0E8F0" stroke-width="5"/>
<path d="M2.87388 18.9877C2.31421 19.5499 2 20.3109 2 21.1042V59C2 60.6569 3.34315 62 5 62H39C40.6569 62 42 60.6569 42 59V13C42 11.3431 40.6569 10 39 10H13.0676C12.2696 10 11.5044 10.3179 10.9414 10.8835L2.87388 18.9877Z" fill="#F7F9FB"/>
<path d="M6 44H8V46H6V44Z" fill="#E0E8F0"/>
<path d="M27 53H15V55H27V53Z" fill="#D7DEE9"/>
<path d="M37 48H15V50H37V48Z" fill="#D7DEE9"/>
<path d="M37 43H15V45H37V43Z" fill="#D7DEE9"/>
<path d="M6 23H8V36H6V23Z" fill="#E0E8F0"/>
<path d="M6 39H8V42H6V39Z" fill="#E0E8F0"/>
<path d="M12 20V10L2 20H12Z" fill="#EB5757" stroke="#EB5757"/>
<path d="M20.8004 36.0398H25.2776V39H15V38.3152C17.1026 35.8704 18.6023 34.0884 19.4992 32.9691C20.4108 31.8351 21.021 30.9661 21.3298 30.3623C21.6532 29.7585 21.815 29.1915 21.815 28.6613C21.815 28.1458 21.6606 27.7334 21.3518 27.4242C21.043 27.1149 20.6387 26.9602 20.1388 26.9602C19.6242 26.9602 19.2051 27.1222 18.8817 27.4462C18.5729 27.7555 18.4185 28.1753 18.4185 28.7054V28.9705H15.2647V28.6613C15.2647 27.2916 15.7058 26.1723 16.588 25.3034C17.4702 24.4345 18.6391 24 20.0947 24C21.0357 24 21.8811 24.1988 22.631 24.5965C23.3809 24.9794 23.9616 25.5243 24.3733 26.2312C24.785 26.9381 24.9909 27.7334 24.9909 28.6171C24.9909 29.5596 24.7042 30.5538 24.1307 31.5994C23.5573 32.6451 22.4472 34.1252 20.8004 36.0398Z" fill="#0057B6"/>
<path d="M38 33.433V36.1723H36.7208V39H33.7655V36.1723H26.7299V35.62L31.56 24.3093H34.6697L30.766 33.433H33.8537L34.3609 29.9205H36.7208V33.433H38Z" fill="#0057B6"/>
<defs>
<linearGradient id="paint0_linear" x1="2" y1="102" x2="122.545" y2="56.8326" gradientUnits="userSpaceOnUse">
<stop stop-color="#003399"/>
<stop offset="0.520833" stop-color="#0057B6"/>
<stop offset="1" stop-color="#5960EA"/>
</linearGradient>
<linearGradient id="paint1_linear" x1="-5.59808e-07" y1="100" x2="120.545" y2="54.8326" gradientUnits="userSpaceOnUse">
<stop stop-color="#003399"/>
<stop offset="0.520833" stop-color="#0057B6"/>
<stop offset="1" stop-color="#5960EA"/>
</linearGradient>
</defs>
</svg>
