<svg width="113" height="103" viewBox="0 0 113 103" fill="none" xmlns="http://www.w3.org/2000/svg">
<circle cx="50" cy="52" r="50" fill="url(#paint0_linear)"/>
<mask id="mask0" mask-type="alpha" maskUnits="userSpaceOnUse" x="0" y="2" width="100" height="100">
<circle cx="50" cy="52" r="50" fill="url(#paint1_linear)"/>
</mask>
<g mask="url(#mask0)">
<path d="M59.5 130C89.5995 130 114 105.6 114 75.5C114 45.4005 89.5995 21 59.5 21C29.4005 21 5 45.4005 5 75.5C5 105.6 29.4005 130 59.5 130Z" fill="#0C6EDA"/>
<path d="M42.1603 33.4594C42.131 33.4814 42.131 33.4814 40.8174 34.1345C39.9222 34.5748 39.4379 35.492 38.638 36.0351C37.9556 36.4974 37.1778 36.8349 36.554 37.3853C35.6294 38.1998 35.0424 39.3299 34.0884 40.1224C33.7582 40.3939 33.1858 40.7461 32.364 40.8562C30.1332 41.1571 30.0451 41.1644 28.9297 42.0229C28.35 42.4632 27.8217 42.9769 27.2053 43.6153C26.7356 44.0996 26.5522 44.217 26.288 44.217C25.9138 43.0209 27.4474 41.069 28.3941 40.005C29.6635 38.5814 31.1165 37.3266 32.3566 35.8736C33.1712 34.9197 33.5014 34.2886 33.3473 33.9877C33.2225 33.7456 33.1491 33.6061 33.5747 33.2172C34.1618 32.6815 36.6641 31.3167 37.5153 31.6689C38.9095 32.2413 40.2084 31.0672 41.5879 31.4414C42.3291 31.823 41.1183 32.5274 41.0596 33.1292C41.5146 33.5621 41.9402 32.9897 42.3951 33.0044C42.4098 33.0264 42.4245 33.0558 42.4392 33.0705C42.3951 33.2246 42.3878 33.2613 42.1603 33.4594Z" fill="#F7F9FB"/>
<path d="M36.1286 41.5964C35.9451 41.8166 35.9451 41.8166 33.8022 42.3596C33.8242 42.3156 33.8389 42.2716 33.8609 42.2275C33.7141 42.1541 33.7141 42.1541 33.6407 41.7505C34.1471 41.3542 34.1471 41.3542 34.492 41.1928C35.4461 40.7525 35.4681 40.7598 35.6809 40.8112C36.0112 40.9359 36.4148 41.2515 36.1286 41.5964Z" fill="#F7F9FB"/>
<path d="M48.5665 61.5646C48.4858 61.7701 48.2143 61.8288 48.0015 61.8215C47.3704 61.7921 46.7833 61.5353 46.1596 61.4619C45.2937 61.3592 44.4498 61.1537 43.5839 61.0877C43.3124 61.0657 43.0703 61.2124 42.8061 61.2051C42.3144 61.117 42.6006 58.9523 43.8408 58.0791C44.0609 57.925 44.7434 57.8222 44.8167 57.8222C46.1449 57.8149 46.1449 57.8149 46.233 57.7195C46.3871 57.5507 46.3284 57.1545 46.6513 57.1838C46.7173 57.1911 47.2897 57.2719 47.1649 58.057C47.0769 58.6074 46.6953 59.1137 46.9008 59.7154C46.9668 59.9062 46.9668 59.9062 47.9281 60.2952C48.8527 60.6547 48.6472 61.3592 48.5665 61.5646ZM58.1794 63.3992C58.062 64.742 56.4696 64.4632 56.2348 64.1477C56.1541 64.0376 56.1541 63.8908 56.0734 63.7808C56.0587 63.7587 56.022 63.7147 55.8752 63.678C55.4203 63.5679 54.98 63.7294 54.5324 63.7221C53.4904 63.6633 54.3563 62.6654 54.4663 62.57C55.3616 61.8362 55.3616 61.8362 55.3983 61.5353C55.457 61.0363 55.3763 60.8088 54.7378 60.3539C53.5931 59.532 53.5931 59.532 53.5344 59.3192C53.3363 58.5634 53.5637 57.3232 53.7986 56.7582C53.9086 56.4867 54.1728 55.8556 55.7138 56.2445C56.9833 56.5674 56.9539 57.1104 56.9319 57.5507C56.9026 58.1157 56.5797 58.0717 55.9046 57.8296C55.1855 57.5801 54.8626 57.4993 54.8112 58.3359C54.7892 58.6514 54.8112 58.6808 54.9947 58.967C55.457 59.6861 56.4623 59.6201 56.9466 60.3098C57.3282 60.8382 56.7925 61.4913 57.1667 62.0196C57.2255 62.1077 57.4749 62.2618 57.607 62.3425C58.1134 62.6654 58.2308 62.7461 58.1794 63.3992ZM45.1323 43.4322C44.5526 44.5843 42.6447 44.144 42.4025 45.6997C42.3658 45.9125 42.4979 46.0079 42.7327 46.162C43.0116 46.3381 43.3931 46.5803 42.674 47.7837C42.3878 48.2607 41.8962 48.8624 41.8888 48.8697C39.9296 51.1519 38.4399 51.2326 38.4253 51.2326C37.8896 51.0712 38.029 49.5522 39.005 49.0018C40.0103 48.4441 40.069 48.4074 40.5019 47.1306C41.3458 44.665 41.3605 44.6137 42.6813 43.7918C43.129 43.5129 45.4918 42.1994 45.279 43.0433C45.2644 43.1314 45.2057 43.2928 45.1323 43.4322ZM93.3069 37.6351C92.03 36.4464 89.902 36.5638 89.6672 36.5858C87.6199 36.7399 86.3944 38.6404 84.4645 39.044C82.9088 39.3743 81.4705 38.4497 79.9295 38.6331C79.68 38.5304 79.2911 38.5157 79.0269 38.5891C78.9829 38.6918 78.9829 38.6918 78.9609 40.5117C78.8361 40.5704 78.6747 40.6511 78.5499 40.7024C77.6841 40.3429 77.031 39.5871 76.0697 39.4036C75.8275 39.3596 75.8275 39.3596 71.5568 39.998C69.7149 40.2768 68.6362 38.2515 66.8163 38.4497C66.244 38.5671 61.2174 39.6898 61.6723 42.603C61.8631 43.8358 61.8778 43.9092 60.9459 44.2688C60.7991 44.1954 60.6083 44.1073 60.4689 44.0339C59.8085 40.3942 59.8085 40.3942 58.7738 40.585C58.2528 41.4509 58.6931 42.3682 58.6344 43.2561C58.517 43.3295 58.3849 43.4983 58.2454 43.5056C58.0693 43.5203 57.8419 43.535 57.6731 43.535C56.587 43.5716 55.8092 42.603 54.7232 42.6397C53.6518 42.6764 53.0868 44.0119 51.8907 43.7404C51.9053 43.4175 51.9273 42.9919 51.9494 42.6691C51.8173 42.6544 51.6412 42.6397 51.5091 42.625C48.6472 45.619 48.6472 45.619 46.4825 44.7678C46.4972 44.4816 46.6219 44.0853 46.7907 43.8578C49.8947 43.8578 49.8947 43.8578 50.2469 43.4469C48.7133 38.2809 38.4619 42.104 36.3853 45.4722C36.3045 45.6043 36.2238 45.7951 36.1504 45.9272C36.2532 46.1106 36.3926 46.3528 36.4953 46.5362C36.2385 47.8277 36.2385 47.8277 36.1945 48.2167C36.6348 48.3121 36.6348 48.3121 37.5227 47.8571C37.6621 47.9011 37.8455 47.9672 37.985 48.0112C37.7575 49.7356 37.2071 50.0218 36.9356 50.1539C35.1158 49.3834 34.6315 49.1779 33.2666 50.6089L33.0171 49.6843C33.6261 48.5469 34.903 46.1767 32.7456 45.6336C32.2392 46.1547 32.2319 47.0132 31.5495 47.4095C30.4414 47.6663 30.0231 48.0039 29.0545 49.1266C28.4601 50.0072 28.4601 50.0072 28.4675 50.5208C28.9004 50.6236 29.5021 50.4254 29.9204 50.286C30.0672 50.3007 30.258 50.3154 30.4047 50.33C30.4267 50.5282 30.4267 50.5282 28.9664 53.9184C29.0618 54.0211 29.1939 54.1532 29.2893 54.2486C29.0325 54.8283 28.9958 54.9163 28.5262 55.5841C22.553 52.8984 23.5656 58.6955 23.595 58.7615C24.3728 60.6621 28.5775 61.2931 30.6542 56.5894C31.5861 56.6922 31.5861 56.6922 33.4574 55.7602C33.5528 56.4133 33.2592 57.0737 33.4574 57.7268C33.8023 58.8642 35.6661 59.3706 34.9984 60.8895C33.7289 60.4713 33.7289 60.4713 33.6995 60.4713C33.2299 62.7387 35.923 61.7041 35.9597 61.66C36.3339 61.1757 36.2018 60.574 36.3632 60.0383C36.4953 59.9943 36.6788 59.9429 36.8109 59.8989C37.0017 58.1084 34.5287 57.2719 35.1671 55.3199C38.8582 54.0725 36.3119 60.8822 38.7481 62.7681C39.8709 61.8141 39.6654 60.0016 41.0596 59.2238C41.2064 59.2752 41.4045 59.3412 41.5586 59.3926C41.2798 63.0396 41.2504 63.4212 43.4078 63.4652C45.3964 63.5092 46.9741 63.5386 46.6806 65.8134C46.2183 69.4311 41.5953 68.6532 40.524 67.4351C40.3772 67.2663 36.8402 63.2598 36.5761 66.1803C36.5467 66.4738 36.5394 66.8628 36.4953 67.1563C36.3633 67.2076 36.1871 67.281 36.055 67.3324L31.7329 64.8668C30.8817 63.5386 32.2979 62.4232 32.0705 61.1537C31.2486 60.7061 22.6263 60.8382 22.575 60.8602L16.5944 67.3251C16.5871 67.3324 15.9854 68.3817 15.6698 69.6439C15.7872 69.7393 15.9487 69.8714 16.0661 69.9741C16.0221 72.2856 14.4957 74.2375 14.4737 76.5564C14.4664 77.1948 14.9654 79.4623 15.9413 81.5316C18.5977 87.1453 22.641 84.3641 22.8098 84.2394C24.2627 84.5476 24.2627 84.5476 25.4809 86.0519C27.7116 86.6169 28.1739 86.7343 28.3721 87.1306C29.1866 88.745 27.7557 90.2126 28.0712 91.7903C28.5775 94.3072 30.7643 95.8923 31.6155 98.2184C32.2319 99.9135 30.4121 101.132 30.7276 102.768C31.0358 104.346 32.7602 105.109 33.0171 106.716C33.3473 108.8 35.8789 114.245 38.1391 114.7C42.6226 115.61 43.6133 110.429 47.0842 109.57C47.1429 107.875 47.1429 107.875 49.4691 104.896C50.9514 103.003 49.7846 99.7081 49.3957 98.7394C48.2436 95.9069 48.2436 95.9069 51.9934 93.1478C52.0668 93.0964 58.9793 87.7029 58.9572 83.7844C56.2348 81.6417 53.5124 86.5215 50.8046 83.7991C47.1649 80.13 43.628 71.5665 45.9908 70.7299C48.8233 72.2563 51.1422 78.1267 51.0468 79.8732C50.922 82.104 52.4337 82.603 52.4483 82.603C55.4643 83.4689 63.5949 77.6791 63.2574 75.6905C63.228 75.529 63.1326 75.3236 63.0812 75.1621C53.5197 71.5078 52.0521 70.9501 54.5764 68.4038C54.936 68.0442 55.6184 68.279 55.9486 68.3891C56.3669 69.3577 56.0514 70.6199 57.1154 71.339C61.731 74.4577 67.6676 70.9941 72.2319 74.3623C72.6648 74.6852 72.7602 75.1034 72.7088 76.4243C72.4447 83.0726 76.9502 85.9858 76.9943 86.0078C77.5666 86.3381 78.6307 86.9545 79.5112 84.2981C80.5899 81.0473 77.7648 76.7545 81.9548 74.3403C86.277 71.8527 90.5111 75.6171 91.3916 77.459C92.6538 80.1007 91.2008 83.1827 92.7492 85.7804C91.6118 85.0025 89.8506 85.1346 90.3936 87.6809C90.401 87.7103 91.0541 90.5428 95.8605 93.977C95.8605 94.1091 95.8532 94.2852 95.8532 94.4173C95.5523 94.5127 95.1707 94.6741 94.9066 94.8429C94.4736 97.5287 98.2381 96.8022 99.8524 95.5694C101.063 94.6521 100.983 93.9917 100.938 93.5954C100.667 93.39 100.667 93.39 97.152 93.8449C96.9686 93.5587 96.631 93.0377 97.086 91.9884C98.8838 92.5387 98.6563 90.6382 98.5609 90.3593C98.5169 90.2272 98.3775 90.0878 98.3041 89.9778C95.1487 90.3813 95.1487 90.3813 95.0166 89.6549C95.0607 89.5081 95.1194 89.31 95.1634 89.1632C95.8018 89.1486 96.4256 89.4714 97.0787 89.2439C99.0966 84.5916 90.6211 83.3221 93.3069 78.8532C94.6791 79.4109 94.4589 81.9866 96.3889 81.6564C96.4182 81.649 99.0966 80.8418 98.0473 78.0387C97.1814 75.7345 93.1895 74.0614 95.2148 71.2289C95.3909 71.2509 95.633 71.2803 95.8092 71.3023C96.3522 72.2856 96.4329 73.5184 97.4015 74.2742C98.4509 73.2469 96.7411 71.9774 97.6877 70.9354C98.5243 70.0181 99.8084 69.5558 100.373 68.3524C100.535 68.0075 100.755 67.5305 100.77 67.1563C100.858 64.3678 98.6123 62.7681 97.7684 62.1664C96.6017 61.3372 94.8405 60.0824 94.4369 57.1251C96.7778 54.9824 99.4709 61.9609 100.872 59.1137C99.9772 56.927 96.8438 56.7949 96.3815 54.2119C96.8658 53.7936 97.5116 53.8963 98.0546 53.6835C98.1207 51.2033 95.1487 50.5795 94.8112 48.3487C94.8772 48.3634 94.8772 48.3634 96.4843 49.4054C96.521 48.6423 94.5764 46.3601 92.8299 47.0866C89.9093 48.3047 89.3883 44.2101 89.3883 44.166C91.8686 44.6137 91.8686 44.6137 92.3603 43.9459C92.1841 42.9332 91.7292 41.9793 91.8246 40.9153C94.591 42.038 95.1267 45.8024 98.3114 46.4335C98.8031 43.4249 95.0607 43.5937 93.6738 41.9279C93.7472 41.8105 93.8425 41.6491 93.9159 41.5243C94.1728 41.4803 94.503 41.3262 94.6938 41.1501C93.8205 39.998 93.8205 39.998 93.7912 39.9466C93.8572 39.8292 93.9379 39.6678 94.004 39.5504C93.4683 39.1908 92.8226 39 92.3529 38.5377C92.4336 38.4276 92.5437 38.2809 92.6244 38.1781C92.9106 38.2222 93.2922 38.2515 93.5784 38.2368C93.527 38.0607 93.4463 37.7892 93.3069 37.6351Z" fill="#F7F9FB"/>
<path d="M104.586 83.395C104.557 84.0995 104.439 84.8627 104.351 85.1709C104.256 85.4938 103.984 85.7287 103.874 86.0442C103.537 86.9983 103.551 88.055 102.957 88.921C102.421 89.6989 100.836 89.9924 100.344 89.5595C99.4562 88.7669 99.1553 86.5066 99.5296 85.2076C100.014 83.5271 101.724 82.8592 102.59 81.4869C102.979 80.8704 102.986 80.731 103.038 79.9311C103.052 79.6449 103.082 79.2926 103.162 79.1679C103.228 79.0578 103.324 79.0138 103.412 78.9771C103.515 78.9477 103.661 78.9037 103.705 79.0798C103.808 79.4614 103.72 79.8724 103.867 80.254C103.926 80.4081 103.926 80.4154 104.087 80.4301C104.219 80.4375 104.307 80.4448 104.395 80.8851C104.491 81.3548 104.637 82.0813 104.586 83.395Z" fill="#F7F9FB"/>
<path d="M107.931 100.39C105.833 104.61 101.129 111.214 99.2872 111.383C99.2652 111.353 99.2358 111.317 99.2065 111.295C99.544 110.187 100.586 109.394 100.645 108.154C100.359 108.037 100.072 108.169 98.2745 109.24C98.1204 109.328 97.915 109.445 97.7682 109.541C97.4307 109.754 97.3646 109.798 96.1612 110.73C94.356 112.131 93.1526 112.96 92.7196 112.733C92.7343 112.63 92.7563 112.417 93.1599 111.889C93.5928 111.317 94.2606 111.001 94.6936 110.436C96.1098 108.572 96.0658 106.055 97.4894 104.199C98.7368 102.577 99.8009 102.298 100.153 102.21C100.872 102.027 101.525 101.021 102.956 98.5924C103.323 97.976 103.874 97.0367 104.189 96.7065C104.431 96.457 105.04 95.8626 105.481 95.8186C105.503 95.8406 105.539 95.87 105.561 95.892C105.517 96.2148 105.187 96.4864 105.378 96.8533C105.825 96.6845 106.024 96.2882 106.845 94.329C107.366 93.0888 107.462 92.9421 108.034 92.5605C108.981 92.0101 109.406 92.5531 109.282 93.1622C109.252 93.2943 108.775 94.5051 108.467 94.6738C108.401 94.6518 108.32 94.6151 108.254 94.5931C107.873 94.7913 107.55 96.6698 107.741 96.7579C108.607 97.1688 109.084 95.2095 109.59 93.1402C110.023 91.3864 110.126 91.1883 110.426 91.0488C110.815 91.6139 109.531 97.1615 107.931 100.39Z" fill="#F7F9FB"/>
<path d="M82.0061 86.5135C82.0061 86.8731 81.94 87.7611 81.4336 88.2528C80.9786 88.6931 79.8705 89.3389 79.4669 88.9573C79.4595 88.9499 78.7843 88.128 79.1146 87.1299C79.232 86.7703 79.687 85.5888 80.6117 85.4714C82.0134 85.3686 82.0134 85.9484 82.0061 86.5135Z" fill="#F7F9FB"/>
<path d="M57.7834 103.59C57.776 103.619 57.3137 106.569 55.1047 109.226C53.8498 110.738 53.8498 110.738 53.8278 110.76C53.4682 111.274 53.5049 112.022 52.8811 112.382C52.2793 112.727 51.2959 111.413 51.2886 111.406C50.8483 110.797 50.9437 109.784 50.9437 109.776C51.0611 108.654 52.5655 108.522 52.6683 107.384C52.6829 107.237 52.3233 106.958 52.2059 106.863C51.2005 106.07 51.3546 105.021 51.3913 104.823C51.4867 104.36 51.7436 104.353 52.0225 104.39C52.7783 104.485 53.4021 105.146 54.2388 104.911C54.6571 104.793 54.8846 104.067 55.068 103.48C55.501 102.107 55.6845 101.843 56.7927 101.829C57.1596 101.836 58.0182 101.865 57.7834 103.59Z" fill="#F7F9FB"/>
<path d="M9.08732 91.4224C9.60098 95.2896 10.078 98.9366 12.3895 102.936C12.4482 103.039 12.5215 103.171 12.5802 103.273C11.4502 101.189 10.0266 98.3569 9.05063 96.1922C7.14272 90.9674 7.06934 90.762 6.35021 87.6433C5.42561 82.6534 5.17611 81.3105 5 75.4401L5.06604 72.7983C4.92662 80.1071 6.59237 84.5246 6.60704 84.5613C6.64373 84.6347 6.64373 84.6347 6.64373 84.6347C8.38286 86.9388 8.95523 90.4098 9.08732 91.4224Z" fill="#F7F9FB"/>
<path d="M19.8962 48.0404C19.2578 48.8696 18.9056 48.8402 18.6634 48.8182C17.7535 47.3799 20.4319 45.5014 18.6634 44.5034C15.9557 45.8096 17.5333 50.8508 13.7249 50.8875C13.7029 50.8582 13.7029 50.8582 13.6735 49.3832C13.358 49.4273 12.925 49.486 11.5895 52.9642C11.406 53.4412 11.2079 53.5513 11.0832 53.6246C10.907 53.4632 10.8924 53.4559 10.9584 52.7C10.2099 53.0816 8.53684 56.1489 8.09656 57.3817C10.1659 52.1864 10.2026 52.0836 11.6775 49.3759C14.466 44.7162 14.5761 44.5327 16.5794 41.9497C19.8889 38.0312 20.1604 37.7157 22.692 35.3528C26.2143 32.3368 26.7573 31.8745 30.0228 29.6951C32.481 28.2128 35.0274 26.6792 38.8285 25.0941L40.5603 24.419C41.1327 24.2136 41.3968 24.1402 41.4849 24.1182C38.6891 25.4757 35.6731 26.3343 32.9874 27.934C33.6845 27.6258 33.6845 27.6258 33.8239 27.5817C31.9747 29.0053 29.6779 29.7465 27.9681 31.3902C28.1956 31.3022 28.4157 31.1848 28.6432 31.0894C28.2763 31.7645 27.4911 31.9919 27.0435 32.5863C27.271 32.5276 27.271 32.5276 27.6673 32.2268C29.1202 31.1481 29.7439 30.9793 29.7513 30.9793C29.7733 31.0307 29.7953 31.104 29.8173 31.1554C29.4064 31.625 28.9294 32.036 28.5332 32.5203C28.7826 32.5937 28.7826 32.5937 29.8026 31.9993C32.2976 30.5463 32.6205 30.4363 32.9654 30.3702C32.9433 30.6124 32.7599 30.7885 32.7012 31.0233C33.0314 31.2214 33.0387 31.2361 33.9487 30.7665C36.7004 29.3429 38.5643 28.8512 39.4963 29.2989C39.4522 29.3502 39.4009 29.4309 39.3422 29.4676C37.1921 30.9426 34.5577 31.1187 32.2242 32.102C30.0595 33.0119 30.3163 35.8811 28.3277 36.9378C27.9975 37.1139 26.8454 36.4902 26.8674 36.0279C26.8894 35.5362 27.315 35.1913 27.3444 34.707C26.0015 34.1347 20.0577 38.4862 20.5787 39.6603C20.7328 40.0125 20.8575 40.1226 22.2224 39.242C23.5873 38.3614 23.9468 38.1633 24.3578 38.2C24.3578 38.2733 24.3725 38.3761 24.3651 38.4495C24.3431 38.9925 23.7561 39.2713 23.7267 39.8144C23.7047 40.3133 24.5119 40.4895 24.2477 41.0765C24.1963 41.1939 24.1083 41.3333 24.0422 41.4434C23.235 42.7496 22.0243 43.7402 21.2171 45.0464C20.6814 45.8976 20.6153 46.947 20.0797 47.7982C20.0283 47.8642 19.9549 47.967 19.8962 48.0404Z" fill="#F7F9FB"/>
</g>
<path d="M56.5 32.5C56.5 33.8338 55.9166 35.6307 54.9845 37.6254C54.0601 39.6036 52.823 41.7142 51.5791 43.6548C50.3362 45.5937 49.0925 47.3538 48.159 48.6296C47.6924 49.2673 47.3038 49.7834 47.0321 50.1398C47.0212 50.154 47.0105 50.1681 47 50.1818C46.9895 50.1681 46.9788 50.154 46.9679 50.1398C46.6962 49.7834 46.3076 49.2673 45.841 48.6296C44.9075 47.3538 43.6638 45.5937 42.4209 43.6548C41.177 41.7142 39.9399 39.6036 39.0155 37.6254C38.0834 35.6307 37.5 33.8338 37.5 32.5C37.5 26.9539 41.776 22.5 47 22.5C52.224 22.5 56.5 26.9539 56.5 32.5Z" fill="#EB5757" stroke="#EB5757"/>
<path d="M21.5 35.9828C21.5 36.4105 21.2961 37.0361 20.9265 37.7861C20.5656 38.5185 20.0794 39.306 19.5858 40.0362C19.0933 40.7647 18.5999 41.4269 18.2291 41.9074C18.146 42.0151 18.0692 42.1136 18 42.2015C17.9308 42.1136 17.854 42.0151 17.7709 41.9074C17.4001 41.4269 16.9067 40.7647 16.4142 40.0362C15.9206 39.306 15.4344 38.5185 15.0735 37.7861C14.7039 37.0361 14.5 36.4105 14.5 35.9828C14.5 34.0613 16.065 32.5 18 32.5C19.935 32.5 21.5 34.0613 21.5 35.9828Z" fill="#EB5757" stroke="#EB5757"/>
<path d="M93.5 64.9828C93.5 65.4105 93.2961 66.0361 92.9265 66.7861C92.5656 67.5185 92.0794 68.306 91.5858 69.0362C91.0933 69.7647 90.5999 70.4269 90.2291 70.9074C90.146 71.0151 90.0692 71.1136 90 71.2015C89.9308 71.1136 89.854 71.0151 89.7709 70.9074C89.4001 70.4269 88.9067 69.7647 88.4142 69.0362C87.9206 68.306 87.4344 67.5185 87.0735 66.7861C86.7039 66.0361 86.5 65.4105 86.5 64.9828C86.5 63.0613 88.065 61.5 90 61.5C91.935 61.5 93.5 63.0613 93.5 64.9828Z" fill="#EB5757" stroke="#EB5757"/>
<path d="M68.5 62.9828C68.5 63.4105 68.2961 64.0361 67.9265 64.7861C67.5656 65.5185 67.0794 66.306 66.5858 67.0362C66.0933 67.7647 65.5999 68.4269 65.2291 68.9074C65.146 69.0151 65.0692 69.1136 65 69.2015C64.9308 69.1136 64.854 69.0151 64.7709 68.9074C64.4001 68.4269 63.9067 67.7647 63.4142 67.0362C62.9206 66.306 62.4344 65.5185 62.0735 64.7861C61.7039 64.0361 61.5 63.4105 61.5 62.9828C61.5 61.0613 63.065 59.5 65 59.5C66.935 59.5 68.5 61.0613 68.5 62.9828Z" fill="#EB5757" stroke="#EB5757"/>
<path d="M21.5 71.9828C21.5 72.4105 21.2961 73.0361 20.9265 73.7861C20.5656 74.5185 20.0794 75.306 19.5858 76.0362C19.0933 76.7647 18.5999 77.4269 18.2291 77.9074C18.146 78.0151 18.0692 78.1136 18 78.2015C17.9308 78.1136 17.854 78.0151 17.7709 77.9074C17.4001 77.4269 16.9067 76.7647 16.4142 76.0362C15.9206 75.306 15.4344 74.5185 15.0735 73.7861C14.7039 73.0361 14.5 72.4105 14.5 71.9828C14.5 70.0613 16.065 68.5 18 68.5C19.935 68.5 21.5 70.0613 21.5 71.9828Z" fill="#EB5757" stroke="#EB5757"/>
<circle cx="47" cy="31" r="6" fill="white"/>
<defs>
<linearGradient id="paint0_linear" x1="-5.59808e-07" y1="102" x2="120.545" y2="56.8326" gradientUnits="userSpaceOnUse">
<stop stop-color="#003399"/>
<stop offset="0.520833" stop-color="#0057B6"/>
<stop offset="1" stop-color="#5960EA"/>
</linearGradient>
<linearGradient id="paint1_linear" x1="-5.59808e-07" y1="102" x2="120.545" y2="56.8326" gradientUnits="userSpaceOnUse">
<stop stop-color="#003399"/>
<stop offset="0.520833" stop-color="#0057B6"/>
<stop offset="1" stop-color="#5960EA"/>
</linearGradient>
</defs>
</svg>
