<svg width="113" height="103" viewBox="0 0 113 103" fill="none" xmlns="http://www.w3.org/2000/svg">
<circle cx="50" cy="52" r="50" fill="url(#paint0_linear)"/>
<path d="M97.4444 40H53V70.1491C53 72.8023 55.5 74.973 58.5556 74.973H78.4167L88.1389 83.6559C88.9722 84.3795 90 84.0854 90 83V74.973H97.4444C100.5 74.973 103 72.8023 103 70.1491V44.8239C103 42.1707 100.5 40 97.4444 40Z" fill="#EBF0F5"/>
<path d="M73.3672 61.1475C73.3672 59.9118 73.5068 58.9385 73.7861 58.2275C74.0654 57.5081 74.5182 56.8861 75.1445 56.3613C75.7708 55.8366 76.2448 55.3584 76.5664 54.9268C76.8965 54.4867 77.0615 54.0042 77.0615 53.4795C77.0615 52.2015 76.5114 51.5625 75.4111 51.5625C74.9033 51.5625 74.4928 51.7487 74.1797 52.1211C73.8665 52.4935 73.7015 52.9971 73.6846 53.6318H69.3936C69.4105 51.9391 69.9437 50.623 70.9932 49.6836C72.0426 48.7357 73.5153 48.2617 75.4111 48.2617C77.2985 48.2617 78.7585 48.6976 79.791 49.5693C80.832 50.4411 81.3525 51.681 81.3525 53.2891C81.3525 53.9915 81.2129 54.6305 80.9336 55.2061C80.6543 55.7816 80.2057 56.3698 79.5879 56.9707L78.1279 58.3291C77.7132 58.7269 77.4255 59.1374 77.2646 59.5605C77.1038 59.9753 77.015 60.5042 76.998 61.1475H73.3672ZM72.8467 65.0068C72.8467 64.3805 73.071 63.8685 73.5195 63.4707C73.9766 63.0645 74.5436 62.8613 75.2207 62.8613C75.8978 62.8613 76.4606 63.0645 76.9092 63.4707C77.3662 63.8685 77.5947 64.3805 77.5947 65.0068C77.5947 65.6331 77.3662 66.1494 76.9092 66.5557C76.4606 66.9535 75.8978 67.1523 75.2207 67.1523C74.5436 67.1523 73.9766 66.9535 73.5195 66.5557C73.071 66.1494 72.8467 65.6331 72.8467 65.0068ZM87.7002 61.1475H84.2344L83.6885 48.5156H88.2461L87.7002 61.1475ZM83.5615 65.083C83.5615 64.4567 83.7858 63.9447 84.2344 63.5469C84.6914 63.1406 85.2585 62.9375 85.9355 62.9375C86.6126 62.9375 87.1755 63.1406 87.624 63.5469C88.0811 63.9447 88.3096 64.4567 88.3096 65.083C88.3096 65.7093 88.0811 66.2256 87.624 66.6318C87.1755 67.0296 86.6126 67.2285 85.9355 67.2285C85.2585 67.2285 84.6914 67.0296 84.2344 66.6318C83.7858 66.2256 83.5615 65.7093 83.5615 65.083Z" fill="#EB5757"/>
<path d="M23.4444 15H64.5556C67 15 69 16.9541 69 19.3425V46.4831C69 48.8714 67 50.8256 64.5556 50.8256H37.5556L29.7778 58.642C29.1111 59.402 27.8889 58.8592 27.8889 57.8821V50.8256H23.4444C21 50.8256 19 48.8714 19 46.4831V19.3425C19 16.9541 21 15 23.4444 15Z" fill="#0C6EDA"/>
<path fill-rule="evenodd" clip-rule="evenodd" d="M58 31.0746V34.1447C58 34.693 57.5284 35.3509 56.7031 35.1316H54.9345C54.4629 35.1316 53.9913 35.3509 53.8734 35.7895C53.7555 36.1184 53.6376 36.3377 53.5197 36.557C53.2838 36.9956 53.4017 37.4342 53.7555 37.7632L54.9345 38.8596C55.4061 39.2982 55.4061 39.8465 54.9345 40.2851L52.6943 42.3684C52.2227 42.807 51.6332 42.807 51.1616 42.3684L49.9825 41.2719C49.7467 40.943 49.2751 40.8333 48.8035 41.0526C48.5677 41.1623 48.3319 41.2719 47.9782 41.3816C47.6245 41.6009 47.3886 41.9298 47.3886 42.3684V44.0132C47.3886 44.5614 46.6812 45 46.0917 45H42.7904C42.2009 45 41.4934 44.5614 41.4934 44.0132V42.3684C41.4934 41.9298 41.3755 41.4912 40.9039 41.3816C40.7271 41.3268 40.6092 41.2719 40.4913 41.2171C40.3734 41.1623 40.2555 41.1075 40.0786 41.0526C39.607 40.943 39.1354 40.943 38.7817 41.2719L37.6026 42.4781C37.131 42.9167 36.5415 42.9167 36.0699 42.4781L33.8297 40.3947C33.3581 39.9561 33.3581 39.4079 33.8297 38.9693L35.0087 37.8728C35.3624 37.6535 35.4803 37.2149 35.2445 36.7763C35.1266 36.557 35.0087 36.3377 34.8908 36.0088C34.655 35.5702 34.3013 35.3509 33.8297 35.3509H32.0611C31.4716 35.3509 31 34.693 31 34.1447V31.0746C31 30.5263 31.4716 29.8684 32.0611 29.8684H33.8297C34.3013 29.8684 34.7729 29.7588 34.8908 29.3202C34.9498 29.1557 35.0087 29.0461 35.0677 28.9364C35.1266 28.8268 35.1856 28.7171 35.2445 28.5526C35.3624 28.114 35.3624 27.6754 35.0087 27.3465L33.8297 26.1404C33.3581 25.7018 33.3581 25.1535 33.8297 24.7149L36.1878 22.5219C36.6594 22.0833 37.2489 22.0833 37.7205 22.5219L38.8996 23.6184C39.1354 23.9474 39.607 24.057 40.0786 23.8377C40.3144 23.7281 40.5502 23.6184 40.9039 23.5088C41.2576 23.2895 41.4934 22.9605 41.4934 22.5219V20.9868C41.4934 20.4386 42.2009 20 42.7904 20H46.0917C46.6812 20 47.3886 20.4386 47.3886 20.9868V22.5219C47.3886 22.9605 47.5065 23.3991 47.9782 23.5088C48.155 23.5636 48.2729 23.6184 48.3908 23.6732C48.5087 23.7281 48.6266 23.7829 48.8035 23.8377C49.2751 23.9474 49.7467 23.9474 50.1004 23.6184L51.2795 22.5219C51.7511 22.0833 52.3406 22.0833 52.8122 22.5219L55.1703 24.7149C55.6419 25.1535 55.6419 25.7018 55.1703 26.1404L53.9913 27.2368C53.6376 27.5658 53.5197 28.0044 53.7555 28.443C53.8144 28.6075 53.8734 28.7445 53.9323 28.8816C53.9913 29.0186 54.0502 29.1557 54.1092 29.3202C54.2271 29.6491 54.6987 29.8684 55.1703 29.8684H56.9389C57.5284 29.8684 58 30.5263 58 31.0746ZM44.5 36.6667C46.8139 36.6667 48.6897 34.8012 48.6897 32.5C48.6897 30.1988 46.8139 28.3333 44.5 28.3333C42.1861 28.3333 40.3103 30.1988 40.3103 32.5C40.3103 34.8012 42.1861 36.6667 44.5 36.6667Z" fill="white"/>
<path d="M49.3015 79.0833C46.4681 75.6481 41.0206 72.4703 36.6645 71.7706C35.1748 72.6149 32.0893 74.9638 30.9532 76.1358C22.538 72.8877 15.5769 58.9014 15.0582 52.8581C16.6163 52.4311 20.2345 50.9805 21.6135 49.9829C23.2375 45.7738 23.1572 39.53 21.5283 35.3402C19.0838 34.5412 12.7265 33.6554 7.76704 35.026C3.4092 60.4686 14.3235 85.249 43.9604 90.4161C47.522 86.7892 48.8773 81.7242 49.3015 79.0833Z" fill="white"/>
<mask id="mask0" mask-type="alpha" maskUnits="userSpaceOnUse" x="6" y="34" width="44" height="57">
<path d="M49.3015 79.0833C46.4681 75.6481 41.0206 72.4703 36.6645 71.7706C35.1748 72.6149 32.0893 74.9638 30.9532 76.1358C22.538 72.8877 15.5769 58.9014 15.0582 52.8581C16.6163 52.4311 20.2345 50.9805 21.6135 49.9829C23.2375 45.7738 23.1572 39.53 21.5283 35.3402C19.0838 34.5412 12.7265 33.6554 7.76704 35.026C3.4092 60.4686 14.3235 85.249 43.9604 90.4161C47.522 86.7892 48.8773 81.7242 49.3015 79.0833Z" fill="white"/>
</mask>
<g mask="url(#mask0)">
<path d="M11.3712 50.3972L23.4885 44.9362L30.0625 59.5233L30.457 76.5998L26.8427 77.032L16.0076 65.6697L11.3712 50.3972Z" fill="#E0E8F0"/>
<path d="M20.32 86.1123C16.9138 79.9946 12.0337 66.4492 15.8848 72.7396C21.197 81.4167 42.0236 86.5603 42.0236 86.5603L45.6816 79.5516L52.355 82.1429C50.2132 86.019 45.7161 93.838 44.8628 94.1061C44.0094 94.3741 28.1453 88.8886 20.32 86.1123Z" fill="#D7DEE9"/>
</g>
<path d="M43.8162 88.7708C57.5 77.9995 67.486 95.5 60.4998 95.5002C47.9861 95.5006 71.9999 72.4994 79.8445 91.1816" stroke="#003399" stroke-width="2"/>
<defs>
<linearGradient id="paint0_linear" x1="-5.59808e-07" y1="102" x2="120.545" y2="56.8326" gradientUnits="userSpaceOnUse">
<stop stop-color="#003399"/>
<stop offset="0.520833" stop-color="#0057B6"/>
<stop offset="1" stop-color="#5960EA"/>
</linearGradient>
</defs>
</svg>
