<svg xmlns="http://www.w3.org/2000/svg" width="280.97" height="19" viewBox="0 0 280.97 19" class="header-logo__desktop" fill="#003399">
  <defs>
    <style>
      .cls-1 {
        fill-rule: evenodd;
      }
    </style>
  </defs>
  <title>logo-ru</title>
  <g id="Layer_2" data-name="Layer 2">
    <g id="_1" data-name="1">
      <g>
        <path class="cls-1" d="M110.29,7.37h1.24L109.13.18H107.2l-2.39,7.19H106l.65-2.06h3l.67,2.06Zm-2.37-6h.44l.91,2.87H107l.9-2.87Zm9.34,5.05V2.25h-4.1V3.69a7.08,7.08,0,0,1-.53,2.72h-.73v2.4H113V7.37h4.11V8.81h1.09V6.41Zm-1.14,0h-2.39a7.06,7.06,0,0,0,.47-2.71V3.21h1.92v3.2Zm6.48-.68a1,1,0,0,1-1.12.81c-1,0-1.41-.81-1.41-1.75s.39-1.71,1.41-1.71a1,1,0,0,1,1.08.73h1.12a2,2,0,0,0-2.21-1.69,2.45,2.45,0,0,0-2.54,2.68,2.46,2.46,0,0,0,2.54,2.7,2.1,2.1,0,0,0,2.25-1.77Zm4.64-3.61a2.49,2.49,0,0,0-2.59,2.68,2.59,2.59,0,1,0,5.18,0,2.49,2.49,0,0,0-2.59-2.68Zm0,4.42c-1,0-1.45-.82-1.45-1.74s.45-1.72,1.45-1.72,1.45.83,1.45,1.72-.45,1.74-1.45,1.74Zm6.39-3.46c.93,0,1.4.74,1.4,1.72s-.47,1.74-1.4,1.74-1.42-.82-1.42-1.74.42-1.72,1.42-1.72Zm-2.53-.83V9.39h1.14V6.88h.24A1.69,1.69,0,0,0,134,7.5c1.38,0,2.21-1.13,2.21-2.7s-.82-2.68-2.21-2.68a1.8,1.8,0,0,0-1.51.62h-.24V2.25Zm8.82.11a1.85,1.85,0,0,0-1.62.7h-.24c.13-.81.45-1.35,1.26-1.48L141,1.32c.85-.13,1-.69,1-1.27h-1c0,.27-.13.33-.51.38l-1.34.23c-1.73.29-2,2-2,3.71,0,2.05,1,3.13,2.62,3.13a2.46,2.46,0,0,0,2.6-2.56,2.38,2.38,0,0,0-2.43-2.58Zm-.18,4.18a1.46,1.46,0,0,1-1.46-1.63,1.46,1.46,0,1,1,2.91,0,1.46,1.46,0,0,1-1.45,1.63Zm7.41-4.29V6.41h-2.4V2.25h-1.13V7.37h4.51V8.81h1.08V6.41h-.92V2.25Zm4.39,5.12L153.68,4h.24V7.37H155V2.25h-1.32L151.6,5.63h-.24V2.25h-1.11V7.37Zm7.34-5.25A2.48,2.48,0,0,0,156.3,4.8a2.59,2.59,0,1,0,5.17,0,2.48,2.48,0,0,0-2.59-2.68Zm0,4.42c-1,0-1.45-.82-1.45-1.74s.46-1.72,1.45-1.72,1.46.83,1.46,1.72-.46,1.74-1.46,1.74Zm8.62.83V2.25h-1.14v2h-2.48v-2h-1.14V7.37h1.14V5.23h2.48V7.37Zm6.32,0V2.25h-1.14v2h-2.47v-2h-1.14V7.37h1.14V5.23h2.47V7.37Zm1.57-5.12V7.37h2.42c1.3,0,2-.69,2-1.79s-.69-1.74-2-1.74h-1.28V2.25Zm1.14,2.5h1.12c.77,0,1,.31,1,.83s-.25.83-1,.83h-1.12V4.75Zm4.07-2.5V7.37h1.14V2.25Zm7.32,2.27a2.27,2.27,0,0,0-2.39-2.4A2.41,2.41,0,0,0,183,4.77a2.47,2.47,0,0,0,2.55,2.73,2.08,2.08,0,0,0,2.29-1.62h-1.16a1,1,0,0,1-1.12.66c-.92,0-1.41-.59-1.44-1.63h3.79V4.52ZM185.52,3a1.14,1.14,0,0,1,1.23,1h-2.57a1.26,1.26,0,0,1,1.34-1Zm11.61-1.74V.18h-5.06V7.37h1.21V1.28Zm3,6.09V6.9h-.24a1.82,1.82,0,0,1-1.51.6,1.69,1.69,0,0,1-1.84-1.68c0-.8.56-1.72,2-1.72h1.51V4c0-.57-.32-.94-1.08-.94s-1,.26-1,.66h-1.13c.06-1,.91-1.55,2.12-1.55S201.2,2.7,201.2,4v3.4Zm-1.4-.79A1.31,1.31,0,0,0,200.1,5.3V4.91h-1.31c-.73,0-1.09.31-1.09.84s.38.83,1,.83Zm6.9-2.88c0,.36-.25.6-.87.6H204v.93h.87c.72,0,1,.22,1,.63s-.45.68-1.12.68-1.15-.15-1.31-.7h-1.07c.13,1,.92,1.66,2.42,1.66s2.22-.69,2.22-1.58a1,1,0,0,0-.69-1.11V4.57a1,1,0,0,0,.53-1c0-.8-.75-1.45-2.07-1.45s-2.1.56-2.22,1.62h1.06c.09-.44.47-.66,1.1-.66s1,.2,1,.62Zm4.88-1.58a2.49,2.49,0,0,0-2.59,2.68,2.59,2.59,0,1,0,5.18,0,2.49,2.49,0,0,0-2.59-2.68Zm0,4.42c-1,0-1.45-.82-1.45-1.74s.45-1.72,1.45-1.72S212,3.91,212,4.8s-.45,1.74-1.45,1.74Zm7.65-2a1.1,1.1,0,0,0,.57-1c0-.81-.57-1.3-1.62-1.3h-2.74V7.37h2.83c1.17,0,1.81-.48,1.81-1.41a1.16,1.16,0,0,0-.85-1.19V4.54Zm-2.67,2V5.15H217c.65,0,.87.29.87.68s-.22.68-.87.68Zm0-3.4h1.38c.53,0,.72.27.72.61s-.19.6-.72.6H215.5V3.11Zm4.79-.86V7.37h2.42c1.3,0,2-.69,2-1.79s-.69-1.74-2-1.74h-1.28V2.25Zm1.14,2.5h1.12c.77,0,1,.31,1,.83s-.24.83-1,.83h-1.12V4.75Zm4.07-2.5V7.37h1.14V2.25Zm7.32,2.27a2.28,2.28,0,0,0-2.39-2.4,2.41,2.41,0,0,0-2.52,2.65,2.47,2.47,0,0,0,2.55,2.73,2.08,2.08,0,0,0,2.29-1.62h-1.16a1,1,0,0,1-1.12.66c-.92,0-1.41-.59-1.44-1.63h3.79V4.52ZM230.42,3a1.14,1.14,0,0,1,1.23,1h-2.57a1.25,1.25,0,0,1,1.34-1ZM241.66,5.2A1.56,1.56,0,0,1,240,6.41c-1.48,0-2.15-1.21-2.15-2.63s.68-2.63,2.16-2.63a1.45,1.45,0,0,1,1.57,1h1.27A2.68,2.68,0,0,0,240,.05c-2.16,0-3.39,1.56-3.39,3.73S237.84,7.5,240,7.5a2.76,2.76,0,0,0,2.93-2.3Zm3.84,2.17L247.64,4h.24V7.37H249V2.25h-1.32l-2.11,3.38h-.24V2.25h-1.11V7.37Zm8.42-1.64a1,1,0,0,1-1.12.81c-1,0-1.41-.81-1.41-1.75s.4-1.71,1.41-1.71a1,1,0,0,1,1.08.73H255a2,2,0,0,0-2.22-1.69,2.45,2.45,0,0,0-2.54,2.68,2.46,2.46,0,0,0,2.54,2.7,2.11,2.11,0,0,0,2.26-1.77Zm1.87-2.52h1.74V7.37h1.13V3.21h1.73v-1h-4.6v1ZM266,4.52a2.28,2.28,0,0,0-2.39-2.4,2.42,2.42,0,0,0-2.53,2.65,2.48,2.48,0,0,0,2.56,2.73A2.08,2.08,0,0,0,266,5.88h-1.16a1,1,0,0,1-1.12.66c-.93,0-1.41-.59-1.44-1.63H266V4.52ZM263.64,3a1.15,1.15,0,0,1,1.23,1H262.3a1.25,1.25,0,0,1,1.34-1Zm3.66,4.35h1.1V3.69h.24l1,1.92h1.07l1-1.92H272V7.37h1.11V2.25h-1.62l-1.13,2.24h-.24l-1.15-2.24H267.3V7.37Zm7.33-5.12V7.37H277c1.3,0,2-.69,2-1.79s-.7-1.74-2-1.74h-1.27V2.25Zm1.14,2.5h1.11c.78,0,1,.31,1,.83s-.24.83-1,.83h-1.11V4.75Zm4.06-2.5V7.37H281V2.25Z"/>
        <g>
          <polygon class="cls-1" points="85.48 19 65.49 19 60.01 9.5 65.49 0 87.57 0 87.57 4 67.78 4 64.61 9.5 67.79 15 89.48 15 85.48 19"/>
          <polygon class="cls-1" points="33.35 19 24.69 4 24.69 12 28.73 19 33.35 19"/>
          <path class="cls-1" d="M8.66,12h16l-4,4H6.35L4.62,19H0L11,0H24.69V4H13.28Z"/>
          <polygon class="cls-1" points="59.08 0 40.7 0 44.7 4 59.08 4 59.08 0"/>
          <rect class="cls-2" x="36.7" width="4" height="19"/>
        </g>
      </g>
    </g>
  </g>
</svg>
