<svg width="173" height="37" viewBox="0 0 180 40" fill="#FFF" xmlns="http://www.w3.org/2000/svg">
<path fill-rule="evenodd" clip-rule="evenodd" d="M171.962 40H131.77L120.718 20L131.77 0H176.124V8.42105H136.364L129.904 20L136.364 31.5789H180L171.962 40Z"/>
<path fill-rule="evenodd" clip-rule="evenodd" d="M67.0336 40L49.6652 8.42102V25.2631L57.847 40H67.0336Z"/>
<path fill-rule="evenodd" clip-rule="evenodd" d="M17.3684 25.2632L49.6652 25.2631L41.6268 33.6842H12.7751L9.33014 40H0L22.1052 0C31.2918 0 40.4784 0 49.665 0L49.6652 8.42102L26.6985 8.42105L17.3684 25.2632Z"/>
<path fill-rule="evenodd" clip-rule="evenodd" d="M118.852 0H81.8181L89.8564 8.42105H118.852V0Z"/>
<path d="M81.8181 0H73.7797V40H81.818L81.8181 0Z"/>
</svg>
