<svg xmlns="http://www.w3.org/2000/svg" width="223" height="19" viewBox="0 0 223 19" class="header-logo__desktop" fill="#FFF">
   <defs>
      <style>
         .cls-1 {
         fill-rule: evenodd;
         }
      </style>
   </defs>
   <polygon class="cls-1" points="49.22 18.67 38.82 18.67 33.44 9.34 38.83 0 60.52 0 60.52 3.93 41.08 3.93 37.96 9.33 41.08 14.74 53.15 14.74 49.22 18.67"/>
   <polygon class="cls-1" points="49.4 7.37 60.52 7.37 56.59 11.3 49.4 11.3 49.4 7.37"/>
   <rect class="cls-2" x="60.52" y="7.37" width="3.93" height="11.3"/>
   <polygon class="cls-1" points="32.77 18.67 24.26 3.93 24.26 11.79 28.23 18.67 32.77 18.67"/>
   <path class="cls-1" d="M8.51,11.79H24.26l-3.93,3.94H6.24l-1.7,2.94H0L10.78,0H24.26V3.93H13.05Z"/>
   <polygon class="cls-1" points="67.75 7.37 72 0 93.69 0 93.69 3.93 74.25 3.93 72.27 7.37 67.75 7.37"/>
   <polygon class="cls-1" points="74.54 11.3 93.59 11.3 95.57 14.74 98.44 11.87 95.85 7.37 72.27 7.37 74.54 11.3"/>
   <polygon class="cls-1" points="71.05 14.74 95.57 14.74 91.64 18.67 67.12 18.67 71.05 14.74"/>
   <path class="cls-1" d="M115.88,7.24h1.21L114.74.18h-1.9l-2.35,7.06h1.19l.64-2h2.9l.66,2Zm-2.33-5.9H114l.9,2.82h-2.22l.89-2.82Zm6.38.74c-1.35,0-2.17,1.13-2.17,2.64s.81,2.65,2.17,2.65a1.77,1.77,0,0,0,1.49-.61h.24v.48h1.08V.05h-1.12V2.69h-.24a1.69,1.69,0,0,0-1.45-.61Zm.32,4.34c-.92,0-1.37-.72-1.37-1.7S119.33,3,120.25,3s1.4.81,1.4,1.69-.42,1.7-1.4,1.7Zm8-2.87c-.11-.88-.84-1.47-2.07-1.47-1.43,0-2.07.68-2.07,1.53s.54,1.2,1.29,1.33l1,.18c.58.11.82.28.82.67s-.42.65-1.06.65-1.08-.2-1.17-.72h-1.12c.11,1,.83,1.65,2.31,1.65s2.16-.77,2.16-1.61-.62-1.42-1.54-1.56l-1-.16c-.42-.07-.64-.18-.64-.51s.37-.52.91-.52.92.12,1,.54Zm3.56-1.47a2.45,2.45,0,0,0-2.54,2.64,2.54,2.54,0,1,0,5.08,0,2.45,2.45,0,0,0-2.54-2.64Zm0,4.34c-1,0-1.42-.8-1.42-1.7S130.8,3,131.78,3s1.43.81,1.43,1.69-.45,1.7-1.43,1.7Zm6.94-4.21h-.43a1.63,1.63,0,0,0-1.4.58h-.24V2.21h-1.08v5h1.12V4.89a1.44,1.44,0,0,1,1.57-1.64h.46v-1Zm8.67,0V.74h-1.12V2.21h-.8v1h.8v2.6c0,1.15.75,1.48,1.87,1.48h.44v-1h-.42c-.56,0-.77-.23-.77-.66V3.16h1.19v-1Zm3.66-1.08V.05H149.9V1.13Zm0,1.08h-1.12v5H151v-5Zm3.81-.13a2.45,2.45,0,0,0-2.54,2.64,2.54,2.54,0,1,0,5.08,0,2.45,2.45,0,0,0-2.54-2.64Zm0,4.34c-1,0-1.42-.8-1.42-1.7S153.86,3,154.84,3s1.43.81,1.43,1.69-.45,1.7-1.43,1.7Zm8.45.82V4.1a1.77,1.77,0,0,0-1.89-2,1.72,1.72,0,0,0-1.45.61h-.24V2.21h-1.08v5h1.12V4.55a1.35,1.35,0,0,1,1.31-1.47c.74,0,1.11.41,1.11,1.24V7.24Zm7.23-3.84v1h1.93a1.7,1.7,0,0,1-1.83,1.89c-1.48,0-2.15-1.16-2.15-2.59s.68-2.58,2.15-2.58c.9,0,1.39.35,1.58,1h1.24A2.62,2.62,0,0,0,170.62.05c-2.18,0-3.36,1.56-3.36,3.66s1.17,3.66,3.35,3.66a2.89,2.89,0,0,0,3-3.19V3.4Zm7.6,3.84h1V3.9c0-1.25-.87-1.82-2.18-1.82s-2,.57-2.08,1.52H176c0-.38.37-.64,1-.64s1.06.37,1.06.92V4h-1.49c-1.45,0-2,.9-2,1.69a1.66,1.66,0,0,0,1.81,1.65,1.75,1.75,0,0,0,1.48-.59h.24v.46Zm-1.38-.78c-.64,0-1-.29-1-.81s.36-.83,1.07-.83h1.29v.39a1.28,1.28,0,0,1-1.34,1.25Zm7.83-2.91c-.11-.88-.84-1.47-2.07-1.47-1.42,0-2.07.68-2.07,1.53s.54,1.2,1.29,1.33l1.05.18c.58.11.82.28.82.67s-.41.65-1.06.65-1.08-.2-1.17-.72h-1.11c.1,1,.83,1.65,2.3,1.65s2.16-.77,2.16-1.61-.61-1.42-1.53-1.56l-1-.16c-.43-.07-.65-.18-.65-.51s.37-.52.91-.52.92.12,1,.54ZM193.85,2a2.4,2.4,0,0,0-2.67-2c-1.66,0-2.57.9-2.57,2s.66,1.65,1.76,1.86l1.38.27c.63.12,1.06.38,1.06,1s-.63,1.07-1.51,1.07-1.61-.28-1.77-1.15h-1.21c.13,1.3,1.22,2.19,2.93,2.19,1.86,0,2.76-1,2.76-2.16a2,2,0,0,0-1.85-2l-1.32-.26c-.55-.1-1-.29-1-.87s.61-1,1.35-1,1.34.32,1.49,1Zm3.08,7.18,3-7h-1.15l-1.27,3h-.26l-1.41-3H194.7l2.13,4.54-1,2.47Zm7.9-5.67c-.11-.88-.84-1.47-2.07-1.47-1.42,0-2.07.68-2.07,1.53s.54,1.2,1.29,1.33l1.05.18c.58.11.82.28.82.67s-.42.65-1.06.65-1.08-.2-1.17-.72H200.5c.11,1,.84,1.65,2.31,1.65S205,6.6,205,5.76s-.62-1.42-1.54-1.56l-1-.16c-.42-.07-.64-.18-.64-.51s.37-.52.91-.52.92.12,1,.54Zm2.71-1.34V.74h-1.12V2.21h-.8v1h.8v2.6c0,1.15.75,1.48,1.87,1.48h.44v-1h-.42c-.56,0-.77-.23-.77-.66V3.16h1.19v-1Zm7,2.23a2.24,2.24,0,0,0-2.35-2.36,2.38,2.38,0,0,0-2.48,2.61,2.44,2.44,0,0,0,2.51,2.68,2,2,0,0,0,2.25-1.59h-1.14a1,1,0,0,1-1.1.64c-.91,0-1.38-.57-1.41-1.6h3.72V4.44ZM212.18,3a1.12,1.12,0,0,1,1.21,1h-2.52a1.21,1.21,0,0,1,1.31-1Zm9.12-.89a1.66,1.66,0,0,0-1.4.61h-.24a1.45,1.45,0,0,0-1.3-.61,1.37,1.37,0,0,0-1.27.58h-.24V2.21h-1.07v5h1.11V4.5c0-.78.34-1.42,1.08-1.42s.86.4.86,1.15v3H220V4.37c0-.75.37-1.29,1.07-1.29s.86.38.86,1.14v3H223V4c0-1.19-.52-1.95-1.7-1.95ZM142.25,3c.92,0,1.38.72,1.38,1.69s-.46,1.7-1.38,1.7-1.39-.8-1.39-1.7S141.27,3,142.25,3Zm-2.48-.82v7h1.12V6.76h.23a1.67,1.67,0,0,0,1.45.61c1.35,0,2.18-1.12,2.18-2.65s-.82-2.64-2.18-2.64a1.81,1.81,0,0,0-1.49.61h-.23V2.21Z"/>
</svg>