<svg xmlns="http://www.w3.org/2000/svg" width="96" height="27.08" viewBox="0 0 96 27.08" class="header-logo__mob" fill="#003399">
  <defs>
    <style>
      .cls-1 {
        fill-rule: evenodd;
      }
    </style>
  </defs>
  <title>logo-mob-ru</title>
  <g id="Layer_2" data-name="Layer 2">
    <g id="_1" data-name="1">
      <g>
        <path class="cls-1" d="M3,26h.67L2.35,22.07h-1L0,26H.66L1,24.86h1.6L3,26ZM1.7,22.71h.23l.5,1.56H1.2l.5-1.56Zm5.08,2.75V23.19H4.55V24a3.88,3.88,0,0,1-.29,1.48h-.4v1.31h.6V26H6.7v.79h.59V25.46Zm-.62,0H4.86A3.89,3.89,0,0,0,5.12,24v-.26h1v1.74Zm3.53-.37a.55.55,0,0,1-.61.44c-.55,0-.76-.44-.76-1s.21-.93.76-.93a.55.55,0,0,1,.59.39h.62a1.11,1.11,0,0,0-1.21-.92,1.34,1.34,0,0,0-1.39,1.46,1.35,1.35,0,0,0,1.39,1.48,1.16,1.16,0,0,0,1.23-1Zm2.53-2a1.47,1.47,0,1,0,1.41,1.46,1.35,1.35,0,0,0-1.41-1.46Zm0,2.41c-.54,0-.79-.45-.79-1a.82.82,0,0,1,.79-.93c.55,0,.79.45.79.93s-.24,1-.79,1Zm3.48-1.88c.51,0,.77.4.77.93s-.26,1-.77,1-.77-.45-.77-1,.23-.93.77-.93Zm-1.37-.46v3.89H15V25.72h.13a1,1,0,0,0,.8.34c.75,0,1.21-.62,1.21-1.48s-.45-1.46-1.21-1.46a1,1,0,0,0-.82.34h-.14v-.27Zm4.8.06a1,1,0,0,0-.88.39h-.13c.07-.45.24-.74.68-.81l.89-.14a.62.62,0,0,0,.56-.7h-.53c0,.15-.07.19-.27.21l-.73.12c-.95.16-1.11,1.12-1.11,2,0,1.11.53,1.71,1.43,1.71a1.35,1.35,0,0,0,1.42-1.4,1.3,1.3,0,0,0-1.33-1.41ZM19,25.53a.8.8,0,0,1-.79-.89.8.8,0,1,1,.79.89Zm4-2.34v2.27h-1.3V23.19h-.62V26h2.46v.79h.58V25.46h-.5V23.19ZM25.47,26l1.16-1.84h.13V26h.61V23.19h-.72L25.5,25h-.13V23.19h-.61V26Zm4-2.86a1.47,1.47,0,1,0,1.41,1.46,1.35,1.35,0,0,0-1.41-1.46Zm0,2.41c-.55,0-.79-.45-.79-1s.24-.93.79-.93a.82.82,0,0,1,.79.93c0,.5-.25,1-.79,1Zm4.69.45V23.19h-.62v1.1H32.19v-1.1h-.62V26h.62V24.82h1.35V26Zm3.45,0V23.19H37v1.1H35.64v-1.1H35V26h.62V24.82H37V26Zm.85-2.79V26h1.32c.71,0,1.09-.37,1.09-1s-.38-1-1.09-1h-.7v-.87Zm.62,1.37h.61c.43,0,.56.16.56.45s-.13.45-.56.45h-.61v-.9Zm2.22-1.37V26h.62V23.19Zm4,1.24A1.25,1.25,0,0,0,44,23.12a1.32,1.32,0,0,0-1.38,1.45A1.36,1.36,0,0,0,44,26.06a1.13,1.13,0,0,0,1.24-.89h-.63a.56.56,0,0,1-.61.36c-.5,0-.77-.32-.78-.89h2.06v-.21ZM44,23.61a.61.61,0,0,1,.66.57H43.26a.68.68,0,0,1,.73-.57Zm6.32-.95v-.59H47.55V26h.66V22.66ZM52,26v-.25h-.13a1,1,0,0,1-.83.33.92.92,0,0,1-1-.92,1,1,0,0,1,1.1-.94h.83v-.08c0-.31-.18-.51-.59-.51s-.54.14-.56.35h-.61c0-.52.49-.84,1.15-.84s1.21.32,1.21,1V26Zm-.76-.43a.72.72,0,0,0,.74-.7v-.21h-.72c-.39,0-.59.17-.59.46s.21.45.57.45ZM55,24c0,.2-.14.33-.48.33H54v.51h.48c.39,0,.53.12.53.34s-.24.37-.61.37-.63-.08-.71-.38h-.59c.07.55.5.91,1.32.91s1.21-.38,1.21-.87a.55.55,0,0,0-.38-.6v-.13a.55.55,0,0,0,.29-.55c0-.43-.41-.79-1.12-.79s-1.15.31-1.21.88h.57c.05-.23.26-.35.6-.35s.55.11.55.33Zm2.66-.86A1.47,1.47,0,1,0,59,24.58a1.35,1.35,0,0,0-1.41-1.46Zm0,2.41c-.55,0-.79-.45-.79-1s.24-.93.79-.93a.82.82,0,0,1,.79.93c0,.5-.25,1-.79,1Zm4.16-1.09a.6.6,0,0,0,.32-.54c0-.44-.32-.71-.89-.71H59.71V26h1.54c.64,0,1-.26,1-.76a.62.62,0,0,0-.47-.65v-.13Zm-1.45,1.07v-.74h.82c.35,0,.47.16.47.37s-.12.37-.47.37Zm0-1.85h.75c.29,0,.4.15.4.33s-.11.33-.4.33h-.75v-.66Zm2.61-.47V26h1.32c.71,0,1.09-.37,1.09-1s-.38-1-1.09-1h-.7v-.87Zm.62,1.37h.61c.42,0,.56.16.56.45s-.14.45-.56.45h-.61v-.9Zm2.22-1.37V26h.62V23.19Zm4,1.24a1.25,1.25,0,0,0-1.3-1.31,1.32,1.32,0,0,0-1.38,1.45,1.36,1.36,0,0,0,1.4,1.49,1.13,1.13,0,0,0,1.24-.89h-.63a.56.56,0,0,1-.61.36c-.5,0-.77-.32-.78-.89h2.06v-.21Zm-1.31-.82a.63.63,0,0,1,.67.57h-1.4a.68.68,0,0,1,.73-.57Zm6.13,1.19a.85.85,0,0,1-.91.66c-.8,0-1.17-.66-1.17-1.44s.37-1.43,1.18-1.43a.79.79,0,0,1,.85.56h.7A1.48,1.48,0,0,0,73.68,22a1.82,1.82,0,0,0-1.85,2,1.82,1.82,0,0,0,1.84,2,1.51,1.51,0,0,0,1.6-1.26ZM76.67,26l1.16-1.84H78V26h.61V23.19h-.72L76.7,25h-.13V23.19H76V26Zm4.59-.89a.55.55,0,0,1-.61.44c-.55,0-.77-.44-.77-1s.21-.93.77-.93a.56.56,0,0,1,.59.39h.61a1.1,1.1,0,0,0-1.21-.92,1.34,1.34,0,0,0-1.38,1.46,1.35,1.35,0,0,0,1.38,1.48,1.15,1.15,0,0,0,1.23-1Zm1-1.37h.94V26h.62V23.72h.94v-.53h-2.5v.53Zm5.58.71a1.25,1.25,0,0,0-1.3-1.31,1.32,1.32,0,0,0-1.38,1.45,1.36,1.36,0,0,0,1.4,1.49,1.13,1.13,0,0,0,1.24-.89h-.63a.56.56,0,0,1-.61.36c-.5,0-.77-.32-.78-.89h2.06v-.21Zm-1.31-.82a.62.62,0,0,1,.67.57h-1.4a.69.69,0,0,1,.73-.57Zm2,2.37h.6V24h.13l.55,1h.58L91,24h.13v2h.61V23.19h-.88l-.62,1.22h-.13l-.63-1.22h-.88V26Zm4-2.79V26h1.32c.71,0,1.09-.37,1.09-1s-.38-1-1.09-1h-.7v-.87Zm.62,1.37h.61c.42,0,.56.16.56.45s-.14.45-.56.45h-.61v-.9Zm2.22-1.37V26H96V23.19Z"/>
        <g>
          <polygon class="cls-1" points="76.56 17.02 58.66 17.02 53.74 8.51 58.66 0 78.43 0 78.43 3.58 60.71 3.58 57.87 8.51 60.72 13.43 80.14 13.43 76.56 17.02"/>
          <polygon class="cls-1" points="29.87 17.02 22.11 3.58 22.11 10.75 25.73 17.02 29.87 17.02"/>
          <path class="cls-1" d="M7.76,10.75H22.11l-3.58,3.58H5.69L4.14,17H0L9.83,0H22.11V3.58H11.9Z"/>
          <polygon class="cls-1" points="52.91 0 36.46 0 40.04 3.58 52.91 3.58 52.91 0"/>
          <rect class="cls-2" x="32.87" width="3.58" height="17.02"/>
        </g>
      </g>
    </g>
  </g>
</svg>
