<svg width="51" height="51" viewBox="0 0 51 51" fill="none" xmlns="http://www.w3.org/2000/svg">
<path fill-rule="evenodd" clip-rule="evenodd" d="M15.2578 11.0619H8.47652C7.96793 11.0619 7.62891 10.7229 7.62891 10.2143V4.28072C7.62891 3.77213 7.96793 3.43311 8.47652 3.43311H15.2578C15.7664 3.43311 16.1054 3.77213 16.1054 4.28072V10.2143C16.1054 10.7229 15.7664 11.0619 15.2578 11.0619ZM14.4102 5.12833H9.32423V9.36658H14.4102V5.12833Z" fill="#2C62D8"/>
<path fill-rule="evenodd" clip-rule="evenodd" d="M20.5132 20.5556C21.1914 20.2164 22.039 20.2164 22.7171 20.6403C23.3953 21.0642 23.8191 21.7423 23.8188 22.5899V28.1845C23.8188 28.9473 23.3951 29.7102 22.7169 30.1341C22.2931 30.3884 21.8692 30.5579 21.5302 30.5579C21.1912 30.5579 20.852 30.4732 20.513 30.3036C20.1817 30.1379 19.8418 29.9863 19.4958 29.8479V33.1009V50.0539C19.4958 50.5625 19.1568 50.9015 18.6482 50.9015C18.1396 50.9015 17.8006 50.5625 17.8006 50.0539V33.9485H5.93347V50.0541C5.93347 50.5627 5.59445 50.9017 5.08586 50.9017C4.57728 50.9017 4.23825 50.5627 4.23825 50.0541V33.101V29.8479C3.89226 29.9863 3.55243 30.1379 3.22108 30.3036C2.96679 30.3885 2.62766 30.4732 2.28864 30.4732C1.86478 30.4732 1.44093 30.3885 1.1019 30.1342C0.423855 29.7103 0 29.0322 0 28.2693V22.6747C0 21.9118 0.423855 21.1489 1.102 20.7251C1.78015 20.3014 2.62776 20.3014 3.30591 20.6404C3.6103 20.7925 3.92195 20.9322 4.23835 21.0614V16.1478V0.889968C4.23835 0.381382 4.57738 0.0423584 5.08596 0.0423584C5.59455 0.0423584 5.93357 0.381382 5.93357 0.889968V15.3001H17.8008V0.889968C17.8008 0.381382 18.1398 0.0423584 18.6484 0.0423584C19.157 0.0423584 19.496 0.381382 19.496 0.889968V16.1478V20.9991C19.8376 20.8639 20.1767 20.7164 20.5132 20.5556ZM10.5109 27.591C10.5665 27.6745 10.5944 27.767 10.6043 27.8625L10.6805 28.0148H13.054L14.3254 25.4719L13.054 22.9289H10.6805L9.40905 25.4719L10.5109 27.591ZM17.8007 16.9954V21.5556C17.502 21.6336 17.2014 21.7014 16.8991 21.7591C16.2389 21.8793 15.5707 21.9617 14.8762 21.9875L14.8627 21.9881L14.8447 21.9889C14.715 21.9935 14.5839 21.9954 14.4522 21.9959L14.3254 21.7423C14.1559 21.4033 13.9016 21.2337 13.5626 21.2337H10.1718C9.8328 21.2337 9.57851 21.488 9.40895 21.7423L9.2822 21.9958C8.19201 21.9915 7.02164 21.8238 5.93357 21.5727V16.9954H17.8007ZM1.94961 28.7778C2.03434 28.8625 2.20391 28.9473 2.4582 28.7778C3.16856 28.4226 3.89145 28.1293 4.62626 27.8924C4.68968 27.8419 4.75845 27.7971 4.83147 27.7606C5.9769 27.4334 7.12223 27.1867 8.26755 27.0936L7.62879 25.8958C7.54406 25.6415 7.54406 25.3872 7.62879 25.1329L8.30694 23.7766C6.2726 23.6918 4.23825 23.0985 2.37337 22.1661C2.4582 22.0813 2.37337 22.0813 2.28864 22.0813C2.18937 22.0813 2.11914 22.1104 2.06096 22.1345C2.01982 22.1515 1.98471 22.1661 1.94961 22.1661C1.86488 22.1661 1.69532 22.3356 1.69532 22.6746V28.2692C1.69532 28.5235 1.86488 28.693 1.94961 28.7778ZM17.8007 32.2532H5.93357V29.2948C6.07859 29.2577 6.22432 29.2229 6.37066 29.1904C7.18504 29.0204 8.00559 28.9026 8.86632 28.8712L8.88763 28.8703C8.98662 28.8669 9.08673 28.8659 9.18687 28.8649L9.19818 28.8648L9.40895 29.2865C9.57851 29.5408 9.8328 29.7103 10.1718 29.7103H13.5625C13.9015 29.7103 14.1558 29.456 14.3253 29.2865L14.5361 28.865C15.4858 28.8759 16.4919 29.0079 17.45 29.2097C17.5673 29.2366 17.6842 29.2651 17.8007 29.2949V32.2532ZM21.7847 28.7778C21.7847 28.7778 22.039 28.6082 22.039 28.2692H22.0391V22.6746C22.0391 22.4204 21.8695 22.2508 21.7848 22.1661C21.7 22.0813 21.5305 21.9965 21.2762 22.1661C19.4113 23.0985 17.4617 23.6071 15.4273 23.7766L16.1055 25.0481C16.1902 25.3024 16.1902 25.5567 16.1055 25.811L15.7241 26.4891L15.3834 27.1703C16.499 27.2518 17.6145 27.4104 18.73 27.786C19.6019 28.0393 20.4554 28.3675 21.2761 28.7778C21.5304 28.8625 21.7847 28.7778 21.7847 28.7778Z" fill="#2C62D8"/>
<path fill-rule="evenodd" clip-rule="evenodd" d="M42.3828 11.0619H35.6015C35.093 11.0619 34.7538 10.7229 34.7539 10.2143V4.28072C34.7539 3.77213 35.093 3.43311 35.6015 3.43311H42.3828C42.8914 3.43311 43.2304 3.77213 43.2304 4.28072V10.2143C43.2304 10.7229 42.8914 11.0619 42.3828 11.0619ZM41.5351 5.12833H36.4492V9.36658H41.5351V5.12833Z" fill="#2C62D8"/>
<path fill-rule="evenodd" clip-rule="evenodd" d="M47.6381 20.5556C48.3163 20.2164 49.1639 20.2164 49.842 20.6403C50.5202 21.0642 50.944 21.7423 50.9438 22.5898V28.1844C50.9438 28.9472 50.5201 29.7101 49.8419 30.134C49.4181 30.3883 48.9942 30.5578 48.6552 30.5578C48.3162 30.5578 47.9771 30.4731 47.638 30.3035C47.3067 30.1378 46.9669 29.9862 46.6209 29.8478V33.1009V50.0539C46.6209 50.5625 46.2818 50.9015 45.7733 50.9015C45.2647 50.9015 44.9256 50.5625 44.9256 50.0539V33.9485H33.0585V50.054C33.0585 50.5626 32.7195 50.9016 32.2109 50.9016C31.7023 50.9016 31.3633 50.5626 31.3633 50.054V33.1009V29.8478C31.0173 29.9862 30.6775 30.1378 30.3461 30.3035C30.0918 30.3884 29.7527 30.4731 29.4137 30.4731C28.9898 30.4731 28.566 30.3884 28.2269 30.1341C27.5489 29.7102 27.125 29.0321 27.125 28.2692V22.6746C27.125 21.9118 27.5488 21.1489 28.2269 20.725C28.9051 20.3013 29.7527 20.3013 30.4308 20.6403C30.735 20.7924 31.0467 20.9321 31.3633 21.0612V16.1478V0.889968C31.3633 0.381382 31.7023 0.0423584 32.2109 0.0423584C32.7195 0.0423584 33.0585 0.381382 33.0585 0.889968V15.3001H44.9257V0.889968C44.9257 0.381382 45.2648 0.0423584 45.7734 0.0423584C46.2819 0.0423584 46.621 0.381382 46.621 0.889968V16.1478V20.9991C46.9625 20.8639 47.3016 20.7164 47.6381 20.5556ZM37.6359 27.591C37.6914 27.6745 37.7193 27.767 37.7292 27.8625L37.8054 28.0147H40.1789L41.4504 25.4718L40.1789 22.9288H37.8054L37.756 23.0278C37.7412 23.1422 37.7017 23.2539 37.6359 23.3527L36.534 25.4719L37.6359 27.591ZM44.9256 16.9954V21.5556C44.6269 21.6336 44.3264 21.7014 44.024 21.7591C43.3638 21.8793 42.6956 21.9617 42.0012 21.9875L41.9877 21.9881L41.9697 21.9889C41.8399 21.9935 41.7088 21.9954 41.5771 21.9959L41.4504 21.7423C41.2808 21.4033 41.0265 21.2337 40.6875 21.2337H37.2969C36.9578 21.2337 36.7035 21.488 36.534 21.7423L36.4072 21.9958C35.317 21.9915 34.1467 21.8238 33.0586 21.5727V16.9954H44.9256ZM29.0745 28.7778C29.1593 28.8625 29.3288 28.9473 29.5831 28.7778C30.2936 28.4226 31.0164 28.1293 31.7512 27.8924C31.8146 27.8419 31.8834 27.7972 31.9564 27.7606C33.1018 27.4334 34.2472 27.1867 35.3925 27.0936L34.7537 25.8958C34.669 25.6415 34.669 25.3872 34.7537 25.1329L35.4319 23.7766C33.3975 23.6071 31.3632 23.0985 29.4983 22.1661C29.5831 22.0813 29.4983 22.0813 29.4136 22.0813C29.3143 22.0813 29.2441 22.1104 29.1859 22.1345C29.1448 22.1515 29.1096 22.1661 29.0745 22.1661C29.0614 22.1792 29.0463 22.1923 29.0301 22.2063C28.9414 22.2831 28.8203 22.3881 28.8203 22.6746V28.2692C28.8203 28.5235 28.9898 28.693 29.0745 28.7778ZM44.9256 32.2532H33.0585V29.2948C33.2035 29.2577 33.3493 29.2229 33.4956 29.1904C34.31 29.0204 35.1305 28.9026 35.9913 28.8712L36.0126 28.8703C36.1115 28.8669 36.2117 28.8659 36.3118 28.8649L36.3231 28.8648L36.5339 29.2865C36.7034 29.5408 36.9577 29.7103 37.2968 29.7103H40.6874C41.0264 29.7103 41.2807 29.456 41.4503 29.2865L41.661 28.865C42.6108 28.8759 43.6168 29.0079 44.5749 29.2097C44.6923 29.2366 44.8091 29.2651 44.9256 29.2949V32.2532ZM48.9542 28.7375C49.0428 28.6607 49.164 28.5558 49.164 28.2692V22.6746C49.164 22.4204 48.9944 22.2508 48.9097 22.1661C48.825 22.0813 48.6554 21.9965 48.4011 22.1661C46.5362 23.0985 44.5866 23.6071 42.5523 23.7766L43.2304 25.0481C43.3152 25.3024 43.3152 25.5567 43.2304 25.811L42.849 26.489L42.5083 27.1703C43.6239 27.2518 44.7394 27.4104 45.855 27.786C46.7269 28.0393 47.5805 28.3675 48.4011 28.7778C48.6554 28.8625 48.9097 28.7778 48.9097 28.7778C48.9228 28.7647 48.9379 28.7516 48.9542 28.7375Z" fill="#2C62D8"/>
</svg>
