<svg width="52" height="52" viewBox="0 0 52 52" fill="none" xmlns="http://www.w3.org/2000/svg">
<path fill-rule="evenodd" clip-rule="evenodd" d="M49.8679 38.4851L44.4844 35.4343V30.0963C44.4844 29.5355 44.0296 29.0807 43.4688 29.0807C42.9079 29.0807 42.4531 29.5355 42.4531 30.0963V34.2832L40.0918 32.9451C39.6039 32.6687 38.9841 32.84 38.7074 33.328C38.4309 33.8161 38.6023 34.4359 39.0903 34.7124L41.4753 36.0639L27.0156 44.4121V37.9409C33.1502 37.4235 37.9844 32.2661 37.9844 26C37.9844 24.1809 37.5762 22.4557 36.8479 20.9097L42.4531 17.6735V21.8359C42.4531 22.3968 42.9079 22.8516 43.4688 22.8516C44.0296 22.8516 44.4844 22.3968 44.4844 21.8359V15.9143C44.4844 15.5516 44.2908 15.2162 43.9766 15.0348L27.0156 5.24245V1.01562C27.0156 0.454797 26.5608 0 26 0C25.4392 0 24.9844 0.454797 24.9844 1.01562V5.24245L8.02345 15.0348C7.70922 15.2162 7.51564 15.5516 7.51564 15.9143V22.1405C7.51564 22.7014 7.97043 23.1561 8.53126 23.1561C9.09209 23.1561 9.54689 22.7014 9.54689 22.1405V17.6753L15.1474 20.9196C14.422 22.4631 14.0156 24.1849 14.0156 26C14.0156 32.2661 18.8498 37.4236 24.9844 37.9409V44.4121L10.5731 36.0917L12.1147 35.1979C12.6 34.9165 12.7652 34.2951 12.484 33.8099C12.2025 33.3247 11.5811 33.1594 11.0959 33.4406L9.54689 34.3387V29.5547C9.54689 28.9939 9.09209 28.5391 8.53126 28.5391C7.97043 28.5391 7.51564 28.9939 7.51564 29.5547V35.5163L3.02231 38.1214C2.53704 38.4028 2.3718 39.0242 2.65303 39.5094C2.84143 39.8343 3.18227 40.0158 3.53266 40.0158C3.70552 40.0158 3.88082 39.9715 4.04108 39.8786L8.54599 37.2668L25.4922 47.0508C25.6493 47.1416 25.8246 47.1869 26 47.1869C26.1754 47.1869 26.3507 47.1416 26.5078 47.0508L43.5254 37.2257L48.8664 40.2523C49.0246 40.3419 49.1966 40.3845 49.3663 40.3845C49.72 40.3845 50.0638 40.1992 50.2508 39.8695C50.5274 39.3814 50.3559 38.7616 49.8679 38.4851ZM10.561 15.9152L24.9844 7.58794V10.7643C24.9844 11.3251 25.4392 11.7799 26 11.7799C26.5608 11.7799 27.0156 11.3251 27.0156 10.7643V7.58794L41.4375 15.9144L35.8294 19.1523C33.6614 16.0494 30.064 14.0156 26 14.0156C21.9321 14.0156 18.3317 16.0534 16.1643 19.1613L10.561 15.9152ZM16.0469 26C16.0469 31.4881 20.5119 35.9531 26 35.9531C31.4881 35.9531 35.9531 31.4881 35.9531 26C35.9531 20.5119 31.4881 16.0469 26 16.0469C20.5119 16.0469 16.0469 20.5119 16.0469 26Z" fill="#2960D8"/>
<path d="M51.7023 25.282C51.5135 25.0929 51.2515 24.9844 50.9844 24.9844C50.7173 24.9844 50.4552 25.0929 50.2663 25.282C50.0774 25.471 49.9688 25.7329 49.9688 26C49.9688 26.2671 50.0773 26.5291 50.2663 26.7179C50.4552 26.9069 50.7173 27.0156 50.9844 27.0156C51.2515 27.0156 51.5135 26.907 51.7023 26.7179C51.8913 26.5291 52 26.2671 52 26C52 25.7329 51.8913 25.4709 51.7023 25.282Z" fill="#2960D8"/>
<path d="M47.8888 25.282C47.7 25.093 47.4388 24.9844 47.1717 24.9844C46.9035 24.9844 46.6426 25.0929 46.4527 25.282C46.2638 25.4709 46.1551 25.7329 46.1551 26C46.1551 26.2671 46.2637 26.5281 46.4527 26.7179C46.6426 26.9069 46.9035 27.0156 47.1717 27.0156C47.4388 27.0156 47.7009 26.907 47.8888 26.7179C48.0787 26.5291 48.1864 26.2671 48.1864 26C48.1864 25.7329 48.0787 25.4709 47.8888 25.282Z" fill="#2960D8"/>
<path d="M44.1867 25.282C43.9979 25.0929 43.7359 24.9844 43.4688 24.9844C43.2016 24.9844 42.9396 25.0929 42.7507 25.282C42.5618 25.471 42.4531 25.7329 42.4531 26C42.4531 26.2671 42.5617 26.5291 42.7507 26.7179C42.9396 26.9069 43.2016 27.0156 43.4688 27.0156C43.7359 27.0156 43.9979 26.907 44.1867 26.7179C44.3757 26.5291 44.4844 26.2671 44.4844 26C44.4844 25.7329 44.3757 25.4709 44.1867 25.282Z" fill="#2960D8"/>
<path d="M9.2492 25.282C9.06039 25.0929 8.79836 24.9844 8.53125 24.9844C8.26414 24.9844 8.00211 25.0929 7.8132 25.282C7.6243 25.471 7.51562 25.7329 7.51562 26C7.51562 26.2671 7.6242 26.5291 7.8132 26.7179C8.00211 26.907 8.26414 27.0156 8.53125 27.0156C8.79836 27.0156 9.06039 26.907 9.2492 26.7179C9.4382 26.5291 9.54688 26.2671 9.54688 26C9.54688 25.7329 9.4382 25.4709 9.2492 25.282Z" fill="#2960D8"/>
<path d="M5.43665 25.282C5.24673 25.093 4.98572 24.9844 4.71759 24.9844C4.45038 24.9844 4.18947 25.0929 3.99954 25.282C3.81064 25.4709 3.70197 25.7329 3.70197 26C3.70197 26.2671 3.81054 26.5291 3.99954 26.7179C4.18947 26.9069 4.45038 27.0156 4.71759 27.0156C4.98572 27.0156 5.24673 26.907 5.43665 26.7179C5.62546 26.5291 5.73423 26.2671 5.73423 26C5.73423 25.7329 5.62556 25.4709 5.43665 25.282Z" fill="#2960D8"/>
<path d="M1.73357 25.282C1.54477 25.0929 1.28273 24.9844 1.01562 24.9844C0.748516 24.9844 0.486484 25.0929 0.297578 25.282C0.108672 25.471 0 25.7329 0 26C0 26.2671 0.10857 26.5291 0.297578 26.7179C0.486484 26.907 0.748516 27.0156 1.01562 27.0156C1.28273 27.0156 1.54477 26.907 1.73357 26.7179C1.92258 26.5291 2.03125 26.2671 2.03125 26C2.03125 25.7329 1.92258 25.4709 1.73357 25.282Z" fill="#2960D8"/>
<path d="M8.53765 0H1.01562C0.454797 0 0 0.454797 0 1.01562V8.53765C0 9.09858 0.454797 9.55327 1.01562 9.55327C1.57645 9.55327 2.03125 9.09848 2.03125 8.53765V2.03125H8.53765C9.09848 2.03125 9.55327 1.57645 9.55327 1.01562C9.55327 0.454797 9.09848 0 8.53765 0Z" fill="#2960D8"/>
<path d="M50.9844 0H43.4623C42.9015 0 42.4467 0.454797 42.4467 1.01562C42.4467 1.57645 42.9015 2.03125 43.4623 2.03125H49.9687V8.53765C49.9687 9.09848 50.4235 9.55327 50.9844 9.55327C51.5452 9.55327 52 9.09848 52 8.53765V1.01562C52 0.454797 51.5452 0 50.9844 0Z" fill="#2960D8"/>
<path d="M50.9844 42.4468C50.4235 42.4468 49.9687 42.9016 49.9687 43.4624V49.9688H43.4623C42.9015 49.9688 42.4467 50.4236 42.4467 50.9844C42.4467 51.5453 42.9015 52.0001 43.4623 52.0001H50.9844C51.5452 52.0001 52 51.5453 52 50.9844V43.4624C52 42.9015 51.5452 42.4468 50.9844 42.4468Z" fill="#2960D8"/>
<path d="M8.53765 49.9688H2.03125V43.4624C2.03125 42.9016 1.57645 42.4468 1.01562 42.4468C0.454797 42.4468 0 42.9016 0 43.4624V50.9844C0 51.5453 0.454797 52.0001 1.01562 52.0001H8.53765C9.09848 52.0001 9.55327 51.5453 9.55327 50.9844C9.55327 50.4236 9.09858 49.9688 8.53765 49.9688Z" fill="#2960D8"/>
</svg>
