<svg width="49" height="49" viewBox="0 0 49 49" fill="none" xmlns="http://www.w3.org/2000/svg">
<path fill-rule="evenodd" clip-rule="evenodd" d="M23.543 23.9258V18.1836C23.543 17.6551 23.9715 17.2266 24.5 17.2266H29.2852V12.4414C29.2852 11.9129 29.7137 11.4844 30.2422 11.4844H35.0273V6.69922C35.0273 6.17075 35.4559 5.74219 35.9844 5.74219H41.7266C42.255 5.74219 42.6836 6.17075 42.6836 6.69922V23.9258C42.6836 24.4543 42.255 24.8828 41.7266 24.8828H24.5C23.9715 24.8828 23.543 24.4543 23.543 23.9258ZM40.7695 7.65625H36.9414V22.9688H40.7695V7.65625ZM31.1992 13.3984H35.0273V22.9688H31.1992V13.3984ZM29.2852 19.1406H25.457V22.9688H29.2852V19.1406Z" fill="#2960D8"/>
<path d="M15.8867 11.4844H7.27344C6.74496 11.4844 6.31641 11.9129 6.31641 12.4414C6.31641 12.9699 6.74496 13.3984 7.27344 13.3984H15.8867C16.4152 13.3984 16.8438 12.9699 16.8438 12.4414C16.8438 11.9129 16.4152 11.4844 15.8867 11.4844Z" fill="#2960D8"/>
<path d="M15.8867 17.2266H7.27344C6.74496 17.2266 6.31641 17.6551 6.31641 18.1836C6.31641 18.7121 6.74496 19.1406 7.27344 19.1406H15.8867C16.4152 19.1406 16.8438 18.7121 16.8438 18.1836C16.8438 17.6551 16.4152 17.2266 15.8867 17.2266Z" fill="#2960D8"/>
<path d="M21.6289 5.74219H7.27344C6.74496 5.74219 6.31641 6.17075 6.31641 6.69922C6.31641 7.22769 6.74496 7.65625 7.27344 7.65625H21.0374L23.6439 12.8694C23.8807 13.343 24.4562 13.5335 24.9279 13.2975C25.4007 13.0611 25.5923 12.4862 25.356 12.0135L22.4849 6.27133C22.3228 5.94699 21.9914 5.74219 21.6289 5.74219V5.74219Z" fill="#2960D8"/>
<path d="M24.5 1.91406C25.0286 1.91406 25.457 1.48559 25.457 0.957031C25.457 0.428477 25.0286 0 24.5 0C23.9714 0 23.543 0.428477 23.543 0.957031C23.543 1.48559 23.9714 1.91406 24.5 1.91406Z" fill="#2960D8"/>
<path fill-rule="evenodd" clip-rule="evenodd" d="M46.1289 0H28.8066C28.2782 0 27.8496 0.428559 27.8496 0.957031C27.8496 1.4855 28.2782 1.91406 28.8066 1.91406H46.1289C46.6566 1.91406 47.0859 2.34339 47.0859 2.87109V28.7109H1.91406V2.87109C1.91406 2.34339 2.34339 1.91406 2.87109 1.91406H20.1934C20.7218 1.91406 21.1504 1.4855 21.1504 0.957031C21.1504 0.428559 20.7218 0 20.1934 0H2.87109C1.28797 0 0 1.28797 0 2.87109V34.0703C0 35.6534 1.28797 36.9414 2.87109 36.9414H17.8008V47.0859H13.0156C12.4872 47.0859 12.0586 47.5145 12.0586 48.043C12.0586 48.5714 12.4872 49 13.0156 49H35.9844C36.5128 49 36.9414 48.5714 36.9414 48.043C36.9414 47.5145 36.5128 47.0859 35.9844 47.0859H31.1992V36.9414H46.1289C47.712 36.9414 49 35.6534 49 34.0703V2.87109C49 1.28797 47.712 0 46.1289 0ZM19.7148 47.0859V36.9414H23.543V42.3008C23.543 42.8293 23.9715 43.2578 24.5 43.2578C25.0285 43.2578 25.457 42.8293 25.457 42.3008V36.9414H29.2852V47.0859H19.7148ZM2.87109 35.0273H46.1289C46.6566 35.0273 47.0859 34.598 47.0859 34.0703V30.625H1.91406V34.0703C1.91406 34.598 2.34339 35.0273 2.87109 35.0273Z" fill="#2960D8"/>
</svg>
