<svg width="49" height="49" viewBox="0 0 49 49" fill="none" xmlns="http://www.w3.org/2000/svg">
<path fill-rule="evenodd" clip-rule="evenodd" d="M48.9847 21.7033V21.7037C49.0647 22.4663 48.825 23.2357 48.3275 23.817L46.05 26.5401L47.7959 29.708C48.1682 30.3835 48.2448 31.1918 48.0067 31.9252C47.7682 32.6591 47.231 33.2677 46.533 33.5952L43.2713 35.1257L43.5763 38.7157C43.6971 40.1363 42.7165 41.4264 41.2959 41.7161L41.2308 41.7292L41.0499 41.749L37.2397 41.8249L36.058 45.2283C35.8053 45.957 35.2561 46.5551 34.5511 46.8687C33.8468 47.182 33.0355 47.1903 32.3252 46.8912L29.0048 45.4915L26.5412 48.12C25.9965 48.7013 25.2518 48.9996 24.4978 48.9996C23.9019 48.9996 23.3003 48.8135 22.7856 48.4333L22.7329 48.394L22.5964 48.2725L19.9904 45.4915L16.6703 46.8908C15.9585 47.1903 15.1469 47.182 14.4426 46.8684C13.7383 46.5551 13.1891 45.957 12.9364 45.228L11.755 41.8249L8.15308 41.7531C7.38147 41.7374 6.64314 41.3998 6.12724 40.8267C5.61134 40.254 5.35264 39.4843 5.41806 38.7153L5.72349 35.1257L2.46211 33.5952C1.17086 32.9892 0.543934 31.4946 1.00413 30.1192L1.02544 30.0568L1.09909 29.8893L2.94474 26.5401L0.667675 23.817C-0.255711 22.7389 -0.217579 21.1261 0.758518 20.0599L0.805996 20.0079L0.974598 19.8614L3.88308 17.5989L2.8352 14.1402C2.41575 12.7554 3.09016 11.3221 4.43823 10.7326L4.50253 10.7046L4.67674 10.6477L8.38748 9.78155L8.83534 6.20651C8.93104 5.44163 9.34376 4.74255 9.96807 4.28908C10.5913 3.83599 11.3834 3.65916 12.1412 3.80421L15.68 4.48311L17.5428 1.39967C17.9417 0.739469 18.6034 0.268431 19.3578 0.108427C20.1122 -0.0515767 20.9074 0.108801 21.5403 0.549185L24.497 2.60867L27.5681 0.469557C27.6462 0.414228 27.736 0.362638 27.829 0.319647C29.1517 -0.291956 30.7091 0.171606 31.4508 1.39892L33.3144 4.48273L36.8528 3.80421C37.6098 3.65841 38.4027 3.83524 39.0271 4.28946C39.6506 4.7418 40.0633 5.44089 40.1594 6.20651L40.6073 9.78117L44.1158 10.6003C44.8668 10.776 45.5188 11.2593 45.9046 11.9274C46.29 12.5958 46.3827 13.4022 46.1592 14.1402L45.1109 17.5989L47.8998 19.7702C48.5091 20.2364 48.9047 20.9399 48.9847 21.7033ZM44.4035 27.4047C44.0431 26.7506 44.1253 25.9319 44.6071 25.3625L47.5556 21.8336L43.9445 19.0186C43.3531 18.5623 43.1012 17.778 43.318 17.0611L44.6641 12.6139L40.1439 11.5571C39.4103 11.3853 38.8552 10.7675 38.7618 10.02L38.1847 5.40935L33.6261 6.2848C32.887 6.42665 32.1279 6.08822 31.7392 5.44292L29.3385 1.46642L25.5299 4.12235C24.9125 4.55348 24.0823 4.55308 23.4645 4.12235L19.6559 1.46682L17.2557 5.44412C16.8662 6.08862 16.1087 6.42665 15.3695 6.2852L10.8102 5.40975L10.233 10.0208C10.1389 10.7687 9.5837 11.3857 8.85135 11.5571L4.3307 12.6143L5.67648 17.0615C5.89359 17.7768 5.64215 18.5615 5.05068 19.0182L1.43799 21.832L4.38657 25.3621C4.86869 25.9319 4.95131 26.7502 4.59052 27.4051L2.35035 31.4747L6.55211 33.449C7.23338 33.7694 7.64845 34.4891 7.58459 35.2398L7.19148 39.87L11.8327 39.9627C12.5858 39.9779 13.2575 40.467 13.5037 41.1794L15.0255 45.5683L19.3031 43.7634C19.5278 43.6683 19.7652 43.6224 20.0011 43.6224C20.492 43.6224 20.9753 43.8213 21.3229 44.1929L24.497 47.5841L27.6711 44.1933C28.1863 43.6431 28.9981 43.4709 29.6918 43.7634L33.9686 45.5683L35.4907 41.1782C35.7374 40.4662 36.4091 39.9779 37.1614 39.9627L41.8022 39.87L41.409 35.2398C41.3456 34.4891 41.7603 33.7694 42.4415 33.449L46.6437 31.4747L44.4035 27.4047Z" fill="#2960D8"/>
<path fill-rule="evenodd" clip-rule="evenodd" d="M12.4478 24.5265C12.4478 17.7981 17.9215 12.3247 24.6495 12.3247C31.3775 12.3247 36.8517 17.7981 36.8517 24.5265C36.8517 31.2545 31.3779 36.7283 24.6495 36.7283C17.9215 36.7283 12.4478 31.2545 12.4478 24.5265ZM14.0809 24.5265C14.0809 30.3539 18.8223 35.0949 24.6495 35.0949C30.4772 35.0949 35.2182 30.3539 35.2182 24.5265C35.2182 18.6987 30.4772 13.9577 24.6495 13.9577C18.8223 13.9577 14.0809 18.6987 14.0809 24.5265Z" fill="#2960D8"/>
<path d="M27.839 21.4757L23.3423 26.034L22.1221 24.7967C21.6769 24.3457 20.9553 24.3457 20.5104 24.7967C20.0652 25.2481 20.0652 25.9796 20.5104 26.431L22.5364 28.4849C22.7589 28.7107 23.0507 28.8235 23.3423 28.8235C23.6338 28.8235 23.9257 28.7107 24.1481 28.4849L29.4507 23.1096C29.8955 22.6583 29.8955 21.9267 29.4507 21.4757C29.0055 21.0244 28.2838 21.0244 27.839 21.4757Z" fill="#2960D8"/>
</svg>
